<svg version="1.1" id="Layer_1" xmlns="http://www.w3.org/2000/svg" xmlns:xlink="http://www.w3.org/1999/xlink" x="0px" y="0px"
	 width="100%" viewBox="0 0 1402 1122" enable-background="new 0 0 1402 1122" xml:space="preserve">

M977.000000,1.000000 
	C1118.987061,1.000000 1260.973999,1.000000 1402.980469,1.000000 
	C1402.980469,374.952850 1402.980469,748.905701 1402.980469,1122.929199 
	C935.756592,1122.929199 468.513153,1122.929199 1.134865,1122.929199 
	C1.134865,749.124146 1.134865,375.248230 1.134865,1.000000 
	C146.029160,1.000000 291.058624,1.000000 436.542389,1.263181 
	C436.992645,1.877245 436.988586,2.228127 436.529114,2.689538 
	C430.277252,3.199376 424.486359,3.729725 418.683380,3.975241 
	C393.981598,5.020353 369.777771,9.361848 345.798920,15.060147 
	C264.700897,34.332172 194.664703,73.543846 135.636581,132.328140 
	C105.570251,162.270309 80.462227,195.960251 60.529720,233.481171 
	C26.740421,297.086090 8.847142,364.876556 7.177048,436.858307 
	C6.635977,460.178650 6.877631,483.520203 6.958046,506.851349 
	C7.163077,566.338135 7.039860,625.830811 7.910524,685.308594 
	C8.458794,722.762634 15.371659,759.399597 26.218084,795.241516 
	C49.651409,872.676758 90.323410,939.436890 149.866791,994.488220 
	C201.845566,1042.545654 262.083740,1075.707397 330.091919,1095.104736 
	C372.368713,1107.162964 415.569702,1111.826538 459.341522,1111.905029 
	C547.835815,1112.063843 636.330811,1112.083374 724.825134,1111.951416 
	C805.478149,1111.831177 886.131531,1111.562256 966.783203,1111.095825 
	C997.691406,1110.917114 1028.108154,1106.254395 1058.111938,1098.998779 
	C1131.496826,1081.252319 1196.263794,1047.053467 1251.974365,996.127869 
	C1301.336548,951.005371 1338.299805,897.121582 1363.304565,835.084045 
	C1384.059814,783.589661 1395.346924,730.020874 1395.851562,674.546753 
	C1396.542847,598.558228 1396.170166,522.559692 1396.183350,446.565491 
	C1396.187744,421.222229 1394.366455,396.017639 1390.007568,371.015594 
	C1382.526245,328.104828 1369.411621,286.993378 1350.288574,247.875687 
	C1324.178589,194.465271 1288.238525,148.614853 1243.282837,109.736229 
	C1195.678223,68.566521 1141.568237,39.357365 1081.373413,21.329449 
	C1047.319824,11.130652 1012.450745,5.340026 977.005737,2.577809 
	C977.001587,1.841507 977.000793,1.420754 977.000000,1.000000 
z"/>

M976.538757,1.000000 
	C977.000793,1.420754 977.001587,1.841507 976.540161,2.641562 
	C962.095459,2.700966 948.113037,2.110158 934.130371,2.103079 
	C794.216492,2.032242 654.302551,2.031277 514.388672,2.079248 
	C488.587219,2.088095 462.785919,2.404540 436.984528,2.579009 
	C436.988586,2.228127 436.992645,1.877245 436.998352,1.263181 
	C616.692505,1.000000 796.385010,1.000000 976.538757,1.000000 
z"/>

M436.529114,2.689538 
	C462.785919,2.404540 488.587219,2.088095 514.388672,2.079248 
	C654.302551,2.031277 794.216492,2.032242 934.130371,2.103079 
	C948.113037,2.110158 962.095459,2.700966 976.543579,2.957109 
	C1012.450745,5.340026 1047.319824,11.130652 1081.373413,21.329449 
	C1141.568237,39.357365 1195.678223,68.566521 1243.282837,109.736229 
	C1288.238525,148.614853 1324.178589,194.465271 1350.288574,247.875687 
	C1369.411621,286.993378 1382.526245,328.104828 1390.007568,371.015594 
	C1394.366455,396.017639 1396.187744,421.222229 1396.183350,446.565491 
	C1396.170166,522.559692 1396.542847,598.558228 1395.851562,674.546753 
	C1395.346924,730.020874 1384.059814,783.589661 1363.304565,835.084045 
	C1338.299805,897.121582 1301.336548,951.005371 1251.974365,996.127869 
	C1196.263794,1047.053467 1131.496826,1081.252319 1058.111938,1098.998779 
	C1028.108154,1106.254395 997.691406,1110.917114 966.783203,1111.095825 
	C886.131531,1111.562256 805.478149,1111.831177 724.825134,1111.951416 
	C636.330811,1112.083374 547.835815,1112.063843 459.341522,1111.905029 
	C415.569702,1111.826538 372.368713,1107.162964 330.091919,1095.104736 
	C262.083740,1075.707397 201.845566,1042.545654 149.866791,994.488220 
	C90.323410,939.436890 49.651409,872.676758 26.218084,795.241516 
	C15.371659,759.399597 8.458794,722.762634 7.910524,685.308594 
	C7.039860,625.830811 7.163077,566.338135 6.958046,506.851349 
	C6.877631,483.520203 6.635977,460.178650 7.177048,436.858307 
	C8.847142,364.876556 26.740421,297.086090 60.529720,233.481171 
	C80.462227,195.960251 105.570251,162.270309 135.636581,132.328140 
	C194.664703,73.543846 264.700897,34.332172 345.798920,15.060147 
	C369.777771,9.361848 393.981598,5.020353 418.683380,3.975241 
	C424.486359,3.729725 430.277252,3.199376 436.529114,2.689538 
M552.250793,197.312897 
	C552.216248,186.313705 552.229797,175.314117 552.134949,164.315445 
	C552.018799,150.853378 541.296997,140.180832 528.007385,140.197342 
	C514.244324,140.214447 503.418701,150.692657 503.250122,164.342484 
	C503.124603,174.507034 503.224304,184.674271 503.192200,194.840195 
	C503.187195,196.419968 503.013885,197.999207 502.899017,199.899261 
	C500.720581,199.899261 499.076538,199.898148 497.432495,199.899429 
	C475.433990,199.916656 453.431274,199.691940 431.439117,200.074509 
	C422.997528,200.221359 414.424255,201.019806 406.176514,202.771545 
	C346.340363,215.480270 302.991425,269.344543 302.931030,331.458679 
	C302.779449,487.282410 302.857178,643.106384 302.922974,798.930298 
	C302.936737,831.530640 314.789429,859.886597 335.964996,884.130493 
	C361.495697,913.360474 394.121277,927.731140 433.041473,927.688049 
	C485.871582,927.629639 538.701721,927.664246 591.531860,927.662659 
	C716.357605,927.658997 841.183350,927.635620 966.009094,927.676331 
	C986.880615,927.683105 1006.857483,923.707153 1025.073364,913.416443 
	C1071.202759,887.356567 1095.442871,847.476257 1095.615356,794.600586 
	C1096.118286,640.444763 1095.785156,486.286255 1095.834717,332.128815 
	C1095.840332,314.393860 1092.463379,297.406494 1085.745605,281.018707 
	C1065.502319,231.636002 1018.290955,199.927521 964.968872,199.960724 
	C944.136841,199.973694 923.304871,199.980499 902.472839,199.968140 
	C900.712463,199.967087 898.952271,199.798920 896.926270,199.694733 
	C896.926270,193.292984 896.933411,187.474899 896.924255,181.656860 
	C896.914795,175.657288 897.002319,169.654816 896.847717,163.658768 
	C896.511230,150.605957 885.483826,140.037506 872.478027,140.167068 
	C858.911743,140.302185 848.130859,150.829330 848.054626,164.103134 
	C847.995361,174.435516 848.078430,184.768860 847.982788,195.100723 
	C847.969116,196.582230 847.305298,198.057693 846.668457,198.838989 
	C844.761658,198.558975 842.855042,198.035477 840.948059,198.034225 
	C778.293762,197.993301 715.639465,197.992172 652.985168,198.008423 
	C619.492493,198.017105 585.999756,198.068527 552.250793,197.312897 
z"/>
<path fill="#FEFBFC" opacity="1.000000" stroke="none" 
	d="
M846.942383,199.535950 
	C847.305298,198.057693 847.969116,196.582230 847.982788,195.100723 
	C848.078430,184.768860 847.995361,174.435516 848.054626,164.103134 
	C848.130859,150.829330 858.911743,140.302185 872.478027,140.167068 
	C885.483826,140.037506 896.511230,150.605957 896.847717,163.658768 
	C897.002319,169.654816 896.914795,175.657288 896.924255,181.656860 
	C896.933411,187.474899 896.926270,193.292984 896.926270,199.694733 
	C898.952271,199.798920 900.712463,199.967087 902.472839,199.968140 
	C923.304871,199.980499 944.136841,199.973694 964.968872,199.960724 
	C1018.290955,199.927521 1065.502319,231.636002 1085.745605,281.018707 
	C1092.463379,297.406494 1095.840332,314.393860 1095.834717,332.128815 
	C1095.785156,486.286255 1096.118286,640.444763 1095.615356,794.600586 
	C1095.442871,847.476257 1071.202759,887.356567 1025.073364,913.416443 
	C1006.857483,923.707153 986.880615,927.683105 966.009094,927.676331 
	C841.183350,927.635620 716.357605,927.658997 591.531860,927.662659 
	C538.701721,927.664246 485.871582,927.629639 433.041473,927.688049 
	C394.121277,927.731140 361.495697,913.360474 335.964996,884.130493 
	C314.789429,859.886597 302.936737,831.530640 302.922974,798.930298 
	C302.857178,643.106384 302.779449,487.282410 302.931030,331.458679 
	C302.991425,269.344543 346.340363,215.480270 406.176514,202.771545 
	C414.424255,201.019806 422.997528,200.221359 431.439117,200.074509 
	C453.431274,199.691940 475.433990,199.916656 497.432495,199.899429 
	C499.076538,199.898148 500.720581,199.899261 502.899017,199.899261 
	C503.013885,197.999207 503.187195,196.419968 503.192200,194.840195 
	C503.224304,184.674271 503.124603,174.507034 503.250122,164.342484 
	C503.418701,150.692657 514.244324,140.214447 528.007385,140.197342 
	C541.296997,140.180832 552.018799,150.853378 552.134949,164.315445 
	C552.229797,175.314117 552.216248,186.313705 552.558716,198.117905 
	C555.796448,199.232956 558.726135,199.812378 561.656006,199.813889 
	C649.431946,199.859177 737.207886,199.854660 824.983826,199.831161 
	C832.303345,199.829208 839.622864,199.638809 846.942383,199.535950 
M1050.019043,454.500000 
	C1050.019043,438.063843 1050.019043,421.627686 1050.019043,404.928986 
	C815.743225,404.928986 582.181580,404.928986 347.956757,404.928986 
	C347.956757,407.993835 347.956573,410.777832 347.956757,413.561798 
	C347.965729,541.719971 347.955292,669.878113 348.052826,798.036194 
	C348.056854,803.326782 348.648132,808.701416 349.685150,813.893188 
	C357.220459,851.618286 389.503937,882.780945 434.022644,882.532471 
	C571.009399,881.767700 708.003052,882.245972 844.994019,882.236389 
	C886.491272,882.233459 927.989563,882.379395 969.485474,882.139160 
	C992.939270,882.003418 1012.453796,872.671875 1027.862183,855.012634 
	C1043.093750,837.556152 1050.061401,817.099243 1050.045288,793.977539 
	C1049.966919,681.151733 1050.014282,568.325867 1050.019043,454.500000 
M347.953339,355.297852 
	C347.111816,359.937836 350.046509,359.840210 353.325989,359.839661 
	C583.629028,359.799957 813.932068,359.800842 1044.235107,359.797882 
	C1045.068359,359.797882 1046.127197,360.113495 1046.688599,359.720917 
	C1047.928467,358.853973 1049.872437,357.621246 1049.864014,356.550934 
	C1049.762817,343.737213 1050.399414,330.797424 1048.839600,318.137482 
	C1043.607788,275.675140 1007.506836,244.235626 964.765686,244.087357 
	C943.602173,244.013931 922.438171,244.071030 901.274353,244.092438 
	C899.993347,244.093735 898.712646,244.301620 896.927795,244.457352 
	C896.927795,246.348862 896.930115,247.972412 896.927429,249.595963 
	C896.909851,260.261017 896.937439,270.926392 896.861389,281.591034 
	C896.762146,295.512665 886.036621,306.003479 871.957581,306.042664 
	C858.724426,306.079468 848.139099,295.356781 848.064758,281.740326 
	C848.005554,270.908722 848.063354,260.076569 848.042175,249.244705 
	C848.039001,247.644333 847.886719,246.044235 847.783081,244.054214 
	C845.700317,244.054214 844.065552,244.054367 842.430725,244.054184 
	C822.766663,244.052002 803.102661,244.049393 783.438599,244.047592 
	C708.448486,244.040771 633.458191,244.080978 558.468445,243.921875 
	C553.493530,243.911316 551.802063,245.115952 552.001465,250.279114 
	C552.406372,260.762024 552.209778,271.272034 552.112671,281.769501 
	C551.979797,296.134613 541.859009,306.024902 527.327515,306.153870 
	C514.268494,306.269775 503.432953,295.475952 503.242554,281.916199 
	C503.092865,271.253052 503.214508,260.586151 503.215515,249.920898 
	C503.215698,248.147552 503.215546,246.374207 503.215546,244.015625 
	C500.806610,244.015625 499.015869,244.014694 497.225128,244.015778 
	C476.394531,244.028305 455.563965,244.044983 434.733368,244.053116 
	C394.454254,244.068848 361.079498,270.111298 350.872986,309.115051 
	C346.960785,324.065430 348.295990,339.226410 347.953339,355.297852 
z"/>
<path fill="#F23780" opacity="1.000000" stroke="none" 
	d="
M846.805420,199.187469 
	C839.622864,199.638809 832.303345,199.829208 824.983826,199.831161 
	C737.207886,199.854660 649.431946,199.859177 561.656006,199.813889 
	C558.726135,199.812378 555.796448,199.232956 552.686890,198.511780 
	C585.999756,198.068527 619.492493,198.017105 652.985168,198.008423 
	C715.639465,197.992172 778.293762,197.993301 840.948059,198.034225 
	C842.855042,198.035477 844.761658,198.558975 846.805420,199.187469 
z"/>
<path fill="#F34B8B" opacity="1.000000" stroke="none" 
	d="
M1050.018066,455.000000 
	C1050.014282,568.325867 1049.966919,681.151733 1050.045288,793.977539 
	C1050.061401,817.099243 1043.093750,837.556152 1027.862183,855.012634 
	C1012.453796,872.671875 992.939270,882.003418 969.485474,882.139160 
	C927.989563,882.379395 886.491272,882.233459 844.994019,882.236389 
	C708.003052,882.245972 571.009399,881.767700 434.022644,882.532471 
	C389.503937,882.780945 357.220459,851.618286 349.685150,813.893188 
	C348.648132,808.701416 348.056854,803.326782 348.052826,798.036194 
	C347.955292,669.878113 347.965729,541.719971 347.956757,413.561798 
	C347.956573,410.777832 347.956757,407.993835 347.956757,404.928986 
	C582.181580,404.928986 815.743225,404.928986 1050.019043,404.928986 
	C1050.019043,421.627686 1050.019043,438.063843 1050.018066,455.000000 
M528.412476,611.948303 
	C531.479431,615.833984 534.112915,620.182495 537.685547,623.528259 
	C557.144104,641.750671 576.861206,659.696777 596.378967,677.856628 
	C597.599731,678.992493 598.734131,681.282837 598.475342,682.789978 
	C593.664673,710.805176 588.688538,738.792480 583.629456,766.764282 
	C581.372131,779.244873 584.699951,789.747559 595.065552,797.132935 
	C605.193665,804.349182 615.885559,803.772644 626.532227,797.568787 
	C649.852722,783.979614 673.280396,770.574036 696.554993,756.907288 
	C699.471741,755.194519 701.512573,755.440857 704.227356,757.040894 
	C727.335083,770.660278 750.532532,784.127319 773.661804,797.710266 
	C784.168213,803.880310 794.725525,804.035095 804.737305,797.218323 
	C815.136841,790.137634 818.823853,779.586426 816.780396,767.461609 
	C812.134827,739.897583 807.091187,712.400085 802.094299,684.896423 
	C801.462463,681.418579 802.259888,679.040771 804.923523,676.607849 
	C824.976562,658.292175 844.964905,639.903809 864.816040,621.369568 
	C874.200073,612.608093 877.263062,601.740784 873.116638,589.508850 
	C869.125366,577.734680 860.148926,571.708130 848.059937,570.310913 
	C820.798157,567.160217 793.536743,563.979614 766.228577,561.283203 
	C761.599731,560.826172 759.690308,559.071045 758.014099,555.187622 
	C747.519714,530.875427 736.999329,506.570984 726.106201,482.436066 
	C721.148376,471.451447 712.271545,465.562805 699.948303,465.786926 
	C687.858643,466.006866 679.275208,472.188965 674.433655,482.851257 
	C663.211487,507.565552 652.523926,532.522400 641.410217,557.286865 
	C640.669434,558.937561 638.274963,560.687195 636.476074,560.896118 
	C608.372559,564.159363 580.237244,567.148071 552.115845,570.259216 
	C531.263794,572.566162 519.842712,592.101013 528.412476,611.948303 
z"/>
<path fill="#F34C8B" opacity="1.000000" stroke="none" 
	d="
M347.951447,354.818054 
	C348.295990,339.226410 346.960785,324.065430 350.872986,309.115051 
	C361.079498,270.111298 394.454254,244.068848 434.733368,244.053116 
	C455.563965,244.044983 476.394531,244.028305 497.225128,244.015778 
	C499.015869,244.014694 500.806610,244.015625 503.215546,244.015625 
	C503.215546,246.374207 503.215698,248.147552 503.215515,249.920898 
	C503.214508,260.586151 503.092865,271.253052 503.242554,281.916199 
	C503.432953,295.475952 514.268494,306.269775 527.327515,306.153870 
	C541.859009,306.024902 551.979797,296.134613 552.112671,281.769501 
	C552.209778,271.272034 552.406372,260.762024 552.001465,250.279114 
	C551.802063,245.115952 553.493530,243.911316 558.468445,243.921875 
	C633.458191,244.080978 708.448486,244.040771 783.438599,244.047592 
	C803.102661,244.049393 822.766663,244.052002 842.430725,244.054184 
	C844.065552,244.054367 845.700317,244.054214 847.783081,244.054214 
	C847.886719,246.044235 848.039001,247.644333 848.042175,249.244705 
	C848.063354,260.076569 848.005554,270.908722 848.064758,281.740326 
	C848.139099,295.356781 858.724426,306.079468 871.957581,306.042664 
	C886.036621,306.003479 896.762146,295.512665 896.861389,281.591034 
	C896.937439,270.926392 896.909851,260.261017 896.927429,249.595963 
	C896.930115,247.972412 896.927795,246.348862 896.927795,244.457352 
	C898.712646,244.301620 899.993347,244.093735 901.274353,244.092438 
	C922.438171,244.071030 943.602173,244.013931 964.765686,244.087357 
	C1007.506836,244.235626 1043.607788,275.675140 1048.839600,318.137482 
	C1050.399414,330.797424 1049.762817,343.737213 1049.864014,356.550934 
	C1049.872437,357.621246 1047.928467,358.853973 1046.688599,359.720917 
	C1046.127197,360.113495 1045.068359,359.797882 1044.235107,359.797882 
	C813.932068,359.800842 583.629028,359.799957 353.325989,359.839661 
	C350.046509,359.840210 347.111816,359.937836 347.951447,354.818054 
z"/>
<path fill="#FDFCFC" opacity="1.000000" stroke="none" 
	d="
M528.247253,611.604553 
	C519.842712,592.101013 531.263794,572.566162 552.115845,570.259216 
	C580.237244,567.148071 608.372559,564.159363 636.476074,560.896118 
	C638.274963,560.687195 640.669434,558.937561 641.410217,557.286865 
	C652.523926,532.522400 663.211487,507.565552 674.433655,482.851257 
	C679.275208,472.188965 687.858643,466.006866 699.948303,465.786926 
	C712.271545,465.562805 721.148376,471.451447 726.106201,482.436066 
	C736.999329,506.570984 747.519714,530.875427 758.014099,555.187622 
	C759.690308,559.071045 761.599731,560.826172 766.228577,561.283203 
	C793.536743,563.979614 820.798157,567.160217 848.059937,570.310913 
	C860.148926,571.708130 869.125366,577.734680 873.116638,589.508850 
	C877.263062,601.740784 874.200073,612.608093 864.816040,621.369568 
	C844.964905,639.903809 824.976562,658.292175 804.923523,676.607849 
	C802.259888,679.040771 801.462463,681.418579 802.094299,684.896423 
	C807.091187,712.400085 812.134827,739.897583 816.780396,767.461609 
	C818.823853,779.586426 815.136841,790.137634 804.737305,797.218323 
	C794.725525,804.035095 784.168213,803.880310 773.661804,797.710266 
	C750.532532,784.127319 727.335083,770.660278 704.227356,757.040894 
	C701.512573,755.440857 699.471741,755.194519 696.554993,756.907288 
	C673.280396,770.574036 649.852722,783.979614 626.532227,797.568787 
	C615.885559,803.772644 605.193665,804.349182 595.065552,797.132935 
	C584.699951,789.747559 581.372131,779.244873 583.629456,766.764282 
	C588.688538,738.792480 593.664673,710.805176 598.475342,682.789978 
	C598.734131,681.282837 597.599731,678.992493 596.378967,677.856628 
	C576.861206,659.696777 557.144104,641.750671 537.685547,623.528259 
	C534.112915,620.182495 531.479431,615.833984 528.247253,611.604553 
M689.262634,554.786560 
	C684.935974,564.881409 680.810059,575.068604 676.226746,585.045532 
	C671.519714,595.291809 663.525085,601.653870 652.157104,603.043518 
	C634.809204,605.164307 617.433289,607.055237 600.068420,609.036743 
	C595.857605,609.517273 591.643555,609.970093 586.828979,610.502258 
	C587.721619,611.666138 588.036804,612.235718 588.493164,612.649353 
	C602.932007,625.735352 617.404419,638.784485 631.827515,651.887817 
	C640.302979,659.587830 644.265869,669.303772 642.657837,680.572021 
	C640.709351,694.226624 637.865295,707.752869 635.435974,721.339539 
	C634.099731,728.812439 632.819336,736.295349 631.280762,745.108582 
	C635.354309,742.823059 638.231079,741.290588 641.028992,739.625549 
	C654.910339,731.364868 668.707092,722.959961 682.658386,714.819641 
	C694.256348,708.052368 705.994995,707.855225 717.703125,714.818542 
	C733.016296,723.926025 748.368896,732.967163 763.717834,742.014343 
	C765.152893,742.860168 766.683533,743.544006 769.104858,744.780640 
	C765.400085,724.547852 762.248596,705.533081 758.358032,686.670715 
	C755.346680,672.070923 758.908203,660.213257 770.136230,650.319763 
	C782.755432,639.200439 795.049255,627.711731 807.479248,616.377808 
	C809.346130,614.675598 811.183960,612.941406 813.647400,610.653381 
	C811.784607,610.285645 811.015686,610.076477 810.233215,609.987671 
	C789.889771,607.678467 769.545227,605.379761 749.200317,603.083557 
	C737.187378,601.727783 728.992798,595.129822 723.943115,584.427002 
	C721.672974,579.615479 719.818115,574.609741 717.702026,569.723694 
	C712.074036,556.728699 706.406433,543.750977 700.298767,529.719116 
	C696.404236,538.593262 693.000977,546.348022 689.262634,554.786560 
z"/>
<path fill="#F34C8B" opacity="1.000000" stroke="none" 
	d="
M689.430176,554.444702 
	C693.000977,546.348022 696.404236,538.593262 700.298767,529.719116 
	C706.406433,543.750977 712.074036,556.728699 717.702026,569.723694 
	C719.818115,574.609741 721.672974,579.615479 723.943115,584.427002 
	C728.992798,595.129822 737.187378,601.727783 749.200317,603.083557 
	C769.545227,605.379761 789.889771,607.678467 810.233215,609.987671 
	C811.015686,610.076477 811.784607,610.285645 813.647400,610.653381 
	C811.183960,612.941406 809.346130,614.675598 807.479248,616.377808 
	C795.049255,627.711731 782.755432,639.200439 770.136230,650.319763 
	C758.908203,660.213257 755.346680,672.070923 758.358032,686.670715 
	C762.248596,705.533081 765.400085,724.547852 769.104858,744.780640 
	C766.683533,743.544006 765.152893,742.860168 763.717834,742.014343 
	C748.368896,732.967163 733.016296,723.926025 717.703125,714.818542 
	C705.994995,707.855225 694.256348,708.052368 682.658386,714.819641 
	C668.707092,722.959961 654.910339,731.364868 641.028992,739.625549 
	C638.231079,741.290588 635.354309,742.823059 631.280762,745.108582 
	C632.819336,736.295349 634.099731,728.812439 635.435974,721.339539 
	C637.865295,707.752869 640.709351,694.226624 642.657837,680.572021 
	C644.265869,669.303772 640.302979,659.587830 631.827515,651.887817 
	C617.404419,638.784485 602.932007,625.735352 588.493164,612.649353 
	C588.036804,612.235718 587.721619,611.666138 586.828979,610.502258 
	C591.643555,609.970093 595.857605,609.517273 600.068420,609.036743 
	C617.433289,607.055237 634.809204,605.164307 652.157104,603.043518 
	C663.525085,601.653870 671.519714,595.291809 676.226746,585.045532 
	C680.810059,575.068604 684.935974,564.881409 689.430176,554.444702 
z"/>
</svg>
