<svg version="1.1" id="Layer_1" xmlns="http://www.w3.org/2000/svg" xmlns:xlink="http://www.w3.org/1999/xlink" x="0px" y="0px"
	 width="100%" viewBox="0 0 1402 1122" enable-background="new 0 0 1402 1122" xml:space="preserve">

M816.000000,1123.000000 
	C544.000000,1123.000000 272.500000,1123.000000 1.000000,1123.000000 
	C1.000000,749.000000 1.000000,375.000000 1.000000,1.000000 
	C468.333344,1.000000 935.666687,1.000000 1403.000000,1.000000 
	C1403.000000,375.000000 1403.000000,749.000000 1403.000000,1123.000000 
	C1207.500000,1123.000000 1012.000000,1123.000000 816.000000,1123.000000 
M23.022039,682.478455 
	C23.337828,683.937805 23.658033,685.396240 23.968754,686.856628 
	C34.467892,736.203369 51.605122,783.163879 75.501038,827.558716 
	C108.420403,888.717712 151.735016,941.472656 205.207535,985.839844 
	C259.465485,1030.858643 320.089935,1064.184692 387.596954,1084.744019 
	C435.372314,1099.294067 484.242859,1106.238525 534.220825,1106.148560 
	C645.216431,1105.948608 756.212830,1105.995361 867.208618,1106.151001 
	C900.435120,1106.197632 933.336853,1103.469238 965.961365,1097.146606 
	C1026.103394,1085.490967 1082.334229,1063.676147 1134.624268,1031.866699 
	C1185.724731,1000.780884 1230.457275,962.257935 1268.566650,916.050232 
	C1302.949829,874.360291 1330.830078,828.764526 1351.383057,778.801758 
	C1374.246216,723.222839 1388.128662,665.354980 1390.483032,605.313354 
	C1392.249512,560.268005 1392.613159,515.136658 1385.375366,470.236633 
	C1377.265259,419.925171 1363.570068,371.368317 1341.882202,325.328705 
	C1307.679321,252.721832 1260.261963,190.035446 1198.231812,138.742889 
	C1145.528931,95.163116 1087.089722,61.965595 1021.608093,41.623676 
	C978.341187,28.182789 934.242249,19.058317 888.776611,18.952024 
	C767.281921,18.667990 645.786011,18.902317 524.290955,18.729376 
	C499.062042,18.693464 474.085724,21.107208 449.296692,25.287203 
	C401.722290,33.309338 356.177979,47.978321 312.867554,69.224983 
	C252.512497,98.833199 199.827332,138.838638 154.211685,188.132889 
	C114.508400,231.037949 82.489601,279.136841 58.695644,332.544586 
	C28.573099,400.157471 12.806194,471.045135 12.271163,545.107666 
	C12.092039,569.903137 12.374433,594.780762 14.223004,619.487854 
	C15.780562,640.305359 19.913126,660.930237 23.022039,682.478455 
z"/>

M22.963951,682.059448 
	C19.913126,660.930237 15.780562,640.305359 14.223004,619.487854 
	C12.374433,594.780762 12.092039,569.903137 12.271163,545.107666 
	C12.806194,471.045135 28.573099,400.157471 58.695644,332.544586 
	C82.489601,279.136841 114.508400,231.037949 154.211685,188.132889 
	C199.827332,138.838638 252.512497,98.833199 312.867554,69.224983 
	C356.177979,47.978321 401.722290,33.309338 449.296692,25.287203 
	C474.085724,21.107208 499.062042,18.693464 524.290955,18.729376 
	C645.786011,18.902317 767.281921,18.667990 888.776611,18.952024 
	C934.242249,19.058317 978.341187,28.182789 1021.608093,41.623676 
	C1087.089722,61.965595 1145.528931,95.163116 1198.231812,138.742889 
	C1260.261963,190.035446 1307.679321,252.721832 1341.882202,325.328705 
	C1363.570068,371.368317 1377.265259,419.925171 1385.375366,470.236633 
	C1392.613159,515.136658 1392.249512,560.268005 1390.483032,605.313354 
	C1388.128662,665.354980 1374.246216,723.222839 1351.383057,778.801758 
	C1330.830078,828.764526 1302.949829,874.360291 1268.566650,916.050232 
	C1230.457275,962.257935 1185.724731,1000.780884 1134.624268,1031.866699 
	C1082.334229,1063.676147 1026.103394,1085.490967 965.961365,1097.146606 
	C933.336853,1103.469238 900.435120,1106.197632 867.208618,1106.151001 
	C756.212830,1105.995361 645.216431,1105.948608 534.220825,1106.148560 
	C484.242859,1106.238525 435.372314,1099.294067 387.596954,1084.744019 
	C320.089935,1064.184692 259.465485,1030.858643 205.207535,985.839844 
	C151.735016,941.472656 108.420403,888.717712 75.501038,827.558716 
	C51.605122,783.163879 34.467892,736.203369 23.968754,686.856628 
	C23.658033,685.396240 23.337828,683.937805 22.963951,682.059448 
M1042.087891,858.394409 
	C1047.074341,860.267639 1052.069092,862.119385 1057.046021,864.017578 
	C1084.424194,874.459595 1111.768433,884.991882 1139.189819,895.319336 
	C1148.734253,898.913940 1158.978394,894.295166 1163.491211,885.143799 
	C1166.737427,878.560791 1165.432007,872.232422 1163.276367,865.774902 
	C1153.468750,836.395874 1144.112793,806.856628 1133.705933,777.692078 
	C1130.208130,767.889954 1128.991211,759.650574 1137.172363,752.013550 
	C1137.409302,751.792358 1137.551514,751.467834 1137.730347,751.186707 
	C1173.525879,694.903381 1187.441650,633.700439 1179.015259,567.481079 
	C1170.477051,500.381897 1140.678589,444.437592 1088.945068,401.063354 
	C1033.948364,354.953094 970.015991,334.373077 898.205383,338.909027 
	C865.800964,340.955841 834.770447,348.627197 805.267700,362.139435 
	C800.793762,364.188507 798.843567,363.420471 796.105774,359.601074 
	C768.488892,321.073975 734.058838,290.017639 692.166870,267.779999 
	C630.329773,234.954803 564.499573,223.693665 495.232208,233.933777 
	C423.290466,244.569229 362.013763,276.097321 312.716309,329.771912 
	C264.036835,382.773590 235.689407,445.015625 229.846115,517.089966 
	C226.672043,556.240784 231.016556,594.535278 243.098648,631.914734 
	C253.269318,663.380676 268.044617,692.530762 287.543671,719.256348 
	C289.599304,722.073853 290.830627,724.597046 289.386810,728.366516 
	C276.702362,761.482605 264.192322,794.665588 251.694336,827.852844 
	C249.349014,834.080688 246.665833,840.279419 245.254303,846.735535 
	C243.554703,854.509338 246.603058,861.340149 252.786041,866.221619 
	C259.598480,871.600159 267.394196,871.228027 275.059143,868.236877 
	C315.855560,852.316650 356.650330,836.390259 397.336761,820.192505 
	C402.746796,818.038696 407.161438,818.205383 412.443787,820.549927 
	C443.889069,834.506653 476.824646,842.943054 511.113861,845.848267 
	C535.241821,847.892517 559.315369,847.343872 583.353210,844.083130 
	C620.769287,839.007751 655.875977,827.139587 688.736328,808.676025 
	C699.438538,802.662781 709.732178,795.922119 720.078125,789.596313 
	C726.087646,795.293762 731.967102,801.180237 738.171936,806.700989 
	C784.523682,847.941406 838.734802,870.397888 900.660400,873.703247 
	C936.145264,875.597351 971.057922,871.295959 1003.851318,857.359741 
	C1017.391174,851.605652 1028.986084,850.984253 1042.087891,858.394409 
z"/>
<path fill="#FCFBFC" opacity="1.000000" stroke="none" 
	d="
M1041.731201,858.243591 
	C1028.986084,850.984253 1017.391174,851.605652 1003.851318,857.359741 
	C971.057922,871.295959 936.145264,875.597351 900.660400,873.703247 
	C838.734802,870.397888 784.523682,847.941406 738.171936,806.700989 
	C731.967102,801.180237 726.087646,795.293762 720.078125,789.596313 
	C709.732178,795.922119 699.438538,802.662781 688.736328,808.676025 
	C655.875977,827.139587 620.769287,839.007751 583.353210,844.083130 
	C559.315369,847.343872 535.241821,847.892517 511.113861,845.848267 
	C476.824646,842.943054 443.889069,834.506653 412.443787,820.549927 
	C407.161438,818.205383 402.746796,818.038696 397.336761,820.192505 
	C356.650330,836.390259 315.855560,852.316650 275.059143,868.236877 
	C267.394196,871.228027 259.598480,871.600159 252.786041,866.221619 
	C246.603058,861.340149 243.554703,854.509338 245.254303,846.735535 
	C246.665833,840.279419 249.349014,834.080688 251.694336,827.852844 
	C264.192322,794.665588 276.702362,761.482605 289.386810,728.366516 
	C290.830627,724.597046 289.599304,722.073853 287.543671,719.256348 
	C268.044617,692.530762 253.269318,663.380676 243.098648,631.914734 
	C231.016556,594.535278 226.672043,556.240784 229.846115,517.089966 
	C235.689407,445.015625 264.036835,382.773590 312.716309,329.771912 
	C362.013763,276.097321 423.290466,244.569229 495.232208,233.933777 
	C564.499573,223.693665 630.329773,234.954803 692.166870,267.779999 
	C734.058838,290.017639 768.488892,321.073975 796.105774,359.601074 
	C798.843567,363.420471 800.793762,364.188507 805.267700,362.139435 
	C834.770447,348.627197 865.800964,340.955841 898.205383,338.909027 
	C970.015991,334.373077 1033.948364,354.953094 1088.945068,401.063354 
	C1140.678589,444.437592 1170.477051,500.381897 1179.015259,567.481079 
	C1187.441650,633.700439 1173.525879,694.903381 1137.730347,751.186707 
	C1137.551514,751.467834 1137.409302,751.792358 1137.172363,752.013550 
	C1128.991211,759.650574 1130.208130,767.889954 1133.705933,777.692078 
	C1144.112793,806.856628 1153.468750,836.395874 1163.276367,865.774902 
	C1165.432007,872.232422 1166.737427,878.560791 1163.491211,885.143799 
	C1158.978394,894.295166 1148.734253,898.913940 1139.189819,895.319336 
	C1111.768433,884.991882 1084.424194,874.459595 1057.046021,864.017578 
	C1052.069092,862.119385 1047.074341,860.267639 1041.731201,858.243591 
M648.135681,603.535156 
	C652.451599,510.965363 691.916016,437.330963 767.344360,382.651855 
	C766.129761,380.921875 764.980164,379.127441 763.676819,377.452576 
	C751.471924,361.768402 738.075928,347.203796 722.971375,334.248627 
	C674.793396,292.926270 618.601868,271.530914 555.586426,268.166534 
	C513.255188,265.906433 472.352509,273.289673 433.135406,289.679871 
	C391.082092,307.255371 355.420624,333.573700 327.062653,369.123962 
	C282.058228,425.542603 261.661224,489.971802 266.818756,562.200745 
	C269.012970,592.929626 277.118805,622.149292 289.632843,650.195129 
	C298.911224,670.989624 311.253052,689.950073 324.757050,708.207336 
	C329.740723,714.945190 331.095306,722.291992 328.011719,730.367798 
	C319.874878,751.677612 311.850403,773.030518 303.819824,794.380737 
	C300.686829,802.710266 297.657257,811.078674 294.238037,820.359009 
	C296.533691,819.714600 297.776733,819.483826 298.928925,819.024963 
	C330.485352,806.458252 362.051941,793.916626 393.567963,781.249207 
	C401.783234,777.947266 409.592102,778.334290 417.750000,781.738342 
	C431.404480,787.436035 445.022247,793.443848 459.124878,797.802124 
	C496.485016,809.347961 534.770386,812.744690 573.610107,807.798035 
	C600.998474,804.309814 627.589050,797.398193 652.555054,785.482361 
	C667.810669,778.200989 682.411743,769.548218 697.753235,761.270508 
	C680.981934,737.279175 668.586365,712.689514 660.242981,686.156189 
	C651.894653,659.607056 647.654663,632.405090 648.135681,603.535156 
M1136.104248,666.556396 
	C1143.592773,641.220581 1145.692139,615.393616 1144.281006,589.044678 
	C1142.637207,558.353027 1135.647217,529.053528 1122.151978,501.567627 
	C1100.215454,456.888977 1066.572021,423.308502 1022.276306,400.788544 
	C975.529968,377.022705 926.104187,369.463409 874.407104,379.081573 
	C828.659424,387.592865 788.913574,408.193115 755.280151,440.298340 
	C732.426025,462.114075 715.503601,488.100464 703.378601,517.208496 
	C684.141846,563.389404 678.700256,610.890747 690.796021,659.786682 
	C702.220032,705.966431 725.327148,745.430847 760.679321,777.383667 
	C801.778137,814.530273 850.306763,834.204163 905.538086,836.819641 
	C941.266541,838.511536 975.406433,831.055542 1007.782654,815.975403 
	C1016.909058,811.724548 1025.502930,811.607727 1034.736572,815.260071 
	C1059.973389,825.242432 1085.325073,834.934692 1110.642944,844.711670 
	C1112.862183,845.568665 1115.166992,846.203674 1118.260010,847.211548 
	C1117.112305,843.631958 1116.332397,841.111938 1115.497681,838.610229 
	C1107.963013,816.024963 1100.530029,793.404846 1092.824341,770.877991 
	C1089.576904,761.384399 1090.945923,753.042419 1096.962891,745.045410 
	C1114.658936,721.526184 1127.991699,695.778748 1136.104248,666.556396 
z"/>
<path fill="#9772D8" opacity="1.000000" stroke="none" 
	d="
M648.133545,604.030151 
	C647.654663,632.405090 651.894653,659.607056 660.242981,686.156189 
	C668.586365,712.689514 680.981934,737.279175 697.753235,761.270508 
	C682.411743,769.548218 667.810669,778.200989 652.555054,785.482361 
	C627.589050,797.398193 600.998474,804.309814 573.610107,807.798035 
	C534.770386,812.744690 496.485016,809.347961 459.124878,797.802124 
	C445.022247,793.443848 431.404480,787.436035 417.750000,781.738342 
	C409.592102,778.334290 401.783234,777.947266 393.567963,781.249207 
	C362.051941,793.916626 330.485352,806.458252 298.928925,819.024963 
	C297.776733,819.483826 296.533691,819.714600 294.238037,820.359009 
	C297.657257,811.078674 300.686829,802.710266 303.819824,794.380737 
	C311.850403,773.030518 319.874878,751.677612 328.011719,730.367798 
	C331.095306,722.291992 329.740723,714.945190 324.757050,708.207336 
	C311.253052,689.950073 298.911224,670.989624 289.632843,650.195129 
	C277.118805,622.149292 269.012970,592.929626 266.818756,562.200745 
	C261.661224,489.971802 282.058228,425.542603 327.062653,369.123962 
	C355.420624,333.573700 391.082092,307.255371 433.135406,289.679871 
	C472.352509,273.289673 513.255188,265.906433 555.586426,268.166534 
	C618.601868,271.530914 674.793396,292.926270 722.971375,334.248627 
	C738.075928,347.203796 751.471924,361.768402 763.676819,377.452576 
	C764.980164,379.127441 766.129761,380.921875 767.344360,382.651855 
	C691.916016,437.330963 652.451599,510.965363 648.133545,604.030151 
M555.466614,420.927795 
	C579.884216,439.713593 584.182068,469.389587 564.907593,492.215485 
	C557.999878,500.395935 549.315491,507.193970 540.918396,513.974548 
	C523.039062,528.411987 510.174500,545.993408 506.695862,569.041382 
	C505.067505,579.830078 505.267273,590.924561 505.052887,601.888550 
	C504.834778,613.043396 512.374268,620.671570 523.161804,620.822998 
	C533.536255,620.968628 541.582214,612.919861 541.758789,602.117615 
	C541.859558,595.955872 541.750732,589.790771 541.850830,583.628967 
	C542.111145,567.604675 548.988892,554.930603 561.207886,544.768494 
	C570.416931,537.109680 579.823181,529.583618 588.258850,521.118652 
	C615.064819,494.219696 620.925598,453.694916 603.356079,420.619049 
	C586.181091,388.285767 547.970093,369.776276 511.976593,376.332092 
	C491.280701,380.101593 473.773376,389.470673 459.910370,405.497864 
	C447.847961,419.443390 441.434479,435.760193 439.194214,453.849792 
	C437.818787,464.955933 442.451294,473.170746 451.274384,475.867737 
	C463.292389,479.541382 474.923645,471.595245 475.744904,458.875732 
	C476.590637,445.777679 481.439301,434.501831 491.244446,425.866455 
	C510.210449,409.163177 532.879700,407.441864 555.466614,420.927795 
M545.930664,690.187683 
	C550.369568,678.460815 547.562866,667.256470 538.398010,660.116760 
	C530.634827,654.068909 517.028625,653.686157 509.324951,659.298889 
	C499.821198,666.223022 496.061523,677.765320 500.182007,688.511353 
	C503.950867,698.340332 511.651672,703.775574 521.844055,704.392029 
	C532.263611,705.022156 540.424683,700.213257 545.930664,690.187683 
z"/>
<path fill="#9872D8" opacity="1.000000" stroke="none" 
	d="
M1136.002686,666.945740 
	C1127.991699,695.778748 1114.658936,721.526184 1096.962891,745.045410 
	C1090.945923,753.042419 1089.576904,761.384399 1092.824341,770.877991 
	C1100.530029,793.404846 1107.963013,816.024963 1115.497681,838.610229 
	C1116.332397,841.111938 1117.112305,843.631958 1118.260010,847.211548 
	C1115.166992,846.203674 1112.862183,845.568665 1110.642944,844.711670 
	C1085.325073,834.934692 1059.973389,825.242432 1034.736572,815.260071 
	C1025.502930,811.607727 1016.909058,811.724548 1007.782654,815.975403 
	C975.406433,831.055542 941.266541,838.511536 905.538086,836.819641 
	C850.306763,834.204163 801.778137,814.530273 760.679321,777.383667 
	C725.327148,745.430847 702.220032,705.966431 690.796021,659.786682 
	C678.700256,610.890747 684.141846,563.389404 703.378601,517.208496 
	C715.503601,488.100464 732.426025,462.114075 755.280151,440.298340 
	C788.913574,408.193115 828.659424,387.592865 874.407104,379.081573 
	C926.104187,369.463409 975.529968,377.022705 1022.276306,400.788544 
	C1066.572021,423.308502 1100.215454,456.888977 1122.151978,501.567627 
	C1135.647217,529.053528 1142.637207,558.353027 1144.281006,589.044678 
	C1145.692139,615.393616 1143.592773,641.220581 1136.002686,666.945740 
M929.540222,637.192261 
	C945.057556,627.681763 950.192505,613.699707 944.042480,597.704041 
	C939.967529,587.105286 927.454285,578.575562 915.531494,578.269470 
	C903.972534,577.972656 891.548706,585.626526 886.928650,595.890747 
	C881.181091,608.659912 883.326111,622.002686 892.630432,631.358704 
	C902.425232,641.207947 915.544067,643.449097 929.540222,637.192261 
M801.208313,638.455994 
	C802.959595,638.969116 804.690430,639.570251 806.465332,639.981201 
	C819.425049,642.981812 832.537109,637.359985 839.912659,625.680847 
	C846.818115,614.746216 845.922241,600.258118 837.725220,590.305969 
	C829.182617,579.934326 814.718750,575.818542 802.574219,580.303528 
	C790.360229,584.814270 781.881165,596.052063 781.268921,608.540833 
	C780.682251,620.508484 788.387939,632.370667 801.208313,638.455994 
M1008.184570,639.528320 
	C1014.792786,641.677429 1021.300598,641.206421 1027.749634,638.818848 
	C1039.185059,634.585205 1047.746094,623.096924 1048.051025,611.540588 
	C1048.408569,597.990662 1041.200928,586.142456 1029.495972,581.039185 
	C1018.092834,576.067383 1003.501160,578.865967 994.767334,587.699646 
	C978.035706,604.622620 984.395386,630.509399 1008.184570,639.528320 
z"/>
<path fill="#FCFBFC" opacity="1.000000" stroke="none" 
	d="
M555.175842,420.712891 
	C532.879700,407.441864 510.210449,409.163177 491.244446,425.866455 
	C481.439301,434.501831 476.590637,445.777679 475.744904,458.875732 
	C474.923645,471.595245 463.292389,479.541382 451.274384,475.867737 
	C442.451294,473.170746 437.818787,464.955933 439.194214,453.849792 
	C441.434479,435.760193 447.847961,419.443390 459.910370,405.497864 
	C473.773376,389.470673 491.280701,380.101593 511.976593,376.332092 
	C547.970093,369.776276 586.181091,388.285767 603.356079,420.619049 
	C620.925598,453.694916 615.064819,494.219696 588.258850,521.118652 
	C579.823181,529.583618 570.416931,537.109680 561.207886,544.768494 
	C548.988892,554.930603 542.111145,567.604675 541.850830,583.628967 
	C541.750732,589.790771 541.859558,595.955872 541.758789,602.117615 
	C541.582214,612.919861 533.536255,620.968628 523.161804,620.822998 
	C512.374268,620.671570 504.834778,613.043396 505.052887,601.888550 
	C505.267273,590.924561 505.067505,579.830078 506.695862,569.041382 
	C510.174500,545.993408 523.039062,528.411987 540.918396,513.974548 
	C549.315491,507.193970 557.999878,500.395935 564.907593,492.215485 
	C584.182068,469.389587 579.884216,439.713593 555.175842,420.712891 
z"/>
<path fill="#FBFBFC" opacity="1.000000" stroke="none" 
	d="
M545.759399,690.528809 
	C540.424683,700.213257 532.263611,705.022156 521.844055,704.392029 
	C511.651672,703.775574 503.950867,698.340332 500.182007,688.511353 
	C496.061523,677.765320 499.821198,666.223022 509.324951,659.298889 
	C517.028625,653.686157 530.634827,654.068909 538.398010,660.116760 
	C547.562866,667.256470 550.369568,678.460815 545.759399,690.528809 
z"/>
<path fill="#FCFBFC" opacity="1.000000" stroke="none" 
	d="
M929.208374,637.371460 
	C915.544067,643.449097 902.425232,641.207947 892.630432,631.358704 
	C883.326111,622.002686 881.181091,608.659912 886.928650,595.890747 
	C891.548706,585.626526 903.972534,577.972656 915.531494,578.269470 
	C927.454285,578.575562 939.967529,587.105286 944.042480,597.704041 
	C950.192505,613.699707 945.057556,627.681763 929.208374,637.371460 
z"/>
<path fill="#FCFBFC" opacity="1.000000" stroke="none" 
	d="
M800.854736,638.301758 
	C788.387939,632.370667 780.682251,620.508484 781.268921,608.540833 
	C781.881165,596.052063 790.360229,584.814270 802.574219,580.303528 
	C814.718750,575.818542 829.182617,579.934326 837.725220,590.305969 
	C845.922241,600.258118 846.818115,614.746216 839.912659,625.680847 
	C832.537109,637.359985 819.425049,642.981812 806.465332,639.981201 
	C804.690430,639.570251 802.959595,638.969116 800.854736,638.301758 
z"/>
<path fill="#FCFBFC" opacity="1.000000" stroke="none" 
	d="
M1007.808228,639.389221 
	C984.395386,630.509399 978.035706,604.622620 994.767334,587.699646 
	C1003.501160,578.865967 1018.092834,576.067383 1029.495972,581.039185 
	C1041.200928,586.142456 1048.408569,597.990662 1048.051025,611.540588 
	C1047.746094,623.096924 1039.185059,634.585205 1027.749634,638.818848 
	C1021.300598,641.206421 1014.792786,641.677429 1007.808228,639.389221 
z"/>
</svg>
