<svg version="1.1" id="Layer_1" xmlns="http://www.w3.org/2000/svg" xmlns:xlink="http://www.w3.org/1999/xlink" x="0px" y="0px"
	 width="100%" viewBox="0 0 1254 1254" enable-background="new 0 0 1254 1254" xml:space="preserve">

M739.000000,1255.000000 
	C492.666656,1255.000000 246.833328,1255.000000 1.000000,1255.000000 
	C1.000000,837.000000 1.000000,419.000000 1.000000,1.000000 
	C419.000000,1.000000 837.000000,1.000000 1255.000000,1.000000 
	C1255.000000,419.000000 1255.000000,837.000000 1255.000000,1255.000000 
	C1083.166626,1255.000000 911.333313,1255.000000 739.000000,1255.000000 
M838.430725,1182.939575 
	C849.062195,1178.574341 859.823059,1174.497803 870.304871,1169.798828 
	C966.193420,1126.812012 1046.244141,1063.760742 1109.806152,980.000366 
	C1153.148315,922.885315 1184.920166,859.882690 1205.469849,791.164856 
	C1216.362793,754.739441 1224.010010,717.673035 1227.780884,679.882324 
	C1230.675659,650.872681 1232.097168,621.723389 1230.022705,592.582764 
	C1228.345947,569.027283 1226.992554,545.360840 1223.513550,522.039246 
	C1215.174072,466.137115 1199.377441,412.289703 1175.990845,360.721222 
	C1148.091675,299.202820 1111.455322,243.521866 1065.349854,194.123611 
	C996.572388,120.434219 914.288513,67.573036 819.027588,34.873867 
	C766.331787,16.785576 712.094055,6.048292 656.473450,3.248958 
	C607.898010,0.804198 559.768860,5.128144 512.052368,14.857084 
	C438.617401,29.829784 370.400421,57.545692 307.183289,97.608192 
	C255.135925,130.592117 209.590256,171.012360 169.928497,218.196533 
	C127.962410,268.122040 94.835869,323.325165 70.648193,383.800446 
	C48.712177,438.645966 34.537285,495.485046 28.756115,554.376038 
	C25.132862,591.285034 24.728828,628.243713 27.340214,665.163940 
	C30.009321,702.900269 36.887226,739.980103 46.783829,776.552673 
	C71.380219,867.447815 114.956573,947.987061 177.744400,1018.093811 
	C235.237732,1082.288940 303.344543,1132.167236 381.769135,1167.840820 
	C448.681183,1198.277588 518.932556,1215.790039 592.246826,1220.822266 
	C627.227905,1223.223145 662.188904,1222.000488 696.960876,1217.727051 
	C745.206055,1211.798096 792.151062,1200.279419 838.430725,1182.939575 
z"/>

M838.060059,1183.058716 
	C792.151062,1200.279419 745.206055,1211.798096 696.960876,1217.727051 
	C662.188904,1222.000488 627.227905,1223.223145 592.246826,1220.822266 
	C518.932556,1215.790039 448.681183,1198.277588 381.769135,1167.840820 
	C303.344543,1132.167236 235.237732,1082.288940 177.744400,1018.093811 
	C114.956573,947.987061 71.380219,867.447815 46.783829,776.552673 
	C36.887226,739.980103 30.009321,702.900269 27.340214,665.163940 
	C24.728828,628.243713 25.132862,591.285034 28.756115,554.376038 
	C34.537285,495.485046 48.712177,438.645966 70.648193,383.800446 
	C94.835869,323.325165 127.962410,268.122040 169.928497,218.196533 
	C209.590256,171.012360 255.135925,130.592117 307.183289,97.608192 
	C370.400421,57.545692 438.617401,29.829784 512.052368,14.857084 
	C559.768860,5.128144 607.898010,0.804198 656.473450,3.248958 
	C712.094055,6.048292 766.331787,16.785576 819.027588,34.873867 
	C914.288513,67.573036 996.572388,120.434219 1065.349854,194.123611 
	C1111.455322,243.521866 1148.091675,299.202820 1175.990845,360.721222 
	C1199.377441,412.289703 1215.174072,466.137115 1223.513550,522.039246 
	C1226.992554,545.360840 1228.345947,569.027283 1230.022705,592.582764 
	C1232.097168,621.723389 1230.675659,650.872681 1227.780884,679.882324 
	C1224.010010,717.673035 1216.362793,754.739441 1205.469849,791.164856 
	C1184.920166,859.882690 1153.148315,922.885315 1109.806152,980.000366 
	C1046.244141,1063.760742 966.193420,1126.812012 870.304871,1169.798828 
	C859.823059,1174.497803 849.062195,1178.574341 838.060059,1183.058716 
M750.716125,500.154541 
	C731.579712,503.676117 714.175964,511.097900 700.563904,525.221741 
	C674.182922,552.594727 666.972107,585.247192 677.941467,621.176086 
	C682.665283,636.648560 690.440735,651.252808 697.471069,665.944641 
	C713.038574,698.476990 713.829285,730.795227 696.458191,762.760559 
	C688.517578,777.372314 679.220947,791.243042 671.145569,805.786499 
	C657.800903,829.819580 652.200684,855.316406 657.995300,882.750000 
	C666.434021,922.701416 702.391968,951.793945 743.004517,951.920898 
	C770.124268,952.005615 794.008057,943.010864 815.407288,927.091858 
	C839.101135,909.465881 857.581787,886.868530 873.621582,862.378845 
	C906.491028,812.193298 928.307922,757.308167 940.574280,698.699524 
	C946.434937,670.697449 947.275330,642.406128 939.323303,614.561707 
	C927.567505,573.397766 902.202332,542.735229 865.121704,521.891846 
	C829.803223,502.039001 791.992493,493.971436 750.716125,500.154541 
M344.141357,511.520447 
	C344.545776,519.002380 344.435913,526.553772 345.436646,533.955078 
	C352.900085,589.153076 369.645874,641.446838 396.316437,690.333740 
	C413.429047,721.701111 434.459015,750.200684 463.072113,772.319458 
	C485.916199,789.978638 511.159485,800.503662 540.756714,798.250366 
	C584.357727,794.930969 620.081299,756.455627 618.600098,707.661255 
	C618.076538,690.414551 613.446533,674.101746 605.368591,658.916626 
	C598.489136,645.984497 590.726379,633.523132 583.813965,620.607483 
	C570.669495,596.047180 565.893982,570.016296 570.896606,542.375366 
	C573.947083,525.520203 581.323669,510.567139 590.111511,496.077271 
	C602.864685,475.049438 611.177368,452.907043 608.167969,427.483643 
	C604.272217,394.571381 581.641663,366.622162 549.646606,357.145081 
	C519.371155,348.177399 489.301331,351.146393 459.588684,360.006683 
	C386.220184,381.885040 345.436798,444.226105 344.141357,511.520447 
M751.175781,456.641510 
	C765.374878,436.034424 765.086609,407.798859 750.467834,387.289795 
	C729.915955,358.456940 689.891418,360.833923 674.804810,392.001434 
	C663.583923,415.182770 666.460327,437.416779 681.936340,457.575531 
	C700.238647,481.415833 732.406189,480.977417 751.175781,456.641510 
M559.337158,242.841522 
	C542.942688,260.370300 538.722961,280.998627 545.617676,303.456024 
	C553.950745,330.598297 583.523193,340.597412 607.292725,325.076019 
	C628.314270,311.349030 637.774475,280.678772 628.323242,256.893860 
	C616.375183,226.825363 583.045593,219.741089 559.337158,242.841522 
M514.431213,260.164978 
	C512.618774,257.381226 511.009216,254.437637 508.961884,251.838928 
	C492.153687,230.503860 462.003143,231.941360 447.288788,254.718170 
	C435.765137,272.556030 437.541595,297.679901 451.468903,313.834442 
	C469.213837,334.417297 499.363037,331.709381 512.918823,308.213562 
	C521.811218,292.800659 521.815002,276.928833 514.431213,260.164978 
M852.915161,413.718689 
	C839.579407,391.165192 812.847534,387.515259 795.742981,405.912476 
	C783.465698,419.117554 780.537659,439.441406 788.568481,455.711487 
	C797.158875,473.115173 816.815674,479.857971 834.251465,471.381958 
	C854.386475,461.593719 863.197998,435.159271 852.915161,413.718689 
M404.724884,354.406433 
	C423.588715,344.476013 429.582642,321.147614 418.047913,302.552887 
	C409.774078,289.214874 395.377930,283.000031 381.363342,286.716156 
	C363.125305,291.552246 352.277771,312.054382 358.136383,330.615845 
	C364.988403,352.324768 383.772034,362.191345 404.724884,354.406433 
M879.010193,451.540710 
	C876.998535,455.348694 874.511414,458.984436 873.058289,462.994781 
	C867.061646,479.544495 875.113831,499.081085 890.335388,505.604919 
	C905.821167,512.242065 923.074158,505.737091 931.999390,489.896118 
	C940.985962,473.946228 936.831055,454.314453 922.287109,444.006042 
	C908.694580,434.371887 891.156006,437.233978 879.010193,451.540710 
M359.118378,398.524353 
	C359.392059,393.928833 360.367035,389.245819 359.806946,384.754272 
	C358.175873,371.674957 346.350525,360.685577 333.265747,359.365295 
	C322.031921,358.231720 308.888245,366.633362 304.860748,377.522186 
	C299.049347,393.233948 306.948090,410.933563 322.222961,417.280365 
	C333.698486,422.048431 353.170135,417.831482 359.118378,398.524353 
M956.426392,511.803833 
	C944.192078,514.557068 935.280518,524.018188 933.330261,536.324219 
	C931.329163,548.951172 936.780579,560.899597 947.326782,567.001526 
	C956.718567,572.435547 969.198120,571.026123 978.559265,563.474243 
	C988.602661,555.372009 992.317810,540.057434 987.121948,528.176697 
	C981.907166,516.252808 970.049255,509.667480 956.426392,511.803833 
z"/>
<path fill="#FEFDFD" opacity="1.000000" stroke="none" 
	d="
M751.144897,500.111633 
	C791.992493,493.971436 829.803223,502.039001 865.121704,521.891846 
	C902.202332,542.735229 927.567505,573.397766 939.323303,614.561707 
	C947.275330,642.406128 946.434937,670.697449 940.574280,698.699524 
	C928.307922,757.308167 906.491028,812.193298 873.621582,862.378845 
	C857.581787,886.868530 839.101135,909.465881 815.407288,927.091858 
	C794.008057,943.010864 770.124268,952.005615 743.004517,951.920898 
	C702.391968,951.793945 666.434021,922.701416 657.995300,882.750000 
	C652.200684,855.316406 657.800903,829.819580 671.145569,805.786499 
	C679.220947,791.243042 688.517578,777.372314 696.458191,762.760559 
	C713.829285,730.795227 713.038574,698.476990 697.471069,665.944641 
	C690.440735,651.252808 682.665283,636.648560 677.941467,621.176086 
	C666.972107,585.247192 674.182922,552.594727 700.563904,525.221741 
	C714.175964,511.097900 731.579712,503.676117 751.144897,500.111633 
z"/>
<path fill="#FEFDFD" opacity="1.000000" stroke="none" 
	d="
M344.141998,511.039978 
	C345.436798,444.226105 386.220184,381.885040 459.588684,360.006683 
	C489.301331,351.146393 519.371155,348.177399 549.646606,357.145081 
	C581.641663,366.622162 604.272217,394.571381 608.167969,427.483643 
	C611.177368,452.907043 602.864685,475.049438 590.111511,496.077271 
	C581.323669,510.567139 573.947083,525.520203 570.896606,542.375366 
	C565.893982,570.016296 570.669495,596.047180 583.813965,620.607483 
	C590.726379,633.523132 598.489136,645.984497 605.368591,658.916626 
	C613.446533,674.101746 618.076538,690.414551 618.600098,707.661255 
	C620.081299,756.455627 584.357727,794.930969 540.756714,798.250366 
	C511.159485,800.503662 485.916199,789.978638 463.072113,772.319458 
	C434.459015,750.200684 413.429047,721.701111 396.316437,690.333740 
	C369.645874,641.446838 352.900085,589.153076 345.436646,533.955078 
	C344.435913,526.553772 344.545776,519.002380 344.141998,511.039978 
z"/>
<path fill="#FEFDFC" opacity="1.000000" stroke="none" 
	d="
M750.981506,456.941467 
	C732.406189,480.977417 700.238647,481.415833 681.936340,457.575531 
	C666.460327,437.416779 663.583923,415.182770 674.804810,392.001434 
	C689.891418,360.833923 729.915955,358.456940 750.467834,387.289795 
	C765.086609,407.798859 765.374878,436.034424 750.981506,456.941467 
z"/>
<path fill="#FEFDFC" opacity="1.000000" stroke="none" 
	d="
M559.589478,242.589752 
	C583.045593,219.741089 616.375183,226.825363 628.323242,256.893860 
	C637.774475,280.678772 628.314270,311.349030 607.292725,325.076019 
	C583.523193,340.597412 553.950745,330.598297 545.617676,303.456024 
	C538.722961,280.998627 542.942688,260.370300 559.589478,242.589752 
z"/>
<path fill="#FEFDFB" opacity="1.000000" stroke="none" 
	d="
M514.599121,260.501221 
	C521.815002,276.928833 521.811218,292.800659 512.918823,308.213562 
	C499.363037,331.709381 469.213837,334.417297 451.468903,313.834442 
	C437.541595,297.679901 435.765137,272.556030 447.288788,254.718170 
	C462.003143,231.941360 492.153687,230.503860 508.961884,251.838928 
	C511.009216,254.437637 512.618774,257.381226 514.599121,260.501221 
z"/>
<path fill="#FEFDFB" opacity="1.000000" stroke="none" 
	d="
M853.081726,414.055115 
	C863.197998,435.159271 854.386475,461.593719 834.251465,471.381958 
	C816.815674,479.857971 797.158875,473.115173 788.568481,455.711487 
	C780.537659,439.441406 783.465698,419.117554 795.742981,405.912476 
	C812.847534,387.515259 839.579407,391.165192 853.081726,414.055115 
z"/>
<path fill="#FEFDFB" opacity="1.000000" stroke="none" 
	d="
M404.373657,354.562561 
	C383.772034,362.191345 364.988403,352.324768 358.136383,330.615845 
	C352.277771,312.054382 363.125305,291.552246 381.363342,286.716156 
	C395.377930,283.000031 409.774078,289.214874 418.047913,302.552887 
	C429.582642,321.147614 423.588715,344.476013 404.373657,354.562561 
z"/>
<path fill="#FEFDFB" opacity="1.000000" stroke="none" 
	d="
M879.242310,451.266602 
	C891.156006,437.233978 908.694580,434.371887 922.287109,444.006042 
	C936.831055,454.314453 940.985962,473.946228 931.999390,489.896118 
	C923.074158,505.737091 905.821167,512.242065 890.335388,505.604919 
	C875.113831,499.081085 867.061646,479.544495 873.058289,462.994781 
	C874.511414,458.984436 876.998535,455.348694 879.242310,451.266602 
z"/>
<path fill="#FEFDFA" opacity="1.000000" stroke="none" 
	d="
M359.008301,398.902679 
	C353.170135,417.831482 333.698486,422.048431 322.222961,417.280365 
	C306.948090,410.933563 299.049347,393.233948 304.860748,377.522186 
	C308.888245,366.633362 322.031921,358.231720 333.265747,359.365295 
	C346.350525,360.685577 358.175873,371.674957 359.806946,384.754272 
	C360.367035,389.245819 359.392059,393.928833 359.008301,398.902679 
z"/>
<path fill="#FEFDFA" opacity="1.000000" stroke="none" 
	d="
M956.834961,511.693787 
	C970.049255,509.667480 981.907166,516.252808 987.121948,528.176697 
	C992.317810,540.057434 988.602661,555.372009 978.559265,563.474243 
	C969.198120,571.026123 956.718567,572.435547 947.326782,567.001526 
	C936.780579,560.899597 931.329163,548.951172 933.330261,536.324219 
	C935.280518,524.018188 944.192078,514.557068 956.834961,511.693787 
z"/>
</svg>
