<svg version="1.1" id="Layer_1" xmlns="http://www.w3.org/2000/svg" xmlns:xlink="http://www.w3.org/1999/xlink" x="0px" y="0px"
	 width="100%" viewBox="0 0 1254 1254" enable-background="new 0 0 1254 1254" xml:space="preserve">
M697.000000,1255.000000 
	C464.666656,1255.000000 232.833328,1255.000000 1.000000,1255.000000 
	C1.000000,837.000000 1.000000,419.000000 1.000000,1.000000 
	C419.000000,1.000000 837.000000,1.000000 1255.000000,1.000000 
	C1255.000000,419.000000 1255.000000,837.000000 1255.000000,1255.000000 
	C1069.166626,1255.000000 883.333313,1255.000000 697.000000,1255.000000 
M398.687378,1193.846191 
	C421.483002,1201.729370 444.055176,1210.350220 467.122467,1217.336304 
	C510.308411,1230.415283 554.792114,1236.666748 599.750854,1238.756470 
	C644.749878,1240.848022 689.516541,1237.940308 734.000061,1230.200317 
	C800.286316,1218.666748 862.620239,1196.166260 921.332520,1163.612793 
	C981.776611,1130.099121 1034.704712,1087.132690 1080.462280,1035.306274 
	C1125.491577,984.304932 1161.889404,927.878235 1187.988159,864.951599 
	C1216.327515,796.622742 1231.994141,725.443481 1234.723877,651.560120 
	C1236.449585,604.852417 1232.791382,558.466309 1224.144653,512.461121 
	C1210.560303,440.185425 1184.502808,372.656219 1147.230103,309.429047 
	C1111.817993,249.358215 1067.750854,196.518204 1014.316589,151.508972 
	C966.393555,111.142090 913.492432,79.149300 855.704102,55.051716 
	C795.401672,29.905779 732.495911,15.992025 667.487427,11.243647 
	C637.707825,9.068475 607.872253,9.474778 578.157166,12.249498 
	C539.511963,15.858088 501.464630,22.712225 464.099609,33.608334 
	C400.672302,52.104553 341.849548,80.083961 287.827118,117.988708 
	C234.380768,155.489273 187.992783,200.402039 148.580643,252.524063 
	C105.674889,309.266357 73.397423,371.448181 51.715679,439.210938 
	C35.344681,490.375916 25.525496,542.776855 23.466469,596.371277 
	C22.388481,624.430298 23.686831,652.631714 25.001896,680.717773 
	C26.475716,712.194336 32.431728,743.088440 39.784565,773.701660 
	C57.847771,848.906860 89.041809,918.104248 134.023315,981.112427 
	C168.809235,1029.839111 209.369934,1073.026978 256.278839,1110.221680 
	C299.625793,1144.591919 346.893585,1172.326294 398.687378,1193.846191 
z"/>

M398.341736,1193.682739 
	C346.893585,1172.326294 299.625793,1144.591919 256.278839,1110.221680 
	C209.369934,1073.026978 168.809235,1029.839111 134.023315,981.112427 
	C89.041809,918.104248 57.847771,848.906860 39.784565,773.701660 
	C32.431728,743.088440 26.475716,712.194336 25.001896,680.717773 
	C23.686831,652.631714 22.388481,624.430298 23.466469,596.371277 
	C25.525496,542.776855 35.344681,490.375916 51.715679,439.210938 
	C73.397423,371.448181 105.674889,309.266357 148.580643,252.524063 
	C187.992783,200.402039 234.380768,155.489273 287.827118,117.988708 
	C341.849548,80.083961 400.672302,52.104553 464.099609,33.608334 
	C501.464630,22.712225 539.511963,15.858088 578.157166,12.249498 
	C607.872253,9.474778 637.707825,9.068475 667.487427,11.243647 
	C732.495911,15.992025 795.401672,29.905779 855.704102,55.051716 
	C913.492432,79.149300 966.393555,111.142090 1014.316589,151.508972 
	C1067.750854,196.518204 1111.817993,249.358215 1147.230103,309.429047 
	C1184.502808,372.656219 1210.560303,440.185425 1224.144653,512.461121 
	C1232.791382,558.466309 1236.449585,604.852417 1234.723877,651.560120 
	C1231.994141,725.443481 1216.327515,796.622742 1187.988159,864.951599 
	C1161.889404,927.878235 1125.491577,984.304932 1080.462280,1035.306274 
	C1034.704712,1087.132690 981.776611,1130.099121 921.332520,1163.612793 
	C862.620239,1196.166260 800.286316,1218.666748 734.000061,1230.200317 
	C689.516541,1237.940308 644.749878,1240.848022 599.750854,1238.756470 
	C554.792114,1236.666748 510.308411,1230.415283 467.122467,1217.336304 
	C444.055176,1210.350220 421.483002,1201.729370 398.341736,1193.682739 
M360.259308,959.980835 
	C362.296234,960.321350 364.332977,960.958801 366.370056,960.959839 
	C463.618134,961.007812 560.866272,961.000244 658.114380,961.000183 
	C736.212585,961.000122 814.310852,961.013733 892.408997,960.928589 
	C894.258789,960.926575 896.107422,959.824280 898.770996,958.970154 
	C950.245911,953.440979 991.835632,907.368042 991.862976,855.556213 
	C991.929504,729.750549 991.882629,603.944885 991.894653,478.139191 
	C991.896606,457.864441 987.215576,438.848083 976.230652,421.692230 
	C957.668274,392.702118 931.651428,375.327148 896.876953,372.988251 
	C882.648926,372.031311 868.304688,372.796906 854.013306,372.788879 
	C838.367554,372.780090 822.719543,372.635864 807.077515,372.875824 
	C802.731140,372.942505 801.840210,371.355927 801.866882,367.374542 
	C802.026123,343.547516 801.996948,319.718719 801.902039,295.891022 
	C801.885559,291.754669 801.505615,287.581635 800.867981,283.491882 
	C795.223877,247.292252 761.649902,223.293900 730.676453,223.633301 
	C663.532715,224.369034 596.375122,223.783142 529.223450,223.874344 
	C490.924957,223.926346 458.988464,256.088440 458.924957,294.410706 
	C458.884644,318.738647 458.813202,343.067078 458.957153,367.394135 
	C458.980774,371.380798 458.077271,372.915253 453.743011,372.883789 
	C427.783051,372.695099 401.821014,372.764709 375.859741,372.804840 
	C368.881775,372.815613 361.825134,372.389404 354.939026,373.245300 
	C305.376892,379.405762 266.151550,423.748352 266.095856,473.987274 
	C265.954346,601.625732 266.017059,729.264465 266.069885,856.903076 
	C266.076752,873.538635 270.413666,889.239563 278.323364,903.773315 
	C295.986877,936.229187 323.503265,954.451355 360.259308,959.980835 
z"/>
<path fill="#FCFCFD" opacity="1.000000" stroke="none" 
	d="
M360.043732,959.235962 
	C323.503265,954.451355 295.986877,936.229187 278.323364,903.773315 
	C270.413666,889.239563 266.076752,873.538635 266.069885,856.903076 
	C266.017059,729.264465 265.954346,601.625732 266.095856,473.987274 
	C266.151550,423.748352 305.376892,379.405762 354.939026,373.245300 
	C361.825134,372.389404 368.881775,372.815613 375.859741,372.804840 
	C401.821014,372.764709 427.783051,372.695099 453.743011,372.883789 
	C458.077271,372.915253 458.980774,371.380798 458.957153,367.394135 
	C458.813202,343.067078 458.884644,318.738647 458.924957,294.410706 
	C458.988464,256.088440 490.924957,223.926346 529.223450,223.874344 
	C596.375122,223.783142 663.532715,224.369034 730.676453,223.633301 
	C761.649902,223.293900 795.223877,247.292252 800.867981,283.491882 
	C801.505615,287.581635 801.885559,291.754669 801.902039,295.891022 
	C801.996948,319.718719 802.026123,343.547516 801.866882,367.374542 
	C801.840210,371.355927 802.731140,372.942505 807.077515,372.875824 
	C822.719543,372.635864 838.367554,372.780090 854.013306,372.788879 
	C868.304688,372.796906 882.648926,372.031311 896.876953,372.988251 
	C931.651428,375.327148 957.668274,392.702118 976.230652,421.692230 
	C987.215576,438.848083 991.896606,457.864441 991.894653,478.139191 
	C991.882629,603.944885 991.929504,729.750549 991.862976,855.556213 
	C991.835632,907.368042 950.245911,953.440979 897.933411,959.045898 
	C890.614014,959.318298 884.132324,959.683899 877.650452,959.686340 
	C761.729248,959.730164 645.807983,959.784241 529.886841,959.715881 
	C473.272400,959.682556 416.658112,959.403687 360.043732,959.235962 
M954.083008,803.500000 
	C954.084839,694.190918 954.092224,584.881897 954.085449,475.572815 
	C954.083191,439.856934 925.325928,410.945587 889.737122,410.943695 
	C715.776306,410.934357 541.815125,411.132141 367.854950,410.803009 
	C333.214417,410.737457 303.884460,439.928772 303.875336,475.237762 
	C303.842438,602.209045 303.863525,729.180298 303.874207,856.151611 
	C303.875641,873.348267 310.407196,888.039734 322.004120,900.341370 
	C335.094330,914.227173 351.436951,921.009399 370.645874,921.005615 
	C542.606995,920.971313 714.568115,920.996277 886.529236,920.998169 
	C924.284546,920.998535 954.065369,891.241089 954.097961,853.488953 
	C954.112061,837.159302 954.090820,820.829651 954.083008,803.500000 
M495.996063,339.500000 
	C496.001923,348.995636 496.161133,358.494934 495.937073,367.985138 
	C495.849274,371.702881 497.007385,372.868195 500.751984,372.864197 
	C587.211731,372.772278 673.671570,372.773346 760.131348,372.835022 
	C763.436218,372.837402 764.894226,372.099854 764.873169,368.418793 
	C764.734192,344.097534 764.932739,319.774017 764.740601,295.453491 
	C764.614258,279.460266 754.643005,266.090790 739.764587,262.683594 
	C733.733643,261.302521 727.230774,261.780731 720.941711,261.763000 
	C694.287659,261.687866 667.633240,261.751678 640.978943,261.750732 
	C604.495911,261.749390 567.999329,262.329376 531.534912,261.501251 
	C510.074158,261.013824 495.634369,277.667175 495.923981,295.520721 
	C496.156311,309.843750 495.987091,324.173340 495.996063,339.500000 
z"/>
<path fill="#8C68D3" opacity="1.000000" stroke="none" 
	d="
M360.151520,959.608398 
	C416.658112,959.403687 473.272400,959.682556 529.886841,959.715881 
	C645.807983,959.784241 761.729248,959.730164 877.650452,959.686340 
	C884.132324,959.683899 890.614014,959.318298 897.526184,959.178467 
	C896.107422,959.824280 894.258789,960.926575 892.408997,960.928589 
	C814.310852,961.013733 736.212585,961.000122 658.114380,961.000183 
	C560.866272,961.000244 463.618134,961.007812 366.370056,960.959839 
	C364.332977,960.958801 362.296234,960.321350 360.151520,959.608398 
z"/>
<path fill="#9978D7" opacity="1.000000" stroke="none" 
	d="
M954.084290,804.000000 
	C954.090820,820.829651 954.112061,837.159302 954.097961,853.488953 
	C954.065369,891.241089 924.284546,920.998535 886.529236,920.998169 
	C714.568115,920.996277 542.606995,920.971313 370.645874,921.005615 
	C351.436951,921.009399 335.094330,914.227173 322.004120,900.341370 
	C310.407196,888.039734 303.875641,873.348267 303.874207,856.151611 
	C303.863525,729.180298 303.842438,602.209045 303.875336,475.237762 
	C303.884460,439.928772 333.214417,410.737457 367.854950,410.803009 
	C541.815125,411.132141 715.776306,410.934357 889.737122,410.943695 
	C925.325928,410.945587 954.083191,439.856934 954.085449,475.572815 
	C954.092224,584.881897 954.084839,694.190918 954.084290,804.000000 
M576.037476,544.731934 
	C575.444092,548.659851 574.385925,552.582092 574.338074,556.516663 
	C574.135132,573.180420 574.239380,589.847778 574.209167,606.513855 
	C574.206299,608.123779 574.050842,609.733459 573.937500,611.890991 
	C571.751709,611.890991 569.962341,611.889648 568.172974,611.891174 
	C551.173401,611.906006 534.173767,611.891113 517.174316,611.945129 
	C500.552704,611.997864 488.085785,624.400024 488.027832,640.960693 
	C487.974152,656.293457 487.987915,671.626526 488.021423,686.959412 
	C488.061554,705.325867 500.394684,717.715820 518.719666,717.766602 
	C535.219116,717.812256 551.718811,717.761902 568.218384,717.780334 
	C570.135925,717.782532 572.053345,717.953918 574.253906,718.060547 
	C574.253906,721.207458 574.254089,723.695435 574.253906,726.183350 
	C574.252747,743.849487 574.120667,761.516846 574.288269,779.181396 
	C574.445740,795.769836 586.393677,808.700378 601.873840,808.898743 
	C619.537109,809.125122 637.208862,809.153320 654.870667,808.873596 
	C669.552795,808.641113 681.555176,797.357666 682.037842,782.800659 
	C682.689148,763.159790 682.522278,743.491760 682.701721,723.835388 
	C682.719299,721.913147 682.704102,719.990662 682.704102,717.926575 
	C684.823853,717.800537 686.135681,717.665222 687.448730,717.653076 
	C705.423035,717.486511 723.397339,717.295715 741.372070,717.194885 
	C759.296143,717.094360 771.487610,705.210388 771.716858,687.136169 
	C771.909180,671.972351 771.925964,656.801575 771.703369,641.638550 
	C771.448730,624.291260 758.726990,611.978210 741.352234,611.931824 
	C724.519409,611.886841 707.686401,611.907837 690.853516,611.900146 
	C689.070312,611.899353 687.287109,611.900024 684.875854,611.900024 
	C684.875854,609.521423 684.876099,607.741455 684.875854,605.961487 
	C684.873596,588.961975 684.904236,571.962341 684.859375,554.962891 
	C684.816223,538.611267 672.307617,525.606445 655.919678,525.353088 
	C638.757568,525.087646 621.585632,525.112244 604.422852,525.355347 
	C591.222473,525.542297 581.512024,531.511169 576.037476,544.731934 
z"/>
<path fill="#9A78D8" opacity="1.000000" stroke="none" 
	d="
M495.996063,339.000000 
	C495.987091,324.173340 496.156311,309.843750 495.923981,295.520721 
	C495.634369,277.667175 510.074158,261.013824 531.534912,261.501251 
	C567.999329,262.329376 604.495911,261.749390 640.978943,261.750732 
	C667.633240,261.751678 694.287659,261.687866 720.941711,261.763000 
	C727.230774,261.780731 733.733643,261.302521 739.764587,262.683594 
	C754.643005,266.090790 764.614258,279.460266 764.740601,295.453491 
	C764.932739,319.774017 764.734192,344.097534 764.873169,368.418793 
	C764.894226,372.099854 763.436218,372.837402 760.131348,372.835022 
	C673.671570,372.773346 587.211731,372.772278 500.751984,372.864197 
	C497.007385,372.868195 495.849274,371.702881 495.937073,367.985138 
	C496.161133,358.494934 496.001923,348.995636 495.996063,339.000000 
z"/>
<path fill="#FCFBFD" opacity="1.000000" stroke="none" 
	d="
M576.154175,544.356323 
	C581.512024,531.511169 591.222473,525.542297 604.422852,525.355347 
	C621.585632,525.112244 638.757568,525.087646 655.919678,525.353088 
	C672.307617,525.606445 684.816223,538.611267 684.859375,554.962891 
	C684.904236,571.962341 684.873596,588.961975 684.875854,605.961487 
	C684.876099,607.741455 684.875854,609.521423 684.875854,611.900024 
	C687.287109,611.900024 689.070312,611.899353 690.853516,611.900146 
	C707.686401,611.907837 724.519409,611.886841 741.352234,611.931824 
	C758.726990,611.978210 771.448730,624.291260 771.703369,641.638550 
	C771.925964,656.801575 771.909180,671.972351 771.716858,687.136169 
	C771.487610,705.210388 759.296143,717.094360 741.372070,717.194885 
	C723.397339,717.295715 705.423035,717.486511 687.448730,717.653076 
	C686.135681,717.665222 684.823853,717.800537 682.704102,717.926575 
	C682.704102,719.990662 682.719299,721.913147 682.701721,723.835388 
	C682.522278,743.491760 682.689148,763.159790 682.037842,782.800659 
	C681.555176,797.357666 669.552795,808.641113 654.870667,808.873596 
	C637.208862,809.153320 619.537109,809.125122 601.873840,808.898743 
	C586.393677,808.700378 574.445740,795.769836 574.288269,779.181396 
	C574.120667,761.516846 574.252747,743.849487 574.253906,726.183350 
	C574.254089,723.695435 574.253906,721.207458 574.253906,718.060547 
	C572.053345,717.953918 570.135925,717.782532 568.218384,717.780334 
	C551.718811,717.761902 535.219116,717.812256 518.719666,717.766602 
	C500.394684,717.715820 488.061554,705.325867 488.021423,686.959412 
	C487.987915,671.626526 487.974152,656.293457 488.027832,640.960693 
	C488.085785,624.400024 500.552704,611.997864 517.174316,611.945129 
	C534.173767,611.891113 551.173401,611.906006 568.172974,611.891174 
	C569.962341,611.889648 571.751709,611.890991 573.937500,611.890991 
	C574.050842,609.733459 574.206299,608.123779 574.209167,606.513855 
	C574.239380,589.847778 574.135132,573.180420 574.338074,556.516663 
	C574.385925,552.582092 575.444092,548.659851 576.154175,544.356323 
M625.500122,555.850830 
	C618.738098,555.850830 611.976013,555.850830 604.836487,555.850830 
	C604.836487,558.641907 604.835449,560.618835 604.836670,562.595825 
	C604.850037,584.756531 604.865845,606.917297 604.876404,629.078003 
	C604.880859,638.515808 601.335693,642.099976 592.006836,642.096741 
	C569.346252,642.088928 546.684692,642.183777 524.025940,641.977783 
	C519.602844,641.937622 517.723511,642.910706 518.041870,647.728577 
	C518.447510,653.865723 518.105713,660.051880 518.098511,666.216858 
	C518.090576,673.000122 518.096741,679.783386 518.096741,687.166199 
	C521.063171,687.166199 523.348328,687.167542 525.633423,687.166016 
	C547.627502,687.151794 569.621521,687.126160 591.615601,687.127563 
	C600.700500,687.128174 604.796143,691.139282 604.813293,700.131714 
	C604.859680,724.458435 604.854309,748.785339 604.888672,773.112122 
	C604.891174,774.873535 605.048340,776.634705 605.153870,778.815430 
	C619.447693,778.815430 633.247864,778.678284 647.042236,778.899902 
	C651.124878,778.965454 652.049622,777.473389 652.026917,773.673218 
	C651.881470,749.347290 651.952332,725.020020 651.945251,700.693237 
	C651.942505,691.143738 656.030701,686.988647 665.597717,686.985779 
	C688.758118,686.978821 711.918579,687.018250 735.078979,687.018616 
	C736.857117,687.018616 738.635315,686.859192 740.676758,686.761230 
	C740.676758,671.782654 740.676758,657.227844 740.676758,642.104736 
	C738.547913,642.104736 736.762207,642.104797 734.976562,642.104675 
	C712.149414,642.103394 689.322205,642.110657 666.495056,642.096252 
	C658.031677,642.090881 654.264709,638.384705 654.256226,629.979919 
	C654.233276,607.319397 654.252869,584.658875 654.255493,561.998352 
	C654.255737,560.084351 654.255493,558.170349 654.255493,555.850586 
	C644.447449,555.850586 635.473755,555.850586 625.500122,555.850830 
z"/>
<path fill="#9978D7" opacity="1.000000" stroke="none" 
	d="
M626.000122,555.850708 
	C635.473755,555.850586 644.447449,555.850586 654.255493,555.850586 
	C654.255493,558.170349 654.255737,560.084351 654.255493,561.998352 
	C654.252869,584.658875 654.233276,607.319397 654.256226,629.979919 
	C654.264709,638.384705 658.031677,642.090881 666.495056,642.096252 
	C689.322205,642.110657 712.149414,642.103394 734.976562,642.104675 
	C736.762207,642.104797 738.547913,642.104736 740.676758,642.104736 
	C740.676758,657.227844 740.676758,671.782654 740.676758,686.761230 
	C738.635315,686.859192 736.857117,687.018616 735.078979,687.018616 
	C711.918579,687.018250 688.758118,686.978821 665.597717,686.985779 
	C656.030701,686.988647 651.942505,691.143738 651.945251,700.693237 
	C651.952332,725.020020 651.881470,749.347290 652.026917,773.673218 
	C652.049622,777.473389 651.124878,778.965454 647.042236,778.899902 
	C633.247864,778.678284 619.447693,778.815430 605.153870,778.815430 
	C605.048340,776.634705 604.891174,774.873535 604.888672,773.112122 
	C604.854309,748.785339 604.859680,724.458435 604.813293,700.131714 
	C604.796143,691.139282 600.700500,687.128174 591.615601,687.127563 
	C569.621521,687.126160 547.627502,687.151794 525.633423,687.166016 
	C523.348328,687.167542 521.063171,687.166199 518.096741,687.166199 
	C518.096741,679.783386 518.090576,673.000122 518.098511,666.216858 
	C518.105713,660.051880 518.447510,653.865723 518.041870,647.728577 
	C517.723511,642.910706 519.602844,641.937622 524.025940,641.977783 
	C546.684692,642.183777 569.346252,642.088928 592.006836,642.096741 
	C601.335693,642.099976 604.880859,638.515808 604.876404,629.078003 
	C604.865845,606.917297 604.850037,584.756531 604.836670,562.595825 
	C604.835449,560.618835 604.836487,558.641907 604.836487,555.850830 
	C611.976013,555.850830 618.738098,555.850830 626.000122,555.850708 
z"/>
</svg>
