<svg version="1.1" id="Layer_1" xmlns="http://www.w3.org/2000/svg" xmlns:xlink="http://www.w3.org/1999/xlink" x="0px" y="0px"
	 width="100%" viewBox="0 0 1254 1254" enable-background="new 0 0 1254 1254" xml:space="preserve">

M599.000000,1.000001 
	C620.687561,1.000000 642.375122,1.000000 664.785278,1.334662 
	C701.991821,3.908611 737.992798,9.448491 773.471985,18.139971 
	C872.705200,42.449528 960.258972,89.163124 1035.934937,157.549423 
	C1113.637085,227.766754 1170.270508,312.539856 1206.282715,410.921753 
	C1237.953369,497.443207 1249.818359,586.658386 1242.254272,678.525146 
	C1239.005371,717.981750 1232.104614,756.753235 1221.349854,794.782227 
	C1191.862671,899.048401 1137.700439,988.848755 1060.834106,1064.920044 
	C1001.330017,1123.808594 932.208252,1168.214233 854.500671,1199.323608 
	C792.440491,1224.168823 728.051270,1238.595825 661.326538,1242.289673 
	C612.745972,1244.979004 564.443176,1242.362793 516.554016,1233.319702 
	C452.865997,1221.293091 392.703064,1199.398926 335.662109,1168.785400 
	C224.934158,1109.358643 139.529190,1024.364502 80.379021,913.551697 
	C24.975124,809.757263 3.437718,698.541992 11.294387,581.484070 
	C15.484134,519.060242 29.166006,458.557861 52.150867,400.420227 
	C103.825264,269.715668 188.448669,165.775452 307.894257,91.242836 
	C391.507324,39.069305 483.245575,10.789036 581.374939,2.902127 
	C587.262939,2.428897 593.125549,1.641311 599.000000,1.000001 
M576.959900,971.507812 
	C625.300110,980.572083 672.650635,976.597473 719.068115,960.011536 
	C720.053162,962.286316 720.766479,963.962891 721.502686,965.629272 
	C727.156433,978.426636 734.673096,990.037109 744.986328,999.497375 
	C776.410645,1028.322876 813.090881,1034.502197 852.854004,1022.047791 
	C891.759277,1009.862000 918.372192,983.021606 934.632568,946.323059 
	C952.148071,906.791443 953.246216,866.940491 932.553040,827.826111 
	C931.157654,825.188599 931.677856,823.811523 933.481201,821.823853 
	C947.806580,806.034363 956.023743,787.359619 958.859314,766.339172 
	C962.886414,736.485168 955.846313,708.633972 942.150574,682.397400 
	C918.414490,636.927002 881.414551,604.985413 836.837158,581.057312 
	C831.310364,578.090637 825.635376,575.400024 819.780945,572.456726 
	C821.479248,569.321411 822.988342,566.564026 824.470154,563.792114 
	C825.961365,561.002502 827.519897,558.243774 828.887390,555.393982 
	C850.057861,511.275085 854.920776,465.297272 844.476379,417.603577 
	C843.714722,414.125488 843.147827,411.519165 847.024902,408.772797 
	C891.427368,377.318939 906.117737,320.311615 881.814209,271.595154 
	C847.341309,202.494217 760.470764,191.508667 713.505493,249.383026 
	C710.245667,253.400070 707.735657,253.276642 703.479919,251.659775 
	C652.942932,232.459641 602.265137,232.508224 551.709229,251.476868 
	C546.542725,253.415344 543.935303,253.147141 540.264587,248.660248 
	C513.781433,216.288712 470.786102,203.883255 433.166199,217.274292 
	C355.710663,244.845032 336.004059,347.132874 397.696930,401.496857 
	C402.000641,405.289276 408.729767,408.057709 410.345581,412.691925 
	C412.002594,417.444214 408.646027,423.885193 407.681549,429.620361 
	C399.720764,476.959015 407.260315,521.736328 430.001251,563.981445 
	C431.486359,566.740234 432.976532,569.496338 434.591797,572.489929 
	C433.089691,573.306824 431.971130,573.991089 430.791565,574.545410 
	C412.958771,582.924133 395.894501,592.613708 380.155579,604.513306 
	C344.001282,631.848083 315.304871,665.036255 301.318665,708.912903 
	C288.245544,749.925049 291.824677,788.551453 321.128113,822.379517 
	C322.929474,824.458923 322.698151,825.932617 321.533508,828.067383 
	C309.363617,850.374390 304.243256,874.332031 307.269165,899.464661 
	C314.024506,955.572876 341.471954,997.748413 394.631439,1019.569336 
	C448.718445,1041.770874 509.960297,1020.304688 533.713928,963.572449 
	C534.212402,962.381836 534.878967,961.261536 535.191467,960.648865 
	C549.113098,964.261292 562.626831,967.767822 576.959900,971.507812 
z"/>

M598.531372,1.000001 
	C593.125549,1.641311 587.262939,2.428897 581.374939,2.902127 
	C483.245575,10.789036 391.507324,39.069305 307.894257,91.242836 
	C188.448669,165.775452 103.825264,269.715668 52.150867,400.420227 
	C29.166006,458.557861 15.484134,519.060242 11.294387,581.484070 
	C3.437718,698.541992 24.975124,809.757263 80.379021,913.551697 
	C139.529190,1024.364502 224.934158,1109.358643 335.662109,1168.785400 
	C392.703064,1199.398926 452.865997,1221.293091 516.554016,1233.319702 
	C564.443176,1242.362793 612.745972,1244.979004 661.326538,1242.289673 
	C728.051270,1238.595825 792.440491,1224.168823 854.500671,1199.323608 
	C932.208252,1168.214233 1001.330017,1123.808594 1060.834106,1064.920044 
	C1137.700439,988.848755 1191.862671,899.048401 1221.349854,794.782227 
	C1232.104614,756.753235 1239.005371,717.981750 1242.254272,678.525146 
	C1249.818359,586.658386 1237.953369,497.443207 1206.282715,410.921753 
	C1170.270508,312.539856 1113.637085,227.766754 1035.934937,157.549423 
	C960.258972,89.163124 872.705200,42.449528 773.471985,18.139971 
	C737.992798,9.448491 701.991821,3.908611 665.253906,1.334662 
	C861.649292,1.000000 1058.298584,1.000000 1254.947876,0.999997 
	C1254.965332,1.149261 1254.997803,1.298529 1254.997803,1.447797 
	C1254.999878,419.244202 1255.000000,837.040649 1255.000000,1255.000000 
	C1046.072876,1255.000000 837.145630,1255.000000 628.218445,1255.000000 
	C419.236908,1255.000000 210.255371,1255.000000 1.136922,1255.000000 
	C1.136922,837.000000 1.136922,419.000031 1.136922,1.000000 
	C200.097733,1.000000 399.080200,1.000000 598.531372,1.000001 
z"/>
<path fill="#FEFDFB" opacity="1.000000" stroke="none" 
	d="
M576.550171,971.391052 
	C562.626831,967.767822 549.113098,964.261292 535.191467,960.648865 
	C534.878967,961.261536 534.212402,962.381836 533.713928,963.572449 
	C509.960297,1020.304688 448.718445,1041.770874 394.631439,1019.569336 
	C341.471954,997.748413 314.024506,955.572876 307.269165,899.464661 
	C304.243256,874.332031 309.363617,850.374390 321.533508,828.067383 
	C322.698151,825.932617 322.929474,824.458923 321.128113,822.379517 
	C291.824677,788.551453 288.245544,749.925049 301.318665,708.912903 
	C315.304871,665.036255 344.001282,631.848083 380.155579,604.513306 
	C395.894501,592.613708 412.958771,582.924133 430.791565,574.545410 
	C431.971130,573.991089 433.089691,573.306824 434.591797,572.489929 
	C432.976532,569.496338 431.486359,566.740234 430.001251,563.981445 
	C407.260315,521.736328 399.720764,476.959015 407.681549,429.620361 
	C408.646027,423.885193 412.002594,417.444214 410.345581,412.691925 
	C408.729767,408.057709 402.000641,405.289276 397.696930,401.496857 
	C336.004059,347.132874 355.710663,244.845032 433.166199,217.274292 
	C470.786102,203.883255 513.781433,216.288712 540.264587,248.660248 
	C543.935303,253.147141 546.542725,253.415344 551.709229,251.476868 
	C602.265137,232.508224 652.942932,232.459641 703.479919,251.659775 
	C707.735657,253.276642 710.245667,253.400070 713.505493,249.383026 
	C760.470764,191.508667 847.341309,202.494217 881.814209,271.595154 
	C906.117737,320.311615 891.427368,377.318939 847.024902,408.772797 
	C843.147827,411.519165 843.714722,414.125488 844.476379,417.603577 
	C854.920776,465.297272 850.057861,511.275085 828.887390,555.393982 
	C827.519897,558.243774 825.961365,561.002502 824.470154,563.792114 
	C822.988342,566.564026 821.479248,569.321411 819.780945,572.456726 
	C825.635376,575.400024 831.310364,578.090637 836.837158,581.057312 
	C881.414551,604.985413 918.414490,636.927002 942.150574,682.397400 
	C955.846313,708.633972 962.886414,736.485168 958.859314,766.339172 
	C956.023743,787.359619 947.806580,806.034363 933.481201,821.823853 
	C931.677856,823.811523 931.157654,825.188599 932.553040,827.826111 
	C953.246216,866.940491 952.148071,906.791443 934.632568,946.323059 
	C918.372192,983.021606 891.759277,1009.862000 852.854004,1022.047791 
	C813.090881,1034.502197 776.410645,1028.322876 744.986328,999.497375 
	C734.673096,990.037109 727.156433,978.426636 721.502686,965.629272 
	C720.766479,963.962891 720.053162,962.286316 719.068115,960.011536 
	C672.650635,976.597473 625.300110,980.572083 576.550171,971.391052 
M611.331482,942.308289 
	C644.210022,944.468628 676.135681,939.932129 707.158508,928.826477 
	C710.165649,927.749939 711.774475,926.598816 711.555908,922.918518 
	C709.828369,893.821899 716.666138,866.620972 731.062256,841.452637 
	C746.974121,813.634094 768.750305,792.001404 799.129150,780.145203 
	C801.765198,779.116394 802.119507,777.651184 802.103271,775.267517 
	C801.995728,759.461365 798.886169,744.161987 794.328735,729.125793 
	C788.283264,709.180298 779.200256,690.762878 766.575928,674.094543 
	C760.977600,666.702820 762.509888,656.518921 769.551636,651.391174 
	C776.897461,646.041931 786.288940,647.215393 791.777222,654.437500 
	C812.714233,681.988281 826.282227,712.801880 832.087097,746.932434 
	C833.472900,755.080261 834.114319,763.354614 835.140747,771.926758 
	C863.668213,771.110413 888.757568,779.593262 910.270813,799.098816 
	C912.153992,796.534729 913.911133,794.366211 915.427979,792.040955 
	C926.122070,775.647156 929.251160,757.608765 926.625732,738.464844 
	C923.059143,712.458984 911.541321,689.946167 895.385681,669.683228 
	C870.600037,638.596313 838.530518,617.276794 802.598389,601.216370 
	C799.921875,600.020142 798.429626,600.741760 796.649414,602.739136 
	C776.470215,625.379761 752.211670,642.376099 724.325745,654.118652 
	C682.315308,671.808899 638.495911,676.642822 593.537964,670.907471 
	C540.576965,664.151123 494.362457,643.367432 457.946960,603.261414 
	C455.755341,600.847717 453.878540,600.430664 451.075348,601.871643 
	C440.569183,607.272034 429.699341,612.035583 419.515564,617.979675 
	C388.348083,636.171570 362.068146,659.611328 344.254608,691.475891 
	C331.651154,714.020691 323.727051,737.814758 327.849579,764.173645 
	C329.899658,777.281799 335.284546,788.900024 344.326904,799.196533 
	C365.697662,779.196533 391.189758,771.369812 419.724915,771.878662 
	C419.925140,768.433411 419.986603,765.619629 420.266388,762.827759 
	C424.226868,723.303833 438.082184,687.580811 461.498810,655.523926 
	C467.198669,647.720886 476.731995,645.890747 484.319977,651.269592 
	C491.511871,656.367615 493.016510,666.204956 487.761444,673.961670 
	C485.892731,676.719971 483.867401,679.374695 482.059113,682.170898 
	C463.840424,710.342590 453.750671,741.146973 452.067169,774.693665 
	C451.911438,777.797058 453.075439,779.077209 455.867981,780.601746 
	C466.790009,786.564392 478.570831,791.714050 487.929504,799.646790 
	C525.632263,831.605042 544.424988,872.553955 542.702148,922.351624 
	C542.590332,925.584412 543.160583,927.438293 546.565979,928.668091 
	C567.233887,936.131470 588.467590,940.778076 611.331482,942.308289 
M533.232056,619.326538 
	C554.894653,629.825928 577.800110,635.943481 601.688293,638.333496 
	C645.230042,642.689880 687.080383,636.956787 726.324646,616.622681 
	C793.350281,581.894043 823.402344,511.294922 816.478149,446.204834 
	C811.348022,397.979645 790.605042,356.801208 755.547485,323.504761 
	C709.020142,279.314789 653.538147,261.713165 590.416565,274.727173 
	C495.063873,294.386414 427.490692,387.024139 438.266205,483.707581 
	C445.110748,545.120544 476.919586,590.775940 533.232056,619.326538 
M342.335358,913.982422 
	C345.517670,922.195801 347.931519,930.815308 352.018890,938.550415 
	C367.467377,967.785461 390.424591,987.894226 423.887665,993.368835 
	C464.589020,1000.027588 496.715057,979.009644 507.530060,939.176331 
	C512.836975,919.630188 511.321381,900.128357 505.075897,881.091858 
	C494.390015,848.521057 475.011841,823.279358 442.213654,810.450928 
	C403.592102,795.344604 363.834595,811.786987 346.895355,849.619568 
	C337.696014,870.165649 336.954803,891.487732 342.335358,913.982422 
M907.074890,848.554626 
	C897.896301,829.799255 884.137024,815.789246 864.133240,809.035278 
	C837.763428,800.131958 813.067078,805.445312 791.280823,821.501038 
	C758.855042,845.397827 743.773926,878.663940 743.897461,918.626892 
	C743.961365,939.298706 750.628357,958.124146 765.153076,973.214661 
	C787.173828,996.093323 814.259155,999.134338 843.134766,990.363098 
	C898.319885,973.599854 931.406067,902.622375 907.074890,848.554626 
M830.858643,376.605469 
	C831.329529,377.466003 831.800415,378.326569 832.384644,379.394287 
	C833.466248,378.586029 834.438721,377.968048 835.286194,377.210266 
	C860.912415,354.297211 868.153503,316.644257 852.866821,285.876038 
	C836.520020,252.973999 800.625854,237.395874 767.916016,249.093124 
	C756.473083,253.185211 746.567749,259.548126 738.718079,269.399963 
	C780.808594,295.396393 810.702454,331.348846 830.858643,376.605469 
M450.385895,246.756134 
	C419.071014,253.577515 395.837616,281.641541 393.484650,316.733795 
	C391.980865,339.160950 406.871796,372.220001 422.656708,379.013885 
	C442.130951,332.833862 472.662109,295.868958 515.848572,269.163605 
	C497.626282,250.111526 476.634613,241.960159 450.385895,246.756134 
z"/>
<path fill="#FBC31D" opacity="1.000000" stroke="none" 
	d="
M610.863464,942.273682 
	C588.467590,940.778076 567.233887,936.131470 546.565979,928.668091 
	C543.160583,927.438293 542.590332,925.584412 542.702148,922.351624 
	C544.424988,872.553955 525.632263,831.605042 487.929504,799.646790 
	C478.570831,791.714050 466.790009,786.564392 455.867981,780.601746 
	C453.075439,779.077209 451.911438,777.797058 452.067169,774.693665 
	C453.750671,741.146973 463.840424,710.342590 482.059113,682.170898 
	C483.867401,679.374695 485.892731,676.719971 487.761444,673.961670 
	C493.016510,666.204956 491.511871,656.367615 484.319977,651.269592 
	C476.731995,645.890747 467.198669,647.720886 461.498810,655.523926 
	C438.082184,687.580811 424.226868,723.303833 420.266388,762.827759 
	C419.986603,765.619629 419.925140,768.433411 419.724915,771.878662 
	C391.189758,771.369812 365.697662,779.196533 344.326904,799.196533 
	C335.284546,788.900024 329.899658,777.281799 327.849579,764.173645 
	C323.727051,737.814758 331.651154,714.020691 344.254608,691.475891 
	C362.068146,659.611328 388.348083,636.171570 419.515564,617.979675 
	C429.699341,612.035583 440.569183,607.272034 451.075348,601.871643 
	C453.878540,600.430664 455.755341,600.847717 457.946960,603.261414 
	C494.362457,643.367432 540.576965,664.151123 593.537964,670.907471 
	C638.495911,676.642822 682.315308,671.808899 724.325745,654.118652 
	C752.211670,642.376099 776.470215,625.379761 796.649414,602.739136 
	C798.429626,600.741760 799.921875,600.020142 802.598389,601.216370 
	C838.530518,617.276794 870.600037,638.596313 895.385681,669.683228 
	C911.541321,689.946167 923.059143,712.458984 926.625732,738.464844 
	C929.251160,757.608765 926.122070,775.647156 915.427979,792.040955 
	C913.911133,794.366211 912.153992,796.534729 910.270813,799.098816 
	C888.757568,779.593262 863.668213,771.110413 835.140747,771.926758 
	C834.114319,763.354614 833.472900,755.080261 832.087097,746.932434 
	C826.282227,712.801880 812.714233,681.988281 791.777222,654.437500 
	C786.288940,647.215393 776.897461,646.041931 769.551636,651.391174 
	C762.509888,656.518921 760.977600,666.702820 766.575928,674.094543 
	C779.200256,690.762878 788.283264,709.180298 794.328735,729.125793 
	C798.886169,744.161987 801.995728,759.461365 802.103271,775.267517 
	C802.119507,777.651184 801.765198,779.116394 799.129150,780.145203 
	C768.750305,792.001404 746.974121,813.634094 731.062256,841.452637 
	C716.666138,866.620972 709.828369,893.821899 711.555908,922.918518 
	C711.774475,926.598816 710.165649,927.749939 707.158508,928.826477 
	C676.135681,939.932129 644.210022,944.468628 610.863464,942.273682 
z"/>
<path fill="#FBC31D" opacity="1.000000" stroke="none" 
	d="
M532.893188,619.167969 
	C476.919586,590.775940 445.110748,545.120544 438.266205,483.707581 
	C427.490692,387.024139 495.063873,294.386414 590.416565,274.727173 
	C653.538147,261.713165 709.020142,279.314789 755.547485,323.504761 
	C790.605042,356.801208 811.348022,397.979645 816.478149,446.204834 
	C823.402344,511.294922 793.350281,581.894043 726.324646,616.622681 
	C687.080383,636.956787 645.230042,642.689880 601.688293,638.333496 
	C577.800110,635.943481 554.894653,629.825928 532.893188,619.167969 
M719.339050,500.206268 
	C715.062683,489.709503 708.715759,480.578125 700.536438,472.816498 
	C661.888062,436.141602 598.652466,434.423096 557.952942,468.841400 
	C517.801575,502.796143 520.449890,558.475769 563.632812,588.258362 
	C603.164185,615.522522 662.852234,612.412781 699.221558,581.194153 
	C722.691895,561.047729 730.651245,529.760986 719.339050,500.206268 
M566.727539,421.547363 
	C566.428345,419.577393 566.284851,417.568390 565.803101,415.644135 
	C563.660461,407.085052 555.614197,400.197662 546.539490,399.032043 
	C537.197266,397.832092 528.168396,402.568848 523.704346,411.011993 
	C519.486389,418.989685 520.475525,429.006561 526.339539,435.815826 
	C532.541504,443.017517 540.385620,445.915314 549.620850,443.302887 
	C560.021301,440.360840 565.620361,433.112457 566.727539,421.547363 
M717.235962,399.881592 
	C716.105408,399.607819 714.988647,399.235718 713.842224,399.075531 
	C702.766968,397.528137 692.694092,403.494720 688.906738,413.808655 
	C685.294983,423.644165 688.977173,434.634796 697.845520,440.489563 
	C706.507507,446.208160 718.296753,445.090210 725.914307,437.816711 
	C737.540405,426.715698 734.306152,406.564026 717.235962,399.881592 
z"/>
<path fill="#FBC41E" opacity="1.000000" stroke="none" 
	d="
M342.222443,913.583679 
	C336.954803,891.487732 337.696014,870.165649 346.895355,849.619568 
	C363.834595,811.786987 403.592102,795.344604 442.213654,810.450928 
	C475.011841,823.279358 494.390015,848.521057 505.075897,881.091858 
	C511.321381,900.128357 512.836975,919.630188 507.530060,939.176331 
	C496.715057,979.009644 464.589020,1000.027588 423.887665,993.368835 
	C390.424591,987.894226 367.467377,967.785461 352.018890,938.550415 
	C347.931519,930.815308 345.517670,922.195801 342.222443,913.583679 
M462.285126,882.294678 
	C456.857544,871.506165 449.194092,862.693848 439.022247,856.136719 
	C415.574036,841.020935 389.799988,849.996643 380.908051,876.370667 
	C377.925446,885.217346 377.237488,894.317932 378.862732,903.457947 
	C382.970673,926.560059 393.182373,945.721375 415.370575,956.170288 
	C435.605408,965.699280 456.095612,957.868774 465.130768,937.384583 
	C473.272766,918.925293 471.263092,900.733826 462.285126,882.294678 
z"/>
<path fill="#FBC41E" opacity="1.000000" stroke="none" 
	d="
M907.205322,848.910095 
	C931.406067,902.622375 898.319885,973.599854 843.134766,990.363098 
	C814.259155,999.134338 787.173828,996.093323 765.153076,973.214661 
	C750.628357,958.124146 743.961365,939.298706 743.897461,918.626892 
	C743.773926,878.663940 758.855042,845.397827 791.280823,821.501038 
	C813.067078,805.445312 837.763428,800.131958 864.133240,809.035278 
	C884.137024,815.789246 897.896301,829.799255 907.205322,848.910095 
M800.195984,952.355652 
	C812.430969,961.856506 825.580078,962.266846 839.209717,955.972961 
	C867.891602,942.728210 884.009277,903.043274 872.550537,873.581787 
	C868.558655,863.318359 862.024170,855.058228 851.178650,851.184082 
	C835.780396,845.683716 822.248596,850.181885 810.167236,859.784851 
	C796.013123,871.035156 787.698425,886.056885 785.052429,903.851257 
	C782.354248,921.996277 785.610718,938.672241 800.195984,952.355652 
z"/>
<path fill="#FBC31E" opacity="1.000000" stroke="none" 
	d="
M830.706421,376.261169 
	C810.702454,331.348846 780.808594,295.396393 738.718079,269.399963 
	C746.567749,259.548126 756.473083,253.185211 767.916016,249.093124 
	C800.625854,237.395874 836.520020,252.973999 852.866821,285.876038 
	C868.153503,316.644257 860.912415,354.297211 835.286194,377.210266 
	C834.438721,377.968048 833.466248,378.586029 832.384644,379.394287 
	C831.800415,378.326569 831.329529,377.466003 830.706421,376.261169 
z"/>
<path fill="#FBC31E" opacity="1.000000" stroke="none" 
	d="
M450.795685,246.640472 
	C476.634613,241.960159 497.626282,250.111526 515.848572,269.163605 
	C472.662109,295.868958 442.130951,332.833862 422.656708,379.013885 
	C406.871796,372.220001 391.980865,339.160950 393.484650,316.733795 
	C395.837616,281.641541 419.071014,253.577515 450.795685,246.640472 
z"/>
<path fill="#FEFDFB" opacity="1.000000" stroke="none" 
	d="
M719.491943,500.560242 
	C730.651245,529.760986 722.691895,561.047729 699.221558,581.194153 
	C662.852234,612.412781 603.164185,615.522522 563.632812,588.258362 
	C520.449890,558.475769 517.801575,502.796143 557.952942,468.841400 
	C598.652466,434.423096 661.888062,436.141602 700.536438,472.816498 
	C708.715759,480.578125 715.062683,489.709503 719.491943,500.560242 
M651.804504,567.861084 
	C665.898499,566.758301 676.396790,559.259644 685.032410,548.777405 
	C690.301086,542.382019 686.467590,533.786011 678.138794,532.742981 
	C673.547668,532.168030 669.791382,533.635315 666.323975,536.803955 
	C660.704712,541.939087 653.958740,543.938843 646.440430,542.060852 
	C642.240051,541.011597 639.409424,538.766602 639.899963,533.635010 
	C640.294312,529.510315 640.281067,525.276978 639.833435,521.158752 
	C639.239563,515.695251 641.205444,512.909119 646.432617,510.773407 
	C650.865845,508.962006 655.174988,505.734589 658.302551,502.076538 
	C664.428101,494.911835 662.343689,485.579315 653.754944,481.731995 
	C635.954102,473.758057 617.847778,473.735077 600.090759,481.924652 
	C592.334656,485.501770 590.233948,494.430145 595.152771,501.344818 
	C597.128601,504.122467 599.689514,507.585663 602.624817,508.385315 
	C614.340820,511.577057 615.459534,519.847351 614.284119,529.724854 
	C614.108093,531.204407 614.063782,532.744080 614.261597,534.215210 
	C614.818787,538.356995 612.440247,540.405945 609.050537,541.618591 
	C600.916870,544.528259 593.945557,541.973511 587.905090,536.493225 
	C584.401123,533.314270 580.491150,532.104858 575.976929,532.728516 
	C567.574951,533.889221 563.739807,542.605652 569.202576,548.952637 
	C578.104126,559.295105 588.697510,567.075073 603.083679,568.859009 
	C604.048035,569.567139 604.916809,570.654541 605.991455,570.925537 
	C618.809509,574.157898 631.738342,574.809570 644.658936,571.711792 
	C646.934570,571.166199 648.898865,569.322144 651.804504,567.861084 
z"/>
<path fill="#FEFDF9" opacity="1.000000" stroke="none" 
	d="
M566.725952,421.963196 
	C565.620361,433.112457 560.021301,440.360840 549.620850,443.302887 
	C540.385620,445.915314 532.541504,443.017517 526.339539,435.815826 
	C520.475525,429.006561 519.486389,418.989685 523.704346,411.011993 
	C528.168396,402.568848 537.197266,397.832092 546.539490,399.032043 
	C555.614197,400.197662 563.660461,407.085052 565.803101,415.644135 
	C566.284851,417.568390 566.428345,419.577393 566.725952,421.963196 
z"/>
<path fill="#FEFDF9" opacity="1.000000" stroke="none" 
	d="
M717.623962,399.992126 
	C734.306152,406.564026 737.540405,426.715698 725.914307,437.816711 
	C718.296753,445.090210 706.507507,446.208160 697.845520,440.489563 
	C688.977173,434.634796 685.294983,423.644165 688.906738,413.808655 
	C692.694092,403.494720 702.766968,397.528137 713.842224,399.075531 
	C714.988647,399.235718 716.105408,399.607819 717.623962,399.992126 
z"/>
<path fill="#FEFDFC" opacity="1.000000" stroke="none" 
	d="
M462.478821,882.613892 
	C471.263092,900.733826 473.272766,918.925293 465.130768,937.384583 
	C456.095612,957.868774 435.605408,965.699280 415.370575,956.170288 
	C393.182373,945.721375 382.970673,926.560059 378.862732,903.457947 
	C377.237488,894.317932 377.925446,885.217346 380.908051,876.370667 
	C389.799988,849.996643 415.574036,841.020935 439.022247,856.136719 
	C449.194092,862.693848 456.857544,871.506165 462.478821,882.613892 
z"/>
<path fill="#FEFDFC" opacity="1.000000" stroke="none" 
	d="
M799.915161,952.131714 
	C785.610718,938.672241 782.354248,921.996277 785.052429,903.851257 
	C787.698425,886.056885 796.013123,871.035156 810.167236,859.784851 
	C822.248596,850.181885 835.780396,845.683716 851.178650,851.184082 
	C862.024170,855.058228 868.558655,863.318359 872.550537,873.581787 
	C884.009277,903.043274 867.891602,942.728210 839.209717,955.972961 
	C825.580078,962.266846 812.430969,961.856506 799.915161,952.131714 
z"/>
<path fill="#FBC420" opacity="1.000000" stroke="none" 
	d="
M602.988831,568.113464 
	C588.697510,567.075073 578.104126,559.295105 569.202576,548.952637 
	C563.739807,542.605652 567.574951,533.889221 575.976929,532.728516 
	C580.491150,532.104858 584.401123,533.314270 587.905090,536.493225 
	C593.945557,541.973511 600.916870,544.528259 609.050537,541.618591 
	C612.440247,540.405945 614.818787,538.356995 614.261597,534.215210 
	C614.063782,532.744080 614.108093,531.204407 614.284119,529.724854 
	C615.459534,519.847351 614.340820,511.577057 602.624817,508.385315 
	C599.689514,507.585663 597.128601,504.122467 595.152771,501.344818 
	C590.233948,494.430145 592.334656,485.501770 600.090759,481.924652 
	C617.847778,473.735077 635.954102,473.758057 653.754944,481.731995 
	C662.343689,485.579315 664.428101,494.911835 658.302551,502.076538 
	C655.174988,505.734589 650.865845,508.962006 646.432617,510.773407 
	C641.205444,512.909119 639.239563,515.695251 639.833435,521.158752 
	C640.281067,525.276978 640.294312,529.510315 639.899963,533.635010 
	C639.409424,538.766602 642.240051,541.011597 646.440430,542.060852 
	C653.958740,543.938843 660.704712,541.939087 666.323975,536.803955 
	C669.791382,533.635315 673.547668,532.168030 678.138794,532.742981 
	C686.467590,533.786011 690.301086,542.382019 685.032410,548.777405 
	C676.396790,559.259644 665.898499,566.758301 650.966553,567.897461 
	C642.709045,568.047791 635.699951,566.635803 629.240173,562.745789 
	C628.177368,562.105713 626.192749,561.823425 625.224182,562.387939 
	C618.320435,566.411987 610.849243,567.953125 602.988831,568.113464 
z"/>
<path fill="#FCF8EA" opacity="1.000000" stroke="none" 
	d="
M603.036255,568.486206 
	C610.849243,567.953125 618.320435,566.411987 625.224182,562.387939 
	C626.192749,561.823425 628.177368,562.105713 629.240173,562.745789 
	C635.699951,566.635803 642.709045,568.047791 650.567749,568.005737 
	C648.898865,569.322144 646.934570,571.166199 644.658936,571.711792 
	C631.738342,574.809570 618.809509,574.157898 605.991455,570.925537 
	C604.916809,570.654541 604.048035,569.567139 603.036255,568.486206 
z"/>
</svg>
