<svg version="1.1" id="Layer_1" xmlns="http://www.w3.org/2000/svg" xmlns:xlink="http://www.w3.org/1999/xlink" x="0px" y="0px"
	 width="100%" viewBox="0 0 1000 1000" enable-background="new 0 0 1000 1000" xml:space="preserve">
<path fill="#FFFFFF" opacity="1.000000" stroke="none" 
	d="
M691.000000,1001.000000 
	C460.666656,1001.000000 230.833328,1001.000000 1.000000,1001.000000 
	C1.000000,667.666687 1.000000,334.333344 1.000000,1.000000 
	C334.333344,1.000000 667.666687,1.000000 1001.000000,1.000000 
	C1001.000000,334.333344 1001.000000,667.666687 1001.000000,1001.000000 
	C897.833313,1001.000000 794.666687,1001.000000 691.000000,1001.000000 
M765.953308,804.454651 
	C743.688599,811.657532 720.619568,814.138306 697.450012,814.787354 
	C681.605225,815.231323 665.673645,814.072937 649.837280,812.880615 
	C635.261536,811.783203 620.664490,810.268188 606.251221,807.883179 
	C586.388000,804.596191 566.550720,800.908936 546.951416,796.327454 
	C517.386475,789.416443 488.209991,780.982117 459.870972,769.959961 
	C439.705109,762.116577 419.402039,754.528015 399.684662,745.659607 
	C383.241425,738.263916 367.399963,729.464905 351.584229,720.756592 
	C333.693817,710.906067 317.053345,699.077576 301.986694,685.311584 
	C287.102295,671.712036 276.205017,655.310364 272.238220,635.176025 
	C269.324402,620.386292 270.838104,606.158142 278.553070,592.669800 
	C287.359802,577.272644 301.201843,569.191467 317.445160,564.396423 
	C322.104095,563.021179 327.169708,561.974426 331.948792,562.290222 
	C340.026611,562.824219 346.722260,567.122681 352.858795,572.326111 
	C367.108765,584.409119 382.282257,594.983093 400.154083,601.227051 
	C402.420166,602.018738 404.428467,604.242737 405.979279,606.249146 
	C409.687164,611.046326 412.476959,616.668152 416.658142,620.963440 
	C430.758148,635.448242 448.347076,641.813293 468.404266,640.863403 
	C473.908600,640.602722 479.335083,638.698425 484.797302,637.548401 
	C484.740265,637.009949 484.683228,636.471497 484.626221,635.933044 
	C480.948364,635.289734 477.271271,634.642090 473.592499,634.003967 
	C459.886475,631.626343 446.522369,628.023132 435.071960,619.848877 
	C429.927521,616.176392 424.643860,611.996521 422.433075,604.992798 
	C437.818024,605.387268 451.768036,602.166626 464.978668,595.556396 
	C469.203705,593.442383 473.230103,592.956055 477.869904,595.713440 
	C481.204224,597.695068 485.668243,597.775696 489.628326,598.704407 
	C489.909454,598.228760 490.190613,597.753113 490.471741,597.277466 
	C486.440063,594.325134 482.408386,591.372742 478.129608,588.239441 
	C496.883881,572.078674 512.285583,556.784180 512.603516,532.246338 
	C512.109314,532.647034 511.592407,532.867188 511.400970,533.250061 
	C504.309662,547.432251 494.505219,559.376953 482.679871,569.955017 
	C472.487671,579.072205 461.642548,587.097839 448.730499,591.488159 
	C431.820007,597.238098 414.613007,598.066650 399.898010,586.146423 
	C389.739502,577.917236 379.141724,570.710510 367.883606,564.158997 
	C355.201813,556.779053 343.351227,547.882019 334.685272,535.925659 
	C318.566315,513.686584 311.122803,488.907104 314.931610,461.170990 
	C318.138519,437.817810 329.636658,419.326660 348.224823,405.581512 
	C370.354584,389.217499 395.473236,382.800171 422.874420,387.021301 
	C452.386688,391.567688 474.070282,407.374298 488.194366,433.600555 
	C490.572662,438.016693 492.645111,442.597565 494.904663,447.195557 
	C497.318604,446.382721 499.322479,445.669220 501.351318,445.035645 
	C503.385895,444.400269 505.426239,443.764374 507.497864,443.270264 
	C512.381470,442.105591 517.575134,445.668457 516.817993,450.495453 
	C515.867188,456.556824 514.638184,463.032898 511.584290,468.174805 
	C508.637360,473.136505 509.173096,476.408356 512.008789,480.615356 
	C517.599609,488.909851 520.057617,498.251465 519.929749,508.183990 
	C519.868896,512.911377 519.097961,517.629578 518.611023,522.748413 
	C522.036743,523.342346 524.769714,523.717529 527.458374,524.298096 
	C546.223083,528.350098 563.981262,534.903137 580.523376,544.827820 
	C602.332458,557.912354 620.244690,574.600952 631.378479,597.844177 
	C638.962158,613.675964 640.817810,630.131775 634.831970,646.736389 
	C629.826233,660.622375 619.703003,670.652344 607.809814,679.143066 
	C599.734924,684.907898 591.379395,690.179504 581.192566,688.765198 
	C575.029663,687.909485 569.207825,684.681458 563.196594,682.624817 
	C558.028748,680.856689 552.809631,679.237976 547.057739,677.373108 
	C547.318054,678.938843 547.256042,679.507324 547.503845,679.854919 
	C547.981018,680.524170 548.552368,681.187256 549.225403,681.646790 
	C559.179810,688.442566 568.684570,695.725037 576.002686,705.491455 
	C582.143433,713.686584 588.027954,721.891357 586.029358,733.094177 
	C585.128906,738.141724 582.980347,741.692871 577.404785,741.799072 
	C573.229675,741.878723 570.318787,739.809326 568.486877,735.991089 
	C565.559998,729.890564 561.115051,725.470947 554.692139,722.788025 
	C547.722961,719.876831 540.978088,716.407227 534.226685,713.000366 
	C519.691772,705.665955 508.134216,695.327576 501.069305,680.315735 
	C496.080933,669.716125 497.270264,655.809143 503.863159,648.600769 
	C517.898560,633.255066 536.065247,631.677551 554.951233,633.653992 
	C564.931702,634.698486 574.741638,637.373108 584.839905,639.353210 
	C570.506592,625.131042 552.134766,622.184448 533.093994,620.753906 
	C535.292358,609.362244 537.978088,598.172302 527.438293,588.095886 
	C526.846741,591.839233 526.155640,594.507263 526.045898,597.198975 
	C525.542664,609.529297 520.787231,619.482666 510.259033,626.346863 
	C500.639435,632.618713 491.678284,639.410767 487.087708,650.604553 
	C481.208252,664.940979 481.065491,678.798950 490.005554,691.916199 
	C500.951141,707.976074 517.013489,717.518311 533.881531,726.153809 
	C544.475281,731.577209 555.528320,735.479797 563.480652,746.202942 
	C571.759460,757.366211 588.497925,757.723450 595.979126,742.790039 
	C601.502197,731.765320 599.815857,720.843079 593.900879,710.349243 
	C591.525696,706.135437 589.266479,701.856262 587.189880,698.039490 
	C594.457092,696.102051 601.404175,694.721985 608.022156,692.403076 
	C635.137024,682.901855 649.296265,660.157532 650.987244,633.139954 
	C651.855774,619.262817 649.448486,605.885681 644.471375,592.944031 
	C636.856201,573.142883 623.991699,557.741821 605.520874,547.263794 
	C597.976379,542.983948 596.382935,540.273865 598.173401,531.775879 
	C598.443298,530.494934 599.059814,529.182190 598.935852,527.942139 
	C598.522095,523.802185 600.504517,522.839905 604.254028,522.935852 
	C612.369080,523.143677 620.493103,522.999878 629.184998,522.999878 
	C629.819214,515.262695 630.380005,508.057709 631.008118,500.858582 
	C631.637146,493.648468 632.092468,486.411804 633.056152,479.244904 
	C634.529602,468.286072 640.043579,459.149719 648.498779,452.501740 
	C655.279785,447.170135 662.966553,442.571045 670.917358,439.233551 
	C687.696594,432.190277 690.985535,415.445679 687.973511,398.332489 
	C685.996643,402.323303 684.710327,405.469604 682.962097,408.333954 
	C679.390930,414.185211 676.489929,420.878326 671.613770,425.387024 
	C665.947937,430.625854 658.566284,434.080292 651.735291,437.968048 
	C644.439209,442.120422 636.834595,445.745239 632.186951,453.268463 
	C630.639526,455.773285 629.074219,458.339020 627.078003,460.464478 
	C626.074707,461.532745 623.839661,462.489777 622.584595,462.107697 
	C613.840332,459.445953 607.928955,452.880615 602.174866,446.293915 
	C599.125061,442.802765 596.538513,438.906891 593.552063,434.940338 
	C588.990234,444.746490 595.394958,458.295166 602.915344,464.027252 
	C607.216187,467.305298 611.747131,470.282410 616.026855,473.586273 
	C616.997681,474.335724 617.861206,475.854187 617.917786,477.058868 
	C618.391724,487.147583 618.506531,497.254669 619.071899,507.336975 
	C619.328613,511.914978 617.229614,513.129211 613.211609,513.029785 
	C608.214783,512.906128 603.211548,512.935730 598.213074,513.018677 
	C593.044617,513.104370 589.239441,515.346191 588.035339,520.610229 
	C586.978882,525.229248 586.341309,529.944031 585.548462,534.447327 
	C566.021179,528.731323 546.451294,523.002808 526.280518,517.098450 
	C526.250488,517.401978 526.333130,516.323364 526.467529,515.251282 
	C526.956116,511.355103 528.366333,507.320740 527.787537,503.593323 
	C526.206909,493.413116 523.706909,483.378510 521.787231,473.245300 
	C521.469543,471.568176 521.774292,469.429626 522.588013,467.939362 
	C526.812195,460.203156 528.965759,452.249359 526.992432,443.371582 
	C525.114746,434.923920 517.266602,427.805420 510.769104,429.132324 
	C506.457733,430.012787 502.164459,430.981628 497.793060,431.926056 
	C497.496033,431.505188 497.164825,431.141968 496.957123,430.718170 
	C496.596954,429.983215 496.313110,429.210785 495.997437,428.454010 
	C487.469330,408.008087 474.018280,391.906097 454.170319,381.625641 
	C433.641815,370.992737 411.896576,368.489075 389.163788,371.913940 
	C365.588715,375.465729 345.351837,385.704895 328.450653,402.188660 
	C315.497009,414.822357 306.804504,430.396118 302.222992,447.866425 
	C298.260437,462.976532 296.802460,478.486694 301.958801,493.665405 
	C305.692596,504.656616 310.272064,515.365479 314.633331,526.135986 
	C316.194550,529.991455 318.221588,533.658264 320.110901,537.566101 
	C313.361359,538.438354 307.301208,539.036987 301.306458,540.030396 
	C281.987793,543.231689 264.409424,549.705444 251.110031,565.242371 
	C241.151352,576.876526 236.268570,590.354614 235.079224,605.229370 
	C233.162292,629.203735 239.097870,651.694763 249.557266,673.044434 
	C260.734100,695.858582 277.505615,714.291077 296.920532,730.221802 
	C314.833130,744.919739 334.346527,757.416870 354.794067,768.350952 
	C384.590820,784.284241 415.422211,798.089966 447.488434,808.586243 
	C476.565826,818.104187 506.221741,825.909973 535.788574,833.852722 
	C549.854309,837.631348 564.217041,840.528564 578.604126,842.832397 
	C598.701782,846.050598 618.902100,848.780823 639.144470,850.897156 
	C657.664124,852.833374 676.282104,854.039124 694.887939,854.858643 
	C705.290405,855.316895 715.777954,854.647827 726.188416,853.927124 
	C741.128906,852.892700 756.084717,851.758484 770.942993,849.928162 
	C795.893616,846.854736 819.814819,840.094299 841.812622,827.578857 
	C852.487793,821.505432 861.773560,813.694580 869.086548,803.711487 
	C883.922058,783.459167 884.403870,760.968079 879.368164,737.620239 
	C875.783508,721.000183 867.438904,706.363770 859.661133,691.573303 
	C855.673096,683.989563 850.573608,676.861511 842.680481,670.795410 
	C843.096802,674.048462 843.454468,676.268188 843.653748,678.501953 
	C844.458984,687.527832 845.614136,696.547913 845.842102,705.590332 
	C845.981262,711.110168 844.714661,716.673035 843.996033,722.205688 
	C841.421448,742.027649 833.447388,759.419434 819.591187,773.796082 
	C804.960693,788.976013 786.799866,798.328491 765.953308,804.454651 
M596.229004,144.123169 
	C590.092896,143.039185 583.933960,142.069839 577.825195,140.848846 
	C562.041321,137.694000 546.086914,138.106796 530.387695,140.275452 
	C510.189606,143.065628 490.801727,149.047150 472.970856,159.461914 
	C458.260742,168.053894 444.153320,177.329224 433.548248,190.981384 
	C422.470459,205.242203 411.078125,219.287598 400.629517,233.999725 
	C391.156677,247.337814 382.497406,261.280823 373.968262,275.255432 
	C361.861694,295.091461 348.274933,313.754211 330.008301,328.279938 
	C312.704529,342.039978 294.584686,354.771179 276.885651,368.037415 
	C254.705856,384.662231 231.791031,400.428986 210.674820,418.314972 
	C190.498581,435.404816 173.387482,455.515717 162.684814,480.430542 
	C156.360184,495.153687 152.698654,510.435181 152.264603,526.193054 
	C151.935776,538.130676 153.010635,550.328552 155.258957,562.066223 
	C159.129471,582.272766 166.393173,601.569702 176.071915,619.705139 
	C183.398605,633.433594 191.580292,646.786194 200.370483,659.629150 
	C208.237747,671.123596 217.327225,681.799133 226.173920,692.592957 
	C228.285370,695.169128 231.576782,696.778137 235.482956,699.696899 
	C234.820038,697.335083 234.710449,696.536194 234.383255,695.839539 
	C228.497849,683.307678 222.650650,670.757141 216.665863,658.272766 
	C206.119186,636.272217 201.915955,612.664307 200.239792,588.696289 
	C199.257843,574.655029 200.086365,560.401489 201.183182,546.327820 
	C202.046463,535.250549 203.845581,524.125061 206.502014,513.334290 
	C211.865341,491.547760 220.230865,470.851837 231.800583,451.541809 
	C242.562515,433.579956 255.744186,417.546051 272.184021,404.617371 
	C284.254089,395.125153 297.340973,386.930695 309.915924,378.074402 
	C327.722351,365.533600 346.095398,353.690857 363.063843,340.098633 
	C378.019440,328.118744 391.382690,314.150604 405.441010,301.051788 
	C406.659576,299.916412 407.807983,298.706146 409.005707,297.548004 
	C418.079529,288.774231 427.689941,280.483734 436.111023,271.123138 
	C449.161621,256.616547 462.145142,242.241013 478.368134,231.042801 
	C501.485626,215.085571 526.951782,206.526657 554.945190,206.170883 
	C563.752014,206.058990 572.719788,207.303207 581.382324,209.065430 
	C622.504700,217.430939 655.398071,238.582733 679.646484,273.070190 
	C698.081360,299.289337 709.370239,328.326721 712.794250,360.033020 
	C715.753601,387.436096 708.135803,412.741547 692.845581,435.497864 
	C682.971313,450.193634 672.169067,464.264130 661.854797,478.666504 
	C646.947510,499.482330 638.028748,522.121887 639.916626,548.331848 
	C640.943481,562.587036 645.010254,575.755493 652.429504,587.810303 
	C655.450745,592.719238 659.368408,597.238770 665.794861,598.875977 
	C665.860474,597.830017 666.086914,597.129883 665.913940,596.548523 
	C662.463013,584.948669 658.847046,573.396667 655.509949,561.764526 
	C651.736145,548.610229 651.128662,535.425842 655.905518,522.315308 
	C662.590271,503.968536 676.055054,490.695557 689.833313,477.863617 
	C705.038757,463.702545 721.766663,451.124451 733.765381,433.762512 
	C740.639771,423.815552 744.844727,412.775513 745.877930,400.883820 
	C747.928406,377.284241 741.209656,355.481476 729.926758,335.112427 
	C725.200928,326.580963 723.364075,317.757141 722.986206,308.314819 
	C722.708435,301.371521 722.948486,294.327545 721.831848,287.512970 
	C718.714905,268.490601 713.138550,250.101654 704.388000,232.904770 
	C692.445374,209.434937 676.688293,188.919479 655.449097,172.946854 
	C637.796387,159.671417 618.407227,149.992432 596.229004,144.123169 
M555.262085,395.118286 
	C552.041077,394.511688 548.751953,394.146637 545.609741,393.260498 
	C518.680542,385.665802 491.785980,377.948029 464.857880,370.349243 
	C461.130280,369.297394 457.275940,368.694763 453.480255,367.884155 
	C453.237915,368.499908 452.995544,369.115692 452.753204,369.731445 
	C459.757324,374.152435 466.368896,379.440948 473.843048,382.823212 
	C492.343811,391.195282 511.061218,399.160797 530.027161,406.412048 
	C548.270447,413.387024 567.231812,418.574219 586.764709,419.708130 
	C599.720886,420.460205 612.919128,419.440826 625.840271,417.846405 
	C646.292175,415.322632 663.911011,406.806824 676.654053,389.858002 
	C682.147705,382.551117 685.269348,374.308868 687.256409,364.196594 
	C684.852783,365.659363 683.453186,366.408691 682.162109,367.312866 
	C670.917908,375.187897 660.398621,383.945709 647.446106,389.440948 
	C632.198914,395.909729 616.461121,399.875000 600.174622,399.715088 
	C585.451965,399.570557 570.753052,397.004669 555.262085,395.118286 
M462.898773,494.360321 
	C458.324951,500.562408 453.751129,506.764526 448.165924,514.338074 
	C454.634521,512.281982 460.589874,511.394318 465.474915,508.621155 
	C474.830841,503.309998 475.123932,492.526947 466.556793,487.143219 
	C465.402679,489.316010 464.253296,491.479919 462.898773,494.360321 
M401.729065,564.999756 
	C404.218231,564.998840 406.722839,565.175110 409.193390,564.960266 
	C414.424988,564.505371 419.359192,562.721924 420.270630,557.006165 
	C421.090759,551.863037 420.443512,546.485901 420.443512,542.395020 
	C412.674774,549.607361 404.599915,557.103943 396.313293,564.797058 
	C397.931732,564.869812 399.377289,564.934875 401.729065,564.999756 
M464.024109,547.567078 
	C460.449036,551.472107 456.873993,555.377136 453.293518,559.277466 
	C457.081848,562.751770 466.137512,561.089905 469.625793,557.575562 
	C473.325989,553.847778 472.712830,546.652832 468.514709,541.470398 
	C467.157471,543.306641 465.800232,545.142883 464.024109,547.567078 
z"/>
<path fill="#FA6AA5" opacity="1.000000" stroke="none" 
	d="
M766.311462,804.262329 
	C786.799866,798.328491 804.960693,788.976013 819.591187,773.796082 
	C833.447388,759.419434 841.421448,742.027649 843.996033,722.205688 
	C844.714661,716.673035 845.981262,711.110168 845.842102,705.590332 
	C845.614136,696.547913 844.458984,687.527832 843.653748,678.501953 
	C843.454468,676.268188 843.096802,674.048462 842.680481,670.795410 
	C850.573608,676.861511 855.673096,683.989563 859.661133,691.573303 
	C867.438904,706.363770 875.783508,721.000183 879.368164,737.620239 
	C884.403870,760.968079 883.922058,783.459167 869.086548,803.711487 
	C861.773560,813.694580 852.487793,821.505432 841.812622,827.578857 
	C819.814819,840.094299 795.893616,846.854736 770.942993,849.928162 
	C756.084717,851.758484 741.128906,852.892700 726.188416,853.927124 
	C715.777954,854.647827 705.290405,855.316895 694.887939,854.858643 
	C676.282104,854.039124 657.664124,852.833374 639.144470,850.897156 
	C618.902100,848.780823 598.701782,846.050598 578.604126,842.832397 
	C564.217041,840.528564 549.854309,837.631348 535.788574,833.852722 
	C506.221741,825.909973 476.565826,818.104187 447.488434,808.586243 
	C415.422211,798.089966 384.590820,784.284241 354.794067,768.350952 
	C334.346527,757.416870 314.833130,744.919739 296.920532,730.221802 
	C277.505615,714.291077 260.734100,695.858582 249.557266,673.044434 
	C239.097870,651.694763 233.162292,629.203735 235.079224,605.229370 
	C236.268570,590.354614 241.151352,576.876526 251.110031,565.242371 
	C264.409424,549.705444 281.987793,543.231689 301.306458,540.030396 
	C307.301208,539.036987 313.361359,538.438354 320.110901,537.566101 
	C318.221588,533.658264 316.194550,529.991455 314.633331,526.135986 
	C310.272064,515.365479 305.692596,504.656616 301.958801,493.665405 
	C296.802460,478.486694 298.260437,462.976532 302.222992,447.866425 
	C306.804504,430.396118 315.497009,414.822357 328.450653,402.188660 
	C345.351837,385.704895 365.588715,375.465729 389.163788,371.913940 
	C411.896576,368.489075 433.641815,370.992737 454.170319,381.625641 
	C474.018280,391.906097 487.469330,408.008087 495.997437,428.454010 
	C496.313110,429.210785 496.596954,429.983215 496.957123,430.718170 
	C497.164825,431.141968 497.496033,431.505188 497.793060,431.926056 
	C502.164459,430.981628 506.457733,430.012787 510.769104,429.132324 
	C517.266602,427.805420 525.114746,434.923920 526.992432,443.371582 
	C528.965759,452.249359 526.812195,460.203156 522.588013,467.939362 
	C521.774292,469.429626 521.469543,471.568176 521.787231,473.245300 
	C523.706909,483.378510 526.206909,493.413116 527.787537,503.593323 
	C528.366333,507.320740 526.956116,511.355103 526.467529,515.251282 
	C526.333130,516.323364 526.250488,517.401978 526.280518,517.098450 
	C546.451294,523.002808 566.021179,528.731323 585.548462,534.447327 
	C586.341309,529.944031 586.978882,525.229248 588.035339,520.610229 
	C589.239441,515.346191 593.044617,513.104370 598.213074,513.018677 
	C603.211548,512.935730 608.214783,512.906128 613.211609,513.029785 
	C617.229614,513.129211 619.328613,511.914978 619.071899,507.336975 
	C618.506531,497.254669 618.391724,487.147583 617.917786,477.058868 
	C617.861206,475.854187 616.997681,474.335724 616.026855,473.586273 
	C611.747131,470.282410 607.216187,467.305298 602.915344,464.027252 
	C595.394958,458.295166 588.990234,444.746490 593.552063,434.940338 
	C596.538513,438.906891 599.125061,442.802765 602.174866,446.293915 
	C607.928955,452.880615 613.840332,459.445953 622.584595,462.107697 
	C623.839661,462.489777 626.074707,461.532745 627.078003,460.464478 
	C629.074219,458.339020 630.639526,455.773285 632.186951,453.268463 
	C636.834595,445.745239 644.439209,442.120422 651.735291,437.968048 
	C658.566284,434.080292 665.947937,430.625854 671.613770,425.387024 
	C676.489929,420.878326 679.390930,414.185211 682.962097,408.333954 
	C684.710327,405.469604 685.996643,402.323303 687.973511,398.332489 
	C690.985535,415.445679 687.696594,432.190277 670.917358,439.233551 
	C662.966553,442.571045 655.279785,447.170135 648.498779,452.501740 
	C640.043579,459.149719 634.529602,468.286072 633.056152,479.244904 
	C632.092468,486.411804 631.637146,493.648468 631.008118,500.858582 
	C630.380005,508.057709 629.819214,515.262695 629.184998,522.999878 
	C620.493103,522.999878 612.369080,523.143677 604.254028,522.935852 
	C600.504517,522.839905 598.522095,523.802185 598.935852,527.942139 
	C599.059814,529.182190 598.443298,530.494934 598.173401,531.775879 
	C596.382935,540.273865 597.976379,542.983948 605.520874,547.263794 
	C623.991699,557.741821 636.856201,573.142883 644.471375,592.944031 
	C649.448486,605.885681 651.855774,619.262817 650.987244,633.139954 
	C649.296265,660.157532 635.137024,682.901855 608.022156,692.403076 
	C601.404175,694.721985 594.457092,696.102051 587.189880,698.039490 
	C589.266479,701.856262 591.525696,706.135437 593.900879,710.349243 
	C599.815857,720.843079 601.502197,731.765320 595.979126,742.790039 
	C588.497925,757.723450 571.759460,757.366211 563.480652,746.202942 
	C555.528320,735.479797 544.475281,731.577209 533.881531,726.153809 
	C517.013489,717.518311 500.951141,707.976074 490.005554,691.916199 
	C481.065491,678.798950 481.208252,664.940979 487.087708,650.604553 
	C491.678284,639.410767 500.639435,632.618713 510.259033,626.346863 
	C520.787231,619.482666 525.542664,609.529297 526.045898,597.198975 
	C526.155640,594.507263 526.846741,591.839233 527.438293,588.095886 
	C537.978088,598.172302 535.292358,609.362244 533.093994,620.753906 
	C552.134766,622.184448 570.506592,625.131042 584.839905,639.353210 
	C574.741638,637.373108 564.931702,634.698486 554.951233,633.653992 
	C536.065247,631.677551 517.898560,633.255066 503.863159,648.600769 
	C497.270264,655.809143 496.080933,669.716125 501.069305,680.315735 
	C508.134216,695.327576 519.691772,705.665955 534.226685,713.000366 
	C540.978088,716.407227 547.722961,719.876831 554.692139,722.788025 
	C561.115051,725.470947 565.559998,729.890564 568.486877,735.991089 
	C570.318787,739.809326 573.229675,741.878723 577.404785,741.799072 
	C582.980347,741.692871 585.128906,738.141724 586.029358,733.094177 
	C588.027954,721.891357 582.143433,713.686584 576.002686,705.491455 
	C568.684570,695.725037 559.179810,688.442566 549.225403,681.646790 
	C548.552368,681.187256 547.981018,680.524170 547.503845,679.854919 
	C547.256042,679.507324 547.318054,678.938843 547.057739,677.373108 
	C552.809631,679.237976 558.028748,680.856689 563.196594,682.624817 
	C569.207825,684.681458 575.029663,687.909485 581.192566,688.765198 
	C591.379395,690.179504 599.734924,684.907898 607.809814,679.143066 
	C619.703003,670.652344 629.826233,660.622375 634.831970,646.736389 
	C640.817810,630.131775 638.962158,613.675964 631.378479,597.844177 
	C620.244690,574.600952 602.332458,557.912354 580.523376,544.827820 
	C563.981262,534.903137 546.223083,528.350098 527.458374,524.298096 
	C524.769714,523.717529 522.036743,523.342346 518.611023,522.748413 
	C519.097961,517.629578 519.868896,512.911377 519.929749,508.183990 
	C520.057617,498.251465 517.599609,488.909851 512.008789,480.615356 
	C509.173096,476.408356 508.637360,473.136505 511.584290,468.174805 
	C514.638184,463.032898 515.867188,456.556824 516.817993,450.495453 
	C517.575134,445.668457 512.381470,442.105591 507.497864,443.270264 
	C505.426239,443.764374 503.385895,444.400269 501.351318,445.035645 
	C499.322479,445.669220 497.318604,446.382721 494.904663,447.195557 
	C492.645111,442.597565 490.572662,438.016693 488.194366,433.600555 
	C474.070282,407.374298 452.386688,391.567688 422.874420,387.021301 
	C395.473236,382.800171 370.354584,389.217499 348.224823,405.581512 
	C329.636658,419.326660 318.138519,437.817810 314.931610,461.170990 
	C311.122803,488.907104 318.566315,513.686584 334.685272,535.925659 
	C343.351227,547.882019 355.201813,556.779053 367.883606,564.158997 
	C379.141724,570.710510 389.739502,577.917236 399.898010,586.146423 
	C414.613007,598.066650 431.820007,597.238098 448.730499,591.488159 
	C461.642548,587.097839 472.487671,579.072205 482.679871,569.955017 
	C494.505219,559.376953 504.309662,547.432251 511.400970,533.250061 
	C511.592407,532.867188 512.109314,532.647034 512.603516,532.246338 
	C512.285583,556.784180 496.883881,572.078674 478.129608,588.239441 
	C482.408386,591.372742 486.440063,594.325134 490.471741,597.277466 
	C490.190613,597.753113 489.909454,598.228760 489.628326,598.704407 
	C485.668243,597.775696 481.204224,597.695068 477.869904,595.713440 
	C473.230103,592.956055 469.203705,593.442383 464.978668,595.556396 
	C451.768036,602.166626 437.818024,605.387268 422.433075,604.992798 
	C424.643860,611.996521 429.927521,616.176392 435.071960,619.848877 
	C446.522369,628.023132 459.886475,631.626343 473.592499,634.003967 
	C477.271271,634.642090 480.948364,635.289734 484.626221,635.933044 
	C484.683228,636.471497 484.740265,637.009949 484.797302,637.548401 
	C479.335083,638.698425 473.908600,640.602722 468.404266,640.863403 
	C448.347076,641.813293 430.758148,635.448242 416.658142,620.963440 
	C412.476959,616.668152 409.687164,611.046326 405.979279,606.249146 
	C404.428467,604.242737 402.420166,602.018738 400.154083,601.227051 
	C382.282257,594.983093 367.108765,584.409119 352.858795,572.326111 
	C346.722260,567.122681 340.026611,562.824219 331.948792,562.290222 
	C327.169708,561.974426 322.104095,563.021179 317.445160,564.396423 
	C301.201843,569.191467 287.359802,577.272644 278.553070,592.669800 
	C270.838104,606.158142 269.324402,620.386292 272.238220,635.176025 
	C276.205017,655.310364 287.102295,671.712036 301.986694,685.311584 
	C317.053345,699.077576 333.693817,710.906067 351.584229,720.756592 
	C367.399963,729.464905 383.241425,738.263916 399.684662,745.659607 
	C419.402039,754.528015 439.705109,762.116577 459.870972,769.959961 
	C488.209991,780.982117 517.386475,789.416443 546.951416,796.327454 
	C566.550720,800.908936 586.388000,804.596191 606.251221,807.883179 
	C620.664490,810.268188 635.261536,811.783203 649.837280,812.880615 
	C665.673645,814.072937 681.605225,815.231323 697.450012,814.787354 
	C720.619568,814.138306 743.688599,811.657532 766.311462,804.262329 
z"/>
<path fill="#FA6AA5" opacity="1.000000" stroke="none" 
	d="
M596.604370,144.304779 
	C618.407227,149.992432 637.796387,159.671417 655.449097,172.946854 
	C676.688293,188.919479 692.445374,209.434937 704.388000,232.904770 
	C713.138550,250.101654 718.714905,268.490601 721.831848,287.512970 
	C722.948486,294.327545 722.708435,301.371521 722.986206,308.314819 
	C723.364075,317.757141 725.200928,326.580963 729.926758,335.112427 
	C741.209656,355.481476 747.928406,377.284241 745.877930,400.883820 
	C744.844727,412.775513 740.639771,423.815552 733.765381,433.762512 
	C721.766663,451.124451 705.038757,463.702545 689.833313,477.863617 
	C676.055054,490.695557 662.590271,503.968536 655.905518,522.315308 
	C651.128662,535.425842 651.736145,548.610229 655.509949,561.764526 
	C658.847046,573.396667 662.463013,584.948669 665.913940,596.548523 
	C666.086914,597.129883 665.860474,597.830017 665.794861,598.875977 
	C659.368408,597.238770 655.450745,592.719238 652.429504,587.810303 
	C645.010254,575.755493 640.943481,562.587036 639.916626,548.331848 
	C638.028748,522.121887 646.947510,499.482330 661.854797,478.666504 
	C672.169067,464.264130 682.971313,450.193634 692.845581,435.497864 
	C708.135803,412.741547 715.753601,387.436096 712.794250,360.033020 
	C709.370239,328.326721 698.081360,299.289337 679.646484,273.070190 
	C655.398071,238.582733 622.504700,217.430939 581.382324,209.065430 
	C572.719788,207.303207 563.752014,206.058990 554.945190,206.170883 
	C526.951782,206.526657 501.485626,215.085571 478.368134,231.042801 
	C462.145142,242.241013 449.161621,256.616547 436.111023,271.123138 
	C427.689941,280.483734 418.079529,288.774231 409.005707,297.548004 
	C407.807983,298.706146 406.659576,299.916412 405.441010,301.051788 
	C391.382690,314.150604 378.019440,328.118744 363.063843,340.098633 
	C346.095398,353.690857 327.722351,365.533600 309.915924,378.074402 
	C297.340973,386.930695 284.254089,395.125153 272.184021,404.617371 
	C255.744186,417.546051 242.562515,433.579956 231.800583,451.541809 
	C220.230865,470.851837 211.865341,491.547760 206.502014,513.334290 
	C203.845581,524.125061 202.046463,535.250549 201.183182,546.327820 
	C200.086365,560.401489 199.257843,574.655029 200.239792,588.696289 
	C201.915955,612.664307 206.119186,636.272217 216.665863,658.272766 
	C222.650650,670.757141 228.497849,683.307678 234.383255,695.839539 
	C234.710449,696.536194 234.820038,697.335083 235.482956,699.696899 
	C231.576782,696.778137 228.285370,695.169128 226.173920,692.592957 
	C217.327225,681.799133 208.237747,671.123596 200.370483,659.629150 
	C191.580292,646.786194 183.398605,633.433594 176.071915,619.705139 
	C166.393173,601.569702 159.129471,582.272766 155.258957,562.066223 
	C153.010635,550.328552 151.935776,538.130676 152.264603,526.193054 
	C152.698654,510.435181 156.360184,495.153687 162.684814,480.430542 
	C173.387482,455.515717 190.498581,435.404816 210.674820,418.314972 
	C231.791031,400.428986 254.705856,384.662231 276.885651,368.037415 
	C294.584686,354.771179 312.704529,342.039978 330.008301,328.279938 
	C348.274933,313.754211 361.861694,295.091461 373.968262,275.255432 
	C382.497406,261.280823 391.156677,247.337814 400.629517,233.999725 
	C411.078125,219.287598 422.470459,205.242203 433.548248,190.981384 
	C444.153320,177.329224 458.260742,168.053894 472.970856,159.461914 
	C490.801727,149.047150 510.189606,143.065628 530.387695,140.275452 
	C546.086914,138.106796 562.041321,137.694000 577.825195,140.848846 
	C583.933960,142.069839 590.092896,143.039185 596.604370,144.304779 
z"/>
<path fill="#F96AA5" opacity="1.000000" stroke="none" 
	d="
M555.652893,395.312408 
	C570.753052,397.004669 585.451965,399.570557 600.174622,399.715088 
	C616.461121,399.875000 632.198914,395.909729 647.446106,389.440948 
	C660.398621,383.945709 670.917908,375.187897 682.162109,367.312866 
	C683.453186,366.408691 684.852783,365.659363 687.256409,364.196594 
	C685.269348,374.308868 682.147705,382.551117 676.654053,389.858002 
	C663.911011,406.806824 646.292175,415.322632 625.840271,417.846405 
	C612.919128,419.440826 599.720886,420.460205 586.764709,419.708130 
	C567.231812,418.574219 548.270447,413.387024 530.027161,406.412048 
	C511.061218,399.160797 492.343811,391.195282 473.843048,382.823212 
	C466.368896,379.440948 459.757324,374.152435 452.753204,369.731445 
	C452.995544,369.115692 453.237915,368.499908 453.480255,367.884155 
	C457.275940,368.694763 461.130280,369.297394 464.857880,370.349243 
	C491.785980,377.948029 518.680542,385.665802 545.609741,393.260498 
	C548.751953,394.146637 552.041077,394.511688 555.652893,395.312408 
z"/>
<path fill="#F969A4" opacity="1.000000" stroke="none" 
	d="
M463.001343,494.002075 
	C464.253296,491.479919 465.402679,489.316010 466.556793,487.143219 
	C475.123932,492.526947 474.830841,503.309998 465.474915,508.621155 
	C460.589874,511.394318 454.634521,512.281982 448.165924,514.338074 
	C453.751129,506.764526 458.324951,500.562408 463.001343,494.002075 
z"/>
<path fill="#F96AA5" opacity="1.000000" stroke="none" 
	d="
M401.275970,564.999817 
	C399.377289,564.934875 397.931732,564.869812 396.313293,564.797058 
	C404.599915,557.103943 412.674774,549.607361 420.443512,542.395020 
	C420.443512,546.485901 421.090759,551.863037 420.270630,557.006165 
	C419.359192,562.721924 414.424988,564.505371 409.193390,564.960266 
	C406.722839,565.175110 404.218231,564.998840 401.275970,564.999817 
z"/>
<path fill="#F868A3" opacity="1.000000" stroke="none" 
	d="
M464.233582,547.273071 
	C465.800232,545.142883 467.157471,543.306641 468.514069,541.469971 
	C472.712830,546.652832 473.325989,553.847778 469.625793,557.575562 
	C466.137512,561.089905 457.081848,562.751770 453.296234,559.279785 
	C456.873993,555.377136 460.449036,551.472107 464.233582,547.273071 
z"/>
</svg>