<?xml version="1.0" encoding="UTF-8"?>
<svg xmlns="http://www.w3.org/2000/svg" xmlns:xlink="http://www.w3.org/1999/xlink" width="120px" height="120px" viewBox="0 0 120 120" version="1.1">
<g id="surface1">
<path style=" stroke:none;fill-rule:nonzero;fill:rgb(99.607843%,99.607843%,99.607843%);fill-opacity:1;" d="M 73.496094 120.109375 C 48.996094 120.109375 24.539062 120.109375 0.0820312 120.109375 C 0.0820312 80.109375 0.0820312 40.109375 0.0820312 0.109375 C 40.082031 0.109375 80.082031 0.109375 120.082031 0.109375 C 120.082031 40.109375 120.082031 80.109375 120.082031 120.109375 C 104.566406 120.109375 89.050781 120.109375 73.496094 120.109375 M 90.40625 43.371094 C 91.433594 41.851562 91.625 40.207031 90.929688 38.582031 C 90.324219 37.160156 89.367188 36.515625 88.15625 36.464844 C 87.277344 36.429688 86.820312 36.054688 86.578125 35.039062 C 86.042969 32.804688 86.007812 30.566406 86.617188 28.34375 C 86.84375 27.515625 87.3125 27.101562 87.984375 27.09375 C 89.820312 27.0625 91.039062 25.679688 91.304688 23.265625 C 91.605469 20.597656 90.03125 18.804688 88.484375 18.808594 C 73.277344 18.855469 58.070312 18.828125 42.867188 18.84375 C 39.820312 18.84375 37.308594 20.421875 35.410156 23.617188 C 32.40625 28.667969 32.804688 36.207031 36.289062 40.6875 C 37.074219 41.699219 38 42.414062 38.878906 43.082031 C 37.289062 43.0625 35.695312 43.03125 34.105469 43.019531 C 31.824219 43.007812 29.539062 43.007812 27.257812 43 C 25.515625 42.996094 24.3125 44.339844 24.039062 46.605469 C 23.765625 48.847656 24.988281 51.195312 26.671875 51.417969 C 27.699219 51.554688 28.234375 52.253906 28.496094 53.441406 C 29.007812 55.742188 28.964844 58.027344 28.34375 60.296875 C 28.039062 61.414062 27.433594 61.957031 26.566406 62.039062 C 26.386719 62.054688 26.199219 62.015625 26.027344 62.066406 C 25.464844 62.226562 24.867188 62.304688 24.351562 62.609375 C 23.179688 63.300781 22.539062 65.035156 22.746094 66.695312 C 22.921875 68.09375 23.570312 68.976562 24.484375 69.585938 C 23.78125 70.042969 23.191406 70.671875 22.925781 71.683594 C 22.167969 74.585938 23.664062 77.566406 25.9375 77.472656 C 26.867188 77.4375 27.402344 77.953125 27.75 79.101562 C 28.476562 81.492188 28.375 83.910156 27.792969 86.304688 C 27.46875 87.648438 26.847656 88.160156 25.789062 88.164062 C 25.457031 88.167969 25.125 88.140625 24.792969 88.171875 C 23.984375 88.246094 23.203125 88.460938 22.558594 89.171875 C 21.609375 90.21875 21.242188 91.570312 21.53125 93.152344 C 21.804688 94.65625 22.539062 95.636719 23.71875 95.859375 C 24.285156 95.964844 24.871094 95.878906 25.445312 95.875 C 37.730469 95.84375 50.015625 95.800781 62.296875 95.769531 C 68.777344 95.753906 75.253906 95.773438 81.730469 95.753906 C 84.453125 95.746094 87.179688 95.75 89.902344 95.625 C 92.082031 95.527344 94.003906 94.378906 95.5625 92.386719 C 98.230469 88.976562 99.332031 84.742188 98.613281 79.925781 C 97.804688 74.519531 95.347656 70.953125 91.25 69.535156 C 91.054688 69.46875 90.863281 69.382812 90.738281 69.296875 C 93.171875 68.800781 95.183594 67.289062 96.683594 64.707031 C 98.417969 61.722656 99.140625 58.320312 98.726562 54.570312 C 98.238281 50.097656 96.5 46.75 93.449219 44.648438 C 92.476562 43.980469 91.417969 43.707031 90.40625 43.371094 Z M 90.40625 43.371094 "/>
<path style=" stroke:none;fill-rule:nonzero;fill:rgb(79.215688%,63.529414%,96.078432%);fill-opacity:1;" d="M 90.667969 69.304688 C 90.863281 69.382812 91.054688 69.46875 91.25 69.535156 C 95.347656 70.953125 97.804688 74.519531 98.613281 79.925781 C 99.332031 84.742188 98.230469 88.976562 95.5625 92.386719 C 94.003906 94.378906 92.082031 95.527344 89.902344 95.625 C 87.179688 95.75 84.453125 95.746094 81.730469 95.753906 C 75.253906 95.773438 68.777344 95.753906 62.296875 95.769531 C 50.015625 95.800781 37.730469 95.84375 25.445312 95.875 C 24.871094 95.878906 24.285156 95.964844 23.71875 95.859375 C 22.539062 95.636719 21.804688 94.65625 21.53125 93.152344 C 21.242188 91.570312 21.609375 90.21875 22.558594 89.171875 C 23.203125 88.460938 23.984375 88.246094 24.792969 88.171875 C 25.125 88.140625 25.457031 88.167969 25.789062 88.164062 C 26.847656 88.160156 27.46875 87.648438 27.792969 86.304688 C 28.375 83.910156 28.476562 81.492188 27.75 79.101562 C 27.402344 77.953125 26.867188 77.4375 25.9375 77.472656 C 23.664062 77.566406 22.167969 74.585938 22.925781 71.683594 C 23.191406 70.671875 23.78125 70.042969 24.535156 69.554688 C 24.945312 69.5625 25.300781 69.632812 25.65625 69.628906 C 27.507812 69.613281 29.359375 69.578125 31.210938 69.542969 C 33.078125 69.507812 34.945312 69.453125 36.808594 69.4375 C 42.394531 69.390625 47.984375 69.359375 53.570312 69.324219 C 54.867188 69.316406 56.167969 69.3125 57.46875 69.3125 C 68.535156 69.3125 79.601562 69.308594 90.667969 69.304688 M 85.515625 91.898438 C 85.546875 91.890625 85.582031 91.886719 85.695312 91.890625 C 86.222656 91.859375 86.75 91.828125 87.328125 91.851562 C 87.589844 91.832031 87.851562 91.8125 88.1875 91.796875 C 88.453125 91.796875 88.714844 91.800781 88.976562 91.796875 C 90.824219 91.769531 92.460938 90.964844 93.777344 89.25 C 95.441406 87.085938 96.1875 84.433594 95.925781 81.328125 C 95.734375 79.070312 94.980469 77.148438 93.765625 75.585938 C 92.457031 73.90625 90.855469 73.042969 89.007812 73.046875 C 70.996094 73.085938 52.980469 73.117188 34.964844 73.15625 C 31.949219 73.160156 28.929688 73.160156 25.914062 73.179688 C 25.773438 73.179688 25.632812 73.300781 25.496094 73.367188 C 25.585938 73.59375 25.640625 73.871094 25.773438 74.042969 C 25.875 74.179688 26.078125 74.253906 26.234375 74.246094 C 27.050781 74.203125 27.773438 74.570312 28.507812 75.117188 C 28.753906 75.382812 29.023438 75.613281 29.242188 75.910156 C 30.40625 77.460938 30.820312 79.40625 30.898438 81.625 C 30.894531 82.476562 30.894531 83.332031 30.890625 84.28125 C 30.75 85.898438 30.484375 87.460938 29.734375 88.796875 C 29.546875 89.132812 29.339844 89.449219 29.085938 89.796875 C 28.320312 90.632812 27.457031 91.183594 26.464844 91.296875 C 25.929688 91.355469 25.390625 91.320312 24.851562 91.351562 C 24.550781 91.371094 24.265625 91.46875 24.144531 92.011719 C 24.371094 92.011719 24.535156 92.015625 24.699219 92.011719 C 28.417969 91.980469 32.136719 91.9375 35.855469 91.914062 C 38.832031 91.898438 41.804688 91.910156 44.78125 91.910156 C 55.847656 91.90625 66.914062 91.898438 77.988281 92 C 77.992188 92.585938 77.972656 93.171875 78 93.757812 C 78.015625 94.007812 78.082031 94.386719 78.207031 94.460938 C 78.367188 94.558594 78.640625 94.476562 78.808594 94.34375 C 79.683594 93.640625 80.539062 92.902344 81.398438 92.167969 C 81.636719 91.964844 81.832031 91.890625 82.105469 92.136719 C 82.890625 92.84375 83.695312 93.523438 84.511719 94.175781 C 84.730469 94.351562 85.007812 94.394531 85.257812 94.496094 C 85.324219 94.179688 85.425781 93.867188 85.445312 93.546875 C 85.480469 93 85.460938 92.445312 85.515625 91.898438 Z M 85.515625 91.898438 "/>
<path style=" stroke:none;fill-rule:nonzero;fill:rgb(99.215686%,45.09804%,59.607846%);fill-opacity:1;" d="M 90.703125 69.300781 C 79.601562 69.308594 68.535156 69.3125 57.46875 69.3125 C 56.167969 69.3125 54.867188 69.316406 53.570312 69.324219 C 47.984375 69.359375 42.394531 69.390625 36.808594 69.4375 C 34.945312 69.453125 33.078125 69.507812 31.210938 69.542969 C 29.359375 69.578125 27.507812 69.613281 25.65625 69.628906 C 25.300781 69.632812 24.945312 69.5625 24.554688 69.523438 C 23.570312 68.976562 22.921875 68.09375 22.746094 66.695312 C 22.539062 65.035156 23.179688 63.300781 24.351562 62.609375 C 24.867188 62.304688 25.464844 62.226562 26.027344 62.066406 C 26.199219 62.015625 26.386719 62.054688 26.566406 62.039062 C 27.433594 61.957031 28.039062 61.414062 28.34375 60.296875 C 28.964844 58.027344 29.007812 55.742188 28.496094 53.441406 C 28.234375 52.253906 27.699219 51.554688 26.671875 51.417969 C 24.988281 51.195312 23.765625 48.847656 24.039062 46.605469 C 24.3125 44.339844 25.515625 42.996094 27.257812 43 C 29.539062 43.007812 31.824219 43.007812 34.105469 43.019531 C 35.695312 43.03125 37.289062 43.0625 38.945312 43.082031 C 40.613281 44.023438 42.296875 44.097656 44.007812 44.089844 C 55.765625 44.035156 67.523438 44.011719 79.28125 43.976562 C 80.539062 43.972656 81.800781 44.003906 83.058594 43.9375 C 85 43.835938 86.941406 43.664062 88.882812 43.523438 C 89.375 43.488281 89.867188 43.464844 90.359375 43.4375 C 91.417969 43.707031 92.476562 43.980469 93.449219 44.648438 C 96.5 46.75 98.238281 50.097656 98.726562 54.570312 C 99.140625 58.320312 98.417969 61.722656 96.683594 64.707031 C 95.183594 67.289062 93.171875 68.800781 90.703125 69.300781 M 29.0625 49.011719 C 29.425781 49.421875 29.785156 49.832031 30.167969 50.3125 C 30.378906 50.761719 30.613281 51.195312 30.792969 51.664062 C 31.234375 52.84375 31.40625 54.117188 31.488281 55.511719 C 31.492188 56.332031 31.5 57.152344 31.488281 58.066406 C 31.335938 59.976562 30.9375 61.757812 29.929688 63.285156 C 29.226562 64.253906 28.382812 64.886719 27.375 65.074219 C 26.96875 65.152344 26.546875 65.117188 26.132812 65.152344 C 25.800781 65.183594 25.484375 65.273438 25.421875 65.886719 C 25.609375 65.886719 25.761719 65.886719 25.914062 65.886719 C 29 65.859375 32.085938 65.828125 35.167969 65.808594 C 42.890625 65.769531 50.613281 65.726562 58.335938 65.703125 C 68.367188 65.671875 78.402344 65.664062 88.4375 65.632812 C 89.164062 65.628906 89.914062 65.609375 90.617188 65.390625 C 93.269531 64.5625 95.023438 62.359375 95.773438 58.910156 C 96.511719 55.507812 95.808594 52.472656 94.011719 49.921875 C 92.675781 48.03125 90.9375 47.226562 89.007812 47.203125 C 86.324219 47.171875 83.644531 47.199219 80.960938 47.195312 C 63.054688 47.183594 45.144531 47.167969 27.234375 47.152344 C 27.085938 47.148438 26.941406 47.152344 26.796875 47.152344 C 26.769531 47.785156 26.945312 48.121094 27.300781 48.253906 C 27.882812 48.472656 28.457031 48.71875 29.0625 49.011719 Z M 29.0625 49.011719 "/>
<path style=" stroke:none;fill-rule:nonzero;fill:rgb(99.607843%,81.176472%,34.117648%);fill-opacity:1;" d="M 90.382812 43.402344 C 89.867188 43.464844 89.375 43.488281 88.882812 43.523438 C 86.941406 43.664062 85 43.835938 83.058594 43.9375 C 81.800781 44.003906 80.539062 43.972656 79.28125 43.976562 C 67.523438 44.011719 55.765625 44.035156 44.007812 44.089844 C 42.296875 44.097656 40.613281 44.023438 38.988281 43.078125 C 38 42.414062 37.074219 41.699219 36.289062 40.6875 C 32.804688 36.207031 32.40625 28.667969 35.410156 23.617188 C 37.308594 20.421875 39.820312 18.84375 42.867188 18.84375 C 58.070312 18.828125 73.277344 18.855469 88.484375 18.808594 C 90.03125 18.804688 91.605469 20.597656 91.304688 23.265625 C 91.039062 25.679688 89.820312 27.0625 87.984375 27.09375 C 87.3125 27.101562 86.84375 27.515625 86.617188 28.34375 C 86.007812 30.566406 86.042969 32.804688 86.578125 35.039062 C 86.820312 36.054688 87.277344 36.429688 88.15625 36.464844 C 89.367188 36.515625 90.324219 37.160156 90.929688 38.582031 C 91.625 40.207031 91.433594 41.851562 90.382812 43.402344 M 83.773438 32.964844 C 83.757812 32.117188 83.742188 31.273438 83.761719 30.351562 C 83.945312 28.027344 84.472656 25.945312 86.097656 24.566406 C 86.703125 24.335938 87.3125 24.113281 87.914062 23.871094 C 88.117188 23.789062 88.347656 23.707031 88.5 23.527344 C 88.609375 23.398438 88.613281 23.105469 88.664062 22.886719 C 88.527344 22.835938 88.390625 22.742188 88.25 22.738281 C 85.898438 22.695312 83.546875 22.636719 81.195312 22.632812 C 68.546875 22.609375 55.898438 22.59375 43.246094 22.578125 C 41.015625 22.578125 39.160156 23.675781 37.710938 25.949219 C 35.957031 28.695312 35.699219 32.75 37.085938 35.824219 C 38.472656 38.910156 40.570312 40.328125 43.21875 40.414062 C 44.875 40.464844 46.539062 40.417969 48.199219 40.417969 C 61.527344 40.414062 74.855469 40.410156 88.183594 40.410156 C 88.339844 40.410156 88.5 40.410156 88.6875 40.410156 C 88.609375 39.878906 88.40625 39.582031 88.09375 39.578125 C 87.144531 39.570312 86.320312 39.117188 85.515625 38.382812 C 85.292969 38.058594 85.054688 37.753906 84.859375 37.40625 C 84.144531 36.113281 83.882812 34.613281 83.773438 32.964844 Z M 83.773438 32.964844 "/>
<path style=" stroke:none;fill-rule:nonzero;fill:rgb(97.254902%,94.509804%,99.215686%);fill-opacity:1;" d="M 29.140625 89.773438 C 29.339844 89.449219 29.546875 89.132812 29.734375 88.796875 C 30.484375 87.460938 30.75 85.898438 30.929688 84.230469 C 39.09375 84.183594 47.21875 84.179688 55.34375 84.179688 C 55.464844 84.179688 55.59375 84.195312 55.714844 84.175781 C 56.492188 84.070312 56.914062 83.15625 56.601562 82.234375 C 56.410156 81.671875 56.039062 81.535156 55.609375 81.535156 C 50.03125 81.539062 44.453125 81.539062 38.875 81.539062 C 36.21875 81.539062 33.5625 81.53125 30.902344 81.523438 C 30.820312 79.40625 30.40625 77.460938 29.242188 75.910156 C 29.023438 75.613281 28.753906 75.382812 28.5 75.042969 C 28.589844 74.917969 28.683594 74.832031 28.777344 74.828125 C 29.1875 74.8125 29.59375 74.820312 30 74.820312 C 49.675781 74.820312 69.347656 74.820312 89.023438 74.824219 C 89.199219 74.824219 89.378906 74.855469 89.554688 74.894531 C 90.949219 75.210938 92.117188 76.039062 93.019531 77.519531 C 94.1875 79.441406 94.640625 81.589844 94.28125 84.019531 C 94 85.886719 93.28125 87.402344 92.152344 88.574219 C 91.375 89.382812 90.488281 89.921875 89.511719 90.007812 C 88.167969 90.125 86.820312 90.101562 85.46875 90.101562 C 85.464844 90.015625 85.46875 89.964844 85.5 89.902344 C 85.636719 89.558594 85.734375 89.222656 85.464844 88.882812 C 85.464844 88.644531 85.46875 88.453125 85.503906 88.25 C 85.554688 87.574219 85.570312 86.910156 85.582031 86.25 C 85.582031 86.226562 85.511719 86.199219 85.46875 86.132812 C 85.46875 86.007812 85.472656 85.921875 85.507812 85.824219 C 85.636719 85.335938 85.730469 84.863281 85.472656 84.375 C 85.464844 84.285156 85.464844 84.234375 85.503906 84.183594 C 86.867188 84.183594 88.195312 84.160156 89.523438 84.1875 C 90.234375 84.203125 90.949219 83.285156 90.691406 82.421875 C 90.53125 81.878906 90.175781 81.539062 89.621094 81.539062 C 82.496094 81.539062 75.371094 81.539062 68.246094 81.539062 C 65.878906 81.539062 63.515625 81.535156 61.148438 81.539062 C 60.425781 81.542969 59.953125 82.515625 60.246094 83.390625 C 60.464844 84.039062 60.894531 84.179688 61.378906 84.179688 C 66.882812 84.183594 72.390625 84.183594 77.898438 84.238281 C 77.898438 86.015625 77.882812 87.742188 77.90625 89.464844 C 77.914062 89.980469 77.820312 90.164062 77.410156 90.148438 C 76.308594 90.113281 75.210938 90.136719 74.109375 90.136719 C 63.832031 90.136719 53.554688 90.128906 43.273438 90.140625 C 38.8125 90.148438 34.351562 90.210938 29.890625 90.199219 C 29.667969 90.199219 29.207031 90.453125 29.140625 89.773438 Z M 29.140625 89.773438 "/>
<path style=" stroke:none;fill-rule:nonzero;fill:rgb(99.215686%,99.215686%,99.607843%);fill-opacity:1;" d="M 85.472656 90.140625 C 86.820312 90.101562 88.167969 90.125 89.511719 90.007812 C 90.488281 89.921875 91.375 89.382812 92.152344 88.574219 C 93.28125 87.402344 94 85.886719 94.28125 84.019531 C 94.640625 81.589844 94.1875 79.441406 93.019531 77.519531 C 92.117188 76.039062 90.949219 75.210938 89.554688 74.894531 C 89.378906 74.855469 89.199219 74.824219 89.023438 74.824219 C 69.347656 74.820312 49.675781 74.820312 30 74.820312 C 29.59375 74.820312 29.1875 74.8125 28.777344 74.828125 C 28.683594 74.832031 28.589844 74.917969 28.488281 75.011719 C 27.773438 74.570312 27.050781 74.203125 26.234375 74.246094 C 26.078125 74.253906 25.875 74.179688 25.773438 74.042969 C 25.640625 73.871094 25.585938 73.59375 25.496094 73.367188 C 25.632812 73.300781 25.773438 73.179688 25.914062 73.179688 C 28.929688 73.160156 31.949219 73.160156 34.964844 73.15625 C 52.980469 73.117188 70.996094 73.085938 89.007812 73.046875 C 90.855469 73.042969 92.457031 73.90625 93.765625 75.585938 C 94.980469 77.148438 95.734375 79.070312 95.925781 81.328125 C 96.1875 84.433594 95.441406 87.085938 93.777344 89.25 C 92.460938 90.964844 90.824219 91.769531 88.976562 91.796875 C 88.714844 91.800781 88.453125 91.796875 88.125 91.761719 C 87.804688 91.75 87.539062 91.773438 87.277344 91.796875 C 86.75 91.828125 86.222656 91.859375 85.640625 91.863281 C 85.550781 91.820312 85.507812 91.804688 85.460938 91.738281 C 85.460938 91.171875 85.46875 90.65625 85.472656 90.140625 Z M 85.472656 90.140625 "/>
<path style=" stroke:none;fill-rule:nonzero;fill:rgb(99.215686%,98.823529%,99.607843%);fill-opacity:1;" d="M 29.113281 89.785156 C 29.207031 90.453125 29.667969 90.199219 29.890625 90.199219 C 34.351562 90.210938 38.8125 90.148438 43.273438 90.140625 C 53.554688 90.128906 63.832031 90.136719 74.109375 90.136719 C 75.210938 90.136719 76.308594 90.113281 77.410156 90.148438 C 77.820312 90.164062 77.914062 89.980469 77.90625 89.464844 C 77.882812 87.742188 77.898438 86.015625 77.921875 84.238281 C 77.964844 84.1875 77.984375 84.1875 78 84.238281 C 77.992188 86.824219 77.988281 89.359375 77.980469 91.894531 C 66.914062 91.898438 55.847656 91.90625 44.78125 91.910156 C 41.804688 91.910156 38.832031 91.898438 35.855469 91.914062 C 32.136719 91.9375 28.417969 91.980469 24.699219 92.011719 C 24.535156 92.015625 24.371094 92.011719 24.144531 92.011719 C 24.265625 91.46875 24.550781 91.371094 24.851562 91.351562 C 25.390625 91.320312 25.929688 91.355469 26.464844 91.296875 C 27.457031 91.183594 28.320312 90.632812 29.113281 89.785156 Z M 29.113281 89.785156 "/>
<path style=" stroke:none;fill-rule:nonzero;fill:rgb(99.215686%,45.09804%,59.607846%);fill-opacity:1;" d="M 77.984375 91.945312 C 77.988281 89.359375 77.992188 86.824219 78.027344 84.226562 C 78.617188 84.160156 79.179688 84.164062 79.742188 84.167969 C 81.652344 84.171875 83.558594 84.179688 85.464844 84.183594 C 85.464844 84.234375 85.464844 84.285156 85.464844 84.425781 C 85.46875 84.953125 85.472656 85.394531 85.476562 85.835938 C 85.472656 85.921875 85.46875 86.007812 85.460938 86.183594 C 85.464844 86.9375 85.46875 87.601562 85.472656 88.261719 C 85.46875 88.453125 85.464844 88.644531 85.457031 88.929688 C 85.460938 89.320312 85.46875 89.617188 85.472656 89.914062 C 85.46875 89.964844 85.464844 90.015625 85.46875 90.101562 C 85.46875 90.65625 85.460938 91.171875 85.457031 91.765625 C 85.460938 91.84375 85.464844 91.898438 85.464844 91.898438 C 85.460938 92.445312 85.480469 93 85.445312 93.546875 C 85.425781 93.867188 85.324219 94.179688 85.257812 94.496094 C 85.007812 94.394531 84.730469 94.351562 84.511719 94.175781 C 83.695312 93.523438 82.890625 92.84375 82.105469 92.136719 C 81.832031 91.890625 81.636719 91.964844 81.398438 92.167969 C 80.539062 92.902344 79.683594 93.640625 78.808594 94.34375 C 78.640625 94.476562 78.367188 94.558594 78.207031 94.460938 C 78.082031 94.386719 78.015625 94.007812 78 93.757812 C 77.972656 93.171875 77.992188 92.585938 77.984375 91.945312 Z M 77.984375 91.945312 "/>
<path style=" stroke:none;fill-rule:nonzero;fill:rgb(84.705883%,73.333335%,98.039216%);fill-opacity:1;" d="M 30.898438 81.574219 C 33.5625 81.53125 36.21875 81.539062 38.875 81.539062 C 44.453125 81.539062 50.03125 81.539062 55.609375 81.535156 C 56.039062 81.535156 56.410156 81.671875 56.601562 82.234375 C 56.914062 83.15625 56.492188 84.070312 55.714844 84.175781 C 55.59375 84.195312 55.464844 84.179688 55.34375 84.179688 C 47.21875 84.179688 39.09375 84.183594 30.929688 84.183594 C 30.894531 83.332031 30.894531 82.476562 30.898438 81.574219 Z M 30.898438 81.574219 "/>
<path style=" stroke:none;fill-rule:nonzero;fill:rgb(96.862745%,94.509804%,99.607843%);fill-opacity:1;" d="M 87.304688 91.824219 C 87.539062 91.773438 87.804688 91.75 88.085938 91.757812 C 87.851562 91.8125 87.589844 91.832031 87.304688 91.824219 Z M 87.304688 91.824219 "/>
<path style=" stroke:none;fill-rule:nonzero;fill:rgb(96.862745%,94.509804%,99.607843%);fill-opacity:1;" d="M 85.488281 91.898438 C 85.464844 91.898438 85.460938 91.84375 85.464844 91.816406 C 85.507812 91.804688 85.550781 91.820312 85.601562 91.859375 C 85.582031 91.886719 85.546875 91.890625 85.488281 91.898438 Z M 85.488281 91.898438 "/>
<path style=" stroke:none;fill-rule:nonzero;fill:rgb(97.254902%,94.117647%,99.215686%);fill-opacity:1;" d="M 29.980469 63.257812 C 30.9375 61.757812 31.335938 59.976562 31.53125 58.015625 C 35.769531 57.96875 39.960938 57.96875 44.15625 57.964844 C 44.28125 57.964844 44.40625 57.972656 44.527344 57.960938 C 44.945312 57.921875 45.308594 57.445312 45.34375 56.894531 C 45.402344 55.976562 45.023438 55.425781 44.332031 55.425781 C 40.054688 55.421875 35.78125 55.421875 31.503906 55.417969 C 31.40625 54.117188 31.234375 52.84375 30.792969 51.664062 C 30.613281 51.195312 30.378906 50.761719 30.171875 50.238281 C 30.136719 49.753906 30.097656 49.339844 30.101562 48.925781 C 49.847656 48.925781 69.558594 48.921875 89.265625 48.941406 C 89.765625 48.941406 90.292969 49.082031 90.757812 49.328125 C 93.410156 50.738281 94.851562 54.226562 94.332031 57.96875 C 94.050781 59.988281 93.265625 61.59375 91.964844 62.738281 C 90.867188 63.703125 89.648438 64.023438 88.359375 64.023438 C 69.011719 64.023438 49.660156 64.023438 30.3125 64.019531 C 30.183594 64.019531 30.054688 64 29.980469 63.992188 C 29.980469 63.691406 29.980469 63.476562 29.980469 63.257812 M 64.402344 57.96875 C 68.449219 57.96875 72.5 57.96875 76.546875 57.96875 C 80.960938 57.96875 85.375 57.96875 89.789062 57.964844 C 90.582031 57.964844 91.011719 56.953125 90.625 56.03125 C 90.402344 55.5 90.042969 55.421875 89.636719 55.421875 C 76.410156 55.425781 63.183594 55.421875 49.953125 55.421875 C 49.871094 55.421875 49.789062 55.417969 49.703125 55.425781 C 49.164062 55.492188 48.804688 56.046875 48.832031 56.773438 C 48.859375 57.492188 49.21875 57.957031 49.765625 57.960938 C 50.480469 57.96875 51.195312 57.96875 51.90625 57.96875 C 56.042969 57.96875 60.179688 57.96875 64.402344 57.96875 Z M 64.402344 57.96875 "/>
<path style=" stroke:none;fill-rule:nonzero;fill:rgb(99.607843%,98.431373%,98.823529%);fill-opacity:1;" d="M 29.957031 63.273438 C 29.980469 63.476562 29.980469 63.691406 29.980469 63.992188 C 30.054688 64 30.183594 64.019531 30.3125 64.019531 C 49.660156 64.023438 69.011719 64.023438 88.359375 64.023438 C 89.648438 64.023438 90.867188 63.703125 91.964844 62.738281 C 93.265625 61.59375 94.050781 59.988281 94.332031 57.96875 C 94.851562 54.226562 93.410156 50.738281 90.757812 49.328125 C 90.292969 49.082031 89.765625 48.941406 89.265625 48.941406 C 69.558594 48.921875 49.847656 48.925781 30.0625 48.925781 C 29.671875 48.933594 29.351562 48.941406 29.035156 48.949219 C 28.457031 48.71875 27.882812 48.472656 27.300781 48.253906 C 26.945312 48.121094 26.769531 47.785156 26.796875 47.152344 C 26.941406 47.152344 27.085938 47.148438 27.234375 47.152344 C 45.144531 47.167969 63.054688 47.183594 80.960938 47.195312 C 83.644531 47.199219 86.324219 47.171875 89.007812 47.203125 C 90.9375 47.226562 92.675781 48.03125 94.011719 49.921875 C 95.808594 52.472656 96.511719 55.507812 95.773438 58.910156 C 95.023438 62.359375 93.269531 64.5625 90.617188 65.390625 C 89.914062 65.609375 89.164062 65.628906 88.4375 65.632812 C 78.402344 65.664062 68.367188 65.671875 58.335938 65.703125 C 50.613281 65.726562 42.890625 65.769531 35.167969 65.808594 C 32.085938 65.828125 29 65.859375 25.914062 65.886719 C 25.761719 65.886719 25.609375 65.886719 25.421875 65.886719 C 25.484375 65.273438 25.800781 65.183594 26.132812 65.152344 C 26.546875 65.117188 26.96875 65.152344 27.375 65.074219 C 28.382812 64.886719 29.226562 64.253906 29.957031 63.273438 Z M 29.957031 63.273438 "/>
<path style=" stroke:none;fill-rule:nonzero;fill:rgb(84.705883%,72.941178%,97.647059%);fill-opacity:1;" d="M 31.496094 55.464844 C 35.78125 55.421875 40.054688 55.421875 44.332031 55.425781 C 45.023438 55.425781 45.402344 55.976562 45.34375 56.894531 C 45.308594 57.445312 44.945312 57.921875 44.527344 57.960938 C 44.40625 57.972656 44.28125 57.964844 44.15625 57.964844 C 39.960938 57.96875 35.769531 57.96875 31.539062 57.96875 C 31.5 57.152344 31.492188 56.332031 31.496094 55.464844 Z M 31.496094 55.464844 "/>
<path style=" stroke:none;fill-rule:nonzero;fill:rgb(98.823529%,94.117647%,96.862745%);fill-opacity:1;" d="M 29.046875 48.980469 C 29.351562 48.941406 29.671875 48.933594 30.023438 48.925781 C 30.097656 49.339844 30.136719 49.753906 30.160156 50.203125 C 29.785156 49.832031 29.425781 49.421875 29.046875 48.980469 Z M 29.046875 48.980469 "/>
<path style=" stroke:none;fill-rule:nonzero;fill:rgb(97.254902%,94.509804%,99.215686%);fill-opacity:1;" d="M 86.035156 24.578125 C 84.472656 25.945312 83.945312 28.027344 83.703125 30.386719 C 79.949219 30.417969 76.257812 30.417969 72.5625 30.414062 C 72.152344 30.414062 71.789062 30.542969 71.5625 31.03125 C 71.117188 32.015625 71.625 33.054688 72.554688 33.054688 C 76.289062 33.058594 80.027344 33.054688 83.765625 33.054688 C 83.882812 34.613281 84.144531 36.113281 84.859375 37.40625 C 85.054688 37.753906 85.292969 38.058594 85.519531 38.457031 C 85.242188 38.617188 84.960938 38.777344 84.675781 38.777344 C 71.335938 38.789062 58 38.789062 44.664062 38.78125 C 43.972656 38.78125 43.285156 38.738281 42.597656 38.671875 C 41.4375 38.5625 40.429688 37.90625 39.585938 36.90625 C 38.144531 35.1875 37.589844 33.015625 37.855469 30.433594 C 38.144531 27.617188 39.917969 25.125 41.960938 24.46875 C 42.726562 24.222656 43.558594 24.253906 44.363281 24.25 C 50.351562 24.234375 56.34375 24.242188 62.335938 24.242188 C 69.929688 24.242188 77.527344 24.238281 85.121094 24.257812 C 85.425781 24.257812 85.730469 24.464844 86.035156 24.578125 M 63.902344 33.054688 C 64.914062 33.054688 65.921875 33.0625 66.933594 33.054688 C 67.453125 33.050781 67.875 32.609375 67.929688 32.046875 C 68.015625 31.160156 67.796875 30.683594 67.183594 30.476562 C 67.023438 30.421875 66.855469 30.417969 66.691406 30.417969 C 63.273438 30.414062 59.855469 30.414062 56.4375 30.414062 C 51.730469 30.414062 47.023438 30.414062 42.320312 30.417969 C 41.710938 30.417969 41.3125 30.875 41.273438 31.601562 C 41.226562 32.410156 41.53125 32.925781 42.148438 33.046875 C 42.28125 33.070312 42.421875 33.054688 42.5625 33.054688 C 49.648438 33.054688 56.734375 33.054688 63.902344 33.054688 Z M 63.902344 33.054688 "/>
<path style=" stroke:none;fill-rule:nonzero;fill:rgb(99.607843%,99.215686%,98.039216%);fill-opacity:1;" d="M 86.066406 24.570312 C 85.730469 24.464844 85.425781 24.257812 85.121094 24.257812 C 77.527344 24.238281 69.929688 24.242188 62.335938 24.242188 C 56.34375 24.242188 50.351562 24.234375 44.363281 24.25 C 43.558594 24.253906 42.726562 24.222656 41.960938 24.46875 C 39.917969 25.125 38.144531 27.617188 37.855469 30.433594 C 37.589844 33.015625 38.144531 35.1875 39.585938 36.90625 C 40.429688 37.90625 41.4375 38.5625 42.597656 38.671875 C 43.285156 38.738281 43.972656 38.78125 44.664062 38.78125 C 58 38.789062 71.335938 38.789062 84.675781 38.777344 C 84.960938 38.777344 85.242188 38.617188 85.535156 38.488281 C 86.320312 39.117188 87.144531 39.570312 88.09375 39.578125 C 88.40625 39.582031 88.609375 39.878906 88.6875 40.410156 C 88.5 40.410156 88.339844 40.410156 88.183594 40.410156 C 74.855469 40.410156 61.527344 40.414062 48.199219 40.417969 C 46.539062 40.417969 44.875 40.464844 43.21875 40.414062 C 40.570312 40.328125 38.472656 38.910156 37.085938 35.824219 C 35.699219 32.75 35.957031 28.695312 37.710938 25.949219 C 39.160156 23.675781 41.015625 22.578125 43.246094 22.578125 C 55.898438 22.59375 68.546875 22.609375 81.195312 22.632812 C 83.546875 22.636719 85.898438 22.695312 88.25 22.738281 C 88.390625 22.742188 88.527344 22.835938 88.664062 22.886719 C 88.613281 23.105469 88.609375 23.398438 88.5 23.527344 C 88.347656 23.707031 88.117188 23.789062 87.914062 23.871094 C 87.3125 24.113281 86.703125 24.335938 86.066406 24.570312 Z M 86.066406 24.570312 "/>
<path style=" stroke:none;fill-rule:nonzero;fill:rgb(84.705883%,73.725492%,97.647059%);fill-opacity:1;" d="M 83.765625 33.007812 C 80.027344 33.054688 76.289062 33.058594 72.554688 33.054688 C 71.625 33.054688 71.117188 32.015625 71.5625 31.03125 C 71.789062 30.542969 72.152344 30.414062 72.5625 30.414062 C 76.257812 30.417969 79.949219 30.417969 83.6875 30.421875 C 83.742188 31.273438 83.757812 32.117188 83.765625 33.007812 Z M 83.765625 33.007812 "/>
<path style=" stroke:none;fill-rule:nonzero;fill:rgb(84.705883%,72.941178%,97.647059%);fill-opacity:1;" d="M 85.503906 84.183594 C 83.558594 84.179688 81.652344 84.171875 79.742188 84.167969 C 79.179688 84.164062 78.617188 84.160156 78.027344 84.171875 C 77.984375 84.1875 77.964844 84.1875 77.921875 84.1875 C 72.390625 84.183594 66.882812 84.183594 61.378906 84.179688 C 60.894531 84.179688 60.464844 84.039062 60.246094 83.390625 C 59.953125 82.515625 60.425781 81.542969 61.148438 81.539062 C 63.515625 81.535156 65.878906 81.539062 68.246094 81.539062 C 75.371094 81.539062 82.496094 81.539062 89.621094 81.539062 C 90.175781 81.539062 90.53125 81.878906 90.691406 82.421875 C 90.949219 83.285156 90.234375 84.203125 89.523438 84.1875 C 88.195312 84.160156 86.867188 84.183594 85.503906 84.183594 Z M 85.503906 84.183594 "/>
<path style=" stroke:none;fill-rule:nonzero;fill:rgb(99.215686%,99.215686%,99.607843%);fill-opacity:1;" d="M 85.503906 88.25 C 85.46875 87.601562 85.464844 86.9375 85.46875 86.226562 C 85.511719 86.199219 85.582031 86.226562 85.582031 86.25 C 85.570312 86.910156 85.554688 87.574219 85.503906 88.25 Z M 85.503906 88.25 "/>
<path style=" stroke:none;fill-rule:nonzero;fill:rgb(99.215686%,99.215686%,99.607843%);fill-opacity:1;" d="M 85.507812 85.824219 C 85.472656 85.394531 85.46875 84.953125 85.472656 84.460938 C 85.730469 84.863281 85.636719 85.335938 85.507812 85.824219 Z M 85.507812 85.824219 "/>
<path style=" stroke:none;fill-rule:nonzero;fill:rgb(99.215686%,99.215686%,99.607843%);fill-opacity:1;" d="M 85.5 89.902344 C 85.46875 89.617188 85.460938 89.320312 85.464844 88.976562 C 85.734375 89.222656 85.636719 89.558594 85.5 89.902344 Z M 85.5 89.902344 "/>
<path style=" stroke:none;fill-rule:nonzero;fill:rgb(84.705883%,73.333335%,97.647059%);fill-opacity:1;" d="M 64.359375 57.96875 C 60.179688 57.96875 56.042969 57.96875 51.90625 57.96875 C 51.195312 57.96875 50.480469 57.96875 49.765625 57.960938 C 49.21875 57.957031 48.859375 57.492188 48.832031 56.773438 C 48.804688 56.046875 49.164062 55.492188 49.703125 55.425781 C 49.789062 55.417969 49.871094 55.421875 49.953125 55.421875 C 63.183594 55.421875 76.410156 55.425781 89.636719 55.421875 C 90.042969 55.421875 90.402344 55.5 90.625 56.03125 C 91.011719 56.953125 90.582031 57.964844 89.789062 57.964844 C 85.375 57.96875 80.960938 57.96875 76.546875 57.96875 C 72.5 57.96875 68.449219 57.96875 64.359375 57.96875 Z M 64.359375 57.96875 "/>
<path style=" stroke:none;fill-rule:nonzero;fill:rgb(85.09804%,74.117649%,98.039216%);fill-opacity:1;" d="M 63.859375 33.054688 C 56.734375 33.054688 49.648438 33.054688 42.5625 33.054688 C 42.421875 33.054688 42.28125 33.070312 42.148438 33.046875 C 41.53125 32.925781 41.226562 32.410156 41.273438 31.601562 C 41.3125 30.875 41.710938 30.417969 42.320312 30.417969 C 47.023438 30.414062 51.730469 30.414062 56.4375 30.414062 C 59.855469 30.414062 63.273438 30.414062 66.691406 30.417969 C 66.855469 30.417969 67.023438 30.421875 67.183594 30.476562 C 67.796875 30.683594 68.015625 31.160156 67.929688 32.046875 C 67.875 32.609375 67.453125 33.050781 66.933594 33.054688 C 65.921875 33.0625 64.914062 33.054688 63.859375 33.054688 Z M 63.859375 33.054688 "/>
</g>
</svg>
