<?xml version="1.0" encoding="UTF-8"?>
<svg xmlns="http://www.w3.org/2000/svg" xmlns:xlink="http://www.w3.org/1999/xlink" width="512px" height="412px" viewBox="0 0 512 412" version="1.1">
<g id="surface1">
<path style=" stroke:none;fill-rule:nonzero;fill:rgb(98.823529%,98.431373%,98.823529%);fill-opacity:1;" d="M 380.429688 315.148438 C 375.777344 312.484375 371.542969 312.710938 366.601562 314.820312 C 354.625 319.941406 341.875 321.523438 328.914062 320.824219 C 306.296875 319.609375 286.5 311.367188 269.574219 296.222656 C 267.308594 294.195312 265.164062 292.03125 262.96875 289.941406 C 259.1875 292.265625 255.429688 294.738281 251.523438 296.945312 C 239.523438 303.726562 226.703125 308.085938 213.039062 309.949219 C 204.257812 311.144531 195.46875 311.347656 186.65625 310.597656 C 174.132812 309.53125 162.105469 306.429688 150.621094 301.304688 C 148.691406 300.445312 147.078125 300.386719 145.101562 301.175781 C 130.246094 307.125 115.347656 312.96875 100.449219 318.820312 C 97.648438 319.914062 94.804688 320.054688 92.316406 318.078125 C 90.054688 316.285156 88.945312 313.777344 89.5625 310.921875 C 90.078125 308.554688 91.0625 306.273438 91.914062 303.988281 C 96.480469 291.804688 101.046875 279.617188 105.679688 267.457031 C 106.210938 266.074219 105.757812 265.148438 105.007812 264.109375 C 97.890625 254.296875 92.492188 243.59375 88.777344 232.039062 C 84.367188 218.3125 82.78125 204.25 83.9375 189.875 C 86.070312 163.410156 96.421875 140.554688 114.203125 121.09375 C 132.203125 101.382812 154.582031 89.804688 180.855469 85.898438 C 206.148438 82.140625 230.191406 86.273438 252.773438 98.328125 C 268.070312 106.496094 280.648438 117.898438 290.734375 132.046875 C 291.734375 133.449219 292.445312 133.730469 294.078125 132.976562 C 304.851562 128.015625 316.183594 125.199219 328.015625 124.449219 C 354.242188 122.78125 377.589844 130.339844 397.671875 147.269531 C 416.566406 163.195312 427.449219 183.742188 430.570312 208.378906 C 433.644531 232.695312 428.5625 255.171875 415.492188 275.835938 C 415.425781 275.9375 415.375 276.0625 415.289062 276.140625 C 412.296875 278.945312 412.742188 281.96875 414.023438 285.570312 C 417.820312 296.28125 421.238281 307.125 424.820312 317.914062 C 425.609375 320.285156 426.085938 322.609375 424.898438 325.023438 C 423.25 328.386719 419.507812 330.082031 416.023438 328.761719 C 406.007812 324.96875 396.023438 321.101562 386.023438 317.265625 C 384.207031 316.570312 382.382812 315.890625 380.429688 315.148438 M 236.695312 221.617188 C 238.269531 187.625 252.679688 160.585938 280.226562 140.507812 C 279.785156 139.875 279.367188 139.214844 278.890625 138.601562 C 274.429688 132.84375 269.539062 127.492188 264.023438 122.734375 C 246.429688 107.5625 225.90625 99.703125 202.898438 98.46875 C 187.4375 97.640625 172.5 100.351562 158.179688 106.371094 C 142.820312 112.824219 129.796875 122.488281 119.441406 135.542969 C 103.007812 156.257812 95.554688 179.917969 97.4375 206.441406 C 98.242188 217.726562 101.203125 228.453125 105.773438 238.753906 C 109.160156 246.390625 113.667969 253.351562 118.601562 260.054688 C 120.417969 262.53125 120.914062 265.226562 119.789062 268.191406 C 116.816406 276.015625 113.882812 283.859375 110.953125 291.695312 C 109.808594 294.757812 108.703125 297.828125 107.453125 301.238281 C 108.289062 301 108.746094 300.914062 109.164062 300.75 C 120.691406 296.132812 132.21875 291.527344 143.726562 286.875 C 146.726562 285.664062 149.578125 285.804688 152.558594 287.054688 C 157.546875 289.148438 162.519531 291.351562 167.671875 292.953125 C 181.3125 297.195312 195.296875 298.441406 209.476562 296.625 C 219.480469 295.34375 229.191406 292.804688 238.308594 288.429688 C 243.878906 285.757812 249.210938 282.578125 254.8125 279.539062 C 248.6875 270.730469 244.164062 261.703125 241.117188 251.957031 C 238.066406 242.210938 236.519531 232.21875 236.695312 221.617188 M 414.898438 244.757812 C 417.632812 235.457031 418.398438 225.976562 417.882812 216.296875 C 417.28125 205.03125 414.730469 194.269531 409.800781 184.175781 C 401.789062 167.773438 389.503906 155.4375 373.328125 147.171875 C 356.257812 138.445312 338.207031 135.664062 319.328125 139.199219 C 302.621094 142.324219 288.105469 149.890625 275.820312 161.679688 C 267.476562 169.6875 261.296875 179.234375 256.867188 189.921875 C 249.84375 206.875 247.855469 224.320312 252.273438 242.273438 C 256.445312 259.234375 264.882812 273.722656 277.796875 285.457031 C 292.804688 299.097656 310.523438 306.320312 330.695312 307.28125 C 343.742188 307.902344 356.210938 305.164062 368.035156 299.625 C 371.367188 298.066406 374.507812 298.023438 377.878906 299.363281 C 387.09375 303.03125 396.351562 306.589844 405.597656 310.179688 C 406.40625 310.492188 407.25 310.726562 408.382812 311.09375 C 407.960938 309.78125 407.675781 308.859375 407.371094 307.9375 C 404.617188 299.644531 401.90625 291.339844 399.09375 283.070312 C 397.90625 279.582031 398.40625 276.519531 400.601562 273.582031 C 407.0625 264.945312 411.933594 255.492188 414.898438 244.757812 Z M 414.898438 244.757812 "/>
<path style=" stroke:none;fill-rule:nonzero;fill:rgb(59.215689%,44.705883%,84.705883%);fill-opacity:1;" d="M 236.695312 221.800781 C 236.519531 232.21875 238.066406 242.210938 241.117188 251.957031 C 244.164062 261.703125 248.6875 270.730469 254.8125 279.539062 C 249.210938 282.578125 243.878906 285.757812 238.308594 288.429688 C 229.191406 292.804688 219.480469 295.34375 209.476562 296.625 C 195.296875 298.441406 181.3125 297.195312 167.671875 292.953125 C 162.519531 291.351562 157.546875 289.148438 152.558594 287.054688 C 149.578125 285.804688 146.726562 285.664062 143.726562 286.875 C 132.21875 291.527344 120.691406 296.132812 109.164062 300.75 C 108.746094 300.914062 108.289062 301 107.453125 301.238281 C 108.703125 297.828125 109.808594 294.757812 110.953125 291.695312 C 113.882812 283.859375 116.816406 276.015625 119.789062 268.191406 C 120.914062 265.226562 120.417969 262.53125 118.601562 260.054688 C 113.667969 253.351562 109.160156 246.390625 105.773438 238.753906 C 101.203125 228.453125 98.242188 217.726562 97.4375 206.441406 C 95.554688 179.917969 103.007812 156.257812 119.441406 135.542969 C 129.796875 122.488281 142.820312 112.824219 158.179688 106.371094 C 172.5 100.351562 187.4375 97.640625 202.898438 98.46875 C 225.90625 99.703125 246.429688 107.5625 264.023438 122.734375 C 269.539062 127.492188 274.429688 132.84375 278.890625 138.601562 C 279.367188 139.214844 279.785156 139.875 280.226562 140.507812 C 252.679688 160.585938 238.269531 187.625 236.695312 221.800781 M 202.851562 154.566406 C 211.769531 161.464844 213.339844 172.359375 206.300781 180.742188 C 203.777344 183.746094 200.605469 186.242188 197.539062 188.734375 C 191.007812 194.03125 186.3125 200.492188 185.039062 208.953125 C 184.445312 212.914062 184.519531 216.988281 184.441406 221.015625 C 184.359375 225.109375 187.117188 227.914062 191.054688 227.96875 C 194.84375 228.019531 197.78125 225.066406 197.84375 221.101562 C 197.882812 218.835938 197.84375 216.570312 197.882812 214.308594 C 197.976562 208.425781 200.484375 203.773438 204.949219 200.039062 C 208.3125 197.226562 211.75 194.464844 214.828125 191.355469 C 224.617188 181.476562 226.757812 166.597656 220.34375 154.453125 C 214.070312 142.578125 200.117188 135.78125 186.96875 138.1875 C 179.414062 139.574219 173.015625 143.015625 167.953125 148.898438 C 163.550781 154.023438 161.210938 160.011719 160.390625 166.65625 C 159.890625 170.734375 161.578125 173.75 164.804688 174.742188 C 169.191406 176.085938 173.4375 173.171875 173.738281 168.5 C 174.046875 163.6875 175.820312 159.546875 179.398438 156.378906 C 186.324219 150.246094 194.601562 149.613281 202.851562 154.566406 M 199.367188 253.4375 C 200.992188 249.132812 199.96875 245.015625 196.617188 242.398438 C 193.78125 240.175781 188.8125 240.035156 186 242.09375 C 182.53125 244.636719 181.15625 248.875 182.664062 252.820312 C 184.039062 256.429688 186.851562 258.429688 190.574219 258.65625 C 194.378906 258.882812 197.359375 257.117188 199.367188 253.4375 Z M 199.367188 253.4375 "/>
<path style=" stroke:none;fill-rule:nonzero;fill:rgb(59.607846%,44.705883%,84.705883%);fill-opacity:1;" d="M 414.859375 244.902344 C 411.933594 255.492188 407.0625 264.945312 400.601562 273.582031 C 398.40625 276.519531 397.90625 279.582031 399.09375 283.070312 C 401.90625 291.339844 404.617188 299.644531 407.371094 307.9375 C 407.675781 308.859375 407.960938 309.78125 408.382812 311.09375 C 407.25 310.726562 406.40625 310.492188 405.597656 310.179688 C 396.351562 306.589844 387.09375 303.03125 377.878906 299.363281 C 374.507812 298.023438 371.367188 298.066406 368.035156 299.625 C 356.210938 305.164062 343.742188 307.902344 330.695312 307.28125 C 310.523438 306.320312 292.804688 299.097656 277.796875 285.457031 C 264.882812 273.722656 256.445312 259.234375 252.273438 242.273438 C 247.855469 224.320312 249.84375 206.875 256.867188 189.921875 C 261.296875 179.234375 267.476562 169.6875 275.820312 161.679688 C 288.105469 149.890625 302.621094 142.324219 319.328125 139.199219 C 338.207031 135.664062 356.257812 138.445312 373.328125 147.171875 C 389.503906 155.4375 401.789062 167.773438 409.800781 184.175781 C 414.730469 194.269531 417.28125 205.03125 417.882812 216.296875 C 418.398438 225.976562 417.632812 235.457031 414.859375 244.902344 M 339.460938 233.976562 C 345.128906 230.484375 347.003906 225.351562 344.757812 219.476562 C 343.269531 215.585938 338.699219 212.453125 334.34375 212.34375 C 330.125 212.234375 325.585938 215.042969 323.898438 218.8125 C 321.800781 223.5 322.585938 228.398438 325.984375 231.835938 C 329.558594 235.453125 334.351562 236.273438 339.460938 233.976562 M 292.59375 234.441406 C 293.234375 234.632812 293.867188 234.851562 294.515625 235 C 299.25 236.101562 304.039062 234.039062 306.730469 229.75 C 309.25 225.734375 308.921875 220.414062 305.929688 216.761719 C 302.8125 212.953125 297.53125 211.441406 293.09375 213.085938 C 288.632812 214.742188 285.539062 218.871094 285.3125 223.457031 C 285.101562 227.851562 287.914062 232.207031 292.59375 234.441406 M 368.179688 234.835938 C 370.59375 235.625 372.96875 235.453125 375.328125 234.578125 C 379.5 233.019531 382.628906 228.800781 382.742188 224.558594 C 382.871094 219.582031 380.238281 215.234375 375.964844 213.359375 C 371.800781 211.53125 366.46875 212.5625 363.28125 215.804688 C 357.171875 222.015625 359.492188 231.523438 368.179688 234.835938 Z M 368.179688 234.835938 "/>
<path style=" stroke:none;fill-rule:nonzero;fill:rgb(98.823529%,98.431373%,98.823529%);fill-opacity:1;" d="M 202.746094 154.484375 C 194.601562 149.613281 186.324219 150.246094 179.398438 156.378906 C 175.820312 159.546875 174.046875 163.6875 173.738281 168.5 C 173.4375 173.171875 169.191406 176.085938 164.804688 174.742188 C 161.578125 173.75 159.890625 170.734375 160.390625 166.65625 C 161.210938 160.011719 163.550781 154.023438 167.953125 148.898438 C 173.015625 143.015625 179.414062 139.574219 186.96875 138.1875 C 200.117188 135.78125 214.070312 142.578125 220.34375 154.453125 C 226.757812 166.597656 224.617188 181.476562 214.828125 191.355469 C 211.75 194.464844 208.3125 197.226562 204.949219 200.039062 C 200.484375 203.773438 197.976562 208.425781 197.882812 214.308594 C 197.84375 216.570312 197.882812 218.835938 197.84375 221.101562 C 197.78125 225.066406 194.84375 228.019531 191.054688 227.96875 C 187.117188 227.914062 184.359375 225.109375 184.441406 221.015625 C 184.519531 216.988281 184.445312 212.914062 185.039062 208.953125 C 186.3125 200.492188 191.007812 194.03125 197.539062 188.734375 C 200.605469 186.242188 203.777344 183.746094 206.300781 180.742188 C 213.339844 172.359375 211.769531 161.464844 202.746094 154.484375 Z M 202.746094 154.484375 "/>
<path style=" stroke:none;fill-rule:nonzero;fill:rgb(98.431373%,98.431373%,98.823529%);fill-opacity:1;" d="M 199.304688 253.5625 C 197.359375 257.117188 194.378906 258.882812 190.574219 258.65625 C 186.851562 258.429688 184.039062 256.429688 182.664062 252.820312 C 181.15625 248.875 182.53125 244.636719 186 242.09375 C 188.8125 240.035156 193.78125 240.175781 196.617188 242.398438 C 199.96875 245.015625 200.992188 249.132812 199.304688 253.5625 Z M 199.304688 253.5625 "/>
<path style=" stroke:none;fill-rule:nonzero;fill:rgb(98.823529%,98.431373%,98.823529%);fill-opacity:1;" d="M 339.339844 234.042969 C 334.351562 236.273438 329.558594 235.453125 325.984375 231.835938 C 322.585938 228.398438 321.800781 223.5 323.898438 218.8125 C 325.585938 215.042969 330.125 212.234375 334.34375 212.34375 C 338.699219 212.453125 343.269531 215.585938 344.757812 219.476562 C 347.003906 225.351562 345.128906 230.484375 339.339844 234.042969 Z M 339.339844 234.042969 "/>
<path style=" stroke:none;fill-rule:nonzero;fill:rgb(98.823529%,98.431373%,98.823529%);fill-opacity:1;" d="M 292.46875 234.382812 C 287.914062 232.207031 285.101562 227.851562 285.3125 223.457031 C 285.539062 218.871094 288.632812 214.742188 293.09375 213.085938 C 297.53125 211.441406 302.8125 212.953125 305.929688 216.761719 C 308.921875 220.414062 309.25 225.734375 306.730469 229.75 C 304.039062 234.039062 299.25 236.101562 294.515625 235 C 293.867188 234.851562 293.234375 234.632812 292.46875 234.382812 Z M 292.46875 234.382812 "/>
<path style=" stroke:none;fill-rule:nonzero;fill:rgb(98.823529%,98.431373%,98.823529%);fill-opacity:1;" d="M 368.046875 234.785156 C 359.492188 231.523438 357.171875 222.015625 363.28125 215.804688 C 366.46875 212.5625 371.800781 211.53125 375.964844 213.359375 C 380.238281 215.234375 382.871094 219.582031 382.742188 224.558594 C 382.628906 228.800781 379.5 233.019531 375.328125 234.578125 C 372.96875 235.453125 370.59375 235.625 368.046875 234.785156 Z M 368.046875 234.785156 "/>
</g>
</svg>
