<svg version="1.1" id="Layer_1" xmlns="http://www.w3.org/2000/svg" xmlns:xlink="http://www.w3.org/1999/xlink" x="0px" y="0px"
	 width="100%" viewBox="0 0 1254 1254" enable-background="new 0 0 1254 1254" xml:space="preserve">
<path fill="#FEFEFE" opacity="1.000000" stroke="none" 
	d="
M695.000000,1255.000000 
	C463.333344,1255.000000 232.166672,1255.000000 1.000000,1255.000000 
	C1.000000,837.000000 1.000000,419.000000 1.000000,1.000000 
	C419.000000,1.000000 837.000000,1.000000 1255.000000,1.000000 
	C1255.000000,419.000000 1255.000000,837.000000 1255.000000,1255.000000 
	C1068.500000,1255.000000 882.000000,1255.000000 695.000000,1255.000000 
M215.079727,917.845825 
	C215.128708,919.565247 215.177689,921.284729 215.081909,923.930420 
	C215.132629,931.954590 215.183365,939.978760 215.086792,948.929993 
	C215.132309,960.284973 215.177826,971.639954 215.077530,983.922241 
	C215.399750,995.189331 214.659424,1006.608826 216.249313,1017.694092 
	C220.517212,1047.451172 246.704620,1075.871582 283.430939,1075.931030 
	C408.312988,1076.133057 533.195557,1076.034790 658.589111,1076.489624 
	C674.604187,1106.685547 699.123474,1124.695557 733.777039,1124.887695 
	C830.264282,1125.422607 926.756531,1125.046631 1023.246765,1125.079468 
	C1035.380615,1125.083618 1046.776245,1121.839966 1057.138062,1116.068970 
	C1087.391724,1099.219116 1102.703979,1072.857788 1102.834595,1038.465820 
	C1103.177246,948.309509 1102.979980,858.151062 1102.932129,767.993408 
	C1102.923218,751.110779 1099.918823,734.836060 1091.037842,720.191101 
	C1079.564575,701.271545 1063.700317,687.766174 1041.971313,681.304199 
	C1041.741577,680.864258 1041.511963,680.424255 1041.174561,679.055847 
	C1041.176392,621.631042 1041.327881,564.205383 1040.996826,506.782501 
	C1040.953979,499.344971 1039.714111,491.363953 1036.801147,484.593109 
	C1026.736816,461.200409 1007.886475,450.121490 982.880798,447.998474 
	C982.896606,361.355133 982.943420,274.711731 982.837891,188.068512 
	C982.832520,183.653412 982.033142,179.080566 980.726746,174.852051 
	C973.402466,151.145981 954.050781,137.007492 929.201538,137.004211 
	C777.408691,136.984207 625.615845,136.981323 473.823059,137.031815 
	C470.361420,137.032959 466.842224,137.449783 463.448059,138.149155 
	C442.523712,142.460724 424.164276,162.786209 423.881470,183.817810 
	C423.716034,196.122971 423.349762,208.425323 423.124023,220.729843 
	C422.948914,230.274673 424.293427,229.043945 415.002869,229.058289 
	C385.344208,229.104065 355.683807,228.890686 326.027313,229.148438 
	C311.578552,229.274002 299.019592,234.705399 289.253754,245.488785 
	C280.288544,255.388138 276.139252,267.398254 276.114105,280.674042 
	C276.021362,329.660828 276.056122,378.647858 276.078705,427.634796 
	C276.097687,468.789520 276.166443,509.944275 275.636566,551.684875 
	C247.699112,555.580811 229.205170,571.290344 218.946152,597.173950 
	C213.183914,611.712036 215.265198,626.960022 215.060898,642.931946 
	C215.050140,685.159180 215.021790,727.386353 215.038345,769.613586 
	C215.044022,784.073364 215.162216,798.533203 215.080597,813.885620 
	C215.131668,816.591431 215.182755,819.297302 215.092117,822.745239 
	C215.139038,823.495789 215.185944,824.246338 215.083878,825.922119 
	C215.134125,831.613342 215.184387,837.304565 215.084915,843.862488 
	C215.130753,845.909668 215.176605,847.956848 215.083023,850.923401 
	C215.125671,855.283325 215.168320,859.643188 215.071228,864.931152 
	C215.122421,875.619690 215.173599,886.308289 215.079575,897.923462 
	C215.127426,904.280945 215.175278,910.638489 215.079727,917.845825 
z"/>
<path fill="#CCA2FA" opacity="1.000000" stroke="none" 
	d="
M276.213135,551.098999 
	C276.166443,509.944275 276.097687,468.789520 276.078705,427.634796 
	C276.056122,378.647858 276.021362,329.660828 276.114105,280.674042 
	C276.139252,267.398254 280.288544,255.388138 289.253754,245.488785 
	C299.019592,234.705399 311.578552,229.274002 326.027313,229.148438 
	C355.683807,228.890686 385.344208,229.104065 415.002869,229.058289 
	C424.293427,229.043945 422.948914,230.274673 423.124023,220.729843 
	C423.349762,208.425323 423.716034,196.122971 423.881470,183.817810 
	C424.164276,162.786209 442.523712,142.460724 463.448059,138.149155 
	C466.842224,137.449783 470.361420,137.032959 473.823059,137.031815 
	C625.615845,136.981323 777.408691,136.984207 929.201538,137.004211 
	C954.050781,137.007492 973.402466,151.145981 980.726746,174.852051 
	C982.033142,179.080566 982.832520,183.653412 982.837891,188.068512 
	C982.943420,274.711731 982.896606,361.355133 982.405396,448.527344 
	C973.285583,448.986725 964.641052,448.917297 955.994507,448.391296 
	C956.002197,361.782806 956.017822,275.630890 956.016113,189.478989 
	C956.015808,174.803360 945.195312,163.966843 930.494568,163.965927 
	C778.686829,163.956406 626.879089,163.958466 475.071350,163.980225 
	C460.780579,163.982269 450.107880,174.572342 449.991455,188.840729 
	C449.894928,200.671295 449.945557,212.503204 449.968536,224.334442 
	C449.971313,225.767624 450.207855,227.200348 450.373291,229.049805 
	C452.912109,229.049805 455.048981,229.049728 457.185883,229.049789 
	C564.667786,229.053101 672.149658,229.049255 779.631531,229.093491 
	C782.932983,229.094849 786.229675,229.684708 789.536194,229.849579 
	C811.894958,230.964493 833.680725,252.644104 833.810059,278.431488 
	C834.095093,335.252411 833.824768,392.076080 833.330078,448.963257 
	C824.300354,448.988739 815.721558,448.949585 807.119141,448.449341 
	C807.066772,392.157623 807.057861,336.327026 806.995972,280.496490 
	C806.979797,265.887817 797.085388,256.041412 782.525391,256.040497 
	C631.199036,256.031036 479.872620,256.109131 328.546509,255.908295 
	C314.673706,255.889877 302.747925,265.777344 302.811737,281.878693 
	C303.165802,371.206360 302.965820,460.536285 302.742554,549.979980 
	C302.265411,550.296997 302.081543,550.556274 301.513733,550.929138 
	C292.770752,551.023499 284.491943,551.061279 276.213135,551.098999 
z"/>
<path fill="#CBA2FA" opacity="1.000000" stroke="none" 
	d="
M1042.004517,681.809998 
	C1063.700317,687.766174 1079.564575,701.271545 1091.037842,720.191101 
	C1099.918823,734.836060 1102.923218,751.110779 1102.932129,767.993408 
	C1102.979980,858.151062 1103.177246,948.309509 1102.834595,1038.465820 
	C1102.703979,1072.857788 1087.391724,1099.219116 1057.138062,1116.068970 
	C1046.776245,1121.839966 1035.380615,1125.083618 1023.246765,1125.079468 
	C926.756531,1125.046631 830.264282,1125.422607 733.777039,1124.887695 
	C699.123474,1124.695557 674.604187,1106.685547 658.262207,1075.906128 
	C655.214600,1066.609375 652.493958,1057.896118 649.802002,1048.752686 
	C649.553162,1045.019043 649.034729,1041.715576 649.033081,1038.411865 
	C648.988159,947.426880 648.861267,856.441467 649.089172,765.457092 
	C649.146118,742.732239 657.909180,723.020935 673.189880,706.342651 
	C690.969299,686.937073 713.432190,678.159790 739.520508,678.099121 
	C752.018372,678.070068 764.516418,678.086304 777.014343,678.089417 
	C855.667542,678.109070 934.320679,678.130737 1013.166626,678.362671 
	C1013.906555,678.702026 1014.453613,678.830444 1015.465454,678.989746 
	C1024.276489,679.743591 1032.622681,680.466492 1041.091064,681.365723 
	C1041.436523,681.750610 1041.700317,681.839905 1042.004517,681.809998 
M676.927246,1048.509888 
	C684.177490,1079.625366 707.946411,1098.859741 740.560608,1098.907349 
	C832.392639,1099.041504 924.225159,1099.006470 1016.057007,1098.836548 
	C1022.271912,1098.825073 1028.691528,1097.850952 1034.660400,1096.107422 
	C1059.140869,1088.956177 1075.988403,1066.097412 1075.999756,1040.473633 
	C1076.041016,947.808044 1076.028198,855.142517 1075.975342,762.476929 
	C1075.973511,759.350525 1075.495483,756.193848 1074.947876,753.102966 
	C1070.235229,726.511902 1046.156616,704.717407 1017.790344,704.846375 
	C924.626770,705.269958 831.459961,705.005310 738.294434,705.012817 
	C735.629456,705.013000 732.891296,704.715393 730.310547,705.205627 
	C695.844604,711.752991 675.370850,736.499817 675.191284,770.416260 
	C674.723633,858.746033 675.007080,947.079956 675.100830,1035.412109 
	C675.105164,1039.503540 676.175232,1043.593750 676.927246,1048.509888 
z"/>
<path fill="#FED257" opacity="1.000000" stroke="none" 
	d="
M1040.968994,681.189453 
	C1032.622681,680.466492 1024.276489,679.743591 1015.391602,678.775757 
	C1014.853027,678.530884 1014.670410,678.115601 1014.692139,677.839478 
	C1014.666260,677.384888 1014.618774,677.206421 1014.660095,676.566284 
	C1014.793884,619.791138 1014.973083,563.476990 1014.673035,507.165436 
	C1014.643555,501.621887 1012.562012,495.617706 1009.894714,490.653870 
	C1003.526184,478.802063 992.128418,476.065399 979.694702,476.066498 
	C892.722778,476.074188 805.750916,476.069458 718.778992,476.091949 
	C696.391968,476.097748 680.510986,487.077637 672.112427,507.849609 
	C668.623901,516.477783 665.106506,525.165894 660.690430,533.333801 
	C648.665771,555.574890 630.466919,570.504822 605.450073,575.386475 
	C594.318420,577.558777 582.672607,577.702881 571.258179,577.724121 
	C476.122559,577.900879 380.986389,577.770874 285.850952,577.987366 
	C279.689301,578.001404 273.064087,579.033142 267.459320,581.454407 
	C249.076019,589.395935 241.225418,604.465881 240.630264,623.994446 
	C238.326080,622.692017 236.395889,621.395142 234.430542,620.074646 
	C229.895279,623.905334 225.521729,627.559082 224.891800,634.200684 
	C224.360641,639.800903 222.866547,645.309753 221.798676,650.859070 
	C221.135040,650.845886 220.471405,650.832764 219.807770,650.819580 
	C219.204849,648.887207 218.796722,646.861267 217.929779,645.055603 
	C217.362091,643.873169 216.130234,643.009705 215.195847,642.003357 
	C215.265198,626.960022 213.183914,611.712036 218.946152,597.173950 
	C229.205170,571.290344 247.699112,555.580811 275.924866,551.391968 
	C284.491943,551.061279 292.770752,551.023499 301.798035,550.942322 
	C302.727509,550.841492 302.908478,550.784119 303.549316,550.777100 
	C398.661682,550.831665 493.314148,550.862610 587.966614,550.816040 
	C605.304321,550.807495 619.221252,543.469604 630.506775,530.498657 
	C638.252869,521.595581 641.835938,510.621490 646.044800,500.019135 
	C658.756775,467.997742 684.044556,448.948822 720.165161,449.057190 
	C749.157288,449.144196 778.150269,448.969208 807.142822,448.910461 
	C815.721558,448.949585 824.300354,448.988739 833.818115,449.033417 
	C847.564148,449.061401 860.371155,449.125000 873.178040,449.097809 
	C900.784302,449.039215 928.390381,448.933990 955.996582,448.847839 
	C964.641052,448.917297 973.285583,448.986725 982.376282,448.990051 
	C1007.886475,450.121490 1026.736816,461.200409 1036.801147,484.593109 
	C1039.714111,491.363953 1040.953979,499.344971 1040.996826,506.782501 
	C1041.327881,564.205383 1041.176392,621.631042 1041.129150,679.815918 
	C1041.045532,680.780457 1041.007324,680.984924 1040.968994,681.189453 
z"/>
<path fill="#FED258" opacity="1.000000" stroke="none" 
	d="
M649.773315,1049.182861 
	C652.493958,1057.896118 655.214600,1066.609375 658.006592,1075.687012 
	C533.195557,1076.034790 408.312988,1076.133057 283.430939,1075.931030 
	C246.704620,1075.871582 220.517212,1047.451172 216.249313,1017.694092 
	C214.659424,1006.608826 215.399750,995.189331 215.543060,983.439087 
	C216.672394,981.519592 217.641159,980.143250 217.938202,978.634705 
	C218.612503,975.210022 218.956375,971.720276 219.462326,968.055969 
	C224.295975,970.390381 227.930283,972.260925 223.780197,977.844360 
	C221.705399,980.635681 224.093445,987.958923 227.282578,990.853271 
	C230.720856,984.861084 233.245911,990.258179 236.316650,992.313721 
	C236.636246,990.881958 236.904938,990.129578 236.959213,989.362000 
	C237.324448,984.195679 237.490097,979.007690 238.105515,973.872864 
	C238.232269,972.815247 239.982010,971.952209 241.025162,971.466797 
	C241.072876,982.426147 241.172623,992.919189 241.066742,1003.410217 
	C240.811600,1028.691284 260.528046,1049.523560 286.549072,1049.256592 
	C336.672821,1048.742065 386.805725,1049.112793 436.934814,1049.124146 
	C507.880981,1049.140137 578.827148,1049.162842 649.773315,1049.182861 
z"/>
<path fill="#FED154" opacity="1.000000" stroke="none" 
	d="
M215.128372,642.467651 
	C216.130234,643.009705 217.362091,643.873169 217.929779,645.055603 
	C218.796722,646.861267 219.204849,648.887207 219.807770,650.819580 
	C220.471405,650.832764 221.135040,650.845886 221.798676,650.859070 
	C222.866547,645.309753 224.360641,639.800903 224.891800,634.200684 
	C225.521729,627.559082 229.895279,623.905334 234.430542,620.074646 
	C236.395889,621.395142 238.326080,622.692017 240.665497,624.462036 
	C241.076797,643.897461 241.089645,662.859680 241.078812,681.821899 
	C241.048294,735.214355 241.008057,788.606750 240.578674,842.007446 
	C234.864990,844.242737 236.184982,848.944031 236.576935,852.879089 
	C237.009140,857.218384 237.537262,861.292664 234.142670,865.035706 
	C230.929962,862.694275 228.849060,860.884277 232.145859,856.927429 
	C233.502441,855.299194 233.636963,851.922791 233.104767,849.624695 
	C232.339386,846.319702 230.741486,843.105225 228.994843,840.150085 
	C224.888428,833.202393 224.060303,825.925415 225.724228,818.149597 
	C226.009979,816.814270 225.572311,815.245850 225.191681,813.861328 
	C224.208817,810.286255 223.071320,806.753662 221.994736,803.204407 
	C221.676926,802.156738 221.356308,801.109802 221.036987,800.062561 
	C220.480972,800.117493 219.924973,800.172485 219.368958,800.227478 
	C219.245361,802.730652 219.140762,805.234924 218.992889,807.736694 
	C218.843353,810.266541 218.884521,812.961487 215.229004,812.992981 
	C215.162216,798.533203 215.044022,784.073364 215.038345,769.613586 
	C215.021790,727.386353 215.050140,685.159180 215.128372,642.467651 
M218.004715,672.073059 
	C218.658707,672.973694 219.312683,673.874329 219.966660,674.774963 
	C220.940506,673.749695 222.793167,672.672180 222.735764,671.708313 
	C222.490021,667.581543 221.681320,663.488220 221.077866,659.382751 
	C220.421600,659.453613 219.765320,659.524536 219.109039,659.595459 
	C218.739563,663.465027 218.370087,667.334534 218.004715,672.073059 
z"/>
<path fill="#FED257" opacity="1.000000" stroke="none" 
	d="
M215.154800,813.439331 
	C218.884521,812.961487 218.843353,810.266541 218.992889,807.736694 
	C219.140762,805.234924 219.245361,802.730652 219.368958,800.227478 
	C219.924973,800.172485 220.480972,800.117493 221.036987,800.062561 
	C221.356308,801.109802 221.676926,802.156738 221.994736,803.204407 
	C223.071320,806.753662 224.208817,810.286255 225.191681,813.861328 
	C225.572311,815.245850 226.009979,816.814270 225.724228,818.149597 
	C224.060303,825.925415 224.888428,833.202393 228.994843,840.150085 
	C230.741486,843.105225 232.339386,846.319702 233.104767,849.624695 
	C233.636963,851.922791 233.502441,855.299194 232.145859,856.927429 
	C228.849060,860.884277 230.929962,862.694275 234.142670,865.035706 
	C237.537262,861.292664 237.009140,857.218384 236.576935,852.879089 
	C236.184982,848.944031 234.864990,844.242737 240.620804,842.474670 
	C241.029861,858.955750 241.003799,874.977905 240.584625,891.012451 
	C239.231613,892.532654 237.447464,894.039246 237.445480,895.548218 
	C237.432556,905.404175 237.749466,915.263123 238.176773,925.111633 
	C238.205780,925.780518 240.012909,926.372314 241.031036,927.467407 
	C241.041107,937.289917 241.013214,946.644958 240.601181,955.989563 
	C239.138367,954.007751 237.589584,952.151489 237.073349,950.042480 
	C235.773636,944.732605 231.379211,939.975891 227.432556,941.684082 
	C224.875977,942.790588 223.477692,947.095032 222.089142,950.202759 
	C221.093567,952.431030 220.973206,955.050232 220.462387,957.495056 
	C219.969360,957.448608 219.476318,957.402222 218.983292,957.355774 
	C218.983292,955.656494 219.466980,953.752014 218.855988,952.311951 
	C218.155365,950.660645 216.483826,949.421265 215.234100,948.002930 
	C215.183365,939.978760 215.132629,931.954590 215.541016,923.485596 
	C216.666855,924.474243 217.426697,925.873169 217.974258,927.350769 
	C218.526337,928.840454 218.867584,930.408325 219.478378,932.568604 
	C222.030930,930.358948 223.764023,928.858704 225.613968,927.257263 
	C223.440262,924.065186 223.054901,921.460327 227.173691,919.256226 
	C230.157303,917.659546 229.444687,914.765686 226.837402,912.867004 
	C224.810333,911.390747 223.534439,908.847778 222.033676,906.702637 
	C221.487183,905.921448 221.255905,904.919678 220.880798,904.018494 
	C220.399597,904.040344 219.918396,904.062195 219.437195,904.084045 
	C218.957809,907.200867 218.690109,910.372742 217.901627,913.409302 
	C217.554398,914.746521 216.148407,915.808838 215.223129,916.995972 
	C215.175278,910.638489 215.127426,904.280945 215.532532,897.443237 
	C216.663620,896.032593 217.688644,895.190857 217.953445,894.154785 
	C218.683212,891.299622 219.094757,888.363159 219.742569,884.862183 
	C220.465637,885.861633 220.764725,886.097290 220.823196,886.382263 
	C221.867645,891.473938 227.255386,896.543823 232.195099,896.750183 
	C233.082657,896.787292 234.632782,895.837708 234.830521,895.072998 
	C236.015198,890.491333 237.683289,885.823914 237.644653,881.198181 
	C237.608734,876.898560 235.643814,872.615051 234.342178,867.609131 
	C231.019867,876.861816 224.434845,867.616394 220.558228,870.485168 
	C218.604446,868.116760 216.907700,866.059937 215.210968,864.003113 
	C215.168320,859.643188 215.125671,855.283325 215.529373,850.479248 
	C217.355698,852.873657 218.735672,855.712341 220.277756,858.884399 
	C221.688126,857.807312 224.386093,856.597168 224.288193,855.688232 
	C223.446960,847.878479 222.100494,840.123047 220.904892,832.351440 
	C220.181122,832.344299 219.457352,832.337158 218.733582,832.329956 
	C218.488953,834.535095 218.161438,836.735046 218.024429,838.946838 
	C217.902435,840.916077 218.375595,843.160583 215.234650,842.995789 
	C215.184387,837.304565 215.134125,831.613342 215.504776,825.449097 
	C216.561142,824.448486 217.196625,823.920959 217.832092,823.393372 
	C216.966003,822.929993 216.099915,822.466553 215.233826,822.003113 
	C215.182755,819.297302 215.131668,816.591431 215.154800,813.439331 
z"/>
<path fill="#FED154" opacity="1.000000" stroke="none" 
	d="
M215.160446,948.466431 
	C216.483826,949.421265 218.155365,950.660645 218.855988,952.311951 
	C219.466980,953.752014 218.983292,955.656494 218.983292,957.355774 
	C219.476318,957.402222 219.969360,957.448608 220.462387,957.495056 
	C220.973206,955.050232 221.093567,952.431030 222.089142,950.202759 
	C223.477692,947.095032 224.875977,942.790588 227.432556,941.684082 
	C231.379211,939.975891 235.773636,944.732605 237.073349,950.042480 
	C237.589584,952.151489 239.138367,954.007751 240.640289,956.454407 
	C241.036926,961.619629 241.010315,966.309570 240.983673,970.999512 
	C239.982010,971.952209 238.232269,972.815247 238.105515,973.872864 
	C237.490097,979.007690 237.324448,984.195679 236.959213,989.362000 
	C236.904938,990.129578 236.636246,990.881958 236.316650,992.313721 
	C233.245911,990.258179 230.720856,984.861084 227.282578,990.853271 
	C224.093445,987.958923 221.705399,980.635681 223.780197,977.844360 
	C227.930283,972.260925 224.295975,970.390381 219.462326,968.055969 
	C218.956375,971.720276 218.612503,975.210022 217.938202,978.634705 
	C217.641159,980.143250 216.672394,981.519592 215.615967,982.975464 
	C215.177826,971.639954 215.132309,960.284973 215.160446,948.466431 
z"/>
<path fill="#FED154" opacity="1.000000" stroke="none" 
	d="
M215.141098,864.467163 
	C216.907700,866.059937 218.604446,868.116760 220.558228,870.485168 
	C224.434845,867.616394 231.019867,876.861816 234.342178,867.609131 
	C235.643814,872.615051 237.608734,876.898560 237.644653,881.198181 
	C237.683289,885.823914 236.015198,890.491333 234.830521,895.072998 
	C234.632782,895.837708 233.082657,896.787292 232.195099,896.750183 
	C227.255386,896.543823 221.867645,891.473938 220.823196,886.382263 
	C220.764725,886.097290 220.465637,885.861633 219.742569,884.862183 
	C219.094757,888.363159 218.683212,891.299622 217.953445,894.154785 
	C217.688644,895.190857 216.663620,896.032593 215.605133,896.979980 
	C215.173599,886.308289 215.122421,875.619690 215.141098,864.467163 
z"/>
<path fill="#FED258" opacity="1.000000" stroke="none" 
	d="
M215.151428,917.420898 
	C216.148407,915.808838 217.554398,914.746521 217.901627,913.409302 
	C218.690109,910.372742 218.957809,907.200867 219.437195,904.084045 
	C219.918396,904.062195 220.399597,904.040344 220.880798,904.018494 
	C221.255905,904.919678 221.487183,905.921448 222.033676,906.702637 
	C223.534439,908.847778 224.810333,911.390747 226.837402,912.867004 
	C229.444687,914.765686 230.157303,917.659546 227.173691,919.256226 
	C223.054901,921.460327 223.440262,924.065186 225.613968,927.257263 
	C223.764023,928.858704 222.030930,930.358948 219.478378,932.568604 
	C218.867584,930.408325 218.526337,928.840454 217.974258,927.350769 
	C217.426697,925.873169 216.666855,924.474243 215.613388,923.022461 
	C215.177689,921.284729 215.128708,919.565247 215.151428,917.420898 
z"/>
<path fill="#FED258" opacity="1.000000" stroke="none" 
	d="
M215.159790,843.429138 
	C218.375595,843.160583 217.902435,840.916077 218.024429,838.946838 
	C218.161438,836.735046 218.488953,834.535095 218.733582,832.329956 
	C219.457352,832.337158 220.181122,832.344299 220.904892,832.351440 
	C222.100494,840.123047 223.446960,847.878479 224.288193,855.688232 
	C224.386093,856.597168 221.688126,857.807312 220.277756,858.884399 
	C218.735672,855.712341 217.355698,852.873657 215.599091,850.019531 
	C215.176605,847.956848 215.130753,845.909668 215.159790,843.429138 
z"/>
<path fill="#FED154" opacity="1.000000" stroke="none" 
	d="
M215.162964,822.374146 
	C216.099915,822.466553 216.966003,822.929993 217.832092,823.393372 
	C217.196625,823.920959 216.561142,824.448486 215.579269,824.986450 
	C215.185944,824.246338 215.139038,823.495789 215.162964,822.374146 
z"/>
<path fill="#FEF1CF" opacity="1.000000" stroke="none" 
	d="
M1041.091064,681.365723 
	C1041.007324,680.984924 1041.045532,680.780457 1041.182861,680.280151 
	C1041.511963,680.424255 1041.741577,680.864258 1041.987915,681.557129 
	C1041.700317,681.839905 1041.436523,681.750610 1041.091064,681.365723 
z"/>
<path fill="#FEFEFE" opacity="1.000000" stroke="none" 
	d="
M807.119141,448.449341 
	C778.150269,448.969208 749.157288,449.144196 720.165161,449.057190 
	C684.044556,448.948822 658.756775,467.997742 646.044800,500.019135 
	C641.835938,510.621490 638.252869,521.595581 630.506775,530.498657 
	C619.221252,543.469604 605.304321,550.807495 587.966614,550.816040 
	C493.314148,550.862610 398.661682,550.831665 303.521851,550.561279 
	C303.034454,550.295105 302.955566,549.865417 302.955566,549.865417 
	C302.965820,460.536285 303.165802,371.206360 302.811737,281.878693 
	C302.747925,265.777344 314.673706,255.889877 328.546509,255.908295 
	C479.872620,256.109131 631.199036,256.031036 782.525391,256.040497 
	C797.085388,256.041412 806.979797,265.887817 806.995972,280.496490 
	C807.057861,336.327026 807.066772,392.157623 807.119141,448.449341 
M356.994751,349.583130 
	C357.154022,366.728668 369.129852,380.809387 384.840851,380.968719 
	C418.835388,381.313446 452.882751,382.147888 486.818481,380.688538 
	C511.554749,379.624847 520.089600,355.511292 510.916931,335.836212 
	C505.414124,324.032837 494.476837,319.247467 481.750275,319.189423 
	C450.584717,319.047272 419.414124,318.842041 388.253357,319.252289 
	C369.742004,319.495972 358.215668,332.813324 356.994751,349.583130 
M588.002869,500.011017 
	C595.123840,498.656189 600.366821,492.793060 599.753601,486.870270 
	C598.981812,479.414612 593.802673,475.033478 585.635010,475.026978 
	C560.324768,475.006805 535.014587,475.012726 509.704346,475.012878 
	C462.913727,475.013184 416.123047,475.048950 369.332581,474.971924 
	C364.291351,474.963623 360.157257,476.400299 357.244995,480.564056 
	C354.426361,484.594086 354.061829,489.078644 356.379364,493.321625 
	C359.085388,498.275848 363.594788,500.098328 369.298462,500.091125 
	C441.898743,499.999390 514.499146,500.026154 588.002869,500.011017 
M742.779968,365.654175 
	C748.784546,361.960754 751.131226,356.896942 749.522278,351.105316 
	C748.000793,345.628540 743.538513,341.962555 737.906982,341.958252 
	C681.958130,341.915314 626.009216,341.895447 570.060669,342.016998 
	C567.765198,342.022003 565.100525,342.992493 563.250549,344.373840 
	C558.175659,348.163239 556.825562,353.354675 558.833862,358.929321 
	C560.635498,363.930542 565.496582,366.996552 571.883606,366.998566 
	C626.666870,367.015930 681.450195,367.021362 736.233398,366.970459 
	C738.174011,366.968658 740.114014,366.342560 742.779968,365.654175 
M566.500000,416.963776 
	C536.021851,416.962677 505.543610,416.947144 475.065491,416.991730 
	C472.937592,416.994843 470.681213,417.071930 468.707581,417.757080 
	C463.298187,419.634979 459.293945,426.121643 460.190399,430.998352 
	C461.285431,436.955322 467.340454,441.961090 473.851227,441.968781 
	C511.324341,442.013123 548.797546,441.989105 586.270691,441.988190 
	C586.437256,441.988159 586.604065,441.992462 586.770264,441.984344 
	C593.887939,441.636627 599.927429,435.908722 599.932434,429.502502 
	C599.937927,422.489532 594.152283,417.055542 586.486267,416.980133 
	C580.158081,416.917877 573.828796,416.965179 566.500000,416.963776 
M394.499054,441.984436 
	C399.485992,441.984131 404.475555,442.086731 409.459229,441.959015 
	C416.605377,441.775909 422.083771,436.175690 422.031982,429.300781 
	C421.978119,422.151123 416.724976,417.018707 409.258728,416.990540 
	C395.627991,416.939117 381.996948,416.952026 368.366058,416.976013 
	C360.583649,416.989685 355.140961,422.028961 354.995941,429.264832 
	C354.849731,436.560699 360.544525,441.935883 368.564850,441.977325 
	C376.876129,442.020294 385.187866,441.984985 394.499054,441.984436 
z"/>
<path fill="#F7EFFD" opacity="1.000000" stroke="none" 
	d="
M955.994507,448.391266 
	C928.390381,448.933990 900.784302,449.039215 873.178040,449.097809 
	C860.371155,449.125000 847.564148,449.061401 834.269165,448.968811 
	C833.824768,392.076080 834.095093,335.252411 833.810059,278.431488 
	C833.680725,252.644104 811.894958,230.964493 789.536194,229.849579 
	C786.229675,229.684708 782.932983,229.094849 779.631531,229.093491 
	C672.149658,229.049255 564.667786,229.053101 457.185883,229.049789 
	C455.048981,229.049728 452.912109,229.049805 450.373291,229.049805 
	C450.207855,227.200348 449.971313,225.767624 449.968536,224.334442 
	C449.945557,212.503204 449.894928,200.671295 449.991455,188.840729 
	C450.107880,174.572342 460.780579,163.982269 475.071350,163.980225 
	C626.879089,163.958466 778.686829,163.956406 930.494568,163.965927 
	C945.195312,163.966843 956.015808,174.803360 956.016113,189.478989 
	C956.017822,275.630890 956.002197,361.782806 955.994507,448.391266 
z"/>
<path fill="#FEF1CF" opacity="1.000000" stroke="none" 
	d="
M302.742554,549.979980 
	C302.955566,549.865417 303.034454,550.295105 303.061951,550.510986 
	C302.908478,550.784119 302.727509,550.841492 302.262238,550.885681 
	C302.081543,550.556274 302.265411,550.296997 302.742554,549.979980 
z"/>
<path fill="#FEF1CF" opacity="1.000000" stroke="none" 
	d="
M241.025177,971.466797 
	C241.010315,966.309570 241.036926,961.619629 241.024414,956.464844 
	C241.013214,946.644958 241.041107,937.289917 241.068390,926.999878 
	C241.037766,914.376648 241.007751,902.688293 240.977753,891.000000 
	C241.003799,874.977905 241.029861,858.955750 241.013779,842.466431 
	C241.008057,788.606750 241.048294,735.214355 241.078812,681.821899 
	C241.089645,662.859680 241.076797,643.897461 241.039520,624.467651 
	C241.225418,604.465881 249.076019,589.395935 267.459320,581.454407 
	C273.064087,579.033142 279.689301,578.001404 285.850952,577.987366 
	C380.986389,577.770874 476.122559,577.900879 571.258179,577.724121 
	C582.672607,577.702881 594.318420,577.558777 605.450073,575.386475 
	C630.466919,570.504822 648.665771,555.574890 660.690430,533.333801 
	C665.106506,525.165894 668.623901,516.477783 672.112427,507.849609 
	C680.510986,487.077637 696.391968,476.097748 718.778992,476.091949 
	C805.750916,476.069458 892.722778,476.074188 979.694702,476.066498 
	C992.128418,476.065399 1003.526184,478.802063 1009.894714,490.653870 
	C1012.562012,495.617706 1014.643555,501.621887 1014.673035,507.165436 
	C1014.973083,563.476990 1014.793884,619.791138 1014.522217,676.695068 
	C1014.134521,677.490601 1014.020142,677.718933 1013.704956,678.000977 
	C1013.457581,678.031250 1012.973877,678.151794 1012.973877,678.151733 
	C934.320679,678.130737 855.667542,678.109070 777.014343,678.089417 
	C764.516418,678.086304 752.018372,678.070068 739.520508,678.099121 
	C713.432190,678.159790 690.969299,686.937073 673.189880,706.342651 
	C657.909180,723.020935 649.146118,742.732239 649.089172,765.457092 
	C648.861267,856.441467 648.988159,947.426880 649.033081,1038.411865 
	C649.034729,1041.715576 649.553162,1045.019043 649.802002,1048.752686 
	C578.827148,1049.162842 507.880981,1049.140137 436.934814,1049.124146 
	C386.805725,1049.112793 336.672821,1048.742065 286.549072,1049.256592 
	C260.528046,1049.523560 240.811600,1028.691284 241.066742,1003.410217 
	C241.172623,992.919189 241.072876,982.426147 241.025177,971.466797 
M553.844116,680.529907 
	C548.445679,679.731506 543.049072,678.252869 537.648560,678.238586 
	C474.158447,678.070557 410.667694,678.104004 347.177155,678.155823 
	C342.874084,678.159302 338.536316,678.488098 334.275024,679.091736 
	C319.247986,681.220398 303.912506,695.061951 302.245117,710.115112 
	C300.695343,724.107117 301.376862,738.346436 301.087494,752.477051 
	C301.080872,752.800598 301.197479,753.130493 301.280090,753.451416 
	C306.808777,774.929749 324.275330,786.309021 343.398132,786.194519 
	C409.219299,785.800598 475.044342,786.068787 540.867859,786.027832 
	C563.409973,786.013794 580.825256,768.771790 581.062073,746.324341 
	C581.162292,736.826843 581.152161,727.326538 581.056152,717.828918 
	C580.890320,701.426147 570.141968,686.471497 553.844116,680.529907 
z"/>
<path fill="#FDBFDD" opacity="1.000000" stroke="none" 
	d="
M676.838135,1048.097168 
	C676.175232,1043.593750 675.105164,1039.503540 675.100830,1035.412109 
	C675.007080,947.079956 674.723633,858.746033 675.191284,770.416260 
	C675.370850,736.499817 695.844604,711.752991 730.310547,705.205627 
	C732.891296,704.715393 735.629456,705.013000 738.294434,705.012817 
	C831.459961,705.005310 924.626770,705.269958 1017.790344,704.846375 
	C1046.156616,704.717407 1070.235229,726.511902 1074.947876,753.102966 
	C1075.495483,756.193848 1075.973511,759.350525 1075.975342,762.476929 
	C1076.028198,855.142517 1076.041016,947.808044 1075.999756,1040.473633 
	C1075.988403,1066.097412 1059.140869,1088.956177 1034.660400,1096.107422 
	C1028.691528,1097.850952 1022.271912,1098.825073 1016.057007,1098.836548 
	C924.225159,1099.006470 832.392639,1099.041504 740.560608,1098.907349 
	C707.946411,1098.859741 684.177490,1079.625366 676.838135,1048.097168 
M831.998108,1028.502197 
	C838.233765,1037.065674 845.461487,1044.289429 855.614502,1048.362549 
	C874.865723,1056.085693 899.115051,1051.349976 911.625916,1036.753662 
	C919.722473,1027.307373 927.504395,1017.590393 935.382874,1007.958313 
	C953.028870,986.384460 970.702393,964.832825 988.256897,943.184753 
	C1000.041443,928.651978 1004.324524,912.422363 997.887939,894.352539 
	C992.164734,878.285522 975.402832,863.721619 956.364685,864.942566 
	C950.444580,865.322205 944.479553,865.001587 938.284485,865.001587 
	C937.840820,859.930237 937.122009,855.501160 937.139771,851.075073 
	C937.170349,843.443726 937.940125,835.812561 937.893494,828.184387 
	C937.811157,814.721130 937.252808,801.261475 937.069580,787.797913 
	C936.854065,771.962769 925.154053,754.969604 909.658386,753.565491 
	C887.712708,751.577087 865.338806,750.917419 843.430176,752.864868 
	C821.176025,754.843079 811.379211,773.190063 811.109192,792.545288 
	C810.800110,814.700562 810.946289,836.864014 811.111633,859.022278 
	C811.140686,862.914429 810.126465,864.494751 806.083618,864.106201 
	C802.781921,863.788879 799.421326,863.936768 796.093811,864.062317 
	C783.158997,864.550232 771.477722,868.490723 762.546265,878.134460 
	C746.513916,895.445496 745.484863,921.854492 760.088318,940.454224 
	C770.330811,953.499512 781.054016,966.167114 791.547729,979.015503 
	C804.874634,995.332947 818.186401,1011.662659 831.998108,1028.502197 
z"/>
<path fill="#D7C0EA" opacity="1.000000" stroke="none" 
	d="
M1013.166626,678.362671 
	C1012.973877,678.151794 1013.457581,678.031250 1013.883545,678.043213 
	C1014.309509,678.055115 1014.670410,678.115601 1014.670410,678.115601 
	C1014.670410,678.115601 1014.853027,678.530884 1014.926880,678.744873 
	C1014.453613,678.830444 1013.906555,678.702026 1013.166626,678.362671 
z"/>
<path fill="#FEECB3" opacity="1.000000" stroke="none" 
	d="
M1014.692139,677.839478 
	C1014.670410,678.115601 1014.309509,678.055115 1014.130920,678.012878 
	C1014.020142,677.718933 1014.134521,677.490601 1014.433350,677.156738 
	C1014.618774,677.206421 1014.666260,677.384888 1014.692139,677.839478 
z"/>
<path fill="#FED257" opacity="1.000000" stroke="none" 
	d="
M218.002655,671.638550 
	C218.370087,667.334534 218.739563,663.465027 219.109039,659.595459 
	C219.765320,659.524536 220.421600,659.453613 221.077866,659.382751 
	C221.681320,663.488220 222.490021,667.581543 222.735764,671.708313 
	C222.793167,672.672180 220.940506,673.749695 219.966660,674.774963 
	C219.312683,673.874329 218.658707,672.973694 218.002655,671.638550 
z"/>
<path fill="#FED257" opacity="1.000000" stroke="none" 
	d="
M240.584625,891.012451 
	C241.007751,902.688293 241.037766,914.376648 241.030411,926.532471 
	C240.012909,926.372314 238.205780,925.780518 238.176773,925.111633 
	C237.749466,915.263123 237.432556,905.404175 237.445480,895.548218 
	C237.447464,894.039246 239.231613,892.532654 240.584625,891.012451 
z"/>
<path fill="#FD83AC" opacity="1.000000" stroke="none" 
	d="
M356.997803,349.128845 
	C358.215668,332.813324 369.742004,319.495972 388.253357,319.252289 
	C419.414124,318.842041 450.584717,319.047272 481.750275,319.189423 
	C494.476837,319.247467 505.414124,324.032837 510.916931,335.836212 
	C520.089600,355.511292 511.554749,379.624847 486.818481,380.688538 
	C452.882751,382.147888 418.835388,381.313446 384.840851,380.968719 
	C369.129852,380.809387 357.154022,366.728668 356.997803,349.128845 
z"/>
<path fill="#D6B8FC" opacity="1.000000" stroke="none" 
	d="
M587.551208,500.016907 
	C514.499146,500.026154 441.898743,499.999390 369.298462,500.091125 
	C363.594788,500.098328 359.085388,498.275848 356.379364,493.321625 
	C354.061829,489.078644 354.426361,484.594086 357.244995,480.564056 
	C360.157257,476.400299 364.291351,474.963623 369.332581,474.971924 
	C416.123047,475.048950 462.913727,475.013184 509.704346,475.012878 
	C535.014587,475.012726 560.324768,475.006805 585.635010,475.026978 
	C593.802673,475.033478 598.981812,479.414612 599.753601,486.870270 
	C600.366821,492.793060 595.123840,498.656189 587.551208,500.016907 
z"/>
<path fill="#D8BAFC" opacity="1.000000" stroke="none" 
	d="
M742.417114,365.830811 
	C740.114014,366.342560 738.174011,366.968658 736.233398,366.970459 
	C681.450195,367.021362 626.666870,367.015930 571.883606,366.998566 
	C565.496582,366.996552 560.635498,363.930542 558.833862,358.929321 
	C556.825562,353.354675 558.175659,348.163239 563.250549,344.373840 
	C565.100525,342.992493 567.765198,342.022003 570.060669,342.016998 
	C626.009216,341.895447 681.958130,341.915314 737.906982,341.958252 
	C743.538513,341.962555 748.000793,345.628540 749.522278,351.105316 
	C751.131226,356.896942 748.784546,361.960754 742.417114,365.830811 
z"/>
<path fill="#D8BAFC" opacity="1.000000" stroke="none" 
	d="
M567.000000,416.963867 
	C573.828796,416.965179 580.158081,416.917877 586.486267,416.980133 
	C594.152283,417.055542 599.937927,422.489532 599.932434,429.502502 
	C599.927429,435.908722 593.887939,441.636627 586.770264,441.984344 
	C586.604065,441.992462 586.437256,441.988159 586.270691,441.988190 
	C548.797546,441.989105 511.324341,442.013123 473.851227,441.968781 
	C467.340454,441.961090 461.285431,436.955322 460.190399,430.998352 
	C459.293945,426.121643 463.298187,419.634979 468.707581,417.757080 
	C470.681213,417.071930 472.937592,416.994843 475.065491,416.991730 
	C505.543610,416.947144 536.021851,416.962677 567.000000,416.963867 
z"/>
<path fill="#D8BAFC" opacity="1.000000" stroke="none" 
	d="
M393.999207,441.984192 
	C385.187866,441.984985 376.876129,442.020294 368.564850,441.977325 
	C360.544525,441.935883 354.849731,436.560699 354.995941,429.264832 
	C355.140961,422.028961 360.583649,416.989685 368.366058,416.976013 
	C381.996948,416.952026 395.627991,416.939117 409.258728,416.990540 
	C416.724976,417.018707 421.978119,422.151123 422.031982,429.300781 
	C422.083771,436.175690 416.605377,441.775909 409.459229,441.959015 
	C404.475555,442.086731 399.485992,441.984131 393.999207,441.984192 
z"/>
<path fill="#FED257" opacity="1.000000" stroke="none" 
	d="
M554.213745,680.673950 
	C570.141968,686.471497 580.890320,701.426147 581.056152,717.828918 
	C581.152161,727.326538 581.162292,736.826843 581.062073,746.324341 
	C580.825256,768.771790 563.409973,786.013794 540.867859,786.027832 
	C475.044342,786.068787 409.219299,785.800598 343.398132,786.194519 
	C324.275330,786.309021 306.808777,774.929749 301.280090,753.451416 
	C301.197479,753.130493 301.080872,752.800598 301.087494,752.477051 
	C301.376862,738.346436 300.695343,724.107117 302.245117,710.115112 
	C303.912506,695.061951 319.247986,681.220398 334.275024,679.091736 
	C338.536316,678.488098 342.874084,678.159302 347.177155,678.155823 
	C410.667694,678.104004 474.158447,678.070557 537.648560,678.238586 
	C543.049072,678.252869 548.445679,679.731506 554.213745,680.673950 
M544.416504,758.970459 
	C551.850098,756.156128 555.390381,750.883972 555.119385,742.834839 
	C554.884155,735.844116 555.070740,728.839172 555.075317,721.840515 
	C555.082642,710.545532 549.627991,704.992981 538.258301,704.989807 
	C473.103210,704.971436 407.948120,704.983643 342.793030,705.015930 
	C333.204620,705.020691 327.167480,710.976868 327.054443,720.519043 
	C326.967621,727.849670 327.309662,735.192444 327.015167,742.511841 
	C326.676086,750.937988 330.196594,756.535461 338.435364,760.281006 
	C339.708130,760.517822 340.980804,760.961182 342.253723,760.961853 
	C408.064087,760.997375 473.874481,761.005188 539.684814,760.931335 
	C541.110779,760.929749 542.535706,759.946350 544.416504,758.970459 
z"/>
<path fill="#CCA3FA" opacity="1.000000" stroke="none" 
	d="
M831.751465,1028.244629 
	C818.186401,1011.662659 804.874634,995.332947 791.547729,979.015503 
	C781.054016,966.167114 770.330811,953.499512 760.088318,940.454224 
	C745.484863,921.854492 746.513916,895.445496 762.546265,878.134460 
	C771.477722,868.490723 783.158997,864.550232 796.093811,864.062317 
	C799.421326,863.936768 802.781921,863.788879 806.083618,864.106201 
	C810.126465,864.494751 811.140686,862.914429 811.111633,859.022278 
	C810.946289,836.864014 810.800110,814.700562 811.109192,792.545288 
	C811.379211,773.190063 821.176025,754.843079 843.430176,752.864868 
	C865.338806,750.917419 887.712708,751.577087 909.658386,753.565491 
	C925.154053,754.969604 936.854065,771.962769 937.069580,787.797913 
	C937.252808,801.261475 937.811157,814.721130 937.893494,828.184387 
	C937.940125,835.812561 937.170349,843.443726 937.139771,851.075073 
	C937.122009,855.501160 937.840820,859.930237 938.284485,865.001587 
	C944.479553,865.001587 950.444580,865.322205 956.364685,864.942566 
	C975.402832,863.721619 992.164734,878.285522 997.887939,894.352539 
	C1004.324524,912.422363 1000.041443,928.651978 988.256897,943.184753 
	C970.702393,964.832825 953.028870,986.384460 935.382874,1007.958313 
	C927.504395,1017.590393 919.722473,1027.307373 911.625916,1036.753662 
	C899.115051,1051.349976 874.865723,1056.085693 855.614502,1048.362549 
	C845.461487,1044.289429 838.233765,1037.065674 831.751465,1028.244629 
M911.971375,874.209839 
	C911.660706,871.247192 911.089172,868.285278 911.080505,865.321716 
	C911.007874,840.492310 911.054688,815.662720 911.028564,790.833130 
	C911.020630,783.327026 906.774353,778.968811 899.344666,778.942139 
	C882.680725,778.882202 866.016235,778.873779 849.352356,778.935791 
	C842.240662,778.962280 838.032410,783.348022 837.975830,790.596680 
	C837.921204,797.595215 838.015625,804.595337 837.926636,811.593201 
	C837.672668,831.559937 837.489807,851.528870 837.020691,871.490967 
	C836.722961,884.157593 824.483765,890.760864 816.036499,890.961853 
	C809.541138,891.116394 803.028564,890.776184 796.544739,891.091370 
	C793.297363,891.249146 789.856201,891.842712 786.918213,893.163452 
	C775.210571,898.426270 772.711182,913.664368 781.699341,925.035034 
	C789.322693,934.679077 797.258728,944.075745 805.042236,953.593445 
	C821.973694,974.297058 839.368652,994.645630 855.635437,1015.859192 
	C864.611816,1027.565430 884.667908,1028.370361 894.280640,1016.242859 
	C908.725586,998.019104 923.626526,980.156555 938.342957,962.148132 
	C948.750366,949.412476 959.356201,936.833191 969.513062,923.901123 
	C974.690002,917.309631 975.960815,909.433960 972.211243,901.804199 
	C968.548340,894.350891 961.955017,890.804016 953.468994,890.974060 
	C947.139160,891.100952 940.804260,891.043213 934.472473,890.978027 
	C923.774109,890.868042 915.834961,885.163147 911.971375,874.209839 
z"/>
<path fill="#FEFEFD" opacity="1.000000" stroke="none" 
	d="
M338.039978,759.487549 
	C330.196594,756.535461 326.676086,750.937988 327.015167,742.511841 
	C327.309662,735.192444 326.967621,727.849670 327.054443,720.519043 
	C327.167480,710.976868 333.204620,705.020691 342.793030,705.015930 
	C407.948120,704.983643 473.103210,704.971436 538.258301,704.989807 
	C549.627991,704.992981 555.082642,710.545532 555.075317,721.840515 
	C555.070740,728.839172 554.884155,735.844116 555.119385,742.834839 
	C555.390381,750.883972 551.850098,756.156128 543.722351,759.254883 
	C541.035278,759.594299 539.042358,759.696716 537.049438,759.697388 
	C474.532623,759.718994 412.015778,759.735168 349.498962,759.732727 
	C345.679291,759.732544 341.859650,759.572998 338.039978,759.487549 
z"/>
<path fill="#FECF41" opacity="1.000000" stroke="none" 
	d="
M338.237671,759.884277 
	C341.859650,759.572998 345.679291,759.732544 349.498962,759.732727 
	C412.015778,759.735168 474.532623,759.718994 537.049438,759.697388 
	C539.042358,759.696716 541.035278,759.594299 543.494629,759.480164 
	C542.535706,759.946350 541.110779,760.929749 539.684814,760.931335 
	C473.874481,761.005188 408.064087,760.997375 342.253723,760.961853 
	C340.980804,760.961182 339.708130,760.517822 338.237671,759.884277 
z"/>
<path fill="#F7EFFD" opacity="1.000000" stroke="none" 
	d="
M912.046875,874.611816 
	C915.834961,885.163147 923.774109,890.868042 934.472473,890.978027 
	C940.804260,891.043213 947.139160,891.100952 953.468994,890.974060 
	C961.955017,890.804016 968.548340,894.350891 972.211243,901.804199 
	C975.960815,909.433960 974.690002,917.309631 969.513062,923.901123 
	C959.356201,936.833191 948.750366,949.412476 938.342957,962.148132 
	C923.626526,980.156555 908.725586,998.019104 894.280640,1016.242859 
	C884.667908,1028.370361 864.611816,1027.565430 855.635437,1015.859192 
	C839.368652,994.645630 821.973694,974.297058 805.042236,953.593445 
	C797.258728,944.075745 789.322693,934.679077 781.699341,925.035034 
	C772.711182,913.664368 775.210571,898.426270 786.918213,893.163452 
	C789.856201,891.842712 793.297363,891.249146 796.544739,891.091370 
	C803.028564,890.776184 809.541138,891.116394 816.036499,890.961853 
	C824.483765,890.760864 836.722961,884.157593 837.020691,871.490967 
	C837.489807,851.528870 837.672668,831.559937 837.926636,811.593201 
	C838.015625,804.595337 837.921204,797.595215 837.975830,790.596680 
	C838.032410,783.348022 842.240662,778.962280 849.352356,778.935791 
	C866.016235,778.873779 882.680725,778.882202 899.344666,778.942139 
	C906.774353,778.968811 911.020630,783.327026 911.028564,790.833130 
	C911.054688,815.662720 911.007874,840.492310 911.080505,865.321716 
	C911.089172,868.285278 911.660706,871.247192 912.046875,874.611816 
z"/>
</svg>