<svg version="1.1" id="Layer_1" xmlns="http://www.w3.org/2000/svg" xmlns:xlink="http://www.w3.org/1999/xlink" x="0px" y="0px"
	 width="100%" viewBox="0 0 1254 1254" enable-background="new 0 0 1254 1254" xml:space="preserve">
M729.000000,1255.000000 
	C486.000000,1255.000000 243.500000,1255.000000 1.000000,1255.000000 
	C1.000000,837.000000 1.000000,419.000000 1.000000,1.000000 
	C419.000000,1.000000 837.000000,1.000000 1255.000000,1.000000 
	C1255.000000,419.000000 1255.000000,837.000000 1255.000000,1255.000000 
	C1079.833374,1255.000000 904.666687,1255.000000 729.000000,1255.000000 
M400.530243,1200.951050 
	C453.647308,1222.348999 508.775665,1235.731567 565.655640,1241.811279 
	C596.487793,1245.106812 627.420105,1245.808594 658.432922,1244.275757 
	C690.428589,1242.694458 722.023071,1238.368774 753.350769,1231.910645 
	C816.324524,1218.928711 875.658691,1196.177124 931.551331,1164.540771 
	C992.577515,1129.998779 1045.994019,1085.996826 1092.183472,1033.277832 
	C1127.935059,992.472046 1157.859741,947.716125 1182.214966,899.214233 
	C1222.699951,818.591003 1243.383789,733.055298 1245.683960,643.024414 
	C1246.625488,606.172302 1243.833008,569.530579 1238.161377,533.069702 
	C1227.995361,467.715729 1208.191895,405.435211 1178.537231,346.396606 
	C1141.400391,272.461823 1092.130249,207.721802 1029.630249,153.283386 
	C974.584473,105.337837 913.324280,67.665009 844.896790,41.884201 
	C800.326233,25.091766 754.339783,14.064919 707.158325,7.840895 
	C673.762695,3.435455 640.297180,1.309199 606.563232,2.674618 
	C572.377136,4.058337 538.626526,8.387046 505.132904,15.096370 
	C457.088135,24.720530 410.789673,39.712341 366.536896,60.786430 
	C294.044373,95.308861 230.867508,142.479843 176.599258,201.593048 
	C117.662483,265.791595 73.948997,339.179321 45.139759,421.362640 
	C25.031385,478.725220 13.443260,537.801086 10.676512,598.616211 
	C8.831684,639.166870 10.274127,679.536377 16.285976,719.657776 
	C23.891474,770.414734 37.560688,819.518616 58.019901,866.664124 
	C94.928085,951.713928 147.786011,1025.279419 216.903580,1087.092407 
	C271.208740,1135.658569 332.267059,1173.410156 400.530243,1200.951050 
z"/>

M400.161072,1200.839111 
	C332.267059,1173.410156 271.208740,1135.658569 216.903580,1087.092407 
	C147.786011,1025.279419 94.928085,951.713928 58.019901,866.664124 
	C37.560688,819.518616 23.891474,770.414734 16.285976,719.657776 
	C10.274127,679.536377 8.831684,639.166870 10.676512,598.616211 
	C13.443260,537.801086 25.031385,478.725220 45.139759,421.362640 
	C73.948997,339.179321 117.662483,265.791595 176.599258,201.593048 
	C230.867508,142.479843 294.044373,95.308861 366.536896,60.786430 
	C410.789673,39.712341 457.088135,24.720530 505.132904,15.096370 
	C538.626526,8.387046 572.377136,4.058337 606.563232,2.674618 
	C640.297180,1.309199 673.762695,3.435455 707.158325,7.840895 
	C754.339783,14.064919 800.326233,25.091766 844.896790,41.884201 
	C913.324280,67.665009 974.584473,105.337837 1029.630249,153.283386 
	C1092.130249,207.721802 1141.400391,272.461823 1178.537231,346.396606 
	C1208.191895,405.435211 1227.995361,467.715729 1238.161377,533.069702 
	C1243.833008,569.530579 1246.625488,606.172302 1245.683960,643.024414 
	C1243.383789,733.055298 1222.699951,818.591003 1182.214966,899.214233 
	C1157.859741,947.716125 1127.935059,992.472046 1092.183472,1033.277832 
	C1045.994019,1085.996826 992.577515,1129.998779 931.551331,1164.540771 
	C875.658691,1196.177124 816.324524,1218.928711 753.350769,1231.910645 
	C722.023071,1238.368774 690.428589,1242.694458 658.432922,1244.275757 
	C627.420105,1245.808594 596.487793,1245.106812 565.655640,1241.811279 
	C508.775665,1235.731567 453.647308,1222.348999 400.161072,1200.839111 
M338.953400,321.455322 
	C271.393036,366.054047 237.322159,429.540405 233.299408,509.708099 
	C232.099991,533.610962 235.291183,557.216309 240.697128,580.514038 
	C250.872025,624.364319 269.936005,664.354919 293.888580,702.148438 
	C327.854706,755.741638 369.019562,803.557373 412.963501,849.067749 
	C449.914581,887.336304 488.810425,923.587585 529.660217,957.632751 
	C557.801025,981.085815 586.917480,1003.374756 615.769775,1025.964355 
	C625.772766,1033.796143 636.212036,1033.846436 645.181885,1027.115967 
	C715.407349,974.423218 781.557251,917.075378 842.654419,853.980042 
	C881.660583,813.698303 918.051270,771.228210 949.595459,724.764771 
	C976.864136,684.598938 999.999084,642.394043 1013.267883,595.330444 
	C1024.297119,556.210144 1028.300293,516.492615 1021.544922,476.268341 
	C1012.634399,423.210541 988.726562,377.895294 947.855408,342.499725 
	C899.878601,300.950562 844.149353,282.553741 780.850037,291.446960 
	C723.894775,299.448883 678.032837,327.314026 643.046997,372.973755 
	C638.535339,378.861877 634.325989,384.981659 629.661499,391.429749 
	C597.846252,342.772491 555.367432,309.062195 498.855957,295.302521 
	C442.365356,281.547913 389.170380,290.882538 338.953400,321.455322 
z"/>
<path fill="#FEFCFC" opacity="1.000000" stroke="none" 
	d="
M339.260254,321.262390 
	C389.170380,290.882538 442.365356,281.547913 498.855957,295.302521 
	C555.367432,309.062195 597.846252,342.772491 629.661499,391.429749 
	C634.325989,384.981659 638.535339,378.861877 643.046997,372.973755 
	C678.032837,327.314026 723.894775,299.448883 780.850037,291.446960 
	C844.149353,282.553741 899.878601,300.950562 947.855408,342.499725 
	C988.726562,377.895294 1012.634399,423.210541 1021.544922,476.268341 
	C1028.300293,516.492615 1024.297119,556.210144 1013.267883,595.330444 
	C999.999084,642.394043 976.864136,684.598938 949.595459,724.764771 
	C918.051270,771.228210 881.660583,813.698303 842.654419,853.980042 
	C781.557251,917.075378 715.407349,974.423218 645.181885,1027.115967 
	C636.212036,1033.846436 625.772766,1033.796143 615.769775,1025.964355 
	C586.917480,1003.374756 557.801025,981.085815 529.660217,957.632751 
	C488.810425,923.587585 449.914581,887.336304 412.963501,849.067749 
	C369.019562,803.557373 327.854706,755.741638 293.888580,702.148438 
	C269.936005,664.354919 250.872025,624.364319 240.697128,580.514038 
	C235.291183,557.216309 232.099991,533.610962 233.299408,509.708099 
	C237.322159,429.540405 271.393036,366.054047 339.260254,321.262390 
M696.915222,930.442261 
	C718.208252,911.516724 739.852112,892.968689 760.714905,873.580261 
	C794.787415,841.915588 827.199341,808.598572 857.433228,773.204407 
	C890.625305,734.347351 921.363037,693.757263 945.164001,648.325745 
	C963.637024,613.064087 976.860718,576.152893 980.281677,536.102966 
	C983.627197,496.935852 978.085571,459.375488 958.471252,425.054993 
	C922.592285,362.275208 868.728149,330.528442 795.628662,334.944183 
	C755.222900,337.384979 720.930298,354.403320 692.113586,382.548828 
	C673.201965,401.019989 659.838501,423.125519 650.519592,447.761017 
	C647.129456,456.723267 639.286560,462.175201 629.769287,462.140472 
	C620.350891,462.106110 612.739929,456.349121 609.075562,447.582245 
	C605.358887,438.690155 601.395935,429.833618 596.709473,421.424866 
	C559.162842,354.056885 483.266022,320.220886 409.646515,339.171295 
	C347.970215,355.047424 307.993500,395.258667 287.020172,454.644897 
	C272.751678,495.046265 273.884979,536.075256 284.528595,577.156128 
	C293.905670,613.348816 310.252808,646.382080 330.089417,677.826111 
	C361.623444,727.812317 399.452606,772.805176 440.715973,814.869690 
	C466.489624,841.143799 493.160828,866.585449 520.247986,891.510986 
	C554.464844,922.997192 590.537659,952.335876 627.622437,980.412476 
	C630.557739,982.634705 632.512329,982.549744 635.356628,980.226379 
	C655.610718,963.681641 676.003723,947.307007 696.915222,930.442261 
z"/>
<path fill="#F8528F" opacity="1.000000" stroke="none" 
	d="
M696.633911,930.660278 
	C676.003723,947.307007 655.610718,963.681641 635.356628,980.226379 
	C632.512329,982.549744 630.557739,982.634705 627.622437,980.412476 
	C590.537659,952.335876 554.464844,922.997192 520.247986,891.510986 
	C493.160828,866.585449 466.489624,841.143799 440.715973,814.869690 
	C399.452606,772.805176 361.623444,727.812317 330.089417,677.826111 
	C310.252808,646.382080 293.905670,613.348816 284.528595,577.156128 
	C273.884979,536.075256 272.751678,495.046265 287.020172,454.644897 
	C307.993500,395.258667 347.970215,355.047424 409.646515,339.171295 
	C483.266022,320.220886 559.162842,354.056885 596.709473,421.424866 
	C601.395935,429.833618 605.358887,438.690155 609.075562,447.582245 
	C612.739929,456.349121 620.350891,462.106110 629.769287,462.140472 
	C639.286560,462.175201 647.129456,456.723267 650.519592,447.761017 
	C659.838501,423.125519 673.201965,401.019989 692.113586,382.548828 
	C720.930298,354.403320 755.222900,337.384979 795.628662,334.944183 
	C868.728149,330.528442 922.592285,362.275208 958.471252,425.054993 
	C978.085571,459.375488 983.627197,496.935852 980.281677,536.102966 
	C976.860718,576.152893 963.637024,613.064087 945.164001,648.325745 
	C921.363037,693.757263 890.625305,734.347351 857.433228,773.204407 
	C827.199341,808.598572 794.787415,841.915588 760.714905,873.580261 
	C739.852112,892.968689 718.208252,911.516724 696.633911,930.660278 
z"/>
</svg>
