<svg version="1.1" id="Layer_1" xmlns="http://www.w3.org/2000/svg" xmlns:xlink="http://www.w3.org/1999/xlink" x="0px" y="0px"
	 width="100%" viewBox="0 0 1254 1254" enable-background="new 0 0 1254 1254" xml:space="preserve">
M742.000000,1255.000000 
	C494.666656,1255.000000 247.833328,1255.000000 1.000000,1255.000000 
	C1.000000,837.000000 1.000000,419.000000 1.000000,1.000000 
	C419.000000,1.000000 837.000000,1.000000 1255.000000,1.000000 
	C1255.000000,419.000000 1255.000000,837.000000 1255.000000,1255.000000 
	C1084.166626,1255.000000 913.333313,1255.000000 742.000000,1255.000000 
M24.005175,773.680969 
	C24.678368,779.443420 25.326357,785.208923 26.028809,790.967834 
	C30.824774,830.286011 40.699081,868.322144 54.876453,905.275208 
	C83.596191,980.132568 127.435211,1044.836548 186.127243,1099.345581 
	C225.852020,1136.239014 270.461975,1166.029297 319.889191,1188.479248 
	C383.106750,1217.192749 449.276184,1232.878784 518.847717,1233.234375 
	C560.175110,1233.445557 601.505127,1233.452759 642.832642,1233.264771 
	C683.631409,1233.079224 724.454590,1233.268066 765.215271,1231.828247 
	C785.024170,1231.128540 804.897705,1228.056641 824.426758,1224.383179 
	C898.103638,1210.524170 965.047852,1180.707153 1025.286377,1136.278320 
	C1099.141846,1081.806396 1154.426636,1012.149719 1191.623291,928.314514 
	C1220.683228,862.818298 1234.499023,793.958313 1234.748535,722.395081 
	C1234.973267,657.903503 1235.000732,593.409607 1234.688477,528.918762 
	C1234.601685,510.995667 1233.519531,493.034790 1231.976074,475.170532 
	C1229.150146,442.459534 1222.547729,410.429382 1212.999268,379.000519 
	C1192.850220,312.679626 1161.248413,252.456024 1116.854614,199.146942 
	C1060.626709,131.627258 991.766785,81.341789 909.962219,49.075874 
	C853.912354,26.968319 795.849609,14.352273 735.433105,14.042796 
	C682.107483,13.769642 628.778259,13.795819 575.452698,14.073863 
	C546.495422,14.224849 517.509827,14.516631 488.595886,15.940524 
	C455.301910,17.580118 422.813477,24.437523 390.811920,33.766827 
	C327.377228,52.259735 269.657166,81.811699 217.741714,122.653931 
	C138.936356,184.650589 83.101830,263.097137 49.914825,357.674622 
	C32.046074,408.597595 22.084038,461.133453 21.518436,515.020752 
	C20.743734,588.829834 21.412722,662.655579 21.710855,736.473206 
	C21.759762,748.582275 23.081301,760.686279 24.005175,773.680969 
z"/>
M23.909920,773.236816 
	C23.081301,760.686279 21.759762,748.582275 21.710855,736.473206 
	C21.412722,662.655579 20.743734,588.829834 21.518436,515.020752 
	C22.084038,461.133453 32.046074,408.597595 49.914825,357.674622 
	C83.101830,263.097137 138.936356,184.650589 217.741714,122.653931 
	C269.657166,81.811699 327.377228,52.259735 390.811920,33.766827 
	C422.813477,24.437523 455.301910,17.580118 488.595886,15.940524 
	C517.509827,14.516631 546.495422,14.224849 575.452698,14.073863 
	C628.778259,13.795819 682.107483,13.769642 735.433105,14.042796 
	C795.849609,14.352273 853.912354,26.968319 909.962219,49.075874 
	C991.766785,81.341789 1060.626709,131.627258 1116.854614,199.146942 
	C1161.248413,252.456024 1192.850220,312.679626 1212.999268,379.000519 
	C1222.547729,410.429382 1229.150146,442.459534 1231.976074,475.170532 
	C1233.519531,493.034790 1234.601685,510.995667 1234.688477,528.918762 
	C1235.000732,593.409607 1234.973267,657.903503 1234.748535,722.395081 
	C1234.499023,793.958313 1220.683228,862.818298 1191.623291,928.314514 
	C1154.426636,1012.149719 1099.141846,1081.806396 1025.286377,1136.278320 
	C965.047852,1180.707153 898.103638,1210.524170 824.426758,1224.383179 
	C804.897705,1228.056641 785.024170,1231.128540 765.215271,1231.828247 
	C724.454590,1233.268066 683.631409,1233.079224 642.832642,1233.264771 
	C601.505127,1233.452759 560.175110,1233.445557 518.847717,1233.234375 
	C449.276184,1232.878784 383.106750,1217.192749 319.889191,1188.479248 
	C270.461975,1166.029297 225.852020,1136.239014 186.127243,1099.345581 
	C127.435211,1044.836548 83.596191,980.132568 54.876453,905.275208 
	C40.699081,868.322144 30.824774,830.286011 26.028809,790.967834 
	C25.326357,785.208923 24.678368,779.443420 23.909920,773.236816 
M806.500000,973.719543 
	C820.978882,973.503784 835.542114,974.202087 849.918518,972.875854 
	C877.123474,970.366150 898.098633,956.541992 913.428955,934.205566 
	C924.211426,918.495483 928.802368,900.900757 928.788757,881.837524 
	C928.688599,741.673828 928.746826,601.509888 928.653137,461.346130 
	C928.650024,456.736389 927.929504,452.041809 926.899109,447.534058 
	C923.795349,433.955688 916.100281,423.282288 906.382629,413.376678 
	C855.036011,361.036652 804.025208,308.367157 752.918457,255.791931 
	C744.843567,247.484985 735.532532,241.112900 724.099976,238.781006 
	C717.669312,237.469345 710.976807,236.928375 704.401001,236.919205 
	C618.902832,236.799973 533.404419,236.820251 447.906128,236.879883 
	C442.434204,236.883698 436.889923,237.044128 431.502594,237.903976 
	C389.957428,244.534622 358.367035,279.560211 358.232452,321.748077 
	C357.635468,508.909210 357.896362,696.073425 358.184937,883.236023 
	C358.200562,893.363281 360.097626,903.858337 363.146515,913.543945 
	C374.335510,949.088379 408.841339,973.732849 446.006561,973.732300 
	C565.837708,973.730530 685.668823,973.723938 806.500000,973.719543 
z"/>
<path fill="#FCFBF9" opacity="1.000000" stroke="none" 
	d="
M806.000000,973.719360 
	C685.668823,973.723938 565.837708,973.730530 446.006561,973.732300 
	C408.841339,973.732849 374.335510,949.088379 363.146515,913.543945 
	C360.097626,903.858337 358.200562,893.363281 358.184937,883.236023 
	C357.896362,696.073425 357.635468,508.909210 358.232452,321.748077 
	C358.367035,279.560211 389.957428,244.534622 431.502594,237.903976 
	C436.889923,237.044128 442.434204,236.883698 447.906128,236.879883 
	C533.404419,236.820251 618.902832,236.799973 704.401001,236.919205 
	C710.976807,236.928375 717.669312,237.469345 724.099976,238.781006 
	C735.532532,241.112900 744.843567,247.484985 752.918457,255.791931 
	C804.025208,308.367157 855.036011,361.036652 906.382629,413.376678 
	C916.100281,423.282288 923.795349,433.955688 926.899109,447.534058 
	C927.929504,452.041809 928.650024,456.736389 928.653137,461.346130 
	C928.746826,601.509888 928.688599,741.673828 928.788757,881.837524 
	C928.802368,900.900757 924.211426,918.495483 913.428955,934.205566 
	C898.098633,956.541992 877.123474,970.366150 849.918518,972.875854 
	C835.542114,974.202087 820.978882,973.503784 806.000000,973.719360 
M542.884277,933.241516 
	C547.605896,933.190857 552.327576,933.140137 557.963806,933.284973 
	C565.960388,933.220093 573.957031,933.155212 582.888367,933.245483 
	C593.612366,933.199829 604.336365,933.154175 615.681396,933.298279 
	C616.104858,933.234619 616.528320,933.171021 617.719238,933.256897 
	C618.495850,933.205139 619.272522,933.153442 620.963928,933.296875 
	C628.960449,933.228333 636.956970,933.159790 645.868225,933.246765 
	C649.263123,933.196533 652.657959,933.146240 656.967102,933.291382 
	C675.960632,933.228943 694.954102,933.166504 714.881836,933.255188 
	C720.271790,933.201660 725.661804,933.148132 731.960571,933.289917 
	C736.624512,933.225769 741.288513,933.161621 746.793701,933.249756 
	C748.213440,933.199585 749.633240,933.149475 751.763977,933.296021 
	C752.492310,933.230408 753.220703,933.164795 754.869690,933.251404 
	C758.596069,933.197083 762.322449,933.142761 766.895325,933.284546 
	C768.914001,933.221069 770.932739,933.157532 773.871216,933.250000 
	C777.598083,933.197937 781.324890,933.145874 785.854431,933.289246 
	C787.222595,933.223206 788.590820,933.157104 790.723145,933.241699 
	C791.496948,933.191772 792.270691,933.141846 793.955688,933.288391 
	C798.955139,933.222717 803.954651,933.157043 809.831604,933.242920 
	C811.903320,933.190552 813.975037,933.138184 816.849365,933.282776 
	C818.218018,933.218140 819.586731,933.153503 821.832520,933.241882 
	C823.903870,933.190063 825.975159,933.138245 828.953186,933.280945 
	C833.293335,933.208374 837.633484,933.135803 842.648438,933.208618 
	C843.098450,933.136963 843.548462,933.065247 844.848145,933.104553 
	C866.049622,932.088867 888.764221,912.630310 888.835876,885.555176 
	C889.191162,751.224243 889.007080,616.891968 889.013123,482.560120 
	C889.013184,480.795441 889.013184,479.030792 889.013184,476.837036 
	C885.994812,476.837036 883.687317,476.837280 881.379822,476.836975 
	C841.380371,476.831665 801.379883,476.994873 761.381714,476.766998 
	C730.018921,476.588318 706.029846,452.360229 705.966064,421.124725 
	C705.871826,374.958801 705.918884,328.792603 705.905823,282.626526 
	C705.905334,280.838776 705.905823,279.051025 705.905823,276.954163 
	C703.932495,276.853302 702.479858,276.714172 701.027283,276.714111 
	C616.028320,276.709534 531.029297,276.703186 446.030334,276.730164 
	C419.376648,276.738617 397.977173,297.989105 397.972168,324.626556 
	C397.936951,511.457947 397.948120,698.289368 397.994629,885.120728 
	C397.995422,888.249207 398.313660,891.448425 399.009613,894.494568 
	C403.976044,916.231750 421.665680,932.285034 442.480652,933.113098 
	C456.947662,933.688721 471.459106,933.146484 486.763000,933.255798 
	C487.859772,933.205139 488.956573,933.154541 490.765381,933.298462 
	C491.494293,933.232422 492.223206,933.166321 493.763397,933.249695 
	C494.858093,933.197388 495.952759,933.145081 497.962067,933.289917 
	C508.961060,933.223694 519.960083,933.157471 531.723328,933.241516 
	C532.497192,933.191772 533.271057,933.142029 534.906677,933.288330 
	C537.255859,933.221985 539.605042,933.155640 542.884277,933.241516 
M749.066162,310.192963 
	C748.115234,309.474304 747.164307,308.755646 745.620239,307.588684 
	C745.620239,346.263916 745.500610,384.058929 745.708313,421.852142 
	C745.757324,430.770538 752.874756,436.858948 762.343567,436.864532 
	C797.149536,436.885040 831.955566,436.803131 866.761536,436.740173 
	C868.134338,436.737671 869.506836,436.535156 871.902527,436.344360 
	C830.630676,393.951630 790.114441,352.335022 749.066162,310.192963 
z"/>
<path fill="#FCC319" opacity="1.000000" stroke="none" 
	d="
M644.953491,933.091309 
	C636.956970,933.159790 628.960449,933.228333 620.321045,932.930664 
	C618.769409,932.745422 617.860596,932.926392 616.951782,933.107361 
	C616.528320,933.171021 616.104858,933.234619 615.083679,932.887573 
	C604.190430,932.344299 593.894958,932.195923 583.599060,932.123047 
	C583.052856,932.119202 582.502197,932.753235 581.953613,933.090332 
	C573.957031,933.155212 565.960388,933.220093 557.220032,932.875854 
	C551.635559,932.674255 546.794922,932.881775 541.954224,933.089294 
	C539.605042,933.155640 537.255859,933.221985 534.290771,932.923706 
	C532.769653,932.736511 531.864319,932.913879 530.959045,933.091187 
	C519.960083,933.157471 508.961060,933.223694 497.294434,932.912598 
	C495.401886,932.723633 494.177002,932.911926 492.952118,933.100220 
	C492.223206,933.166321 491.494293,933.232422 490.199249,932.920776 
	C488.405640,932.729919 487.178192,932.916809 485.950714,933.103638 
	C471.459106,933.146484 456.947662,933.688721 442.480652,933.113098 
	C421.665680,932.285034 403.976044,916.231750 399.009613,894.494568 
	C398.313660,891.448425 397.995422,888.249207 397.994629,885.120728 
	C397.948120,698.289368 397.936951,511.457947 397.972168,324.626556 
	C397.977173,297.989105 419.376648,276.738617 446.030334,276.730164 
	C531.029297,276.703186 616.028320,276.709534 701.027283,276.714111 
	C702.479858,276.714172 703.932495,276.853302 705.905823,276.954163 
	C705.905823,279.051025 705.905334,280.838776 705.905823,282.626526 
	C705.918884,328.792603 705.871826,374.958801 705.966064,421.124725 
	C706.029846,452.360229 730.018921,476.588318 761.381714,476.766998 
	C801.379883,476.994873 841.380371,476.831665 881.379822,476.836975 
	C883.687317,476.837280 885.994812,476.837036 889.013184,476.837036 
	C889.013184,479.030792 889.013184,480.795441 889.013123,482.560120 
	C889.007080,616.891968 889.191162,751.224243 888.835876,885.555176 
	C888.764221,912.630310 866.049622,932.088867 844.270569,932.824158 
	C843.119873,932.716919 842.546753,932.890137 841.973633,933.063232 
	C837.633484,933.135803 833.293335,933.208374 828.245789,932.888550 
	C825.344055,932.693787 823.149719,932.891296 820.955383,933.088867 
	C819.586731,933.153503 818.218018,933.218140 816.193604,932.889465 
	C813.343262,932.694580 811.148682,932.893005 808.954102,933.091431 
	C803.954651,933.157043 798.955139,933.222717 793.315186,932.923645 
	C791.769409,932.736267 790.864197,932.913635 789.958984,933.091003 
	C788.590820,933.157104 787.222595,933.223206 785.171448,932.881958 
	C780.642761,932.681091 776.797119,932.887573 772.951416,933.094055 
	C770.932739,933.157532 768.914001,933.221069 766.189758,932.878174 
	C761.639160,932.680908 757.794067,932.890076 753.949036,933.099243 
	C753.220703,933.164795 752.492310,933.230408 751.179932,932.910828 
	C749.048096,932.716248 747.500244,932.906921 745.952454,933.097534 
	C741.288513,933.161621 736.624512,933.225769 731.218872,932.879395 
	C724.967346,932.680542 719.457520,932.892334 713.947632,933.104065 
	C694.954102,933.166504 675.960632,933.228943 656.231689,932.885254 
	C651.982056,932.683167 648.467773,932.887207 644.953491,933.091309 
M523.472778,659.467285 
	C518.423340,659.312927 513.373047,659.043152 508.324890,659.077881 
	C506.898865,659.087708 505.479004,659.988525 503.476929,660.852783 
	C500.431488,662.458862 496.881500,663.520325 494.441956,665.780334 
	C488.740143,671.062500 487.707092,677.852600 490.343872,685.051880 
	C492.912140,692.064209 499.374847,696.117615 507.701447,696.120972 
	C587.518311,696.153259 667.335205,696.161377 747.152100,696.171448 
	C758.316406,696.172852 769.483521,696.298523 780.644104,696.088013 
	C790.675720,695.898865 798.126770,687.946960 798.038452,677.973145 
	C797.958435,668.938538 792.234680,662.906494 780.522705,659.473267 
	C778.672058,659.669434 776.821472,659.865601 774.054626,660.262085 
	C760.717773,660.206360 747.380859,660.150635 733.626587,659.536987 
	C732.403320,659.722778 731.180115,659.908569 729.041016,660.287292 
	C676.188965,660.302185 623.336914,660.323303 570.484863,660.321350 
	C565.672180,660.321167 560.859497,660.173340 555.510315,659.487305 
	C552.657654,659.690247 549.804932,659.893250 546.105713,660.292358 
	C544.087158,660.229187 542.068542,660.166016 539.595154,659.528015 
	C538.047058,659.719299 536.498901,659.910522 534.059509,660.298401 
	C530.721863,660.230103 527.384216,660.161804 523.472778,659.467285 
M569.500000,802.982300 
	C604.499756,802.979614 639.499451,802.999207 674.499207,802.961304 
	C685.766541,802.949097 693.856506,795.454590 693.918396,785.150879 
	C693.979553,774.972412 685.695068,767.224304 674.573242,767.224426 
	C619.240662,767.224976 563.908081,767.243469 508.575562,767.304260 
	C496.675201,767.317322 489.120544,774.414734 489.119080,785.328369 
	C489.117676,795.736450 497.003998,802.947083 508.500580,802.963867 
	C528.500366,802.993042 548.500183,802.978577 569.500000,802.982300 
M656.097107,557.242493 
	C652.670715,556.145691 649.248352,554.108765 645.817322,554.094055 
	C599.669128,553.896545 553.519104,553.876099 507.371887,554.179688 
	C503.366272,554.206055 498.861115,556.083557 495.494080,558.411621 
	C489.411011,562.617554 487.559784,570.713745 489.973450,577.688171 
	C492.534821,585.089417 499.347687,589.858704 507.668152,589.863159 
	C553.150818,589.887451 598.633545,589.871277 644.116211,589.868347 
	C652.991882,589.867737 659.491516,585.885986 662.452148,578.639343 
	C665.579163,570.985413 663.724426,564.241699 656.097107,557.242493 
z"/>
<path fill="#FCC21A" opacity="1.000000" stroke="none" 
	d="
M749.332153,310.455688 
	C790.114441,352.335022 830.630676,393.951630 871.902527,436.344360 
	C869.506836,436.535156 868.134338,436.737671 866.761536,436.740173 
	C831.955566,436.803131 797.149536,436.885040 762.343567,436.864532 
	C752.874756,436.858948 745.757324,430.770538 745.708313,421.852142 
	C745.500610,384.058929 745.620239,346.263916 745.620239,307.588684 
	C747.164307,308.755646 748.115234,309.474304 749.332153,310.455688 
z"/>
<path fill="#FDC101" opacity="1.000000" stroke="none" 
	d="
M582.421021,933.167908 
	C582.502197,932.753235 583.052856,932.119202 583.599060,932.123047 
	C593.894958,932.195923 604.190430,932.344299 614.773193,932.792725 
	C604.336365,933.154175 593.612366,933.199829 582.421021,933.167908 
z"/>
<path fill="#FDC101" opacity="1.000000" stroke="none" 
	d="
M714.414734,933.179626 
	C719.457520,932.892334 724.967346,932.680542 730.764526,932.781738 
	C725.661804,933.148132 720.271790,933.201660 714.414734,933.179626 
z"/>
<path fill="#FDC101" opacity="1.000000" stroke="none" 
	d="
M542.419250,933.165405 
	C546.794922,932.881775 551.635559,932.674255 556.762695,932.778076 
	C552.327576,933.140137 547.605896,933.190857 542.419250,933.165405 
z"/>
<path fill="#FDC101" opacity="1.000000" stroke="none" 
	d="
M754.409363,933.175293 
	C757.794067,932.890076 761.639160,932.680908 765.766479,932.780029 
	C762.322449,933.142761 758.596069,933.197083 754.409363,933.175293 
z"/>
<path fill="#FDC101" opacity="1.000000" stroke="none" 
	d="
M773.411316,933.171997 
	C776.797119,932.887573 780.642761,932.681091 784.770142,932.784180 
	C781.324890,933.145874 777.598083,933.197937 773.411316,933.171997 
z"/>
<path fill="#FDC101" opacity="1.000000" stroke="none" 
	d="
M645.410889,933.169006 
	C648.467773,932.887207 651.982056,932.683167 655.774597,932.787537 
	C652.657959,933.146240 649.263123,933.196533 645.410889,933.169006 
z"/>
<path fill="#FDC101" opacity="1.000000" stroke="none" 
	d="
M809.392822,933.167175 
	C811.148682,932.893005 813.343262,932.694580 815.792297,932.791016 
	C813.975037,933.138184 811.903320,933.190552 809.392822,933.167175 
z"/>
<path fill="#FDC101" opacity="1.000000" stroke="none" 
	d="
M821.393921,933.165344 
	C823.149719,932.891296 825.344055,932.693787 827.792480,932.791382 
	C825.975159,933.138245 823.903870,933.190063 821.393921,933.165344 
z"/>
<path fill="#FDC101" opacity="1.000000" stroke="none" 
	d="
M746.373047,933.173706 
	C747.500244,932.906921 749.048096,932.716248 750.824463,932.812500 
	C749.633240,933.149475 748.213440,933.199585 746.373047,933.173706 
z"/>
<path fill="#FDC101" opacity="1.000000" stroke="none" 
	d="
M486.356873,933.179688 
	C487.178192,932.916809 488.405640,932.729919 489.843231,932.823486 
	C488.956573,933.154541 487.859772,933.205139 486.356873,933.179688 
z"/>
<path fill="#FDC101" opacity="1.000000" stroke="none" 
	d="
M493.357758,933.174927 
	C494.177002,932.911926 495.401886,932.723633 496.837097,932.814026 
	C495.952759,933.145081 494.858093,933.197388 493.357758,933.174927 
z"/>
<path fill="#FDC101" opacity="1.000000" stroke="none" 
	d="
M617.335510,933.182129 
	C617.860596,932.926392 618.769409,932.745422 619.863647,932.833130 
	C619.272522,933.153442 618.495850,933.205139 617.335510,933.182129 
z"/>
<path fill="#FDC101" opacity="1.000000" stroke="none" 
	d="
M531.341187,933.166382 
	C531.864319,932.913879 532.769653,932.736511 533.859924,932.825684 
	C533.271057,933.142029 532.497192,933.191772 531.341187,933.166382 
z"/>
<path fill="#FDC101" opacity="1.000000" stroke="none" 
	d="
M790.341064,933.166382 
	C790.864197,932.913635 791.769409,932.736267 792.859558,932.825439 
	C792.270691,933.141846 791.496948,933.191772 790.341064,933.166382 
z"/>
<path fill="#FDC101" opacity="1.000000" stroke="none" 
	d="
M842.311035,933.135986 
	C842.546753,932.890137 843.119873,932.716919 843.845703,932.768677 
	C843.548462,933.065247 843.098450,933.136963 842.311035,933.135986 
z"/>
<path fill="#FCFBF8" opacity="1.000000" stroke="none" 
	d="
M540.049988,660.102905 
	C542.068542,660.166016 544.087158,660.229187 546.979248,660.270813 
	C550.584106,660.197571 553.315491,660.145874 556.046814,660.094116 
	C560.859497,660.173340 565.672180,660.321167 570.484863,660.321350 
	C623.336914,660.323303 676.188965,660.302185 729.903687,660.266113 
	C731.858887,660.194946 732.951477,660.144958 734.044006,660.094971 
	C747.380859,660.150635 760.717773,660.206360 774.940552,660.234497 
	C777.555969,660.148987 779.285522,660.090942 781.015015,660.032898 
	C792.234680,662.906494 797.958435,668.938538 798.038452,677.973145 
	C798.126770,687.946960 790.675720,695.898865 780.644104,696.088013 
	C769.483521,696.298523 758.316406,696.172852 747.152100,696.171448 
	C667.335205,696.161377 587.518311,696.153259 507.701447,696.120972 
	C499.374847,696.117615 492.912140,692.064209 490.343872,685.051880 
	C487.707092,677.852600 488.740143,671.062500 494.441956,665.780334 
	C496.881500,663.520325 500.431488,662.458862 504.231995,660.630737 
	C511.340210,660.303650 517.693359,660.198608 524.046570,660.093506 
	C527.384216,660.161804 530.721863,660.230103 534.925781,660.276978 
	C537.211304,660.204651 538.630676,660.153748 540.049988,660.102905 
z"/>
<path fill="#FCFBF8" opacity="1.000000" stroke="none" 
	d="
M569.000000,802.982361 
	C548.500183,802.978577 528.500366,802.993042 508.500580,802.963867 
	C497.003998,802.947083 489.117676,795.736450 489.119080,785.328369 
	C489.120544,774.414734 496.675201,767.317322 508.575562,767.304260 
	C563.908081,767.243469 619.240662,767.224976 674.573242,767.224426 
	C685.695068,767.224304 693.979553,774.972412 693.918396,785.150879 
	C693.856506,795.454590 685.766541,802.949097 674.499207,802.961304 
	C639.499451,802.999207 604.499756,802.979614 569.000000,802.982361 
z"/>
<path fill="#FCFBF9" opacity="1.000000" stroke="none" 
	d="
M656.393188,557.464600 
	C663.724426,564.241699 665.579163,570.985413 662.452148,578.639343 
	C659.491516,585.885986 652.991882,589.867737 644.116211,589.868347 
	C598.633545,589.871277 553.150818,589.887451 507.668152,589.863159 
	C499.347687,589.858704 492.534821,585.089417 489.973450,577.688171 
	C487.559784,570.713745 489.411011,562.617554 495.494080,558.411621 
	C498.861115,556.083557 503.366272,554.206055 507.371887,554.179688 
	C553.519104,553.876099 599.669128,553.896545 645.817322,554.094055 
	C649.248352,554.108765 652.670715,556.145691 656.393188,557.464600 
z"/>
<path fill="#FCBE01" opacity="1.000000" stroke="none" 
	d="
M523.759644,659.780396 
	C517.693359,660.198608 511.340210,660.303650 504.521667,660.444702 
	C505.479004,659.988525 506.898865,659.087708 508.324890,659.077881 
	C513.373047,659.043152 518.423340,659.312927 523.759644,659.780396 
z"/>
<path fill="#FCBE01" opacity="1.000000" stroke="none" 
	d="
M555.778564,659.790710 
	C553.315491,660.145874 550.584106,660.197571 547.402527,660.172729 
	C549.804932,659.893250 552.657654,659.690247 555.778564,659.790710 
z"/>
<path fill="#FCBE01" opacity="1.000000" stroke="none" 
	d="
M780.768860,659.753052 
	C779.285522,660.090942 777.555969,660.148987 775.398682,660.134399 
	C776.821472,659.865601 778.672058,659.669434 780.768860,659.753052 
z"/>
<path fill="#FCBE01" opacity="1.000000" stroke="none" 
	d="
M539.822571,659.815430 
	C538.630676,660.153748 537.211304,660.204651 535.371399,660.178650 
	C536.498901,659.910522 538.047058,659.719299 539.822571,659.815430 
z"/>
<path fill="#FCBE01" opacity="1.000000" stroke="none" 
	d="
M733.835327,659.815979 
	C732.951477,660.144958 731.858887,660.194946 730.361572,660.169678 
	C731.180115,659.908569 732.403320,659.722778 733.835327,659.815979 
z"/>
</svg>
