<svg version="1.1" id="Layer_1" xmlns="http://www.w3.org/2000/svg" xmlns:xlink="http://www.w3.org/1999/xlink" x="0px" y="0px"
	 width="100%" viewBox="0 0 1254 1254" enable-background="new 0 0 1254 1254" xml:space="preserve">

M666.000000,1255.000000 
	C444.000000,1255.000000 222.500000,1255.000000 1.000000,1255.000000 
	C1.000000,837.000000 1.000000,419.000000 1.000000,1.000000 
	C419.000000,1.000000 837.000000,1.000000 1255.000000,1.000000 
	C1255.000000,419.000000 1255.000000,837.000000 1255.000000,1255.000000 
	C1058.833374,1255.000000 862.666687,1255.000000 666.000000,1255.000000 
M1197.511353,770.008850 
	C1207.453247,729.112122 1212.751953,687.578003 1213.797241,645.546753 
	C1214.634644,611.884583 1212.718506,578.336609 1208.187378,544.929321 
	C1203.434204,509.885498 1195.893188,475.489563 1185.335693,441.752319 
	C1170.179199,393.318573 1149.053589,347.655548 1121.957397,304.720337 
	C1088.867676,252.288361 1048.490845,206.305649 1000.839600,166.662003 
	C958.532043,131.464111 912.002197,103.188614 861.535400,81.322441 
	C795.165771,52.565929 725.816162,36.393196 653.597900,33.266472 
	C614.956787,31.593485 576.419983,33.553871 538.118347,39.807858 
	C480.032043,49.292320 424.513702,66.712425 371.555328,92.306709 
	C309.390381,122.350426 254.672638,162.654465 206.864349,212.397919 
	C167.337677,253.524521 134.505478,299.490448 108.525993,350.236542 
	C69.018425,427.407196 48.066971,509.677246 43.436657,596.028625 
	C41.555725,631.106323 42.412018,666.248718 46.762821,701.257385 
	C52.078365,744.028931 61.167114,785.904175 75.530579,826.524719 
	C104.090576,907.293579 149.185989,977.847229 208.945953,1038.996094 
	C242.972443,1073.813354 281.033661,1103.725098 322.642151,1129.098511 
	C406.741730,1180.383423 498.016235,1208.980225 596.258423,1214.603516 
	C635.019836,1216.822021 673.845947,1215.580444 712.373474,1209.785034 
	C757.471497,1203.000977 801.373840,1191.672363 843.793701,1174.833984 
	C912.225281,1147.670532 973.615173,1109.244873 1027.405518,1058.949829 
	C1082.272705,1007.647766 1126.152466,948.210876 1158.509155,880.307373 
	C1175.268188,845.136841 1188.212158,808.669861 1197.511353,770.008850 
z"/>

M1197.378418,770.401001 
	C1188.212158,808.669861 1175.268188,845.136841 1158.509155,880.307373 
	C1126.152466,948.210876 1082.272705,1007.647766 1027.405518,1058.949829 
	C973.615173,1109.244873 912.225281,1147.670532 843.793701,1174.833984 
	C801.373840,1191.672363 757.471497,1203.000977 712.373474,1209.785034 
	C673.845947,1215.580444 635.019836,1216.822021 596.258423,1214.603516 
	C498.016235,1208.980225 406.741730,1180.383423 322.642151,1129.098511 
	C281.033661,1103.725098 242.972443,1073.813354 208.945953,1038.996094 
	C149.185989,977.847229 104.090576,907.293579 75.530579,826.524719 
	C61.167114,785.904175 52.078365,744.028931 46.762821,701.257385 
	C42.412018,666.248718 41.555725,631.106323 43.436657,596.028625 
	C48.066971,509.677246 69.018425,427.407196 108.525993,350.236542 
	C134.505478,299.490448 167.337677,253.524521 206.864349,212.397919 
	C254.672638,162.654465 309.390381,122.350426 371.555328,92.306709 
	C424.513702,66.712425 480.032043,49.292320 538.118347,39.807858 
	C576.419983,33.553871 614.956787,31.593485 653.597900,33.266472 
	C725.816162,36.393196 795.165771,52.565929 861.535400,81.322441 
	C912.002197,103.188614 958.532043,131.464111 1000.839600,166.662003 
	C1048.490845,206.305649 1088.867676,252.288361 1121.957397,304.720337 
	C1149.053589,347.655548 1170.179199,393.318573 1185.335693,441.752319 
	C1195.893188,475.489563 1203.434204,509.885498 1208.187378,544.929321 
	C1212.718506,578.336609 1214.634644,611.884583 1213.797241,645.546753 
	C1212.751953,687.578003 1207.453247,729.112122 1197.378418,770.401001 
M978.203186,521.005676 
	C953.495667,504.543396 926.472534,494.586243 896.850769,491.661835 
	C890.378296,491.022827 884.115967,490.482452 878.392090,485.652344 
	C863.317810,472.931671 845.777649,464.462585 826.683960,459.428375 
	C818.545776,457.282745 810.286926,455.594971 801.877808,453.651703 
	C803.435608,448.503113 804.897156,443.742920 806.316284,438.970062 
	C812.758789,417.302094 815.325745,395.238251 811.509949,372.855133 
	C804.096802,329.369537 769.978516,294.852936 724.902100,290.845795 
	C695.394348,288.222717 669.085754,295.963501 647.331787,316.549194 
	C640.998840,322.541992 635.809448,329.743256 629.903992,336.613892 
	C628.651062,334.858551 627.230774,332.828827 625.770386,330.828369 
	C589.851990,281.629211 518.801941,275.965515 476.626251,319.410767 
	C449.816467,347.027588 444.029205,381.075653 449.760101,417.685364 
	C451.720917,430.211365 455.772491,442.410065 458.908539,454.916595 
	C458.256866,455.112762 457.166565,455.530701 456.038239,455.767487 
	C429.731415,461.288727 404.257019,469.355774 379.485077,479.846954 
	C373.691864,482.300415 367.070129,483.499268 360.745819,483.878662 
	C329.258453,485.767487 302.331604,497.414795 280.339386,520.155273 
	C276.048584,524.592102 271.859009,529.126892 267.622742,533.616455 
	C268.202606,528.548889 269.596466,523.956665 270.727539,519.300598 
	C272.332703,512.692627 269.233459,506.939362 263.191986,504.932190 
	C257.341339,502.988464 251.914398,505.727997 248.961990,511.794281 
	C242.771927,524.513000 239.671295,537.974182 241.091080,551.983093 
	C241.968872,560.644165 239.620407,567.333008 234.175339,573.795593 
	C228.735168,580.252380 223.638504,587.084656 219.164917,594.236328 
	C216.613831,598.314575 215.805389,603.444153 213.875015,607.956055 
	C202.980286,633.420471 199.949814,660.207947 200.341400,687.571289 
	C200.408554,692.263855 200.879440,696.950623 201.205109,702.321106 
	C199.104767,701.279663 197.971191,700.641418 196.779800,700.140625 
	C192.579330,698.375061 188.499725,698.597961 185.159042,701.823303 
	C181.895309,704.974243 181.004517,708.981934 182.646683,713.300537 
	C183.408447,715.303772 184.385910,717.254639 185.493317,719.091980 
	C193.557144,732.471558 203.730392,744.089355 215.199417,754.638550 
	C216.748123,756.062988 218.441620,757.781433 219.055725,759.689514 
	C221.277130,766.591675 223.066589,773.632812 225.136154,781.040588 
	C221.189713,781.040588 217.892181,780.952881 214.600830,781.058105 
	C206.797623,781.307678 201.887650,785.864197 201.812714,792.808472 
	C201.737015,799.826050 205.810837,803.798706 214.415131,804.771729 
	C220.860229,805.500488 227.358734,805.795105 233.779083,806.678284 
	C235.427658,806.905090 237.293610,808.309509 238.340698,809.710327 
	C246.002518,819.960144 253.471573,830.353821 261.027222,840.683167 
	C262.238312,842.338745 263.578186,843.900085 265.399414,846.183044 
	C263.149353,846.183044 261.993408,846.168640 260.837891,846.185364 
	C252.877121,846.300476 247.293350,850.935669 247.075577,857.602051 
	C246.845047,864.659607 252.037384,869.533875 260.408722,869.911499 
	C270.222198,870.354309 280.049225,870.536072 289.853180,871.119934 
	C291.988739,871.247131 294.299957,872.229919 296.107361,873.446838 
	C308.116852,881.532410 320.003632,889.800110 331.950989,897.978333 
	C333.879761,899.298523 335.911743,900.467957 337.895996,901.707092 
	C335.792572,902.735901 334.157013,902.730652 332.555542,902.961853 
	C326.153717,903.885803 321.368774,908.903320 321.394867,914.569946 
	C321.420563,920.147644 326.066315,925.318848 332.221832,925.732239 
	C340.686127,926.300598 349.188080,926.546631 357.672394,926.515442 
	C366.992157,926.481201 376.308533,925.823181 385.629486,925.722656 
	C393.374329,925.639160 400.793274,926.802246 407.013611,932.224304 
	C409.364288,934.273254 412.338562,935.621826 415.073029,937.213196 
	C458.936584,962.740662 506.054230,971.059082 556.055420,963.541138 
	C561.177246,962.770996 565.775574,962.980103 570.678711,964.649780 
	C597.563110,973.804504 625.015686,980.422058 653.521912,981.649353 
	C687.651550,983.118896 720.044861,976.384644 750.552185,960.786743 
	C752.682129,959.697815 755.554626,959.481812 758.005493,959.703491 
	C767.108398,960.526855 776.158875,962.314941 785.266663,962.621277 
	C805.094360,963.288086 824.282654,959.314087 843.129700,953.339844 
	C880.316589,941.552185 912.542847,922.111755 938.110291,892.287048 
	C940.884033,889.051392 943.557495,885.729858 946.820435,881.792969 
	C947.061340,883.576294 947.202942,884.491272 947.306030,885.410522 
	C947.861023,890.359009 947.984558,895.403259 949.067383,900.232727 
	C950.283264,905.655334 954.575256,908.732849 959.442749,908.725159 
	C964.015808,908.717957 968.524536,905.172180 969.830261,900.075928 
	C970.479248,897.542725 970.553406,894.828552 970.632202,892.188660 
	C971.028198,878.917908 971.107483,865.631348 971.873901,852.383606 
	C972.030396,849.678589 974.073975,846.432617 976.233582,844.593933 
	C998.499268,825.637573 1015.449890,802.490540 1029.831787,777.305725 
	C1034.320923,769.444763 1038.358765,761.325989 1042.735107,753.076599 
	C1043.743408,753.978760 1044.436401,754.683655 1045.213135,755.279419 
	C1048.917847,758.120789 1052.976807,759.223022 1057.346069,757.080811 
	C1061.564331,755.012573 1063.028564,751.191284 1063.046875,746.746704 
	C1063.054443,744.928406 1062.956177,743.048828 1062.507935,741.299194 
	C1059.000732,727.611145 1055.318848,713.967346 1051.894287,700.259094 
	C1051.277954,697.791687 1051.025269,694.961914 1051.572876,692.516235 
	C1059.713989,656.161194 1056.344360,621.113770 1040.094238,587.439697 
	C1038.365601,583.857422 1037.499634,579.642883 1035.083862,576.649475 
	C1028.406128,568.374939 1021.069763,560.634521 1014.124878,552.570007 
	C1013.031494,551.300293 1011.908997,549.398438 1012.003906,547.863281 
	C1013.053467,530.872070 1004.364136,517.122253 997.047913,503.009491 
	C994.306885,497.722137 987.636353,496.283722 982.661194,498.716400 
	C977.432922,501.272858 975.089294,507.273346 976.998535,513.109985 
	C977.818604,515.616699 978.554321,518.151001 979.107117,520.896606 
	C979.107117,520.896606 978.889893,521.124268 978.203186,521.005676 
z"/>
<path fill="#FCFBFD" opacity="1.000000" stroke="none" 
	d="
M979.328369,520.672791 
	C978.554321,518.151001 977.818604,515.616699 976.998535,513.109985 
	C975.089294,507.273346 977.432922,501.272858 982.661194,498.716400 
	C987.636353,496.283722 994.306885,497.722137 997.047913,503.009491 
	C1004.364136,517.122253 1013.053467,530.872070 1012.003906,547.863281 
	C1011.908997,549.398438 1013.031494,551.300293 1014.124878,552.570007 
	C1021.069763,560.634521 1028.406128,568.374939 1035.083862,576.649475 
	C1037.499634,579.642883 1038.365601,583.857422 1040.094238,587.439697 
	C1056.344360,621.113770 1059.713989,656.161194 1051.572876,692.516235 
	C1051.025269,694.961914 1051.277954,697.791687 1051.894287,700.259094 
	C1055.318848,713.967346 1059.000732,727.611145 1062.507935,741.299194 
	C1062.956177,743.048828 1063.054443,744.928406 1063.046875,746.746704 
	C1063.028564,751.191284 1061.564331,755.012573 1057.346069,757.080811 
	C1052.976807,759.223022 1048.917847,758.120789 1045.213135,755.279419 
	C1044.436401,754.683655 1043.743408,753.978760 1042.735107,753.076599 
	C1038.358765,761.325989 1034.320923,769.444763 1029.831787,777.305725 
	C1015.449890,802.490540 998.499268,825.637573 976.233582,844.593933 
	C974.073975,846.432617 972.030396,849.678589 971.873901,852.383606 
	C971.107483,865.631348 971.028198,878.917908 970.632202,892.188660 
	C970.553406,894.828552 970.479248,897.542725 969.830261,900.075928 
	C968.524536,905.172180 964.015808,908.717957 959.442749,908.725159 
	C954.575256,908.732849 950.283264,905.655334 949.067383,900.232727 
	C947.984558,895.403259 947.861023,890.359009 947.306030,885.410522 
	C947.202942,884.491272 947.061340,883.576294 946.820435,881.792969 
	C943.557495,885.729858 940.884033,889.051392 938.110291,892.287048 
	C912.542847,922.111755 880.316589,941.552185 843.129700,953.339844 
	C824.282654,959.314087 805.094360,963.288086 785.266663,962.621277 
	C776.158875,962.314941 767.108398,960.526855 758.005493,959.703491 
	C755.554626,959.481812 752.682129,959.697815 750.552185,960.786743 
	C720.044861,976.384644 687.651550,983.118896 653.521912,981.649353 
	C625.015686,980.422058 597.563110,973.804504 570.678711,964.649780 
	C565.775574,962.980103 561.177246,962.770996 556.055420,963.541138 
	C506.054230,971.059082 458.936584,962.740662 415.073029,937.213196 
	C412.338562,935.621826 409.364288,934.273254 407.013611,932.224304 
	C400.793274,926.802246 393.374329,925.639160 385.629486,925.722656 
	C376.308533,925.823181 366.992157,926.481201 357.672394,926.515442 
	C349.188080,926.546631 340.686127,926.300598 332.221832,925.732239 
	C326.066315,925.318848 321.420563,920.147644 321.394867,914.569946 
	C321.368774,908.903320 326.153717,903.885803 332.555542,902.961853 
	C334.157013,902.730652 335.792572,902.735901 337.895996,901.707092 
	C335.911743,900.467957 333.879761,899.298523 331.950989,897.978333 
	C320.003632,889.800110 308.116852,881.532410 296.107361,873.446838 
	C294.299957,872.229919 291.988739,871.247131 289.853180,871.119934 
	C280.049225,870.536072 270.222198,870.354309 260.408722,869.911499 
	C252.037384,869.533875 246.845047,864.659607 247.075577,857.602051 
	C247.293350,850.935669 252.877121,846.300476 260.837891,846.185364 
	C261.993408,846.168640 263.149353,846.183044 265.399414,846.183044 
	C263.578186,843.900085 262.238312,842.338745 261.027222,840.683167 
	C253.471573,830.353821 246.002518,819.960144 238.340698,809.710327 
	C237.293610,808.309509 235.427658,806.905090 233.779083,806.678284 
	C227.358734,805.795105 220.860229,805.500488 214.415131,804.771729 
	C205.810837,803.798706 201.737015,799.826050 201.812714,792.808472 
	C201.887650,785.864197 206.797623,781.307678 214.600830,781.058105 
	C217.892181,780.952881 221.189713,781.040588 225.136154,781.040588 
	C223.066589,773.632812 221.277130,766.591675 219.055725,759.689514 
	C218.441620,757.781433 216.748123,756.062988 215.199417,754.638550 
	C203.730392,744.089355 193.557144,732.471558 185.493317,719.091980 
	C184.385910,717.254639 183.408447,715.303772 182.646683,713.300537 
	C181.004517,708.981934 181.895309,704.974243 185.159042,701.823303 
	C188.499725,698.597961 192.579330,698.375061 196.779800,700.140625 
	C197.971191,700.641418 199.104767,701.279663 201.205109,702.321106 
	C200.879440,696.950623 200.408554,692.263855 200.341400,687.571289 
	C199.949814,660.207947 202.980286,633.420471 213.875015,607.956055 
	C215.805389,603.444153 216.613831,598.314575 219.164917,594.236328 
	C223.638504,587.084656 228.735168,580.252380 234.175339,573.795593 
	C239.620407,567.333008 241.968872,560.644165 241.091080,551.983093 
	C239.671295,537.974182 242.771927,524.513000 248.961990,511.794281 
	C251.914398,505.727997 257.341339,502.988464 263.191986,504.932190 
	C269.233459,506.939362 272.332703,512.692627 270.727539,519.300598 
	C269.596466,523.956665 268.202606,528.548889 267.622742,533.616455 
	C271.859009,529.126892 276.048584,524.592102 280.339386,520.155273 
	C302.331604,497.414795 329.258453,485.767487 360.745819,483.878662 
	C367.070129,483.499268 373.691864,482.300415 379.485077,479.846954 
	C404.257019,469.355774 429.731415,461.288727 456.038239,455.767487 
	C457.166565,455.530701 458.256866,455.112762 458.908539,454.916595 
	C455.772491,442.410065 451.720917,430.211365 449.760101,417.685364 
	C444.029205,381.075653 449.816467,347.027588 476.626251,319.410767 
	C518.801941,275.965515 589.851990,281.629211 625.770386,330.828369 
	C627.230774,332.828827 628.651062,334.858551 629.903992,336.613892 
	C635.809448,329.743256 640.998840,322.541992 647.331787,316.549194 
	C669.085754,295.963501 695.394348,288.222717 724.902100,290.845795 
	C769.978516,294.852936 804.096802,329.369537 811.509949,372.855133 
	C815.325745,395.238251 812.758789,417.302094 806.316284,438.970062 
	C804.897156,443.742920 803.435608,448.503113 801.877808,453.651703 
	C810.286926,455.594971 818.545776,457.282745 826.683960,459.428375 
	C845.777649,464.462585 863.317810,472.931671 878.392090,485.652344 
	C884.115967,490.482452 890.378296,491.022827 896.850769,491.661835 
	C926.472534,494.586243 953.495667,504.543396 978.652283,521.248535 
	C979.326660,521.446106 979.551941,521.400818 979.777222,521.355469 
	C979.627563,521.127930 979.477905,520.900330 979.328369,520.672791 
M380.044952,893.268677 
	C380.134125,893.250610 380.223297,893.232605 380.312408,893.214600 
	C380.196808,893.148499 380.081238,893.082458 379.713776,892.399719 
	C377.766510,890.581970 375.815521,888.768250 373.872528,886.945984 
	C356.865265,870.994995 339.349701,855.493469 325.793335,836.313843 
	C322.496124,831.648926 319.932129,826.269775 318.095276,820.857849 
	C317.273987,818.438049 316.795868,817.085938 314.389893,815.944885 
	C297.260742,807.821045 280.226074,799.497314 263.190063,791.178406 
	C260.603027,789.915100 258.164612,788.347412 255.657440,786.920532 
	C256.954987,791.923645 258.540405,796.489319 261.047852,800.474915 
	C270.872864,816.091980 283.316467,829.517090 296.820068,841.995239 
	C297.909485,843.001953 299.106873,844.413025 300.398560,844.591675 
	C306.869812,845.486816 310.334503,850.141235 314.100433,854.646851 
	C316.001587,856.921326 318.187988,859.195190 320.711670,860.673218 
	C337.932709,870.758667 355.248688,880.683716 372.618561,890.511108 
	C374.840759,891.768311 377.551880,892.161377 380.044952,893.268677 
M871.501038,914.011108 
	C886.265930,906.352539 899.370056,896.479980 911.089783,884.683350 
	C925.765625,869.911255 936.978394,852.554382 948.245789,835.241272 
	C949.363159,833.524292 949.879944,831.223328 950.083069,829.135681 
	C951.473999,814.844727 956.053284,801.541992 962.124634,788.646484 
	C963.783813,785.122253 966.261780,783.145569 970.135559,782.862915 
	C977.483826,782.326660 982.609436,788.270264 981.174622,795.803894 
	C980.558655,799.037781 979.714722,802.228271 978.974365,805.438538 
	C979.386475,805.625732 979.798584,805.812927 980.210693,806.000183 
	C984.989685,799.649719 990.051880,793.490417 994.493225,786.911926 
	C1006.530701,769.081787 1018.161377,750.992981 1024.056152,729.964783 
	C1026.796387,720.189453 1029.526001,710.503052 1025.491699,700.225525 
	C1024.470337,697.623718 1025.311768,693.927856 1026.190674,691.003296 
	C1030.961914,675.128418 1031.856567,658.903442 1030.778076,642.530823 
	C1030.424805,637.167725 1029.029419,631.873291 1028.110596,626.547424 
	C1025.650513,629.048340 1024.423828,631.701233 1023.132751,634.322327 
	C1021.808472,637.010559 1020.499084,639.710876 1019.049500,642.331909 
	C1001.825928,673.473755 976.817078,697.073120 946.829529,715.491821 
	C929.667786,726.032715 911.884583,735.574585 894.252075,745.332764 
	C873.222290,756.971313 855.825928,773.371338 837.230835,788.216736 
	C822.449036,800.017700 806.489014,809.918396 788.880249,816.996521 
	C783.211182,819.275330 777.486694,817.921570 774.427551,813.744873 
	C771.494751,809.740662 771.452637,803.854248 774.798462,799.795654 
	C776.331177,797.936401 778.485962,796.407288 780.645508,795.276489 
	C797.379944,786.514832 813.547241,776.787903 827.586426,764.121094 
	C852.516663,741.627625 880.267395,723.508240 910.055786,708.193970 
	C932.216431,696.801086 952.880188,683.159912 970.550171,665.288574 
	C990.184082,645.431030 1004.618774,622.700562 1010.394287,595.054871 
	C1010.948059,592.404175 1011.554504,588.889893 1010.318481,586.913391 
	C1007.308289,582.099609 1003.229248,577.954224 999.092041,572.948486 
	C997.672974,575.778809 996.754822,577.508179 995.925598,579.279114 
	C983.020996,606.839233 966.763672,632.026917 943.989075,652.587830 
	C932.771362,662.715210 920.344421,670.725464 906.147705,676.336426 
	C877.826172,687.529907 849.707642,699.247498 821.651367,711.094543 
	C814.311401,714.194031 807.508240,718.564697 800.458557,722.351501 
	C804.523132,723.976318 808.280457,724.461609 812.010132,725.106445 
	C819.113831,726.334717 823.547302,731.938110 823.018982,738.887512 
	C822.569824,744.795044 818.012878,748.464478 810.484192,748.212341 
	C803.338806,747.972900 796.219055,747.043762 789.079529,746.538391 
	C773.644775,745.445862 758.212036,743.721802 742.764648,743.557373 
	C721.932678,743.335571 701.905823,748.760681 681.994629,754.420593 
	C661.516541,760.241577 640.666870,763.322327 619.298828,762.067749 
	C607.471802,761.373291 596.268860,758.860474 586.308350,751.971802 
	C576.202271,744.982361 564.935974,740.676086 552.629639,740.916809 
	C540.039978,741.163086 527.476990,742.661926 514.896423,743.527100 
	C507.643188,744.025818 499.941864,746.134338 493.188141,744.477600 
	C442.379242,732.013855 393.454834,714.345825 347.179657,689.643066 
	C311.439209,670.563904 283.329163,643.622864 262.629211,608.881897 
	C259.196716,603.120972 256.070007,597.177856 252.494415,590.767517 
	C249.245743,595.502258 246.106888,599.432251 243.756317,603.787720 
	C242.660568,605.818115 242.206924,609.002625 242.986435,611.096619 
	C246.230331,619.810547 249.291428,628.733582 253.794266,636.813904 
	C276.165009,676.957886 305.705597,711.314819 340.034576,741.671875 
	C346.897827,747.741089 354.023529,753.514954 360.844818,759.629700 
	C365.160431,763.498230 365.945435,769.254272 363.152863,773.136353 
	C360.273956,777.138489 355.375397,778.257080 350.200867,775.630432 
	C344.864807,772.921753 339.483765,770.181580 334.542419,766.834961 
	C304.160583,746.258606 280.686310,718.762451 259.011169,689.717529 
	C248.098557,675.094421 238.709229,659.334595 228.734787,644.245728 
	C228.630142,644.545227 228.075211,645.551941 227.940872,646.612061 
	C227.083954,653.374756 225.822617,660.133789 225.612625,666.922424 
	C224.791260,693.475098 224.073624,720.078064 242.504883,742.375366 
	C245.021088,745.419373 246.586090,749.539734 249.604431,751.822449 
	C257.560669,757.839539 265.883698,763.431580 274.400940,768.635986 
	C302.456604,785.778748 333.104919,796.865112 364.094818,807.379700 
	C382.315796,813.561890 400.322845,816.193604 419.443085,813.354614 
	C430.090698,811.773682 441.033417,812.022400 451.850372,811.800232 
	C458.050964,811.672852 462.430023,815.707520 462.921906,821.139465 
	C463.431274,826.764526 460.068176,830.829712 453.658020,832.179504 
	C451.544861,832.624451 449.383606,832.858887 447.235687,833.117615 
	C442.331818,833.708374 437.422607,834.254700 432.515594,834.819153 
	C440.418427,839.230835 448.482788,842.655212 456.569763,846.025330 
	C468.832214,851.135376 481.193848,856.017639 493.354431,861.358582 
	C502.483917,865.368225 511.114777,870.598755 520.403503,874.143494 
	C543.614624,883.001404 568.093506,884.971069 592.623047,885.035278 
	C613.087341,885.088806 633.554138,883.708130 654.022339,883.039185 
	C661.111694,882.807434 666.399841,886.975891 666.921570,892.937866 
	C667.457520,899.061951 662.609009,904.360474 655.488464,905.059753 
	C644.393066,906.149353 633.286377,907.736694 622.170166,907.864014 
	C602.716431,908.086975 583.212280,908.021301 563.802063,906.859741 
	C541.776489,905.541687 520.189636,901.256348 499.900665,892.071838 
	C489.283417,887.265686 478.965576,881.795044 468.326141,877.041626 
	C445.682159,866.924927 422.895111,857.128845 400.216339,847.089294 
	C394.901215,844.736328 389.981689,841.369324 384.531677,839.467957 
	C374.639709,836.016968 364.487823,833.310181 354.439728,830.308472 
	C352.798126,829.818054 351.132294,829.408508 349.477631,828.961670 
	C350.106384,831.229248 351.171326,832.682129 352.432159,833.938477 
	C366.707947,848.164001 380.766907,862.619629 395.383667,876.486877 
	C408.923248,889.332214 423.101196,901.476440 439.699768,910.420654 
	C456.219635,919.322388 473.541412,926.055542 491.837738,930.257812 
	C496.664703,931.366455 501.205872,932.752319 502.943604,938.296265 
	C503.198273,939.108704 504.961090,939.798218 506.098145,939.931824 
	C523.118103,941.932007 540.046204,940.876221 556.750244,937.382874 
	C563.263977,936.020569 569.024414,936.659485 575.202698,938.954956 
	C600.775452,948.455994 627.092163,954.868347 654.474304,955.908264 
	C684.457520,957.046936 713.371643,952.442566 739.736511,937.347778 
	C747.493652,932.906677 754.798828,932.081177 763.102234,934.256470 
	C775.991211,937.633057 789.209900,938.044556 802.319580,936.534241 
	C826.586060,933.738525 849.295715,925.724915 871.501038,914.011108 
M491.998962,460.417480 
	C497.800507,469.942841 503.097778,479.821838 509.488403,488.934021 
	C541.873108,535.109924 583.216125,572.464233 626.952942,607.434998 
	C630.080383,609.935608 632.152771,608.995728 634.724792,606.892029 
	C665.968201,581.337708 696.338196,554.837524 723.084534,524.479919 
	C743.644531,501.143829 762.195923,476.399384 774.730225,447.660828 
	C784.589722,425.055115 789.212280,401.538727 784.862793,376.993958 
	C776.460083,329.577087 727.925476,304.078796 684.054993,323.926636 
	C661.984985,333.911560 649.599731,352.027069 643.101379,374.695282 
	C641.075073,381.763397 636.655640,385.751190 630.217651,385.837280 
	C623.643066,385.925201 618.976929,381.851868 616.978760,374.494232 
	C616.108582,371.289948 615.110168,368.100800 613.895203,365.012878 
	C601.028809,332.311188 572.480469,314.337311 539.157837,317.773804 
	C497.385651,322.081696 473.353546,357.281158 474.295776,397.273468 
	C474.817535,419.419647 481.219574,440.218018 491.998962,460.417480 
M608.217224,734.636047 
	C617.641113,735.365784 627.183594,737.377625 636.460632,736.519653 
	C649.809204,735.285278 663.132812,732.636475 676.165039,729.381653 
	C698.317444,723.848999 720.362122,717.562561 743.405945,718.372559 
	C754.720520,718.770325 763.992188,714.943787 773.483704,709.665833 
	C792.965637,698.832214 812.606262,688.237549 832.585815,678.362366 
	C844.803162,672.323853 857.497375,667.381104 868.935181,659.703674 
	C878.966309,652.970520 882.512207,644.712585 878.952209,633.044189 
	C875.061523,620.291931 866.580383,611.069580 854.949097,605.618591 
	C841.900269,599.503235 828.387878,593.989685 814.562500,589.996521 
	C782.635132,580.775085 749.751282,576.499756 716.699646,573.645996 
	C715.052979,573.503845 712.938110,574.551453 711.599976,575.697449 
	C687.824463,596.059937 664.186401,616.583069 640.394836,636.926697 
	C633.899231,642.480957 627.119751,642.545654 620.487793,636.910706 
	C596.509033,616.537048 572.729004,595.929565 548.783264,575.516724 
	C547.314758,574.264893 544.951477,573.072693 543.192200,573.300598 
	C516.805481,576.720581 490.336334,579.715027 464.120636,584.182800 
	C439.145050,588.439331 414.528351,594.675903 391.994873,606.902100 
	C378.954498,613.977539 368.053680,623.274597 363.718597,638.325989 
	C360.619171,649.087280 363.603577,663.226440 371.120758,668.195435 
	C382.073242,675.435242 393.058685,682.979614 404.944183,688.383728 
	C434.561066,701.849854 465.720734,711.094177 497.178375,719.263062 
	C498.753326,719.672058 500.486603,719.978821 502.069672,719.765442 
	C511.795502,718.455078 521.465820,716.670044 531.216980,715.623291 
	C555.531494,713.013367 578.774658,715.820740 599.564819,730.127747 
	C602.012451,731.812073 604.817261,732.977478 608.217224,734.636047 
M304.180786,624.302551 
	C314.196320,635.146545 324.587677,645.563171 337.047760,653.821960 
	C337.419617,653.133606 337.672791,652.872131 337.690002,652.595947 
	C337.752014,651.600342 337.786530,650.597351 337.739319,649.601440 
	C336.982971,633.651611 342.502686,619.914978 352.440063,607.714905 
	C364.689728,592.676025 380.763031,583.081726 398.456848,576.101379 
	C429.952484,563.675964 463.087585,557.964600 496.383850,553.092651 
	C505.144562,551.810791 513.958557,550.893433 523.304932,549.739990 
	C522.428284,548.477661 522.110718,547.911316 521.692200,547.433472 
	C503.666992,526.853699 486.616547,505.545410 473.142944,481.622589 
	C471.497375,478.700836 469.425598,478.809998 466.879059,479.329895 
	C438.066528,485.212402 410.200409,493.965576 383.390167,506.157867 
	C378.712372,508.285126 373.223053,509.615662 368.105133,509.626038 
	C336.406403,509.690338 310.677582,522.085022 290.275085,546.063232 
	C284.260284,553.132141 278.142365,560.119263 272.358154,567.372314 
	C271.428436,568.538147 271.288116,571.276367 272.001099,572.659973 
	C277.633575,583.589783 283.547516,594.375000 289.433075,605.173035 
	C289.797394,605.841492 290.653198,606.242126 290.636444,606.228088 
	C291.733612,601.929932 291.909607,597.134338 294.079895,593.544312 
	C299.557617,584.483154 304.913269,574.995544 312.130249,567.401184 
	C339.516449,538.582886 375.197388,527.064331 413.254578,521.251526 
	C418.932098,520.384338 423.100311,523.257202 424.301392,527.662781 
	C425.379211,531.616150 422.403625,536.182617 417.285980,538.391418 
	C416.523621,538.720459 415.718964,538.950684 414.936218,539.233093 
	C404.134644,543.130371 393.285065,546.900269 382.541443,550.951233 
	C352.593231,562.243591 327.425323,579.528870 310.580688,607.640564 
	C308.911469,610.426331 304.071869,611.422791 300.569061,612.938416 
	C299.370941,613.456787 297.759918,613.020752 295.140137,613.020752 
	C298.427094,617.108215 301.091736,620.421814 304.180786,624.302551 
M972.964050,548.593994 
	C948.153198,529.757202 920.171143,519.369751 889.162048,516.718567 
	C882.205872,516.123840 874.928040,516.740906 868.947021,511.193054 
	C863.605103,506.238098 857.607727,501.880066 851.482849,497.899780 
	C834.344299,486.762177 814.828491,482.534332 795.069519,479.003571 
	C791.187866,478.309906 789.174988,479.045502 787.172546,482.537933 
	C774.778137,504.154907 759.665100,523.803223 743.111633,542.379456 
	C741.096985,544.640198 739.279968,547.077148 737.350159,549.458618 
	C756.939453,552.728394 776.050537,555.473511 794.970886,559.189941 
	C818.205811,563.753906 841.099731,569.766296 862.343750,580.647461 
	C883.717712,591.595276 899.072693,607.585205 903.427917,632.097900 
	C904.432068,637.749756 904.299377,643.603516 904.741882,650.131653 
	C908.767334,647.681580 912.927063,645.624512 916.554199,642.866821 
	C944.535400,621.592957 962.927734,593.174438 976.609741,561.361267 
	C979.386719,554.904358 978.475037,552.431274 972.964050,548.593994 
z"/>
<path fill="#9071CE" opacity="1.000000" stroke="none" 
	d="
M871.184509,914.198486 
	C849.295715,925.724915 826.586060,933.738525 802.319580,936.534241 
	C789.209900,938.044556 775.991211,937.633057 763.102234,934.256470 
	C754.798828,932.081177 747.493652,932.906677 739.736511,937.347778 
	C713.371643,952.442566 684.457520,957.046936 654.474304,955.908264 
	C627.092163,954.868347 600.775452,948.455994 575.202698,938.954956 
	C569.024414,936.659485 563.263977,936.020569 556.750244,937.382874 
	C540.046204,940.876221 523.118103,941.932007 506.098145,939.931824 
	C504.961090,939.798218 503.198273,939.108704 502.943604,938.296265 
	C501.205872,932.752319 496.664703,931.366455 491.837738,930.257812 
	C473.541412,926.055542 456.219635,919.322388 439.699768,910.420654 
	C423.101196,901.476440 408.923248,889.332214 395.383667,876.486877 
	C380.766907,862.619629 366.707947,848.164001 352.432159,833.938477 
	C351.171326,832.682129 350.106384,831.229248 349.477631,828.961670 
	C351.132294,829.408508 352.798126,829.818054 354.439728,830.308472 
	C364.487823,833.310181 374.639709,836.016968 384.531677,839.467957 
	C389.981689,841.369324 394.901215,844.736328 400.216339,847.089294 
	C422.895111,857.128845 445.682159,866.924927 468.326141,877.041626 
	C478.965576,881.795044 489.283417,887.265686 499.900665,892.071838 
	C520.189636,901.256348 541.776489,905.541687 563.802063,906.859741 
	C583.212280,908.021301 602.716431,908.086975 622.170166,907.864014 
	C633.286377,907.736694 644.393066,906.149353 655.488464,905.059753 
	C662.609009,904.360474 667.457520,899.061951 666.921570,892.937866 
	C666.399841,886.975891 661.111694,882.807434 654.022339,883.039185 
	C633.554138,883.708130 613.087341,885.088806 592.623047,885.035278 
	C568.093506,884.971069 543.614624,883.001404 520.403503,874.143494 
	C511.114777,870.598755 502.483917,865.368225 493.354431,861.358582 
	C481.193848,856.017639 468.832214,851.135376 456.569763,846.025330 
	C448.482788,842.655212 440.418427,839.230835 432.515594,834.819153 
	C437.422607,834.254700 442.331818,833.708374 447.235687,833.117615 
	C449.383606,832.858887 451.544861,832.624451 453.658020,832.179504 
	C460.068176,830.829712 463.431274,826.764526 462.921906,821.139465 
	C462.430023,815.707520 458.050964,811.672852 451.850372,811.800232 
	C441.033417,812.022400 430.090698,811.773682 419.443085,813.354614 
	C400.322845,816.193604 382.315796,813.561890 364.094818,807.379700 
	C333.104919,796.865112 302.456604,785.778748 274.400940,768.635986 
	C265.883698,763.431580 257.560669,757.839539 249.604431,751.822449 
	C246.586090,749.539734 245.021088,745.419373 242.504883,742.375366 
	C224.073624,720.078064 224.791260,693.475098 225.612625,666.922424 
	C225.822617,660.133789 227.083954,653.374756 227.940872,646.612061 
	C228.075211,645.551941 228.630142,644.545227 228.734787,644.245728 
	C238.709229,659.334595 248.098557,675.094421 259.011169,689.717529 
	C280.686310,718.762451 304.160583,746.258606 334.542419,766.834961 
	C339.483765,770.181580 344.864807,772.921753 350.200867,775.630432 
	C355.375397,778.257080 360.273956,777.138489 363.152863,773.136353 
	C365.945435,769.254272 365.160431,763.498230 360.844818,759.629700 
	C354.023529,753.514954 346.897827,747.741089 340.034576,741.671875 
	C305.705597,711.314819 276.165009,676.957886 253.794266,636.813904 
	C249.291428,628.733582 246.230331,619.810547 242.986435,611.096619 
	C242.206924,609.002625 242.660568,605.818115 243.756317,603.787720 
	C246.106888,599.432251 249.245743,595.502258 252.494415,590.767517 
	C256.070007,597.177856 259.196716,603.120972 262.629211,608.881897 
	C283.329163,643.622864 311.439209,670.563904 347.179657,689.643066 
	C393.454834,714.345825 442.379242,732.013855 493.188141,744.477600 
	C499.941864,746.134338 507.643188,744.025818 514.896423,743.527100 
	C527.476990,742.661926 540.039978,741.163086 552.629639,740.916809 
	C564.935974,740.676086 576.202271,744.982361 586.308350,751.971802 
	C596.268860,758.860474 607.471802,761.373291 619.298828,762.067749 
	C640.666870,763.322327 661.516541,760.241577 681.994629,754.420593 
	C701.905823,748.760681 721.932678,743.335571 742.764648,743.557373 
	C758.212036,743.721802 773.644775,745.445862 789.079529,746.538391 
	C796.219055,747.043762 803.338806,747.972900 810.484192,748.212341 
	C818.012878,748.464478 822.569824,744.795044 823.018982,738.887512 
	C823.547302,731.938110 819.113831,726.334717 812.010132,725.106445 
	C808.280457,724.461609 804.523132,723.976318 800.458557,722.351501 
	C807.508240,718.564697 814.311401,714.194031 821.651367,711.094543 
	C849.707642,699.247498 877.826172,687.529907 906.147705,676.336426 
	C920.344421,670.725464 932.771362,662.715210 943.989075,652.587830 
	C966.763672,632.026917 983.020996,606.839233 995.925598,579.279114 
	C996.754822,577.508179 997.672974,575.778809 999.092041,572.948486 
	C1003.229248,577.954224 1007.308289,582.099609 1010.318481,586.913391 
	C1011.554504,588.889893 1010.948059,592.404175 1010.394287,595.054871 
	C1004.618774,622.700562 990.184082,645.431030 970.550171,665.288574 
	C952.880188,683.159912 932.216431,696.801086 910.055786,708.193970 
	C880.267395,723.508240 852.516663,741.627625 827.586426,764.121094 
	C813.547241,776.787903 797.379944,786.514832 780.645508,795.276489 
	C778.485962,796.407288 776.331177,797.936401 774.798462,799.795654 
	C771.452637,803.854248 771.494751,809.740662 774.427551,813.744873 
	C777.486694,817.921570 783.211182,819.275330 788.880249,816.996521 
	C806.489014,809.918396 822.449036,800.017700 837.230835,788.216736 
	C855.825928,773.371338 873.222290,756.971313 894.252075,745.332764 
	C911.884583,735.574585 929.667786,726.032715 946.829529,715.491821 
	C976.817078,697.073120 1001.825928,673.473755 1019.049500,642.331909 
	C1020.499084,639.710876 1021.808472,637.010559 1023.132751,634.322327 
	C1024.423828,631.701233 1025.650513,629.048340 1028.110596,626.547424 
	C1029.029419,631.873291 1030.424805,637.167725 1030.778076,642.530823 
	C1031.856567,658.903442 1030.961914,675.128418 1026.190674,691.003296 
	C1025.311768,693.927856 1024.470337,697.623718 1025.491699,700.225525 
	C1029.526001,710.503052 1026.796387,720.189453 1024.056152,729.964783 
	C1018.161377,750.992981 1006.530701,769.081787 994.493225,786.911926 
	C990.051880,793.490417 984.989685,799.649719 980.210693,806.000183 
	C979.798584,805.812927 979.386475,805.625732 978.974365,805.438538 
	C979.714722,802.228271 980.558655,799.037781 981.174622,795.803894 
	C982.609436,788.270264 977.483826,782.326660 970.135559,782.862915 
	C966.261780,783.145569 963.783813,785.122253 962.124634,788.646484 
	C956.053284,801.541992 951.473999,814.844727 950.083069,829.135681 
	C949.879944,831.223328 949.363159,833.524292 948.245789,835.241272 
	C936.978394,852.554382 925.765625,869.911255 911.089783,884.683350 
	C899.370056,896.479980 886.265930,906.352539 871.184509,914.198486 
M909.034058,791.041016 
	C909.034058,791.041016 908.813171,790.826538 908.943848,790.146912 
	C914.848450,782.091553 920.792175,774.064392 926.639526,765.967712 
	C929.176086,762.455322 929.968628,758.656982 927.272522,754.844666 
	C924.757996,751.289062 921.109802,751.018799 917.435181,752.340210 
	C915.305908,753.105835 913.184753,754.415588 911.572876,756.001709 
	C906.472107,761.021301 901.152283,765.924316 896.749817,771.526855 
	C885.332703,786.056458 874.386475,800.955627 863.168396,815.643188 
	C862.109436,817.029663 860.624329,818.327820 859.053040,819.043213 
	C853.450623,821.594116 847.682983,823.779846 842.055420,826.278503 
	C829.195190,831.988525 814.899048,834.648621 803.874695,844.314575 
	C802.719543,845.327454 800.831909,845.701904 799.217773,845.964294 
	C780.842224,848.950439 762.540222,852.736267 744.046082,854.554260 
	C722.728943,856.649841 701.340332,855.401184 680.938110,847.930481 
	C671.114685,844.333435 661.733154,839.529358 652.151550,835.271851 
	C652.249146,834.717346 652.346741,834.162842 652.444336,833.608337 
	C667.492493,827.379883 682.523560,821.109863 697.595093,814.938354 
	C706.684204,811.216492 715.875977,807.743835 724.944946,803.974731 
	C730.465454,801.680359 733.019531,797.208313 731.800171,792.743347 
	C730.622192,788.429932 726.660400,786.234924 720.494934,786.916199 
	C716.870361,787.316589 713.284790,788.166016 709.717346,788.971558 
	C685.021545,794.547852 661.818726,804.299438 639.301941,815.494568 
	C629.778564,820.229431 621.628418,822.017456 613.040527,814.691772 
	C612.056335,813.852234 610.681641,813.473450 609.494629,812.868103 
	C579.980835,797.816467 548.172974,789.935974 516.095520,782.820862 
	C481.547577,775.157715 447.598206,765.637390 416.099548,748.953979 
	C408.888489,745.134705 401.800018,741.084167 394.649628,737.150024 
	C393.192169,736.348145 391.752441,735.493774 390.231598,734.830933 
	C384.589081,732.371643 380.586884,733.163940 377.826874,737.195984 
	C375.229645,740.990173 375.795654,745.725647 380.218842,749.660400 
	C385.554565,754.406738 391.180756,758.889648 397.036987,762.976807 
	C421.856659,780.298950 449.835510,790.403748 478.853668,797.857910 
	C505.934723,804.814575 533.246704,810.895874 560.226501,818.212830 
	C572.929932,821.658142 585.092773,827.097046 597.500549,831.632629 
	C575.278381,840.491821 552.803101,842.905090 529.820557,840.445496 
	C521.891907,839.596985 514.058655,837.868591 506.133087,836.974548 
	C501.744598,836.479431 498.325836,838.813232 496.637054,842.907410 
	C494.964813,846.961548 496.542084,850.627502 499.626099,853.203064 
	C501.981445,855.170044 504.915802,856.732666 507.849792,857.671082 
	C527.851868,864.068604 548.325012,865.338623 569.046448,862.423706 
	C587.611450,859.812134 605.467163,854.606689 622.724121,847.245789 
	C624.545593,846.468811 627.353027,846.450500 629.092773,847.312256 
	C635.500732,850.486572 641.751953,854.013000 647.882324,857.705566 
	C675.470764,874.322876 705.850281,878.424072 737.279297,877.722717 
	C745.554626,877.538025 753.817749,876.802673 762.086487,876.320190 
	C760.589050,877.684326 758.908447,878.679321 757.099060,879.296936 
	C747.337036,882.629150 737.596069,886.038696 727.746826,889.095764 
	C715.191040,892.992859 702.517761,896.509949 689.935608,900.324280 
	C682.245728,902.655518 678.335754,908.805847 680.094421,915.352295 
	C681.684631,921.271973 687.616699,923.959412 695.689270,921.809509 
	C709.683289,918.082581 723.561646,913.923157 737.538269,910.128662 
	C766.458435,902.277222 792.548828,889.341248 814.506897,868.532410 
	C818.773010,864.489441 823.754944,860.773254 829.064148,858.342407 
	C843.285034,851.831055 858.026428,846.459534 872.268677,839.991333 
	C918.062256,819.193787 958.341614,790.822510 991.094971,752.300903 
	C1000.572388,741.154297 1007.735168,728.616516 1013.348755,715.170654 
	C1015.542969,709.914917 1014.025940,704.748779 1009.948364,702.401550 
	C1005.662231,699.934265 1001.820312,700.908508 997.753113,705.643127 
	C995.801025,707.915649 993.974609,710.300537 992.165405,712.690674 
	C976.634949,733.208374 959.676758,752.433594 939.669128,768.700745 
	C929.884338,776.656372 919.412109,783.766479 909.034058,791.041016 
M813.016113,896.509766 
	C805.043091,898.588806 801.134949,903.180298 802.324402,909.071228 
	C803.520020,914.992920 808.761414,917.431946 817.165710,915.999817 
	C840.742859,911.982117 863.013062,904.271484 882.838318,890.790955 
	C892.133667,884.470398 900.489807,876.720276 908.971741,869.276245 
	C912.170349,866.468994 913.392578,862.336365 910.504761,858.481323 
	C907.767761,854.827454 903.915344,855.086060 900.146179,856.894226 
	C898.051880,857.898926 896.042786,859.102478 894.069275,860.334961 
	C868.957642,876.017090 842.636108,888.985840 813.016113,896.509766 
z"/>
<path fill="#9070CE" opacity="1.000000" stroke="none" 
	d="
M491.839539,460.080994 
	C481.219574,440.218018 474.817535,419.419647 474.295776,397.273468 
	C473.353546,357.281158 497.385651,322.081696 539.157837,317.773804 
	C572.480469,314.337311 601.028809,332.311188 613.895203,365.012878 
	C615.110168,368.100800 616.108582,371.289948 616.978760,374.494232 
	C618.976929,381.851868 623.643066,385.925201 630.217651,385.837280 
	C636.655640,385.751190 641.075073,381.763397 643.101379,374.695282 
	C649.599731,352.027069 661.984985,333.911560 684.054993,323.926636 
	C727.925476,304.078796 776.460083,329.577087 784.862793,376.993958 
	C789.212280,401.538727 784.589722,425.055115 774.730225,447.660828 
	C762.195923,476.399384 743.644531,501.143829 723.084534,524.479919 
	C696.338196,554.837524 665.968201,581.337708 634.724792,606.892029 
	C632.152771,608.995728 630.080383,609.935608 626.952942,607.434998 
	C583.216125,572.464233 541.873108,535.109924 509.488403,488.934021 
	C503.097778,479.821838 497.800507,469.942841 491.839539,460.080994 
z"/>
<path fill="#9070CE" opacity="1.000000" stroke="none" 
	d="
M607.836792,734.509766 
	C604.817261,732.977478 602.012451,731.812073 599.564819,730.127747 
	C578.774658,715.820740 555.531494,713.013367 531.216980,715.623291 
	C521.465820,716.670044 511.795502,718.455078 502.069672,719.765442 
	C500.486603,719.978821 498.753326,719.672058 497.178375,719.263062 
	C465.720734,711.094177 434.561066,701.849854 404.944183,688.383728 
	C393.058685,682.979614 382.073242,675.435242 371.120758,668.195435 
	C363.603577,663.226440 360.619171,649.087280 363.718597,638.325989 
	C368.053680,623.274597 378.954498,613.977539 391.994873,606.902100 
	C414.528351,594.675903 439.145050,588.439331 464.120636,584.182800 
	C490.336334,579.715027 516.805481,576.720581 543.192200,573.300598 
	C544.951477,573.072693 547.314758,574.264893 548.783264,575.516724 
	C572.729004,595.929565 596.509033,616.537048 620.487793,636.910706 
	C627.119751,642.545654 633.899231,642.480957 640.394836,636.926697 
	C664.186401,616.583069 687.824463,596.059937 711.599976,575.697449 
	C712.938110,574.551453 715.052979,573.503845 716.699646,573.645996 
	C749.751282,576.499756 782.635132,580.775085 814.562500,589.996521 
	C828.387878,593.989685 841.900269,599.503235 854.949097,605.618591 
	C866.580383,611.069580 875.061523,620.291931 878.952209,633.044189 
	C882.512207,644.712585 878.966309,652.970520 868.935181,659.703674 
	C857.497375,667.381104 844.803162,672.323853 832.585815,678.362366 
	C812.606262,688.237549 792.965637,698.832214 773.483704,709.665833 
	C763.992188,714.943787 754.720520,718.770325 743.405945,718.372559 
	C720.362122,717.562561 698.317444,723.848999 676.165039,729.381653 
	C663.132812,732.636475 649.809204,735.285278 636.460632,736.519653 
	C627.183594,737.377625 617.641113,735.365784 607.836792,734.509766 
z"/>
<path fill="#8F70CE" opacity="1.000000" stroke="none" 
	d="
M303.968567,624.018982 
	C301.091736,620.421814 298.427094,617.108215 295.140137,613.020752 
	C297.759918,613.020752 299.370941,613.456787 300.569061,612.938416 
	C304.071869,611.422791 308.911469,610.426331 310.580688,607.640564 
	C327.425323,579.528870 352.593231,562.243591 382.541443,550.951233 
	C393.285065,546.900269 404.134644,543.130371 414.936218,539.233093 
	C415.718964,538.950684 416.523621,538.720459 417.285980,538.391418 
	C422.403625,536.182617 425.379211,531.616150 424.301392,527.662781 
	C423.100311,523.257202 418.932098,520.384338 413.254578,521.251526 
	C375.197388,527.064331 339.516449,538.582886 312.130249,567.401184 
	C304.913269,574.995544 299.557617,584.483154 294.079895,593.544312 
	C291.909607,597.134338 291.733612,601.929932 290.636444,606.228088 
	C290.653198,606.242126 289.797394,605.841492 289.433075,605.173035 
	C283.547516,594.375000 277.633575,583.589783 272.001099,572.659973 
	C271.288116,571.276367 271.428436,568.538147 272.358154,567.372314 
	C278.142365,560.119263 284.260284,553.132141 290.275085,546.063232 
	C310.677582,522.085022 336.406403,509.690338 368.105133,509.626038 
	C373.223053,509.615662 378.712372,508.285126 383.390167,506.157867 
	C410.200409,493.965576 438.066528,485.212402 466.879059,479.329895 
	C469.425598,478.809998 471.497375,478.700836 473.142944,481.622589 
	C486.616547,505.545410 503.666992,526.853699 521.692200,547.433472 
	C522.110718,547.911316 522.428284,548.477661 523.304932,549.739990 
	C513.958557,550.893433 505.144562,551.810791 496.383850,553.092651 
	C463.087585,557.964600 429.952484,563.675964 398.456848,576.101379 
	C380.763031,583.081726 364.689728,592.676025 352.440063,607.714905 
	C342.502686,619.914978 336.982971,633.651611 337.739319,649.601440 
	C337.786530,650.597351 337.752014,651.600342 337.690002,652.595947 
	C337.672791,652.872131 337.419617,653.133606 337.047760,653.821960 
	C324.587677,645.563171 314.196320,635.146545 303.968567,624.018982 
z"/>
<path fill="#9070CE" opacity="1.000000" stroke="none" 
	d="
M973.260864,548.808594 
	C978.475037,552.431274 979.386719,554.904358 976.609741,561.361267 
	C962.927734,593.174438 944.535400,621.592957 916.554199,642.866821 
	C912.927063,645.624512 908.767334,647.681580 904.741882,650.131653 
	C904.299377,643.603516 904.432068,637.749756 903.427917,632.097900 
	C899.072693,607.585205 883.717712,591.595276 862.343750,580.647461 
	C841.099731,569.766296 818.205811,563.753906 794.970886,559.189941 
	C776.050537,555.473511 756.939453,552.728394 737.350159,549.458618 
	C739.279968,547.077148 741.096985,544.640198 743.111633,542.379456 
	C759.665100,523.803223 774.778137,504.154907 787.172546,482.537933 
	C789.174988,479.045502 791.187866,478.309906 795.069519,479.003571 
	C814.828491,482.534332 834.344299,486.762177 851.482849,497.899780 
	C857.607727,501.880066 863.605103,506.238098 868.947021,511.193054 
	C874.928040,516.740906 882.205872,516.123840 889.162048,516.718567 
	C920.171143,519.369751 948.153198,529.757202 973.260864,548.808594 
M880.652893,556.833984 
	C887.062439,560.693970 893.722229,564.197815 899.828735,568.489075 
	C912.093384,577.107788 921.868774,588.141541 929.895996,600.813843 
	C933.722717,606.854980 939.699158,608.686157 944.842407,606.069336 
	C949.842834,603.525330 951.662842,597.459717 949.035583,590.762878 
	C947.585815,587.067444 945.803894,583.433777 943.683044,580.081482 
	C930.802856,559.723328 912.425903,545.885132 890.871521,535.806396 
	C875.388672,528.566772 859.285583,523.496704 842.310242,521.347717 
	C838.189026,520.825989 834.534302,521.989258 832.698669,525.993286 
	C830.735168,530.276123 832.471252,533.898132 835.974670,536.490540 
	C838.075684,538.045288 840.631653,539.021179 843.052551,540.101685 
	C855.354370,545.592346 867.678772,551.032288 880.652893,556.833984 
z"/>
<path fill="#9172CE" opacity="1.000000" stroke="none" 
	d="
M380.036499,892.954773 
	C377.551880,892.161377 374.840759,891.768311 372.618561,890.511108 
	C355.248688,880.683716 337.932709,870.758667 320.711670,860.673218 
	C318.187988,859.195190 316.001587,856.921326 314.100433,854.646851 
	C310.334503,850.141235 306.869812,845.486816 300.398560,844.591675 
	C299.106873,844.413025 297.909485,843.001953 296.820068,841.995239 
	C283.316467,829.517090 270.872864,816.091980 261.047852,800.474915 
	C258.540405,796.489319 256.954987,791.923645 255.657440,786.920532 
	C258.164612,788.347412 260.603027,789.915100 263.190063,791.178406 
	C280.226074,799.497314 297.260742,807.821045 314.389893,815.944885 
	C316.795868,817.085938 317.273987,818.438049 318.095276,820.857849 
	C319.932129,826.269775 322.496124,831.648926 325.793335,836.313843 
	C339.349701,855.493469 356.865265,870.994995 373.872528,886.945984 
	C375.815521,888.768250 377.766510,890.581970 379.859070,892.694580 
	C380.004364,892.989441 380.036499,892.954773 380.036499,892.954773 
z"/>
<path fill="#9070CF" opacity="1.000000" stroke="none" 
	d="
M979.217712,520.784668 
	C979.477905,520.900330 979.627563,521.127930 979.777222,521.355469 
	C979.551941,521.400818 979.326660,521.446106 978.995605,521.307861 
	C978.889893,521.124268 979.107117,520.896606 979.217712,520.784668 
z"/>
<path fill="#9172CE" opacity="1.000000" stroke="none" 
	d="
M379.984985,893.002930 
	C380.081238,893.082458 380.196808,893.148499 380.312439,893.214600 
	C380.223297,893.232605 380.134125,893.250610 380.040710,893.111694 
	C380.036499,892.954773 380.004364,892.989441 379.984985,893.002930 
z"/>
<path fill="#FCFBFD" opacity="1.000000" stroke="none" 
	d="
M909.251099,791.259338 
	C919.412109,783.766479 929.884338,776.656372 939.669128,768.700745 
	C959.676758,752.433594 976.634949,733.208374 992.165405,712.690674 
	C993.974609,710.300537 995.801025,707.915649 997.753113,705.643127 
	C1001.820312,700.908508 1005.662231,699.934265 1009.948364,702.401550 
	C1014.025940,704.748779 1015.542969,709.914917 1013.348755,715.170654 
	C1007.735168,728.616516 1000.572388,741.154297 991.094971,752.300903 
	C958.341614,790.822510 918.062256,819.193787 872.268677,839.991333 
	C858.026428,846.459534 843.285034,851.831055 829.064148,858.342407 
	C823.754944,860.773254 818.773010,864.489441 814.506897,868.532410 
	C792.548828,889.341248 766.458435,902.277222 737.538269,910.128662 
	C723.561646,913.923157 709.683289,918.082581 695.689270,921.809509 
	C687.616699,923.959412 681.684631,921.271973 680.094421,915.352295 
	C678.335754,908.805847 682.245728,902.655518 689.935608,900.324280 
	C702.517761,896.509949 715.191040,892.992859 727.746826,889.095764 
	C737.596069,886.038696 747.337036,882.629150 757.099060,879.296936 
	C758.908447,878.679321 760.589050,877.684326 762.086487,876.320190 
	C753.817749,876.802673 745.554626,877.538025 737.279297,877.722717 
	C705.850281,878.424072 675.470764,874.322876 647.882324,857.705566 
	C641.751953,854.013000 635.500732,850.486572 629.092773,847.312256 
	C627.353027,846.450500 624.545593,846.468811 622.724121,847.245789 
	C605.467163,854.606689 587.611450,859.812134 569.046448,862.423706 
	C548.325012,865.338623 527.851868,864.068604 507.849792,857.671082 
	C504.915802,856.732666 501.981445,855.170044 499.626099,853.203064 
	C496.542084,850.627502 494.964813,846.961548 496.637054,842.907410 
	C498.325836,838.813232 501.744598,836.479431 506.133087,836.974548 
	C514.058655,837.868591 521.891907,839.596985 529.820557,840.445496 
	C552.803101,842.905090 575.278381,840.491821 597.500549,831.632629 
	C585.092773,827.097046 572.929932,821.658142 560.226501,818.212830 
	C533.246704,810.895874 505.934723,804.814575 478.853668,797.857910 
	C449.835510,790.403748 421.856659,780.298950 397.036987,762.976807 
	C391.180756,758.889648 385.554565,754.406738 380.218842,749.660400 
	C375.795654,745.725647 375.229645,740.990173 377.826874,737.195984 
	C380.586884,733.163940 384.589081,732.371643 390.231598,734.830933 
	C391.752441,735.493774 393.192169,736.348145 394.649628,737.150024 
	C401.800018,741.084167 408.888489,745.134705 416.099548,748.953979 
	C447.598206,765.637390 481.547577,775.157715 516.095520,782.820862 
	C548.172974,789.935974 579.980835,797.816467 609.494629,812.868103 
	C610.681641,813.473450 612.056335,813.852234 613.040527,814.691772 
	C621.628418,822.017456 629.778564,820.229431 639.301941,815.494568 
	C661.818726,804.299438 685.021545,794.547852 709.717346,788.971558 
	C713.284790,788.166016 716.870361,787.316589 720.494934,786.916199 
	C726.660400,786.234924 730.622192,788.429932 731.800171,792.743347 
	C733.019531,797.208313 730.465454,801.680359 724.944946,803.974731 
	C715.875977,807.743835 706.684204,811.216492 697.595093,814.938354 
	C682.523560,821.109863 667.492493,827.379883 652.444336,833.608337 
	C652.346741,834.162842 652.249146,834.717346 652.151550,835.271851 
	C661.733154,839.529358 671.114685,844.333435 680.938110,847.930481 
	C701.340332,855.401184 722.728943,856.649841 744.046082,854.554260 
	C762.540222,852.736267 780.842224,848.950439 799.217773,845.964294 
	C800.831909,845.701904 802.719543,845.327454 803.874695,844.314575 
	C814.899048,834.648621 829.195190,831.988525 842.055420,826.278503 
	C847.682983,823.779846 853.450623,821.594116 859.053040,819.043213 
	C860.624329,818.327820 862.109436,817.029663 863.168396,815.643188 
	C874.386475,800.955627 885.332703,786.056458 896.749817,771.526855 
	C901.152283,765.924316 906.472107,761.021301 911.572876,756.001709 
	C913.184753,754.415588 915.305908,753.105835 917.435181,752.340210 
	C921.109802,751.018799 924.757996,751.289062 927.272522,754.844666 
	C929.968628,758.656982 929.176086,762.455322 926.639526,765.967712 
	C920.792175,774.064392 914.848450,782.091553 908.686707,790.603516 
	C908.478577,791.304504 908.527588,791.548889 908.576660,791.793335 
	C908.801453,791.615356 909.026306,791.437378 909.251099,791.259338 
z"/>
<path fill="#FBFAFD" opacity="1.000000" stroke="none" 
	d="
M813.387939,896.377625 
	C842.636108,888.985840 868.957642,876.017090 894.069275,860.334961 
	C896.042786,859.102478 898.051880,857.898926 900.146179,856.894226 
	C903.915344,855.086060 907.767761,854.827454 910.504761,858.481323 
	C913.392578,862.336365 912.170349,866.468994 908.971741,869.276245 
	C900.489807,876.720276 892.133667,884.470398 882.838318,890.790955 
	C863.013062,904.271484 840.742859,911.982117 817.165710,915.999817 
	C808.761414,917.431946 803.520020,914.992920 802.324402,909.071228 
	C801.134949,903.180298 805.043091,898.588806 813.387939,896.377625 
z"/>
<path fill="#FCFBFD" opacity="1.000000" stroke="none" 
	d="
M880.324097,556.661987 
	C867.678772,551.032288 855.354370,545.592346 843.052551,540.101685 
	C840.631653,539.021179 838.075684,538.045288 835.974670,536.490540 
	C832.471252,533.898132 830.735168,530.276123 832.698669,525.993286 
	C834.534302,521.989258 838.189026,520.825989 842.310242,521.347717 
	C859.285583,523.496704 875.388672,528.566772 890.871521,535.806396 
	C912.425903,545.885132 930.802856,559.723328 943.683044,580.081482 
	C945.803894,583.433777 947.585815,587.067444 949.035583,590.762878 
	C951.662842,597.459717 949.842834,603.525330 944.842407,606.069336 
	C939.699158,608.686157 933.722717,606.854980 929.895996,600.813843 
	C921.868774,588.141541 912.093384,577.107788 899.828735,568.489075 
	C893.722229,564.197815 887.062439,560.693970 880.324097,556.661987 
z"/>
<path fill="#9071CE" opacity="1.000000" stroke="none" 
	d="
M909.142578,791.150208 
	C909.026306,791.437378 908.801453,791.615356 908.576660,791.793335 
	C908.527588,791.548889 908.478577,791.304504 908.621338,790.943359 
	C908.813171,790.826538 909.034058,791.041016 909.142578,791.150208 
z"/>
</svg>
