<svg version="1.1" id="Layer_1" xmlns="http://www.w3.org/2000/svg" xmlns:xlink="http://www.w3.org/1999/xlink" x="0px" y="0px"
	 width="100%" viewBox="0 0 1672 941" enable-background="new 0 0 1672 941" xml:space="preserve">
<path fill="#FEFEFE" opacity="1.000000" stroke="none" 
	d="
M1196.000000,942.000000 
	C797.333313,942.000000 399.166656,942.000000 1.000000,942.000000 
	C1.000000,628.333313 1.000000,314.666656 1.000000,1.000000 
	C558.333313,1.000000 1115.666626,1.000000 1673.000000,1.000000 
	C1673.000000,314.666656 1673.000000,628.333313 1673.000000,942.000000 
	C1514.166626,942.000000 1355.333374,942.000000 1196.000000,942.000000 
M1132.846558,722.341858 
	C1146.030640,699.001160 1152.159912,674.275024 1149.206177,647.262939 
	C1146.621338,623.623047 1137.807007,602.717163 1122.303223,585.151855 
	C1096.413452,555.819519 1063.534546,543.338562 1024.476318,547.990662 
	C1003.775757,550.456238 985.541992,558.750000 969.604309,572.057129 
	C967.121460,574.130127 965.555908,574.320801 963.398621,571.930786 
	C959.054504,567.118286 954.614380,562.389343 950.119385,557.716858 
	C939.269897,546.438965 928.362610,535.216675 917.493896,523.957275 
	C916.943970,523.387512 916.537476,522.679260 916.088501,522.068665 
	C916.466248,521.414673 916.662292,520.956909 916.959106,520.578064 
	C937.595764,494.241241 944.010315,464.451172 938.064758,431.863586 
	C935.219543,416.268799 928.606384,402.181091 919.033447,389.528351 
	C917.138611,387.023987 916.258728,385.037567 919.034729,382.247589 
	C934.067688,367.138336 948.947083,351.875458 963.789429,336.578217 
	C966.140869,334.154663 968.104065,333.048462 970.744507,336.055084 
	C971.599487,337.028656 972.906738,337.590302 973.937012,338.426727 
	C991.744141,352.882812 1012.424011,359.714783 1035.038452,360.903778 
	C1050.797852,361.732391 1066.020142,358.780640 1080.956665,353.594147 
	C1102.716797,346.038300 1120.056519,332.869354 1131.964478,313.296875 
	C1149.639771,284.244843 1155.527100,252.949188 1147.281250,219.544632 
	C1143.023804,202.297272 1134.835327,187.091339 1123.363037,173.495117 
	C1112.768555,160.939392 1100.214355,150.966522 1085.275513,144.367798 
	C1064.981445,135.403610 1043.810669,132.139252 1021.652405,135.941254 
	C998.399536,139.931046 978.523621,150.430847 961.998901,166.903488 
	C951.108459,177.759613 942.807129,190.677856 937.040833,205.052948 
	C929.053223,224.965775 926.903259,245.588242 930.507507,266.672272 
	C933.462952,283.960571 940.385925,299.765900 950.566345,314.021088 
	C953.308472,317.860748 952.728027,320.032806 949.513977,323.148560 
	C937.909058,334.398529 926.563843,345.918671 915.220093,357.434845 
	C910.831543,361.890045 906.708618,366.606812 902.386841,371.288605 
	C882.695007,355.198578 860.579224,347.337372 836.092346,347.210938 
	C811.543213,347.084137 789.696594,355.767731 770.311768,371.119934 
	C754.276062,354.645599 738.827881,338.552917 723.070435,322.769073 
	C719.821289,319.514465 720.098206,317.363251 722.533997,314.005249 
	C741.392090,288.006958 748.719421,259.252747 743.103943,227.372345 
	C737.852112,197.556732 723.462891,173.030106 699.637207,154.619095 
	C676.132385,136.455933 648.731201,130.645508 619.670105,134.286163 
	C592.623047,137.674469 569.128052,148.747589 551.199585,170.201385 
	C529.040955,196.717041 519.263794,227.274475 523.383606,261.351929 
	C527.154297,292.542419 542.216614,318.460205 567.300659,337.473724 
	C593.832031,357.584290 623.956848,364.175598 656.762878,357.183105 
	C673.134277,353.693634 688.007812,346.892120 701.075623,336.438690 
	C704.890808,333.386780 707.337280,334.002197 710.079956,337.565857 
	C712.301514,340.452454 714.803772,343.146790 717.369385,345.740601 
	C729.323059,357.825592 741.287109,369.901642 753.384094,381.842346 
	C755.783142,384.210327 756.383911,385.982330 754.431335,389.076996 
	C749.837097,396.358826 744.930786,403.591278 741.509460,411.436279 
	C733.216919,430.450592 730.953674,450.424347 734.520935,470.930664 
	C737.412292,487.551392 743.709900,502.818817 753.471252,516.581787 
	C755.153259,518.953308 755.175903,520.660461 753.242004,522.664734 
	C750.241211,525.774658 747.384827,529.026733 744.329712,532.081055 
	C731.143188,545.263977 717.906677,558.396912 704.605286,571.630737 
	C702.786255,570.314453 701.007568,569.121887 699.330872,567.800049 
	C672.626831,546.748291 642.369690,539.980713 609.339355,546.573914 
	C584.334412,551.565125 563.782471,564.508179 547.878113,584.602356 
	C529.374023,607.981079 521.094666,634.421936 522.824524,664.296997 
	C523.769409,680.615845 528.239685,695.643799 535.981750,709.820251 
	C546.674622,729.400085 561.513489,744.965210 581.255981,755.620911 
	C599.133606,765.270203 618.284363,768.808899 638.504761,768.079163 
	C654.637024,767.496948 669.615417,763.116882 683.742676,755.713135 
	C706.379578,743.849792 722.425049,725.788818 732.736206,702.491455 
	C741.957581,681.656372 744.229126,659.870605 740.504333,637.634460 
	C737.589783,620.235168 730.845947,604.132874 720.252380,589.848511 
	C718.496948,587.481445 718.750427,585.752014 720.712402,583.756165 
	C736.005249,568.199707 751.289368,552.634216 766.479675,536.977844 
	C768.825806,534.559692 770.361023,535.063538 772.724915,537.011963 
	C776.686829,540.277466 780.821045,543.459595 785.277466,545.978394 
	C808.638733,559.182190 833.444763,563.328247 859.757385,557.181458 
	C873.389404,553.997070 885.812134,548.180115 896.869690,539.629211 
	C900.427734,536.877747 902.943298,536.749451 905.956909,540.380676 
	C909.771973,544.977600 913.969116,549.272217 918.168213,553.532898 
	C928.696106,564.215271 939.323364,574.799744 949.894348,585.439758 
	C951.018860,586.571533 952.034790,587.811096 953.061462,588.956482 
	C939.163452,607.137451 931.105042,627.186035 929.195435,649.353699 
	C927.067810,674.052917 932.425537,697.281555 945.373169,718.590759 
	C956.871643,737.514832 972.372070,752.175537 992.239258,762.038208 
	C1020.987610,776.309875 1050.739258,775.578125 1080.516479,766.499756 
	C1103.719971,759.425598 1120.057861,743.333679 1132.846558,722.341858 
z"/>
<path fill="#DBBBF8" opacity="1.000000" stroke="none" 
	d="
M1132.672119,722.662842 
	C1120.057861,743.333679 1103.719971,759.425598 1080.516479,766.499756 
	C1050.739258,775.578125 1020.987610,776.309875 992.239258,762.038208 
	C972.372070,752.175537 956.871643,737.514832 945.373169,718.590759 
	C932.425537,697.281555 927.067810,674.052917 929.195435,649.353699 
	C931.105042,627.186035 939.163452,607.137451 953.061462,588.956482 
	C952.034790,587.811096 951.018860,586.571533 949.894348,585.439758 
	C939.323364,574.799744 928.696106,564.215271 918.168213,553.532898 
	C913.969116,549.272217 909.771973,544.977600 905.956909,540.380676 
	C902.943298,536.749451 900.427734,536.877747 896.869690,539.629211 
	C885.812134,548.180115 873.389404,553.997070 859.757385,557.181458 
	C833.444763,563.328247 808.638733,559.182190 785.277466,545.978394 
	C780.821045,543.459595 776.686829,540.277466 772.724915,537.011963 
	C770.361023,535.063538 768.825806,534.559692 766.479675,536.977844 
	C751.289368,552.634216 736.005249,568.199707 720.712402,583.756165 
	C718.750427,585.752014 718.496948,587.481445 720.252380,589.848511 
	C730.845947,604.132874 737.589783,620.235168 740.504333,637.634460 
	C744.229126,659.870605 741.957581,681.656372 732.736206,702.491455 
	C722.425049,725.788818 706.379578,743.849792 683.742676,755.713135 
	C669.615417,763.116882 654.637024,767.496948 638.504761,768.079163 
	C618.284363,768.808899 599.133606,765.270203 581.255981,755.620911 
	C561.513489,744.965210 546.674622,729.400085 535.981750,709.820251 
	C528.239685,695.643799 523.769409,680.615845 522.824524,664.296997 
	C521.094666,634.421936 529.374023,607.981079 547.878113,584.602356 
	C563.782471,564.508179 584.334412,551.565125 609.339355,546.573914 
	C642.369690,539.980713 672.626831,546.748291 699.330872,567.800049 
	C701.007568,569.121887 702.786255,570.314453 704.605286,571.630737 
	C717.906677,558.396912 731.143188,545.263977 744.329712,532.081055 
	C747.384827,529.026733 750.241211,525.774658 753.242004,522.664734 
	C755.175903,520.660461 755.153259,518.953308 753.471252,516.581787 
	C743.709900,502.818817 737.412292,487.551392 734.520935,470.930664 
	C730.953674,450.424347 733.216919,430.450592 741.509460,411.436279 
	C744.930786,403.591278 749.837097,396.358826 754.431335,389.076996 
	C756.383911,385.982330 755.783142,384.210327 753.384094,381.842346 
	C741.287109,369.901642 729.323059,357.825592 717.369385,345.740601 
	C714.803772,343.146790 712.301514,340.452454 710.079956,337.565857 
	C707.337280,334.002197 704.890808,333.386780 701.075623,336.438690 
	C688.007812,346.892120 673.134277,353.693634 656.762878,357.183105 
	C623.956848,364.175598 593.832031,357.584290 567.300659,337.473724 
	C542.216614,318.460205 527.154297,292.542419 523.383606,261.351929 
	C519.263794,227.274475 529.040955,196.717041 551.199585,170.201385 
	C569.128052,148.747589 592.623047,137.674469 619.670105,134.286163 
	C648.731201,130.645508 676.132385,136.455933 699.637207,154.619095 
	C723.462891,173.030106 737.852112,197.556732 743.103943,227.372345 
	C748.719421,259.252747 741.392090,288.006958 722.533997,314.005249 
	C720.098206,317.363251 719.821289,319.514465 723.070435,322.769073 
	C738.827881,338.552917 754.276062,354.645599 770.311768,371.119934 
	C789.696594,355.767731 811.543213,347.084137 836.092346,347.210938 
	C860.579224,347.337372 882.695007,355.198578 902.386841,371.288605 
	C906.708618,366.606812 910.831543,361.890045 915.220093,357.434845 
	C926.563843,345.918671 937.909058,334.398529 949.513977,323.148560 
	C952.728027,320.032806 953.308472,317.860748 950.566345,314.021088 
	C940.385925,299.765900 933.462952,283.960571 930.507507,266.672272 
	C926.903259,245.588242 929.053223,224.965775 937.040833,205.052948 
	C942.807129,190.677856 951.108459,177.759613 961.998901,166.903488 
	C978.523621,150.430847 998.399536,139.931046 1021.652405,135.941254 
	C1043.810669,132.139252 1064.981445,135.403610 1085.275513,144.367798 
	C1100.214355,150.966522 1112.768555,160.939392 1123.363037,173.495117 
	C1134.835327,187.091339 1143.023804,202.297272 1147.281250,219.544632 
	C1155.527100,252.949188 1149.639771,284.244843 1131.964478,313.296875 
	C1120.056519,332.869354 1102.716797,346.038300 1080.956665,353.594147 
	C1066.020142,358.780640 1050.797852,361.732391 1035.038452,360.903778 
	C1012.424011,359.714783 991.744141,352.882812 973.937012,338.426727 
	C972.906738,337.590302 971.599487,337.028656 970.744507,336.055084 
	C968.104065,333.048462 966.140869,334.154663 963.789429,336.578217 
	C948.947083,351.875458 934.067688,367.138336 919.034729,382.247589 
	C916.258728,385.037567 917.138611,387.023987 919.033447,389.528351 
	C928.606384,402.181091 935.219543,416.268799 938.064758,431.863586 
	C944.010315,464.451172 937.595764,494.241241 916.959106,520.578064 
	C916.662292,520.956909 916.466248,521.414673 916.088501,522.068665 
	C916.537476,522.679260 916.943970,523.387512 917.493896,523.957275 
	C928.362610,535.216675 939.269897,546.438965 950.119385,557.716858 
	C954.614380,562.389343 959.054504,567.118286 963.398621,571.930786 
	C965.555908,574.320801 967.121460,574.130127 969.604309,572.057129 
	C985.541992,558.750000 1003.775757,550.456238 1024.476318,547.990662 
	C1063.534546,543.338562 1096.413452,555.819519 1122.303223,585.151855 
	C1137.807007,602.717163 1146.621338,623.623047 1149.206177,647.262939 
	C1152.159912,674.275024 1146.030640,699.001160 1132.672119,722.662842 
M779.401489,515.862061 
	C794.649597,530.781128 812.942261,538.317993 834.260010,539.114990 
	C848.372803,539.642700 861.773193,536.902466 874.009338,530.227539 
	C880.965088,526.433105 886.870850,520.713745 893.887756,515.760620 
	C894.809082,515.072144 895.860107,514.504700 896.632507,513.677307 
	C911.520813,497.727844 919.631348,478.737671 920.758057,457.057678 
	C921.927368,434.556946 913.865234,414.947815 899.775879,397.783264 
	C870.415222,362.014252 820.122253,356.581879 784.075623,386.871887 
	C759.075562,407.879364 748.733276,435.542419 754.144653,468.124329 
	C757.188049,486.448883 765.320007,502.481293 779.401489,515.862061 
M575.044800,725.640686 
	C581.679993,730.141357 587.836731,735.705444 595.038757,738.946411 
	C618.082031,749.315796 641.797302,750.343262 665.495911,740.934326 
	C674.876160,737.210144 683.958069,732.718384 691.621765,724.939270 
	C692.923340,723.949524 694.388550,723.115601 695.502380,721.946899 
	C717.538269,698.825012 726.006653,671.120605 720.582092,639.996094 
	C716.216003,614.945190 702.730652,594.698669 681.616821,580.204895 
	C664.178040,568.233887 644.797729,563.743958 623.557373,565.822937 
	C604.872009,567.651733 588.124756,574.115906 574.420349,586.426086 
	C551.431152,607.076416 539.999023,632.937073 542.893982,664.473206 
	C544.455933,681.489014 550.085144,696.850830 560.349304,710.330139 
	C564.475464,715.748840 569.989380,720.110901 575.044800,725.640686 
M1096.529053,730.703674 
	C1124.022461,705.726379 1135.443604,675.266724 1126.896240,638.594299 
	C1117.856079,599.808533 1087.301514,572.322937 1048.132935,568.265320 
	C1009.062500,564.217957 973.200378,585.391357 957.403503,621.060364 
	C943.200378,653.130676 946.326477,683.649841 965.927917,712.421753 
	C969.640137,717.870728 975.119629,722.115723 979.981018,727.604431 
	C980.762268,728.651550 981.370667,729.909119 982.350708,730.714294 
	C996.134705,742.037903 1011.880127,749.095398 1029.619751,750.886841 
	C1054.348022,753.384033 1076.515625,746.603943 1096.529053,730.703674 
M980.929626,316.702454 
	C981.376465,317.386841 981.691589,318.226654 982.289307,318.732910 
	C997.606934,331.706360 1015.333008,339.005157 1035.343872,339.872528 
	C1058.441772,340.873718 1079.121582,333.966187 1097.543579,318.704712 
	C1116.534790,302.703888 1127.439453,282.256531 1129.876343,257.653137 
	C1132.269897,233.485962 1125.913086,211.508804 1111.298340,191.995285 
	C1093.944946,168.825241 1070.702881,156.303726 1041.921997,155.224945 
	C1021.341797,154.453522 1002.538635,160.812698 986.193176,173.614288 
	C963.272888,191.565170 950.710815,215.149460 949.112488,244.196121 
	C947.840088,267.320190 955.690063,287.736206 969.733215,305.804260 
	C972.766174,309.706451 977.045227,312.640076 980.929626,316.702454 
M692.795288,316.820343 
	C693.362427,316.493530 694.024963,316.266022 694.482910,315.825653 
	C715.961243,295.169586 726.548462,270.250549 724.170654,240.203217 
	C721.936707,211.974289 709.002747,189.555054 686.835266,172.469086 
	C666.958801,157.148926 644.225281,152.111465 619.573120,155.952972 
	C595.927307,159.637665 576.941467,171.598816 562.434570,190.321289 
	C548.761963,207.966980 541.614319,228.334244 542.395020,250.661240 
	C543.027344,268.742889 548.880859,285.667572 559.815735,300.278748 
	C564.396545,306.399689 570.435181,311.429688 576.167419,317.551666 
	C581.381531,321.339874 586.232666,325.815002 591.873352,328.796082 
	C614.997986,341.017426 639.204590,341.936707 663.747253,333.817780 
	C674.339355,330.313812 684.198425,325.090027 692.795288,316.820343 
z"/>
<path fill="#FD739B" opacity="1.000000" stroke="none" 
	d="
M575.811035,316.955658 
	C570.435181,311.429688 564.396545,306.399689 559.815735,300.278748 
	C548.880859,285.667572 543.027344,268.742889 542.395020,250.661240 
	C541.614319,228.334244 548.761963,207.966980 562.434570,190.321289 
	C576.941467,171.598816 595.927307,159.637665 619.573120,155.952972 
	C644.225281,152.111465 666.958801,157.148926 686.835266,172.469086 
	C709.002747,189.555054 721.936707,211.974289 724.170654,240.203217 
	C726.548462,270.250549 715.961243,295.169586 694.482910,315.825653 
	C694.024963,316.266022 693.362427,316.493530 692.433960,316.427460 
	C691.682800,301.087494 685.119324,289.788696 671.780151,282.911774 
	C666.198914,280.034393 660.240967,277.805969 654.292542,275.750793 
	C650.253967,274.355438 649.876709,271.113342 649.262390,267.900116 
	C648.749451,265.216614 649.142822,263.100128 651.889160,261.124969 
	C660.427368,254.984177 665.626709,246.194336 668.251770,236.242767 
	C669.381165,231.961227 668.102234,227.076248 668.131958,222.466812 
	C668.219971,208.836243 662.155029,198.595306 650.374512,192.258224 
	C638.252258,185.737320 625.931519,186.530518 614.342102,194.036438 
	C598.731323,204.146759 599.117371,220.245209 599.715027,235.943848 
	C599.868713,239.979614 602.854492,244.157181 605.258423,247.794281 
	C608.244263,252.311935 611.493103,256.897369 615.544800,260.390594 
	C618.638123,263.057556 619.082642,265.464752 618.584961,269.002777 
	C617.831421,274.359894 614.030273,275.672546 609.620850,276.885681 
	C587.533081,282.962524 576.468323,296.173859 575.811035,316.955658 
z"/>
<path fill="#FED965" opacity="1.000000" stroke="none" 
	d="
M980.750366,316.019836 
	C977.045227,312.640076 972.766174,309.706451 969.733215,305.804260 
	C955.690063,287.736206 947.840088,267.320190 949.112488,244.196121 
	C950.710815,215.149460 963.272888,191.565170 986.193176,173.614288 
	C1002.538635,160.812698 1021.341797,154.453522 1041.921997,155.224945 
	C1070.702881,156.303726 1093.944946,168.825241 1111.298340,191.995285 
	C1125.913086,211.508804 1132.269897,233.485962 1129.876343,257.653137 
	C1127.439453,282.256531 1116.534790,302.703888 1097.232666,318.446228 
	C1096.668701,316.376251 1096.244141,314.569824 1096.190308,312.752411 
	C1095.817993,300.176117 1089.933594,290.717804 1079.251343,284.601776 
	C1073.105713,281.083099 1066.329224,278.609558 1059.702759,276.006653 
	C1055.256836,274.260315 1051.630981,265.537048 1055.094482,262.970490 
	C1061.874023,257.946350 1066.792969,251.571167 1070.302979,244.204071 
	C1072.291382,240.030624 1073.210693,235.208313 1073.836914,230.573639 
	C1074.268433,227.379776 1073.159302,224.010010 1073.106079,220.712921 
	C1072.839844,204.226059 1061.223633,191.167908 1044.090576,188.257416 
	C1028.460815,185.602295 1011.170166,195.297241 1007.013794,210.388641 
	C1004.763367,218.559418 1004.825989,227.404373 1004.246338,235.972336 
	C1004.100098,238.134567 1004.971252,240.786026 1006.272705,242.550339 
	C1010.964478,248.910431 1016.090271,254.948578 1020.928833,261.203613 
	C1021.946411,262.519043 1022.989197,264.205261 1023.084900,265.777588 
	C1023.562622,273.625244 1022.668457,274.623749 1014.354553,276.927368 
	C992.497559,282.983429 981.286499,296.025452 980.750366,316.019836 
z"/>
<path fill="#FD729B" opacity="1.000000" stroke="none" 
	d="
M979.783691,726.916260 
	C975.119629,722.115723 969.640137,717.870728 965.927917,712.421753 
	C946.326477,683.649841 943.200378,653.130676 957.403503,621.060364 
	C973.200378,585.391357 1009.062500,564.217957 1048.132935,568.265320 
	C1087.301514,572.322937 1117.856079,599.808533 1126.896240,638.594299 
	C1135.443604,675.266724 1124.022461,705.726379 1096.193848,730.435303 
	C1095.525757,727.191650 1095.217651,724.213257 1094.855469,721.241577 
	C1093.523804,710.317749 1088.425049,701.566650 1078.855957,696.105774 
	C1072.700195,692.592834 1066.091187,689.694336 1059.386841,687.388916 
	C1055.298218,685.982910 1053.952637,683.375244 1053.274048,679.837402 
	C1052.612671,676.389587 1053.414551,673.913879 1056.561035,671.330078 
	C1065.029663,664.376038 1071.603149,655.663513 1072.980103,644.483337 
	C1073.694214,638.684753 1072.793945,632.566284 1071.871216,626.710815 
	C1069.518311,611.781494 1057.939941,601.221802 1042.334595,599.213318 
	C1028.133301,597.385498 1013.164490,605.293762 1007.138367,617.854919 
	C1002.652588,627.205261 1002.597900,637.457397 1003.672913,647.148804 
	C1004.703918,656.443176 1010.727783,664.412170 1018.162476,670.157959 
	C1022.547974,673.547058 1022.415039,677.117981 1021.956238,681.440247 
	C1021.480408,685.922668 1017.948669,686.393372 1014.527832,687.484863 
	C992.971252,694.362732 980.269836,705.408264 979.783691,726.916260 
z"/>
<path fill="#CCA2F4" opacity="1.000000" stroke="none" 
	d="
M574.871704,724.953796 
	C569.989380,720.110901 564.475464,715.748840 560.349304,710.330139 
	C550.085144,696.850830 544.455933,681.489014 542.893982,664.473206 
	C539.999023,632.937073 551.431152,607.076416 574.420349,586.426086 
	C588.124756,574.115906 604.872009,567.651733 623.557373,565.822937 
	C644.797729,563.743958 664.178040,568.233887 681.616821,580.204895 
	C702.730652,594.698669 716.216003,614.945190 720.582092,639.996094 
	C726.006653,671.120605 717.538269,698.825012 695.502380,721.946899 
	C694.388550,723.115601 692.923340,723.949524 691.260864,724.550720 
	C690.055237,713.802734 687.524841,704.177124 679.352112,696.900391 
	C671.852966,690.223267 663.091919,685.919800 653.484558,683.397888 
	C649.608704,682.380554 648.593201,679.620361 648.137146,676.455688 
	C647.696411,673.397522 647.666199,670.784607 650.865173,668.195190 
	C659.402832,661.284119 665.834106,652.592712 667.259155,641.305908 
	C667.831299,636.774475 667.310547,632.061890 666.932495,627.460938 
	C664.612793,599.228943 635.238770,588.262451 614.474243,600.667175 
	C608.480347,604.247742 603.282166,609.032532 601.725342,615.435059 
	C599.565552,624.317627 598.127808,633.795898 598.802368,642.838501 
	C599.599182,653.519775 607.404541,661.085327 614.823914,668.409973 
	C616.501587,670.066223 617.499390,673.181763 617.485168,675.617859 
	C617.457153,680.425476 614.706177,682.800781 609.686951,684.238647 
	C588.664429,690.261169 574.397827,702.330566 574.871704,724.953796 
z"/>
<path fill="#FED966" opacity="1.000000" stroke="none" 
	d="
M779.086121,515.338806 
	C765.320007,502.481293 757.188049,486.448883 754.144653,468.124329 
	C748.733276,435.542419 759.075562,407.879364 784.075623,386.871887 
	C820.122253,356.581879 870.415222,362.014252 899.775879,397.783264 
	C913.865234,414.947815 921.927368,434.556946 920.758057,457.057678 
	C919.631348,478.737671 911.520813,497.727844 896.632507,513.677307 
	C895.860107,514.504700 894.809082,515.072144 893.544128,515.377502 
	C893.341064,505.406555 889.520447,497.552246 882.622803,491.099762 
	C875.631714,484.559753 867.151978,480.745697 858.002319,478.533875 
	C853.658691,477.483856 852.233032,474.900665 851.419617,470.943878 
	C850.649231,467.196075 852.367920,465.526917 854.943542,463.143158 
	C864.622986,454.184631 872.714417,444.207123 870.909363,429.640045 
	C870.542053,426.676392 870.456848,423.678925 870.162720,420.704865 
	C868.625549,405.158813 858.816101,394.046143 842.597961,391.608337 
	C827.136841,389.284302 813.114502,394.231262 806.669861,408.251373 
	C797.237122,428.771912 799.821716,447.432709 817.651672,462.558899 
	C821.163208,465.537964 821.231812,468.505676 820.895386,472.150085 
	C820.550110,475.890015 818.098389,477.463745 814.696289,478.288269 
	C811.958374,478.951782 809.256165,479.882385 806.655823,480.974701 
	C791.272949,487.436676 779.888733,497.157196 779.086121,515.338806 
z"/>
<path fill="#FEFCFD" opacity="1.000000" stroke="none" 
	d="
M979.882324,727.260376 
	C980.269836,705.408264 992.971252,694.362732 1014.527832,687.484863 
	C1017.948669,686.393372 1021.480408,685.922668 1021.956238,681.440247 
	C1022.415039,677.117981 1022.547974,673.547058 1018.162476,670.157959 
	C1010.727783,664.412170 1004.703918,656.443176 1003.672913,647.148804 
	C1002.597900,637.457397 1002.652588,627.205261 1007.138367,617.854919 
	C1013.164490,605.293762 1028.133301,597.385498 1042.334595,599.213318 
	C1057.939941,601.221802 1069.518311,611.781494 1071.871216,626.710815 
	C1072.793945,632.566284 1073.694214,638.684753 1072.980103,644.483337 
	C1071.603149,655.663513 1065.029663,664.376038 1056.561035,671.330078 
	C1053.414551,673.913879 1052.612671,676.389587 1053.274048,679.837402 
	C1053.952637,683.375244 1055.298218,685.982910 1059.386841,687.388916 
	C1066.091187,689.694336 1072.700195,692.592834 1078.855957,696.105774 
	C1088.425049,701.566650 1093.523804,710.317749 1094.855469,721.241577 
	C1095.217651,724.213257 1095.525757,727.191650 1095.894043,730.586426 
	C1076.515625,746.603943 1054.348022,753.384033 1029.619751,750.886841 
	C1011.880127,749.095398 996.134705,742.037903 982.350708,730.714294 
	C981.370667,729.909119 980.762268,728.651550 979.882324,727.260376 
z"/>
<path fill="#FEFDFC" opacity="1.000000" stroke="none" 
	d="
M980.839966,316.361145 
	C981.286499,296.025452 992.497559,282.983429 1014.354553,276.927368 
	C1022.668457,274.623749 1023.562622,273.625244 1023.084900,265.777588 
	C1022.989197,264.205261 1021.946411,262.519043 1020.928833,261.203613 
	C1016.090271,254.948578 1010.964478,248.910431 1006.272705,242.550339 
	C1004.971252,240.786026 1004.100098,238.134567 1004.246338,235.972336 
	C1004.825989,227.404373 1004.763367,218.559418 1007.013794,210.388641 
	C1011.170166,195.297241 1028.460815,185.602295 1044.090576,188.257416 
	C1061.223633,191.167908 1072.839844,204.226059 1073.106079,220.712921 
	C1073.159302,224.010010 1074.268433,227.379776 1073.836914,230.573639 
	C1073.210693,235.208313 1072.291382,240.030624 1070.302979,244.204071 
	C1066.792969,251.571167 1061.874023,257.946350 1055.094482,262.970490 
	C1051.630981,265.537048 1055.256836,274.260315 1059.702759,276.006653 
	C1066.329224,278.609558 1073.105713,281.083099 1079.251343,284.601776 
	C1089.933594,290.717804 1095.817993,300.176117 1096.190308,312.752411 
	C1096.244141,314.569824 1096.668701,316.376251 1096.940796,318.611572 
	C1079.121582,333.966187 1058.441772,340.873718 1035.343872,339.872528 
	C1015.333008,339.005157 997.606934,331.706360 982.289307,318.732910 
	C981.691589,318.226654 981.376465,317.386841 980.839966,316.361145 
z"/>
<path fill="#FDFDFE" opacity="1.000000" stroke="none" 
	d="
M574.958252,725.297241 
	C574.397827,702.330566 588.664429,690.261169 609.686951,684.238647 
	C614.706177,682.800781 617.457153,680.425476 617.485168,675.617859 
	C617.499390,673.181763 616.501587,670.066223 614.823914,668.409973 
	C607.404541,661.085327 599.599182,653.519775 598.802368,642.838501 
	C598.127808,633.795898 599.565552,624.317627 601.725342,615.435059 
	C603.282166,609.032532 608.480347,604.247742 614.474243,600.667175 
	C635.238770,588.262451 664.612793,599.228943 666.932495,627.460938 
	C667.310547,632.061890 667.831299,636.774475 667.259155,641.305908 
	C665.834106,652.592712 659.402832,661.284119 650.865173,668.195190 
	C647.666199,670.784607 647.696411,673.397522 648.137146,676.455688 
	C648.593201,679.620361 649.608704,682.380554 653.484558,683.397888 
	C663.091919,685.919800 671.852966,690.223267 679.352112,696.900391 
	C687.524841,704.177124 690.055237,713.802734 690.911133,724.581055 
	C683.958069,732.718384 674.876160,737.210144 665.495911,740.934326 
	C641.797302,750.343262 618.082031,749.315796 595.038757,738.946411 
	C587.836731,735.705444 581.679993,730.141357 574.958252,725.297241 
z"/>
<path fill="#FEFDFD" opacity="1.000000" stroke="none" 
	d="
M575.989258,317.253662 
	C576.468323,296.173859 587.533081,282.962524 609.620850,276.885681 
	C614.030273,275.672546 617.831421,274.359894 618.584961,269.002777 
	C619.082642,265.464752 618.638123,263.057556 615.544800,260.390594 
	C611.493103,256.897369 608.244263,252.311935 605.258423,247.794281 
	C602.854492,244.157181 599.868713,239.979614 599.715027,235.943848 
	C599.117371,220.245209 598.731323,204.146759 614.342102,194.036438 
	C625.931519,186.530518 638.252258,185.737320 650.374512,192.258224 
	C662.155029,198.595306 668.219971,208.836243 668.131958,222.466812 
	C668.102234,227.076248 669.381165,231.961227 668.251770,236.242767 
	C665.626709,246.194336 660.427368,254.984177 651.889160,261.124969 
	C649.142822,263.100128 648.749451,265.216614 649.262390,267.900116 
	C649.876709,271.113342 650.253967,274.355438 654.292542,275.750793 
	C660.240967,277.805969 666.198914,280.034393 671.780151,282.911774 
	C685.119324,289.788696 691.682800,301.087494 692.103577,316.462891 
	C684.198425,325.090027 674.339355,330.313812 663.747253,333.817780 
	C639.204590,341.936707 614.997986,341.017426 591.873352,328.796082 
	C586.232666,325.815002 581.381531,321.339874 575.989258,317.253662 
z"/>
<path fill="#FEFDFD" opacity="1.000000" stroke="none" 
	d="
M779.243774,515.600464 
	C779.888733,497.157196 791.272949,487.436676 806.655823,480.974701 
	C809.256165,479.882385 811.958374,478.951782 814.696289,478.288269 
	C818.098389,477.463745 820.550110,475.890015 820.895386,472.150085 
	C821.231812,468.505676 821.163208,465.537964 817.651672,462.558899 
	C799.821716,447.432709 797.237122,428.771912 806.669861,408.251373 
	C813.114502,394.231262 827.136841,389.284302 842.597961,391.608337 
	C858.816101,394.046143 868.625549,405.158813 870.162720,420.704865 
	C870.456848,423.678925 870.542053,426.676392 870.909363,429.640045 
	C872.714417,444.207123 864.622986,454.184631 854.943542,463.143158 
	C852.367920,465.526917 850.649231,467.196075 851.419617,470.943878 
	C852.233032,474.900665 853.658691,477.483856 858.002319,478.533875 
	C867.151978,480.745697 875.631714,484.559753 882.622803,491.099762 
	C889.520447,497.552246 893.341064,505.406555 893.224976,515.427856 
	C886.870850,520.713745 880.965088,526.433105 874.009338,530.227539 
	C861.773193,536.902466 848.372803,539.642700 834.260010,539.114990 
	C812.942261,538.317993 794.649597,530.781128 779.243774,515.600464 
z"/>
</svg>