<?xml version="1.0" encoding="UTF-8"?>
<svg xmlns="http://www.w3.org/2000/svg" xmlns:xlink="http://www.w3.org/1999/xlink" width="2000px" height="1000px" viewBox="0 0 2000 1000" version="1.1">
<g id="surface1">
<path style=" stroke:none;fill-rule:nonzero;fill:rgb(99.607843%,99.607843%,99.607843%);fill-opacity:1;" d="M 1193.910156 1001.128906 C 795.945312 1001.128906 398.535156 1001.128906 1.128906 1001.128906 C 1.128906 667.792969 1.128906 334.457031 1.128906 1.128906 C 667.792969 1.128906 1334.457031 1.128906 2001.128906 1.128906 C 2001.128906 334.457031 2001.128906 667.792969 2001.128906 1001.128906 C 1732.246094 1001.128906 1463.355469 1001.128906 1193.910156 1001.128906 M 1071.625 691.03125 C 1097.761719 697.730469 1124.105469 698.53125 1150.085938 691.199219 C 1196.898438 677.984375 1231.582031 649.957031 1252.007812 605.15625 C 1276.527344 551.367188 1266.417969 486.34375 1225.363281 443.863281 C 1183.691406 400.742188 1133.644531 385.757812 1075.402344 403.632812 C 1053.621094 410.316406 1035.421875 423.257812 1019.355469 439.253906 C 1016.523438 442.0625 1013.625 444.800781 1010.5 447.835938 C 1010.023438 446.570312 1009.789062 446.226562 1009.789062 445.890625 C 1009.71875 434.050781 1009.796875 422.21875 1009.589844 410.386719 C 1009.324219 395.722656 998.457031 384.597656 984.960938 384.894531 C 970.542969 385.222656 960.578125 395.445312 960.53125 410.40625 C 960.425781 444.609375 960.433594 478.804688 960.511719 513 C 960.539062 526.382812 970.785156 537.253906 984.253906 537.359375 C 1018.449219 537.621094 1052.644531 537.589844 1086.835938 537.332031 C 1100.898438 537.222656 1111.664062 526.070312 1111.664062 512.632812 C 1111.65625 497.847656 1099.199219 487.066406 1083 487.519531 C 1069.671875 487.882812 1056.335938 487.929688 1043.007812 488.074219 C 1041.511719 488.089844 1040.015625 487.785156 1037.019531 487.480469 C 1044.328125 480.621094 1050.15625 474.488281 1056.664062 469.183594 C 1085.792969 445.488281 1118.394531 438.75 1153.671875 452.324219 C 1207.167969 472.898438 1231.125 537.667969 1204.941406 589.402344 C 1178 642.625 1113.496094 661.605469 1059.417969 632.78125 C 1045.800781 625.519531 1034.78125 615.113281 1025.46875 602.8125 C 1016.761719 591.332031 1000.878906 588.972656 989.96875 597.351562 C 980.699219 604.46875 977.46875 620.582031 986.367188 632.058594 C 1008.492188 660.589844 1035.714844 681.128906 1071.625 691.03125 M 1256.394531 259.101562 C 1252.746094 258.382812 1249.105469 257.042969 1245.460938 257.042969 C 1092.886719 256.941406 940.324219 256.972656 787.757812 257.011719 C 785.339844 257.011719 782.84375 257.140625 780.515625 257.722656 C 768.554688 260.695312 760.261719 272.285156 761.765625 283.683594 C 763.671875 298.101562 773.355469 306.457031 788.398438 306.457031 C 940.398438 306.480469 1092.398438 306.480469 1244.40625 306.472656 C 1257.621094 306.472656 1267.496094 299.308594 1270.597656 287.621094 C 1273.550781 276.480469 1268.636719 266.152344 1256.394531 259.101562 M 872.039062 484.558594 C 876.921875 484.566406 881.8125 484.75 886.6875 484.527344 C 899.757812 483.925781 910.757812 472.105469 910.460938 459.175781 C 910.164062 446.441406 898.847656 435.273438 885.933594 435.25 C 852.683594 435.179688 819.441406 435.140625 786.203125 435.273438 C 772.347656 435.324219 762 446.296875 762.078125 460.34375 C 762.144531 473.832031 772.789062 484.519531 786.390625 484.550781 C 814.566406 484.605469 842.734375 484.566406 872.039062 484.558594 M 817.925781 611.078125 C 807.402344 611.085938 796.875 610.945312 786.363281 611.136719 C 771.996094 611.390625 761.894531 622.40625 762.085938 637.3125 C 762.253906 650.117188 773.292969 660.453125 786.925781 660.46875 C 818.304688 660.5 849.6875 660.507812 881.066406 660.476562 C 895.292969 660.46875 907.113281 649.511719 907.179688 636.367188 C 907.257812 622.421875 895.621094 611.089844 881.058594 611.070312 C 860.390625 611.023438 839.722656 611.070312 817.925781 611.078125 Z M 817.925781 611.078125 "/>
<path style=" stroke:none;fill-rule:nonzero;fill:rgb(98.039216%,42.352942%,56.470591%);fill-opacity:1;" d="M 1071.167969 690.957031 C 1035.714844 681.128906 1008.492188 660.589844 986.367188 632.058594 C 977.46875 620.582031 980.699219 604.46875 989.96875 597.351562 C 1000.878906 588.972656 1016.761719 591.332031 1025.46875 602.8125 C 1034.78125 615.113281 1045.800781 625.519531 1059.417969 632.78125 C 1113.496094 661.605469 1178 642.625 1204.941406 589.402344 C 1231.125 537.667969 1207.167969 472.898438 1153.671875 452.324219 C 1118.394531 438.75 1085.792969 445.488281 1056.664062 469.183594 C 1050.15625 474.488281 1044.328125 480.621094 1037.019531 487.480469 C 1040.015625 487.785156 1041.511719 488.089844 1043.007812 488.074219 C 1056.335938 487.929688 1069.671875 487.882812 1083 487.519531 C 1099.199219 487.066406 1111.65625 497.847656 1111.664062 512.632812 C 1111.664062 526.070312 1100.898438 537.222656 1086.835938 537.332031 C 1052.644531 537.589844 1018.449219 537.621094 984.253906 537.359375 C 970.785156 537.253906 960.539062 526.382812 960.511719 513 C 960.433594 478.804688 960.425781 444.609375 960.53125 410.40625 C 960.578125 395.445312 970.542969 385.222656 984.960938 384.894531 C 998.457031 384.597656 1009.324219 395.722656 1009.589844 410.386719 C 1009.796875 422.21875 1009.71875 434.050781 1009.789062 445.890625 C 1009.789062 446.226562 1010.023438 446.570312 1010.5 447.835938 C 1013.625 444.800781 1016.523438 442.0625 1019.355469 439.253906 C 1035.421875 423.257812 1053.621094 410.316406 1075.402344 403.632812 C 1133.644531 385.757812 1183.691406 400.742188 1225.363281 443.863281 C 1266.417969 486.34375 1276.527344 551.367188 1252.007812 605.15625 C 1231.582031 649.957031 1196.898438 677.984375 1150.085938 691.199219 C 1124.105469 698.53125 1097.761719 697.730469 1071.167969 690.957031 Z M 1071.167969 690.957031 "/>
<path style=" stroke:none;fill-rule:nonzero;fill:rgb(98.039216%,41.960785%,56.078434%);fill-opacity:1;" d="M 1256.789062 259.277344 C 1268.636719 266.152344 1273.550781 276.480469 1270.597656 287.621094 C 1267.496094 299.308594 1257.621094 306.472656 1244.40625 306.472656 C 1092.398438 306.480469 940.398438 306.480469 788.398438 306.457031 C 773.355469 306.457031 763.671875 298.101562 761.765625 283.683594 C 760.261719 272.285156 768.554688 260.695312 780.515625 257.722656 C 782.84375 257.140625 785.339844 257.011719 787.757812 257.011719 C 940.324219 256.972656 1092.886719 256.941406 1245.460938 257.042969 C 1249.105469 257.042969 1252.746094 258.382812 1256.789062 259.277344 Z M 1256.789062 259.277344 "/>
<path style=" stroke:none;fill-rule:nonzero;fill:rgb(98.039216%,42.352942%,56.470591%);fill-opacity:1;" d="M 871.476562 484.566406 C 842.734375 484.566406 814.566406 484.605469 786.390625 484.550781 C 772.789062 484.519531 762.144531 473.832031 762.078125 460.34375 C 762 446.296875 772.347656 435.324219 786.203125 435.273438 C 819.441406 435.140625 852.683594 435.179688 885.933594 435.25 C 898.847656 435.273438 910.164062 446.441406 910.460938 459.175781 C 910.757812 472.105469 899.757812 483.925781 886.6875 484.527344 C 881.8125 484.75 876.921875 484.566406 871.476562 484.566406 Z M 871.476562 484.566406 "/>
<path style=" stroke:none;fill-rule:nonzero;fill:rgb(98.039216%,42.745098%,56.862748%);fill-opacity:1;" d="M 818.488281 611.078125 C 839.722656 611.070312 860.390625 611.023438 881.058594 611.070312 C 895.621094 611.089844 907.257812 622.421875 907.179688 636.367188 C 907.113281 649.511719 895.292969 660.46875 881.066406 660.476562 C 849.6875 660.507812 818.304688 660.5 786.925781 660.46875 C 773.292969 660.453125 762.253906 650.117188 762.085938 637.3125 C 761.894531 622.40625 771.996094 611.390625 786.363281 611.136719 C 796.875 610.945312 807.402344 611.085938 818.488281 611.078125 Z M 818.488281 611.078125 "/>
</g>
</svg>
