<svg version="1.1" id="Layer_1" xmlns="http://www.w3.org/2000/svg" xmlns:xlink="http://www.w3.org/1999/xlink" x="0px" y="0px"
	 width="100%" viewBox="0 0 1122 1402" enable-background="new 0 0 1122 1402" xml:space="preserve">
<path fill="#FEFEFE" opacity="1.000000" stroke="none" 
	d="
M570.000000,1403.000000 
	C380.000000,1403.000000 190.500000,1403.000000 1.000000,1403.000000 
	C1.000000,935.666687 1.000000,468.333344 1.000000,1.000000 
	C375.000000,1.000000 749.000000,1.000000 1123.000000,1.000000 
	C1123.000000,468.333344 1123.000000,935.666687 1123.000000,1403.000000 
	C938.833313,1403.000000 754.666687,1403.000000 570.000000,1403.000000 
M225.292938,449.992249 
	C225.204544,450.660126 225.116135,451.328033 224.963074,452.760040 
	C224.684998,454.508148 224.406921,456.256287 224.006821,458.790131 
	C223.712799,460.860901 223.418777,462.931702 222.999100,465.660980 
	C222.998932,466.107330 222.998749,466.553650 222.901962,467.725433 
	C222.657990,469.150391 222.414001,470.575348 222.028168,472.741119 
	C222.016556,473.494080 222.004944,474.247040 221.905106,475.730743 
	C221.871567,476.464813 221.838043,477.198914 221.336761,478.592529 
	C220.920197,483.065887 220.503632,487.539246 219.642334,492.296112 
	C219.772095,492.862549 219.901840,493.428986 219.991516,494.909241 
	C218.092804,518.349487 218.972443,541.708801 221.609695,565.338501 
	C222.000732,565.964417 222.391785,566.590332 222.831436,567.972595 
	C222.888641,568.981750 222.945862,569.990845 222.583359,571.322144 
	C222.775070,571.872559 222.966797,572.422913 223.210999,573.771912 
	C223.621002,576.469910 224.031021,579.167908 224.246323,582.472900 
	C224.746796,583.062500 225.247284,583.652100 225.803528,584.927063 
	C225.832443,585.614075 225.861343,586.301025 225.499054,587.331726 
	C225.704605,587.881470 225.910156,588.431213 226.180389,589.747681 
	C227.081909,593.494385 227.983429,597.241028 228.500336,601.337402 
	C228.718155,601.882935 228.935974,602.428467 229.205048,603.736267 
	C231.759689,613.359985 233.949600,623.098694 236.938751,632.585510 
	C245.226303,658.888184 253.175308,685.327881 262.515594,711.260498 
	C272.824951,739.883667 283.835022,768.301208 295.789032,796.274536 
	C314.484344,840.022888 333.455109,883.688599 353.780670,926.693909 
	C369.492554,959.937561 386.913940,992.413574 404.553436,1024.696289 
	C429.930176,1071.139404 456.723358,1116.778442 487.939789,1159.632446 
	C501.839661,1178.714233 515.723206,1197.886963 533.897156,1213.295044 
	C551.067993,1227.852661 567.463623,1229.661743 585.417419,1215.683105 
	C595.815796,1207.587036 605.370422,1197.835571 613.374451,1187.354858 
	C630.213013,1165.306152 646.397583,1142.696289 661.739807,1119.579590 
	C693.983215,1070.996826 722.262085,1020.052734 748.672607,968.114990 
	C763.835938,938.295410 778.142212,908.017151 792.031616,877.579041 
	C805.287537,848.529297 817.883911,819.161804 830.056152,789.639526 
	C840.132751,765.200195 849.864441,740.572205 858.494812,715.594421 
	C869.999329,682.298096 880.958313,648.777222 890.817688,614.963867 
	C895.735840,598.096619 897.906006,580.401978 900.889465,563.007874 
	C902.398071,554.212097 903.903137,545.235352 903.744141,536.370300 
	C903.375549,515.822815 902.718079,495.225220 900.789490,474.778870 
	C899.291809,458.900757 896.438354,443.051117 892.887756,427.485291 
	C883.530701,386.463440 866.113708,348.864044 842.440186,314.164581 
	C818.842346,279.575836 789.811523,250.340622 755.255798,226.635864 
	C726.060059,206.607986 694.393738,191.814240 660.471130,181.760391 
	C634.571045,174.084229 608.088501,169.509415 581.166260,168.226608 
	C549.677673,166.726212 518.381592,168.907959 487.553131,176.045120 
	C466.143494,181.001694 444.995972,186.759537 424.292908,196.143951 
	C410.002502,203.527634 395.362091,210.312256 381.492554,218.416214 
	C349.895111,236.878540 323.326965,261.417664 299.729584,289.162018 
	C279.367279,313.102814 262.722198,339.581329 250.562881,368.537170 
	C243.392075,385.613495 238.249237,403.541473 231.701279,421.388000 
	C231.616074,421.922455 231.530869,422.456879 231.194443,423.773987 
	C231.048248,425.136810 230.902039,426.499603 230.230850,428.310852 
	C229.658737,430.546387 229.086639,432.781952 228.273544,435.671478 
	C228.236465,436.132690 228.199387,436.593872 227.596344,437.589203 
	C227.329590,439.990540 227.062836,442.391907 226.280853,444.983582 
	C226.191223,445.655090 226.101608,446.326569 225.956360,447.699707 
	C225.908218,448.401855 225.860077,449.104034 225.292938,449.992249 
z"/>
<path fill="#C79FF8" opacity="1.000000" stroke="none" 
	d="
M225.890259,586.988037 
	C225.861343,586.301025 225.832443,585.614075 225.830261,584.269409 
	C225.385010,583.029785 224.913010,582.447876 224.441010,581.865906 
	C224.031021,579.167908 223.621002,576.469910 223.395508,573.193848 
	C223.705872,572.083069 223.831726,571.550354 224.256836,570.735840 
	C225.650070,564.648376 226.883102,558.863647 227.762772,553.025696 
	C228.071869,550.974243 227.636826,548.774292 227.329926,546.673035 
	C226.270340,539.417664 224.632721,532.208008 224.150238,524.919006 
	C223.749619,518.866699 224.708160,512.729065 224.990738,506.625824 
	C225.474014,496.187744 222.711426,485.278442 229.898880,476.450562 
	C228.238464,474.981079 227.119232,473.990540 226.034607,472.653687 
	C228.264755,468.797455 230.720657,465.645447 236.609543,464.875214 
	C235.384903,468.491913 234.387222,471.169739 233.581055,473.904053 
	C232.937500,476.086823 232.136383,478.333527 232.108444,480.560669 
	C232.070084,483.620026 233.489502,484.656342 236.613861,482.995605 
	C240.152237,481.114777 242.792328,478.753815 244.012650,474.811646 
	C244.340973,473.750946 245.526108,472.324982 246.468292,472.200043 
	C249.635773,471.779816 249.960068,469.869385 250.054031,467.278015 
	C250.167221,464.156311 250.044617,460.783661 251.196747,458.006042 
	C252.511810,454.835632 252.726974,450.122711 257.934296,450.407471 
	C255.631592,468.361877 252.471344,485.846069 251.226578,503.465607 
	C249.655914,525.698486 251.056458,547.974365 255.199326,569.943665 
	C261.081543,601.136475 269.328766,631.748047 279.494843,661.792542 
	C295.424255,708.869934 312.514496,755.535217 332.524475,801.056519 
	C349.247803,839.101074 365.990570,877.149414 383.584930,914.794067 
	C394.502472,938.153015 406.757355,960.904724 418.903168,983.666870 
	C430.720825,1005.814087 442.769775,1027.857544 455.421875,1049.535400 
	C476.702423,1085.996948 499.455048,1121.540649 525.131958,1155.104858 
	C534.485718,1167.332031 543.658264,1179.770874 556.338928,1189.072021 
	C560.918152,1192.430908 564.505615,1192.052246 568.074524,1188.392822 
	C575.942261,1180.325562 584.601868,1172.804321 591.237061,1163.805786 
	C607.877197,1141.238525 624.087585,1118.314575 639.531189,1094.913696 
	C666.382141,1054.228394 690.407166,1011.801819 712.528137,968.413391 
	C733.378174,927.517822 753.416138,886.145447 772.048523,844.199890 
	C789.978760,803.835144 806.172241,762.669983 822.173279,721.485291 
	C838.894836,678.446045 853.652344,634.675903 863.536316,589.490173 
	C867.278625,572.381714 870.398315,554.963013 871.672485,537.530090 
	C873.490356,512.657471 872.295593,487.646820 867.727356,463.050140 
	C861.268799,428.276215 850.680420,394.841583 833.859009,363.507385 
	C815.733704,329.744232 792.584900,299.979858 763.441101,275.136627 
	C739.677551,254.879654 713.417725,238.509781 684.600220,226.106735 
	C646.372559,209.653503 606.390320,201.838608 565.054443,201.275711 
	C549.062073,201.057953 532.955200,203.069870 517.036255,205.120041 
	C494.786957,207.985519 473.123535,213.646484 452.046722,221.425293 
	C445.050873,224.007248 438.036743,226.539551 430.973419,228.738998 
	C425.654785,220.180145 420.393677,211.976822 415.132568,203.773499 
	C415.470184,203.359955 415.807800,202.946426 416.145416,202.532898 
	C420.857849,205.181076 425.453064,208.080643 430.337891,210.359268 
	C432.422729,211.331787 435.112122,211.008224 437.526794,211.273605 
	C437.344604,209.739731 437.735718,207.542053 436.872589,206.796600 
	C434.295105,204.570450 431.442291,202.242889 428.287292,201.225143 
	C425.209473,200.232300 424.914276,198.568085 424.997925,196.109573 
	C444.995972,186.759537 466.143494,181.001694 487.553131,176.045120 
	C518.381592,168.907959 549.677673,166.726212 581.166260,168.226608 
	C608.088501,169.509415 634.571045,174.084229 660.471130,181.760391 
	C694.393738,191.814240 726.060059,206.607986 755.255798,226.635864 
	C789.811523,250.340622 818.842346,279.575836 842.440186,314.164581 
	C866.113708,348.864044 883.530701,386.463440 892.887756,427.485291 
	C896.438354,443.051117 899.291809,458.900757 900.789490,474.778870 
	C902.718079,495.225220 903.375549,515.822815 903.744141,536.370300 
	C903.903137,545.235352 902.398071,554.212097 900.889465,563.007874 
	C897.906006,580.401978 895.735840,598.096619 890.817688,614.963867 
	C880.958313,648.777222 869.999329,682.298096 858.494812,715.594421 
	C849.864441,740.572205 840.132751,765.200195 830.056152,789.639526 
	C817.883911,819.161804 805.287537,848.529297 792.031616,877.579041 
	C778.142212,908.017151 763.835938,938.295410 748.672607,968.114990 
	C722.262085,1020.052734 693.983215,1070.996826 661.739807,1119.579590 
	C646.397583,1142.696289 630.213013,1165.306152 613.374451,1187.354858 
	C605.370422,1197.835571 595.815796,1207.587036 585.417419,1215.683105 
	C567.463623,1229.661743 551.067993,1227.852661 533.897156,1213.295044 
	C515.723206,1197.886963 501.839661,1178.714233 487.939789,1159.632446 
	C456.723358,1116.778442 429.930176,1071.139404 404.553436,1024.696289 
	C386.913940,992.413574 369.492554,959.937561 353.780670,926.693909 
	C333.455109,883.688599 314.484344,840.022888 295.789032,796.274536 
	C283.835022,768.301208 272.824951,739.883667 262.515594,711.260498 
	C253.175308,685.327881 245.226303,658.888184 236.938751,632.585510 
	C233.949600,623.098694 231.759689,613.359985 229.376312,603.186096 
	C229.326706,602.086548 229.105835,601.537109 228.884964,600.987732 
	C227.983429,597.241028 227.081909,593.494385 226.353256,589.200317 
	C226.314163,588.097961 226.102203,587.543030 225.890259,586.988037 
z"/>
<path fill="#C69DF8" opacity="1.000000" stroke="none" 
	d="
M424.645416,196.126770 
	C424.914276,198.568085 425.209473,200.232300 428.287292,201.225143 
	C431.442291,202.242889 434.295105,204.570450 436.872589,206.796600 
	C437.735718,207.542053 437.344604,209.739731 437.526794,211.273605 
	C435.112122,211.008224 432.422729,211.331787 430.337891,210.359268 
	C425.453064,208.080643 420.857849,205.181076 416.145416,202.532898 
	C415.807800,202.946426 415.470184,203.359955 415.132568,203.773499 
	C420.393677,211.976822 425.654785,220.180145 430.798279,229.030441 
	C428.122955,230.795715 425.565247,231.914001 422.970154,232.672699 
	C420.289978,230.054230 417.647125,227.795364 415.004242,225.536499 
	C414.125641,226.580215 412.288025,228.060745 412.530792,228.593674 
	C413.722443,231.209869 415.467102,233.574158 416.806030,236.295563 
	C412.668396,238.731644 408.730255,240.880081 404.815765,243.070847 
	C386.490143,253.326828 369.515869,265.564789 354.028839,279.658020 
	C333.183655,298.627106 314.940430,319.882507 300.236542,344.083069 
	C289.239441,362.182800 279.472961,380.899780 272.645844,400.932800 
	C267.141663,417.083862 262.790161,433.627747 257.927277,449.997345 
	C252.726974,450.122711 252.511810,454.835632 251.196747,458.006042 
	C250.044617,460.783661 250.167221,464.156311 250.054031,467.278015 
	C249.960068,469.869385 249.635773,471.779816 246.468292,472.200043 
	C245.526108,472.324982 244.340973,473.750946 244.012650,474.811646 
	C242.792328,478.753815 240.152237,481.114777 236.613861,482.995605 
	C233.489502,484.656342 232.070084,483.620026 232.108444,480.560669 
	C232.136383,478.333527 232.937500,476.086823 233.581055,473.904053 
	C234.387222,471.169739 235.384903,468.491913 236.609543,464.875214 
	C230.720657,465.645447 228.264755,468.797455 225.700165,472.624268 
	C224.277420,472.627533 223.223724,472.313904 222.170013,472.000305 
	C222.414001,470.575348 222.657990,469.150391 223.244629,467.325989 
	C223.915176,466.621216 224.243027,466.315857 224.570892,466.010498 
	C224.088837,465.674500 223.606796,465.338501 223.124756,465.002472 
	C223.418777,462.931702 223.712799,460.860901 224.459229,458.395905 
	C231.017502,458.781128 231.194611,453.567596 233.361664,449.962616 
	C236.181992,448.726624 238.640671,447.528015 242.191223,445.797150 
	C237.711136,443.286346 239.074265,436.836090 232.674225,437.027710 
	C230.953064,437.055298 229.557693,437.055176 228.162323,437.055084 
	C228.199387,436.593872 228.236465,436.132690 228.733643,435.322754 
	C233.304794,433.392120 232.590149,430.750244 230.755859,427.862427 
	C230.902039,426.499603 231.048248,425.136810 231.552856,423.334351 
	C232.005630,422.291931 232.099991,421.689178 232.194351,421.086426 
	C238.249237,403.541473 243.392075,385.613495 250.562881,368.537170 
	C262.722198,339.581329 279.367279,313.102814 299.729584,289.162018 
	C323.326965,261.417664 349.895111,236.878540 381.492554,218.416214 
	C395.362091,210.312256 410.002502,203.527634 424.645416,196.126770 
z"/>
<path fill="#C7A0F8" opacity="1.000000" stroke="none" 
	d="
M222.099091,472.370697 
	C223.223724,472.313904 224.277420,472.627533 225.665558,472.970581 
	C227.119232,473.990540 228.238464,474.981079 229.898880,476.450562 
	C222.711426,485.278442 225.474014,496.187744 224.990738,506.625824 
	C224.708160,512.729065 223.749619,518.866699 224.150238,524.919006 
	C224.632721,532.208008 226.270340,539.417664 227.329926,546.673035 
	C227.636826,548.774292 228.071869,550.974243 227.762772,553.025696 
	C226.883102,558.863647 225.650070,564.648376 224.018463,570.731323 
	C223.480820,571.008667 223.003067,571.000000 223.003067,571.000000 
	C222.945862,569.990845 222.888641,568.981750 222.861816,567.276489 
	C222.605865,566.055115 222.319534,565.529846 222.033218,565.004578 
	C218.972443,541.708801 218.092804,518.349487 220.225830,494.307404 
	C220.335800,493.141235 220.211426,492.576935 220.087067,492.012604 
	C220.503632,487.539246 220.920197,483.065887 221.931534,478.256561 
	C223.202866,477.212921 223.879425,476.505219 224.556000,475.797516 
	C223.701782,475.531677 222.847565,475.265839 221.993347,475.000000 
	C222.004944,474.247040 222.016556,473.494080 222.099091,472.370697 
z"/>
<path fill="#C7A0F8" opacity="1.000000" stroke="none" 
	d="
M233.000000,450.000000 
	C231.194611,453.567596 231.017502,458.781128 224.520233,458.003052 
	C224.406921,456.256287 224.684998,454.508148 225.243591,452.186890 
	C225.620041,451.011230 225.715988,450.408722 225.811935,449.806183 
	C225.860077,449.104034 225.908218,448.401855 226.235474,447.157349 
	C226.608429,446.007751 226.702255,445.400513 226.796082,444.793243 
	C227.062836,442.391907 227.329590,439.990540 227.879333,437.322144 
	C229.557693,437.055176 230.953064,437.055298 232.674286,437.448730 
	C233.000107,441.894684 233.000046,445.947357 233.000000,450.000000 
z"/>
<path fill="#C7A0F8" opacity="1.000000" stroke="none" 
	d="
M230.493347,428.086639 
	C232.590149,430.750244 233.304794,433.392120 228.854156,434.995728 
	C229.086639,432.781952 229.658737,430.546387 230.493347,428.086639 
z"/>
<path fill="#C69DF8" opacity="1.000000" stroke="none" 
	d="
M221.949219,475.365356 
	C222.847565,475.265839 223.701782,475.531677 224.556000,475.797516 
	C223.879425,476.505219 223.202866,477.212921 222.165405,477.926788 
	C221.838043,477.198914 221.871567,476.464813 221.949219,475.365356 
z"/>
<path fill="#C7A0F8" opacity="1.000000" stroke="none" 
	d="
M223.061920,465.331726 
	C223.606796,465.338501 224.088837,465.674500 224.570892,466.010498 
	C224.243027,466.315857 223.915176,466.621216 223.292938,466.963287 
	C222.998749,466.553650 222.998932,466.107330 223.061920,465.331726 
z"/>
<path fill="#C7A0F8" opacity="1.000000" stroke="none" 
	d="
M231.947815,421.237213 
	C232.099991,421.689178 232.005630,422.291931 231.678467,422.942993 
	C231.530869,422.456879 231.616074,421.922455 231.947815,421.237213 
z"/>
<path fill="#D9C1FA" opacity="1.000000" stroke="none" 
	d="
M219.864700,492.154358 
	C220.211426,492.576935 220.335800,493.141235 220.245880,493.850494 
	C219.901840,493.428986 219.772095,492.862549 219.864700,492.154358 
z"/>
<path fill="#D9C1FA" opacity="1.000000" stroke="none" 
	d="
M221.821457,565.171509 
	C222.319534,565.529846 222.605865,566.055115 222.837524,566.898315 
	C222.391785,566.590332 222.000732,565.964417 221.821457,565.171509 
z"/>
<path fill="#D9C1FA" opacity="1.000000" stroke="none" 
	d="
M222.793213,571.161072 
	C223.003067,571.000000 223.480820,571.008667 223.719208,571.013184 
	C223.831726,571.550354 223.705872,572.083069 223.369263,572.794556 
	C222.966797,572.422913 222.775070,571.872559 222.793213,571.161072 
z"/>
<path fill="#D9C1FA" opacity="1.000000" stroke="none" 
	d="
M224.343658,582.169434 
	C224.913010,582.447876 225.385010,583.029785 225.802368,583.926636 
	C225.247284,583.652100 224.746796,583.062500 224.343658,582.169434 
z"/>
<path fill="#D9C1FA" opacity="1.000000" stroke="none" 
	d="
M225.694656,587.159912 
	C226.102203,587.543030 226.314163,588.097961 226.320923,588.816956 
	C225.910156,588.431213 225.704605,587.881470 225.694656,587.159912 
z"/>
<path fill="#D9C1FA" opacity="1.000000" stroke="none" 
	d="
M228.692657,601.162598 
	C229.105835,601.537109 229.326706,602.086548 229.350677,602.804932 
	C228.935974,602.428467 228.718155,601.882935 228.692657,601.162598 
z"/>
<path fill="#D9C1FA" opacity="1.000000" stroke="none" 
	d="
M225.552429,449.899231 
	C225.715988,450.408722 225.620041,451.011230 225.275909,451.804840 
	C225.116135,451.328033 225.204544,450.660126 225.552429,449.899231 
z"/>
<path fill="#D9C1FA" opacity="1.000000" stroke="none" 
	d="
M226.538483,444.888428 
	C226.702255,445.400513 226.608429,446.007751 226.263290,446.806549 
	C226.101608,446.326569 226.191223,445.655090 226.538483,444.888428 
z"/>
<path fill="#E7D2FD" opacity="1.000000" stroke="none" 
	d="
M423.007507,233.032288 
	C425.565247,231.914001 428.122955,230.795715 430.855835,229.385986 
	C438.036743,226.539551 445.050873,224.007248 452.046722,221.425293 
	C473.123535,213.646484 494.786957,207.985519 517.036255,205.120041 
	C532.955200,203.069870 549.062073,201.057953 565.054443,201.275711 
	C606.390320,201.838608 646.372559,209.653503 684.600220,226.106735 
	C713.417725,238.509781 739.677551,254.879654 763.441101,275.136627 
	C792.584900,299.979858 815.733704,329.744232 833.859009,363.507385 
	C850.680420,394.841583 861.268799,428.276215 867.727356,463.050140 
	C872.295593,487.646820 873.490356,512.657471 871.672485,537.530090 
	C870.398315,554.963013 867.278625,572.381714 863.536316,589.490173 
	C853.652344,634.675903 838.894836,678.446045 822.173279,721.485291 
	C806.172241,762.669983 789.978760,803.835144 772.048523,844.199890 
	C753.416138,886.145447 733.378174,927.517822 712.528137,968.413391 
	C690.407166,1011.801819 666.382141,1054.228394 639.531189,1094.913696 
	C624.087585,1118.314575 607.877197,1141.238525 591.237061,1163.805786 
	C584.601868,1172.804321 575.942261,1180.325562 568.074524,1188.392822 
	C564.505615,1192.052246 560.918152,1192.430908 556.338928,1189.072021 
	C543.658264,1179.770874 534.485718,1167.332031 525.131958,1155.104858 
	C499.455048,1121.540649 476.702423,1085.996948 455.421875,1049.535400 
	C442.769775,1027.857544 430.720825,1005.814087 418.903168,983.666870 
	C406.757355,960.904724 394.502472,938.153015 383.584930,914.794067 
	C365.990570,877.149414 349.247803,839.101074 332.524475,801.056519 
	C312.514496,755.535217 295.424255,708.869934 279.494843,661.792542 
	C269.328766,631.748047 261.081543,601.136475 255.199326,569.943665 
	C251.056458,547.974365 249.655914,525.698486 251.226578,503.465607 
	C252.471344,485.846069 255.631592,468.361877 257.934296,450.407471 
	C262.790161,433.627747 267.141663,417.083862 272.645844,400.932800 
	C279.472961,380.899780 289.239441,362.182800 300.236542,344.083069 
	C314.940430,319.882507 333.183655,298.627106 354.028839,279.658020 
	C369.515869,265.564789 386.490143,253.326828 404.815765,243.070847 
	C408.730255,240.880081 412.668396,238.731644 417.150330,236.254639 
	C419.472534,234.974487 421.240021,234.003387 423.007507,233.032288 
M346.273987,659.562805 
	C350.519470,666.041382 354.826111,672.481140 358.982330,679.016479 
	C360.812073,681.893677 362.335846,684.965576 363.729004,688.598083 
	C360.992065,691.055359 362.180725,693.398560 364.114929,695.497131 
	C373.321869,705.486450 382.276428,715.735352 391.905640,725.303284 
	C413.623260,746.882812 439.064636,763.000366 467.136993,775.046204 
	C496.821808,787.783997 527.898926,794.155151 560.126099,793.786743 
	C573.977112,793.628357 587.891296,791.955872 601.624390,789.935669 
	C633.319702,785.273193 662.221130,772.892212 689.388245,756.292358 
	C714.723633,740.811523 736.558411,721.265869 755.232056,698.219666 
	C771.658508,677.946899 784.887329,655.712952 794.917175,631.630066 
	C805.365906,606.541504 812.084045,580.520630 815.266479,553.451843 
	C817.748596,532.339050 817.559021,511.314117 814.714417,490.418793 
	C810.377197,458.559235 800.490723,428.394165 784.675049,400.226746 
	C769.509705,373.217590 751.087830,348.987640 727.934387,328.163757 
	C703.381287,306.080994 675.879578,288.971649 645.171875,277.389069 
	C610.887268,264.457367 575.313599,259.522736 538.574097,262.829620 
	C518.257751,264.658264 498.576294,268.986725 479.422058,275.511719 
	C444.267822,287.487213 413.657837,307.156647 386.891296,332.760223 
	C372.078857,346.929047 359.394775,362.929871 348.267090,380.151794 
	C322.971802,419.300323 308.572540,462.200409 305.197876,508.599457 
	C303.628845,530.172729 305.465668,551.791443 309.318146,573.067017 
	C314.074493,599.334595 322.811554,624.407166 334.292145,648.506775 
	C336.335571,652.796326 338.567688,656.995972 340.808807,661.427124 
	C342.978668,660.382996 344.461151,659.669617 346.273987,659.562805 
M602.661560,923.996094 
	C602.100403,923.686523 601.541565,923.111633 600.977844,923.106873 
	C591.985596,923.030334 582.992188,923.073120 574.000183,922.980591 
	C570.973633,922.949463 571.014954,924.868347 571.020996,926.982483 
	C571.044067,935.090881 571.128540,943.201050 570.986511,951.307007 
	C570.926636,954.726562 572.179016,956.102173 575.657715,956.031921 
	C583.315735,955.877441 590.984619,955.808105 598.637634,956.057312 
	C602.330688,956.177490 603.104431,954.665161 603.032837,951.362488 
	C602.841370,942.539795 602.928772,933.711060 602.661560,923.996094 
M520.020508,930.582153 
	C520.022827,937.566162 520.108582,944.551636 519.989685,951.533569 
	C519.935730,954.698425 521.117432,956.098206 524.364990,956.015808 
	C529.516479,955.885071 534.673828,955.981506 539.828674,955.983765 
	C551.463440,955.988953 551.416504,955.990967 551.051636,944.610107 
	C550.945496,941.298096 551.127747,937.971619 551.296326,934.657776 
	C551.421875,932.189087 551.691711,929.724609 551.981567,927.268127 
	C552.359497,924.065186 551.129272,922.832275 547.796143,922.930847 
	C540.818176,923.137268 533.829956,922.993774 526.845947,922.995056 
	C520.045532,922.996399 520.045532,922.997009 520.020508,930.582153 
z"/>
<path fill="#C79FF8" opacity="1.000000" stroke="none" 
	d="
M422.970154,232.672699 
	C421.240021,234.003387 419.472534,234.974487 417.360748,235.986511 
	C415.467102,233.574158 413.722443,231.209869 412.530792,228.593674 
	C412.288025,228.060745 414.125641,226.580215 415.004242,225.536499 
	C417.647125,227.795364 420.289978,230.054230 422.970154,232.672699 
z"/>
<path fill="#C79FF8" opacity="1.000000" stroke="none" 
	d="
M233.361664,449.962616 
	C233.000046,445.947357 233.000107,441.894684 233.000076,437.421021 
	C239.074265,436.836090 237.711136,443.286346 242.191223,445.797150 
	C238.640671,447.528015 236.181992,448.726624 233.361664,449.962616 
z"/>
<path fill="#C7A0F8" opacity="1.000000" stroke="none" 
	d="
M345.943634,658.956238 
	C344.461151,659.669617 342.978668,660.382996 340.808807,661.427124 
	C338.567688,656.995972 336.335571,652.796326 334.292145,648.506775 
	C322.811554,624.407166 314.074493,599.334595 309.318146,573.067017 
	C305.465668,551.791443 303.628845,530.172729 305.197876,508.599457 
	C308.572540,462.200409 322.971802,419.300323 348.267090,380.151794 
	C359.394775,362.929871 372.078857,346.929047 386.891296,332.760223 
	C413.657837,307.156647 444.267822,287.487213 479.422058,275.511719 
	C498.576294,268.986725 518.257751,264.658264 538.574097,262.829620 
	C575.313599,259.522736 610.887268,264.457367 645.171875,277.389069 
	C675.879578,288.971649 703.381287,306.080994 727.934387,328.163757 
	C751.087830,348.987640 769.509705,373.217590 784.675049,400.226746 
	C800.490723,428.394165 810.377197,458.559235 814.714417,490.418793 
	C817.559021,511.314117 817.748596,532.339050 815.266479,553.451843 
	C812.084045,580.520630 805.365906,606.541504 794.917175,631.630066 
	C784.887329,655.712952 771.658508,677.946899 755.232056,698.219666 
	C736.558411,721.265869 714.723633,740.811523 689.388245,756.292358 
	C662.221130,772.892212 633.319702,785.273193 601.624390,789.935669 
	C587.891296,791.955872 573.977112,793.628357 560.126099,793.786743 
	C527.898926,794.155151 496.821808,787.783997 467.136993,775.046204 
	C439.064636,763.000366 413.623260,746.882812 391.905640,725.303284 
	C382.276428,715.735352 373.321869,705.486450 364.114929,695.497131 
	C362.180725,693.398560 360.992065,691.055359 364.209473,688.233887 
	C368.142731,685.272156 371.595520,682.674683 375.361481,679.943115 
	C378.882202,677.550781 382.089691,675.292419 385.402740,672.959778 
	C386.831421,674.427612 388.162048,675.487854 389.113037,676.819275 
	C398.756775,690.320740 410.495789,701.830566 423.008362,712.603455 
	C444.220673,730.866638 468.348358,744.129456 494.870331,752.664734 
	C521.815979,761.336365 549.449768,764.782532 577.913391,762.243225 
	C603.763489,759.937134 628.287476,753.375916 651.493042,742.120667 
	C684.443542,726.138977 712.630859,704.141663 734.958008,674.786133 
	C764.413147,636.058716 781.530823,592.702271 785.541138,544.058960 
	C785.882751,543.322266 785.966614,542.662415 786.044373,541.538025 
	C786.055237,533.304138 786.240112,525.530701 786.057983,517.765991 
	C785.496948,493.841125 780.530579,470.764679 772.671082,448.211609 
	C762.460693,418.912567 746.823120,392.784271 726.131287,369.842926 
	C701.859985,342.932922 673.122314,322.050110 639.242859,308.629913 
	C619.845093,300.946198 599.826050,295.807037 578.852417,293.819580 
	C578.138489,293.713165 577.564941,293.829102 576.578735,293.893982 
	C575.031799,293.599335 573.904541,293.183838 572.762329,293.137756 
	C552.250732,292.311249 531.911072,293.987091 511.942871,298.636749 
	C492.968231,303.055023 474.843842,309.900818 457.558777,319.075958 
	C429.682617,333.872894 405.849487,353.533600 386.525818,378.352905 
	C365.347137,405.554779 349.890137,435.856354 342.441650,469.647827 
	C338.888214,485.768341 336.618927,502.291595 335.348633,518.754395 
	C334.476074,530.062927 335.971619,541.614258 337.036682,552.998352 
	C338.713135,570.917419 342.899109,588.383972 349.210846,605.193848 
	C353.700012,617.149719 359.355835,628.673706 364.663818,640.311584 
	C366.014557,643.273193 366.650299,645.301819 362.982727,647.131714 
	C360.063812,648.588013 357.610138,650.976929 354.608429,653.011230 
	C351.492493,655.032532 348.718079,656.994385 345.943634,658.956238 
z"/>
<path fill="#FDFCFE" opacity="1.000000" stroke="none" 
	d="
M602.783447,924.440430 
	C602.928772,933.711060 602.841370,942.539795 603.032837,951.362488 
	C603.104431,954.665161 602.330688,956.177490 598.637634,956.057312 
	C590.984619,955.808105 583.315735,955.877441 575.657715,956.031921 
	C572.179016,956.102173 570.926636,954.726562 570.986511,951.307007 
	C571.128540,943.201050 571.044067,935.090881 571.020996,926.982483 
	C571.014954,924.868347 570.973633,922.949463 574.000183,922.980591 
	C582.992188,923.073120 591.985596,923.030334 600.977844,923.106873 
	C601.541565,923.111633 602.100403,923.686523 602.783447,924.440430 
z"/>
<path fill="#FDFCFE" opacity="1.000000" stroke="none" 
	d="
M520.020874,930.095642 
	C520.045532,922.997009 520.045532,922.996399 526.845947,922.995056 
	C533.829956,922.993774 540.818176,923.137268 547.796143,922.930847 
	C551.129272,922.832275 552.359497,924.065186 551.981567,927.268127 
	C551.691711,929.724609 551.421875,932.189087 551.296326,934.657776 
	C551.127747,937.971619 550.945496,941.298096 551.051636,944.610107 
	C551.416504,955.990967 551.463440,955.988953 539.828674,955.983765 
	C534.673828,955.981506 529.516479,955.885071 524.364990,956.015808 
	C521.117432,956.098206 519.935730,954.698425 519.989685,951.533569 
	C520.108582,944.551636 520.022827,937.566162 520.020874,930.095642 
z"/>
<path fill="#FDFCFE" opacity="1.000000" stroke="none" 
	d="
M346.108826,659.259521 
	C348.718079,656.994385 351.492493,655.032532 354.886780,653.213013 
	C361.887848,662.359619 365.290100,673.542419 375.048279,680.077148 
	C371.595520,682.674683 368.142731,685.272156 364.344238,687.909363 
	C362.335846,684.965576 360.812073,681.893677 358.982330,679.016479 
	C354.826111,672.481140 350.519470,666.041382 346.108826,659.259521 
z"/>
<path fill="#F5ECFD" opacity="1.000000" stroke="none" 
	d="
M375.361481,679.943115 
	C365.290100,673.542419 361.887848,662.359619 355.228302,653.153564 
	C357.610138,650.976929 360.063812,648.588013 362.982727,647.131714 
	C366.650299,645.301819 366.014557,643.273193 364.663818,640.311584 
	C359.355835,628.673706 353.700012,617.149719 349.210846,605.193848 
	C342.899109,588.383972 338.713135,570.917419 337.036682,552.998352 
	C335.971619,541.614258 334.476074,530.062927 335.348633,518.754395 
	C336.618927,502.291595 338.888214,485.768341 342.441650,469.647827 
	C349.890137,435.856354 365.347137,405.554779 386.525818,378.352905 
	C405.849487,353.533600 429.682617,333.872894 457.558777,319.075958 
	C474.843842,309.900818 492.968231,303.055023 511.942871,298.636749 
	C531.911072,293.987091 552.250732,292.311249 572.762329,293.137756 
	C573.904541,293.183838 575.031799,293.599335 576.716980,294.126068 
	C577.842896,294.286804 578.417786,294.164337 578.992737,294.041901 
	C599.826050,295.807037 619.845093,300.946198 639.242859,308.629913 
	C673.122314,322.050110 701.859985,342.932922 726.131287,369.842926 
	C746.823120,392.784271 762.460693,418.912567 772.671082,448.211609 
	C780.530579,470.764679 785.496948,493.841125 786.057983,517.765991 
	C786.240112,525.530701 786.055237,533.304138 785.790710,541.718872 
	C785.456543,542.954712 785.369934,543.545227 785.283325,544.135742 
	C781.530823,592.702271 764.413147,636.058716 734.958008,674.786133 
	C712.630859,704.141663 684.443542,726.138977 651.493042,742.120667 
	C628.287476,753.375916 603.763489,759.937134 577.913391,762.243225 
	C549.449768,764.782532 521.815979,761.336365 494.870331,752.664734 
	C468.348358,744.129456 444.220673,730.866638 423.008362,712.603455 
	C410.495789,701.830566 398.756775,690.320740 389.113037,676.819275 
	C388.162048,675.487854 386.831421,674.427612 385.402740,672.959778 
	C382.089691,675.292419 378.882202,677.550781 375.361481,679.943115 
M575.500000,607.908386 
	C584.630920,607.649109 593.777771,607.636353 602.887207,607.045654 
	C609.182434,606.637451 611.001648,604.148071 611.004272,597.617188 
	C611.023071,551.316162 611.036316,505.015106 611.039062,458.714050 
	C611.039551,450.812958 608.444580,448.113739 600.641357,448.103302 
	C572.494263,448.065674 544.347229,448.065460 516.200134,448.094940 
	C509.233246,448.102234 505.941345,451.488861 505.937469,458.540405 
	C505.919861,490.684662 505.928833,522.828918 505.925049,554.973206 
	C505.923340,569.629639 505.955780,584.286316 505.884186,598.942444 
	C505.861145,603.660339 507.759308,606.585510 512.630493,607.164551 
	C514.930054,607.437866 517.234802,607.868042 519.538391,607.875427 
	C537.858765,607.934143 556.179443,607.908386 575.500000,607.908386 
M637.984497,512.500000 
	C637.987610,518.999634 637.989075,525.499268 637.994202,531.998901 
	C638.001892,541.720459 640.207397,543.916321 650.138611,543.929504 
	C667.803650,543.953003 685.468689,543.930542 703.133728,543.948669 
	C704.904846,543.950500 706.675842,544.099976 708.941467,544.203552 
	C708.941467,553.789917 708.770569,562.920898 709.021851,572.040344 
	C709.128967,575.928284 708.028259,577.206604 703.997192,577.156494 
	C687.168152,576.947021 670.334656,577.042053 653.503235,577.121887 
	C650.700317,577.135193 647.895325,577.589355 645.098877,577.905945 
	C640.267517,578.452942 638.241394,581.580627 638.027832,586.057068 
	C637.853271,589.715271 637.983337,593.388062 637.978027,597.054382 
	C637.966309,605.193970 640.425659,607.851929 648.676941,607.879028 
	C674.840881,607.964905 701.005371,607.948059 727.169495,607.901855 
	C733.567932,607.890564 736.990967,604.389648 736.998779,598.052979 
	C737.029114,573.388672 737.043518,548.724304 737.016174,524.059998 
	C737.007812,516.549744 734.357605,513.984009 726.687195,513.971863 
	C708.355652,513.942688 690.023926,513.969604 671.692322,513.949219 
	C669.936340,513.947266 668.180481,513.772461 666.041992,513.657349 
	C666.041992,503.120331 666.245789,493.136444 665.946411,483.167664 
	C665.818359,478.905182 667.255920,477.878906 671.331299,477.923615 
	C690.160706,478.130310 708.993530,478.054626 727.825012,478.015747 
	C734.157043,478.002686 736.901245,475.216675 737.014893,468.875183 
	C737.080566,465.210114 737.094177,461.541321 737.009216,457.877014 
	C736.860352,451.457825 733.480164,448.104706 726.986328,448.095154 
	C700.988831,448.056854 674.991089,448.048004 648.993652,448.103027 
	C641.234985,448.119446 638.022583,451.363983 638.005249,459.005035 
	C637.965515,476.503265 637.987610,494.001678 637.984497,512.500000 
M379.984650,525.486816 
	C379.983276,527.485352 379.984985,529.483826 379.979950,531.482361 
	C379.953156,542.090759 381.793823,543.943726 392.396515,543.948547 
	C410.218872,543.956787 428.042206,544.057068 445.862854,543.885925 
	C449.674744,543.849365 451.288208,544.724487 451.003326,548.848938 
	C450.477112,556.466370 450.132111,564.116272 450.209778,571.747559 
	C450.251099,575.806519 449.178223,577.197571 444.928436,577.144043 
	C427.775238,576.928162 410.617401,577.047668 393.461609,577.123901 
	C391.159576,577.134094 388.841858,577.499084 386.562531,577.884216 
	C382.292236,578.605530 380.271149,581.563293 380.060699,585.559937 
	C379.798370,590.542603 379.512939,595.622498 380.230408,600.514771 
	C380.565491,602.799500 382.840546,605.419556 384.956177,606.648926 
	C387.068390,607.876465 390.082581,607.882751 392.697235,607.863525 
	C418.153778,607.676697 443.609344,607.359802 469.065491,607.108765 
	C476.394531,607.036499 478.956329,604.576843 478.962158,597.273254 
	C478.981476,573.121460 478.979889,548.969666 478.963715,524.817871 
	C478.958618,517.191589 475.727692,514.010315 467.955353,513.997620 
	C449.966461,513.968262 431.977539,513.978333 413.988617,513.972595 
	C412.210724,513.972046 410.432861,513.972534 408.356201,513.972534 
	C408.356201,501.771942 408.356201,490.223755 408.356201,478.039917 
	C410.459106,478.039917 412.238403,478.040283 414.017670,478.039886 
	C429.508118,478.036499 444.998932,477.967712 460.488953,478.047699 
	C476.228790,478.128937 479.547638,480.062408 479.010498,459.448883 
	C478.795135,451.184174 475.874695,448.110809 467.417297,448.096771 
	C442.099609,448.054718 416.781830,448.050232 391.464142,448.083557 
	C383.104492,448.094543 379.986084,451.244781 379.980133,459.531342 
	C379.964630,481.184662 379.981293,502.838013 379.984650,525.486816 
z"/>
<path fill="#D9C1FA" opacity="1.000000" stroke="none" 
	d="
M785.541138,544.058960 
	C785.369934,543.545227 785.456543,542.954712 785.796814,542.183350 
	C785.966614,542.662415 785.882751,543.322266 785.541138,544.058960 
z"/>
<path fill="#E7D2FD" opacity="1.000000" stroke="none" 
	d="
M578.852417,293.819580 
	C578.417786,294.164337 577.842896,294.286804 577.129639,294.177185 
	C577.564941,293.829102 578.138489,293.713165 578.852417,293.819580 
z"/>
<path fill="#C6A0F8" opacity="1.000000" stroke="none" 
	d="
M575.000000,607.908447 
	C556.179443,607.908386 537.858765,607.934143 519.538391,607.875427 
	C517.234802,607.868042 514.930054,607.437866 512.630493,607.164551 
	C507.759308,606.585510 505.861145,603.660339 505.884186,598.942444 
	C505.955780,584.286316 505.923340,569.629639 505.925049,554.973206 
	C505.928833,522.828918 505.919861,490.684662 505.937469,458.540405 
	C505.941345,451.488861 509.233246,448.102234 516.200134,448.094940 
	C544.347229,448.065460 572.494263,448.065674 600.641357,448.103302 
	C608.444580,448.113739 611.039551,450.812958 611.039062,458.714050 
	C611.036316,505.015106 611.023071,551.316162 611.004272,597.617188 
	C611.001648,604.148071 609.182434,606.637451 602.887207,607.045654 
	C593.777771,607.636353 584.630920,607.649109 575.000000,607.908447 
M533.946777,564.489136 
	C533.941467,566.988892 534.122803,569.506409 533.887329,571.984253 
	C533.530823,575.736572 534.596924,577.275757 538.784546,577.186401 
	C551.777283,576.909180 564.782532,576.929382 577.776550,577.173218 
	C581.917114,577.250916 583.137512,576.037964 583.113281,571.862244 
	C582.939697,542.033081 583.016418,512.202515 582.989441,482.372375 
	C582.988342,481.096588 582.750549,479.820953 582.599670,478.311615 
	C580.844727,478.206726 579.382019,478.045410 577.919006,478.043427 
	C564.920410,478.025696 551.919250,478.179749 538.924683,477.951538 
	C534.980164,477.882294 533.828918,479.022308 533.853943,483.000854 
	C534.022522,509.830292 533.944519,536.661255 533.946777,564.489136 
z"/>
<path fill="#C7A1F8" opacity="1.000000" stroke="none" 
	d="
M637.984558,512.000000 
	C637.987610,494.001678 637.965515,476.503265 638.005249,459.005035 
	C638.022583,451.363983 641.234985,448.119446 648.993652,448.103027 
	C674.991089,448.048004 700.988831,448.056854 726.986328,448.095154 
	C733.480164,448.104706 736.860352,451.457825 737.009216,457.877014 
	C737.094177,461.541321 737.080566,465.210114 737.014893,468.875183 
	C736.901245,475.216675 734.157043,478.002686 727.825012,478.015747 
	C708.993530,478.054626 690.160706,478.130310 671.331299,477.923615 
	C667.255920,477.878906 665.818359,478.905182 665.946411,483.167664 
	C666.245789,493.136444 666.041992,503.120331 666.041992,513.657349 
	C668.180481,513.772461 669.936340,513.947266 671.692322,513.949219 
	C690.023926,513.969604 708.355652,513.942688 726.687195,513.971863 
	C734.357605,513.984009 737.007812,516.549744 737.016174,524.059998 
	C737.043518,548.724304 737.029114,573.388672 736.998779,598.052979 
	C736.990967,604.389648 733.567932,607.890564 727.169495,607.901855 
	C701.005371,607.948059 674.840881,607.964905 648.676941,607.879028 
	C640.425659,607.851929 637.966309,605.193970 637.978027,597.054382 
	C637.983337,593.388062 637.853271,589.715271 638.027832,586.057068 
	C638.241394,581.580627 640.267517,578.452942 645.098877,577.905945 
	C647.895325,577.589355 650.700317,577.135193 653.503235,577.121887 
	C670.334656,577.042053 687.168152,576.947021 703.997192,577.156494 
	C708.028259,577.206604 709.128967,575.928284 709.021851,572.040344 
	C708.770569,562.920898 708.941467,553.789917 708.941467,544.203552 
	C706.675842,544.099976 704.904846,543.950500 703.133728,543.948669 
	C685.468689,543.930542 667.803650,543.953003 650.138611,543.929504 
	C640.207397,543.916321 638.001892,541.720459 637.994202,531.998901 
	C637.989075,525.499268 637.987610,518.999634 637.984558,512.000000 
z"/>
<path fill="#C7A0F8" opacity="1.000000" stroke="none" 
	d="
M379.984894,524.989075 
	C379.981293,502.838013 379.964630,481.184662 379.980133,459.531342 
	C379.986084,451.244781 383.104492,448.094543 391.464142,448.083557 
	C416.781830,448.050232 442.099609,448.054718 467.417297,448.096771 
	C475.874695,448.110809 478.795135,451.184174 479.010498,459.448883 
	C479.547638,480.062408 476.228790,478.128937 460.488953,478.047699 
	C444.998932,477.967712 429.508118,478.036499 414.017670,478.039886 
	C412.238403,478.040283 410.459106,478.039917 408.356201,478.039917 
	C408.356201,490.223755 408.356201,501.771942 408.356201,513.972534 
	C410.432861,513.972534 412.210724,513.972046 413.988617,513.972595 
	C431.977539,513.978333 449.966461,513.968262 467.955353,513.997620 
	C475.727692,514.010315 478.958618,517.191589 478.963715,524.817871 
	C478.979889,548.969666 478.981476,573.121460 478.962158,597.273254 
	C478.956329,604.576843 476.394531,607.036499 469.065491,607.108765 
	C443.609344,607.359802 418.153778,607.676697 392.697235,607.863525 
	C390.082581,607.882751 387.068390,607.876465 384.956177,606.648926 
	C382.840546,605.419556 380.565491,602.799500 380.230408,600.514771 
	C379.512939,595.622498 379.798370,590.542603 380.060699,585.559937 
	C380.271149,581.563293 382.292236,578.605530 386.562531,577.884216 
	C388.841858,577.499084 391.159576,577.134094 393.461609,577.123901 
	C410.617401,577.047668 427.775238,576.928162 444.928436,577.144043 
	C449.178223,577.197571 450.251099,575.806519 450.209778,571.747559 
	C450.132111,564.116272 450.477112,556.466370 451.003326,548.848938 
	C451.288208,544.724487 449.674744,543.849365 445.862854,543.885925 
	C428.042206,544.057068 410.218872,543.956787 392.396515,543.948547 
	C381.793823,543.943726 379.953156,542.090759 379.979950,531.482361 
	C379.984985,529.483826 379.983276,527.485352 379.984894,524.989075 
z"/>
<path fill="#F5ECFD" opacity="1.000000" stroke="none" 
	d="
M533.946533,563.990417 
	C533.944519,536.661255 534.022522,509.830292 533.853943,483.000854 
	C533.828918,479.022308 534.980164,477.882294 538.924683,477.951538 
	C551.919250,478.179749 564.920410,478.025696 577.919006,478.043427 
	C579.382019,478.045410 580.844727,478.206726 582.599670,478.311615 
	C582.750549,479.820953 582.988342,481.096588 582.989441,482.372375 
	C583.016418,512.202515 582.939697,542.033081 583.113281,571.862244 
	C583.137512,576.037964 581.917114,577.250916 577.776550,577.173218 
	C564.782532,576.929382 551.777283,576.909180 538.784546,577.186401 
	C534.596924,577.275757 533.530823,575.736572 533.887329,571.984253 
	C534.122803,569.506409 533.941467,566.988892 533.946533,563.990417 
z"/>
</svg>